<svg width="180" height="140" viewBox="0 0 180 140" fill="none" xmlns="http://www.w3.org/2000/svg">
<g clip-path="url(#clip0)">
<path d="M84.386 1.56355C75.1862 3.86769 67.0715 10.0192 59.0058 18.0894C61.6602 20.4219 63.2637 23.6625 63.4739 27.1192C63.6841 30.5759 62.4844 33.9749 60.1309 36.5906C57.7775 39.2062 54.4567 40.8313 50.8775 41.1188C47.2983 41.4063 43.7443 40.3335 40.9743 38.1294C31.5001 49.0411 21.1551 60.5766 8.52896 70.1105C-23.6191 94.3856 42.4913 138.657 84.386 138.657C126.281 138.657 160.243 107.968 160.243 70.1105C160.243 32.2531 124.759 -8.54801 84.386 1.56355Z" fill="#F2F2F2"/>
<path d="M96.196 140C142.48 140 180 137.622 180 134.689C180 131.756 142.48 129.378 96.196 129.378C49.9123 129.378 12.392 131.756 12.392 134.689C12.392 137.622 49.9123 140 96.196 140Z" fill="#3F3D56"/>
<path opacity="0.1" d="M98.5439 137.214C114.504 137.214 127.442 135.889 127.442 134.254C127.442 132.619 114.504 131.294 98.5439 131.294C82.584 131.294 69.646 132.619 69.646 134.254C69.646 135.889 82.584 137.214 98.5439 137.214Z" fill="black"/>
<path d="M169.297 128.77C169.297 133.867 166.154 135.646 162.277 135.646C162.188 135.646 162.098 135.645 162.009 135.643C161.829 135.639 161.651 135.631 161.475 135.619C157.976 135.381 155.258 133.51 155.258 128.77C155.258 123.865 161.759 117.676 162.248 117.216L162.249 117.216C162.268 117.198 162.277 117.189 162.277 117.189C162.277 117.189 169.297 123.673 169.297 128.77Z" fill="#FF8552"/>
<path d="M162.022 134.866L164.589 131.408L162.015 135.246L162.009 135.643C161.829 135.639 161.651 135.631 161.475 135.619L161.752 130.521L161.75 130.481L161.754 130.474L161.781 129.992L159.2 126.144L161.788 129.63L161.795 129.733L162.003 125.88L159.795 121.904L162.031 125.204L162.248 117.216L162.249 117.189V117.216L162.213 123.514L164.412 121.017L162.204 124.057L162.146 127.506L164.199 124.196L162.137 128.014L162.105 129.932L165.085 125.324L162.093 130.601L162.022 134.866Z" fill="#3F3D56"/>
<path d="M86.1146 41.8829C90.8789 41.8829 94.7411 38.1593 94.7411 33.5659C94.7411 28.9726 90.8789 25.249 86.1146 25.249C81.3503 25.249 77.488 28.9726 77.488 33.5659C77.488 38.1593 81.3503 41.8829 86.1146 41.8829Z" fill="#2F2E41"/>
<path d="M105.971 107.056L110.581 124.98L115.192 124.263L110.581 103.758L105.971 107.056Z" fill="#A0616A"/>
<path d="M112.217 123.833C112.217 123.833 109.591 124.689 109.938 125.265C110.284 125.841 110.284 129.426 109.094 130.716C107.904 132.007 104.929 136.022 108.35 136.165C111.771 136.309 115.192 134.158 115.192 134.158V130.429L115.787 133.871H116.382V129.999C116.382 129.999 117.869 127.561 116.977 126.127C116.084 124.694 115.503 123.444 114.381 123.567C113.258 123.69 112.217 123.833 112.217 123.833Z" fill="#2F2E41"/>
<path d="M87.8249 122.256L87.0814 126.127H92.287V122.256H87.8249Z" fill="#A0616A"/>
<path d="M88.2713 125.267C88.2713 125.267 86.7839 125.124 86.3377 127.131C85.8915 129.139 81.8757 132.007 80.3884 132.437C78.901 132.867 78.901 134.301 80.8346 134.588C82.7681 134.874 87.6763 135.018 88.8662 133.441C89.674 132.412 90.6249 131.495 91.6921 130.716L90.9485 134.731H92.2871C92.2871 134.731 93.4769 130.859 94.6668 129.569C95.8567 128.278 92.2871 125.267 91.6921 125.267H88.2713Z" fill="#2F2E41"/>
<path d="M80.9833 63.6072C80.9833 63.6072 79.9422 66.3317 78.1574 66.7619C76.3726 67.1921 63.1353 70.2034 63.1353 70.2034C63.1353 70.2034 51.5341 70.4902 55.1037 72.9279C58.6733 75.3656 64.4739 72.9279 64.4739 72.9279C64.4739 72.9279 81.4295 70.9203 82.7681 68.7694C83.6493 67.3056 84.3958 65.7702 84.9991 64.1808L80.9833 63.6072Z" fill="#A0616A"/>
<path d="M86.6351 51.562C86.6351 51.562 78.1573 64.8977 79.1985 65.1845C80.2396 65.4713 89.9073 68.4826 90.3535 67.3355C90.7997 66.1883 90.7997 60.8827 90.7997 60.8827L86.6351 51.562Z" fill="#2F2E41"/>
<path opacity="0.1" d="M86.6351 51.562C86.6351 51.562 78.1573 64.8977 79.1985 65.1845C80.2396 65.4713 89.9073 68.4826 90.3535 67.3355C90.7997 66.1883 90.7997 60.8827 90.7997 60.8827L86.6351 51.562Z" fill="black"/>
<path d="M108.648 48.4073L127.834 57.8714C127.834 57.8714 138.692 60.5959 136.312 62.7468C133.933 64.8977 126.198 60.8827 126.198 60.8827L104.929 51.562L108.648 48.4073Z" fill="#A0616A"/>
<path d="M84.1067 40.9507C84.1067 40.9507 87.825 46.3997 87.5276 47.6903C87.5276 47.6903 87.825 48.5506 87.3788 49.1242C86.9326 49.6978 87.0814 53.1393 87.0814 53.1393L88.5687 55.1468L90.5023 48.9808L91.3947 42.3847C91.3947 42.3847 89.3868 39.7319 89.6842 38.4413C89.9817 37.1507 84.1067 40.9507 84.1067 40.9507Z" fill="#A0616A"/>
<path d="M95.8566 71.9241C95.8566 71.9241 87.5275 93.4333 87.5275 102.897C87.5275 112.361 84.4041 123.116 86.7839 124.12C89.1636 125.124 101.211 125.267 101.508 124.12C101.806 122.973 100.021 76.3693 99.1287 74.5052C98.2363 72.6411 95.8566 71.9241 95.8566 71.9241Z" fill="#2F2E41"/>
<path opacity="0.1" d="M95.8566 71.9241C95.8566 71.9241 87.5275 93.4333 87.5275 102.897C87.5275 112.361 84.4041 123.116 86.7839 124.12C89.1636 125.124 101.211 125.267 101.508 124.12C101.806 122.973 100.021 76.3693 99.1287 74.5052C98.2363 72.6411 95.8566 71.9241 95.8566 71.9241Z" fill="black"/>
<path d="M86.0402 41.8111C89.0795 41.8111 91.5433 39.4357 91.5433 36.5055C91.5433 33.5753 89.0795 31.1999 86.0402 31.1999C83.0009 31.1999 80.537 33.5753 80.537 36.5055C80.537 39.4357 83.0009 41.8111 86.0402 41.8111Z" fill="#A0616A"/>
<path d="M87.6763 52.5658L87.278 49.3297C87.278 49.3297 86.0403 50.9885 86.0403 52.279C86.0403 53.5696 85.2966 58.1582 88.42 61.0261C91.5434 63.894 92.1383 64.4676 92.2871 65.0412C92.4358 65.6147 93.1795 65.6148 93.1795 65.6148L97.4927 82.392C97.4927 82.392 98.8313 126.988 100.914 127.561C102.996 128.135 109.391 127.561 109.838 126.844C110.284 126.127 109.094 107.056 109.094 107.056C109.094 107.056 112.366 123.977 113.556 123.977C114.746 123.977 115.489 121.539 115.192 121.395C114.895 121.252 113.11 110.211 112.366 106.769C111.622 103.328 111.92 74.2184 111.92 74.2184C111.92 74.2184 114.3 70.4902 106.119 63.177C106.119 63.177 100.914 48.5507 100.616 48.5507C100.319 48.5507 94.5181 40.664 94.5181 40.664C94.5181 40.664 91.2459 40.664 90.651 42.5281C90.0561 44.3923 87.6763 52.5658 87.6763 52.5658Z" fill="#2F2E41"/>
<path d="M92.7332 41.8111L94.518 40.6639C94.518 40.6639 101.955 44.9658 107.16 45.2526C112.366 45.5394 112.217 48.4073 110.135 50.4148C108.053 52.4223 99.8724 59.3053 99.575 57.5845C99.2775 55.8638 92.7332 41.8111 92.7332 41.8111Z" fill="#2F2E41"/>
<path d="M86.1146 34.713C89.4004 34.713 92.064 33.1722 92.064 31.2716C92.064 29.3709 89.4004 27.8301 86.1146 27.8301C82.8289 27.8301 80.1653 29.3709 80.1653 31.2716C80.1653 33.1722 82.8289 34.713 86.1146 34.713Z" fill="#2F2E41"/>
<path d="M86.7096 28.6905C88.681 28.6905 90.2792 27.1497 90.2792 25.249C90.2792 23.3484 88.681 21.8076 86.7096 21.8076C84.7381 21.8076 83.14 23.3484 83.14 25.249C83.14 27.1497 84.7381 28.6905 86.7096 28.6905Z" fill="#2F2E41"/>
<path d="M81.9501 23.3848C81.9502 22.5342 82.277 21.7137 82.8675 21.0816C83.458 20.4495 84.2704 20.0507 85.1479 19.962C85.0244 19.9496 84.9002 19.9434 84.776 19.9434C83.8298 19.944 82.9225 20.3069 82.2536 20.9522C81.5847 21.5975 81.209 22.4725 81.209 23.3848C81.209 24.2972 81.5847 25.1721 82.2536 25.8175C82.9225 26.4628 83.8298 26.8257 84.776 26.8263C84.9002 26.8263 85.0244 26.8201 85.1479 26.8077C84.2704 26.719 83.458 26.3202 82.8675 25.6881C82.277 25.056 81.9502 24.2355 81.9501 23.3848Z" fill="#2F2E41"/>
<path d="M134.63 59.5107L55.9984 72.2612L63.7219 116.534L142.354 103.784L134.63 59.5107Z" fill="#3F3D56"/>
<path opacity="0.3" d="M123.524 74.1063L71.3031 82.4814C71.164 82.5037 71.0216 82.4994 70.8842 82.4686C70.7468 82.4379 70.617 82.3814 70.5023 82.3023C70.3875 82.2233 70.29 82.1232 70.2154 82.0078C70.1408 81.8924 70.0904 81.7639 70.0673 81.6298C70.0441 81.4956 70.0486 81.3584 70.0805 81.2259C70.1124 81.0934 70.171 80.9683 70.253 80.8577C70.335 80.747 70.4388 80.6531 70.5585 80.5811C70.6782 80.5092 70.8115 80.4606 70.9506 80.4383L123.171 72.0632C123.452 72.0185 123.74 72.0831 123.972 72.2428C124.203 72.4026 124.359 72.6443 124.406 72.915C124.453 73.1857 124.386 73.4632 124.221 73.6866C124.055 73.9099 123.805 74.0609 123.524 74.1063Z" fill="#FF8552"/>
<path d="M109.119 79.6568C111.577 79.6568 113.569 77.736 113.569 75.3666C113.569 72.9972 111.577 71.0764 109.119 71.0764C106.662 71.0764 104.67 72.9972 104.67 75.3666C104.67 77.736 106.662 79.6568 109.119 79.6568Z" fill="#FF8552"/>
<path opacity="0.3" d="M125.463 85.343L73.2419 93.7181C73.1027 93.7404 72.9604 93.7361 72.823 93.7054C72.6856 93.6747 72.5558 93.6181 72.441 93.5391C72.3263 93.46 72.2288 93.3599 72.1542 93.2445C72.0795 93.1291 72.0292 93.0007 72.0061 92.8665C71.9829 92.7324 71.9874 92.5951 72.0193 92.4627C72.0511 92.3302 72.1098 92.2051 72.1918 92.0944C72.2738 91.9838 72.3776 91.8898 72.4973 91.8179C72.617 91.7459 72.7502 91.6974 72.8894 91.6751L125.11 83.3C125.391 83.2553 125.679 83.3199 125.91 83.4796C126.142 83.6393 126.298 83.8811 126.345 84.1518C126.391 84.4225 126.325 84.7 126.159 84.9233C125.994 85.1467 125.743 85.2976 125.463 85.343Z" fill="#FF8552"/>
<path d="M87.4453 94.6805C89.9029 94.6805 91.8952 92.7597 91.8952 90.3903C91.8952 88.0209 89.9029 86.1002 87.4453 86.1002C84.9877 86.1002 82.9954 88.0209 82.9954 90.3903C82.9954 92.7597 84.9877 94.6805 87.4453 94.6805Z" fill="#FF8552"/>
<path opacity="0.3" d="M127.402 96.5797L75.1808 104.955C75.0417 104.977 74.8993 104.973 74.7619 104.942C74.6245 104.911 74.4947 104.855 74.3799 104.776C74.1482 104.616 73.9917 104.374 73.945 104.103C73.8982 103.832 73.965 103.555 74.1307 103.331C74.2963 103.108 74.5473 102.957 74.8283 102.912L127.049 94.5367C127.188 94.5141 127.331 94.5183 127.468 94.5489C127.606 94.5796 127.736 94.636 127.851 94.7151C127.966 94.7942 128.063 94.8943 128.138 95.0098C128.213 95.1252 128.263 95.2538 128.286 95.388C128.309 95.5223 128.305 95.6596 128.273 95.7922C128.241 95.9248 128.182 96.05 128.1 96.1607C128.018 96.2713 127.914 96.3653 127.794 96.4372C127.674 96.5091 127.541 96.5575 127.402 96.5797Z" fill="#FF8552"/>
<path d="M105.58 103.32C108.038 103.32 110.03 101.399 110.03 99.0296C110.03 96.6602 108.038 94.7394 105.58 94.7394C103.123 94.7394 101.13 96.6602 101.13 99.0296C101.13 101.399 103.123 103.32 105.58 103.32Z" fill="#FF8552"/>
<path d="M49.7351 37.3536C55.153 37.3536 59.5451 33.1192 59.5451 27.8957C59.5451 22.6723 55.153 18.4379 49.7351 18.4379C44.3172 18.4379 39.9251 22.6723 39.9251 27.8957C39.9251 33.1192 44.3172 37.3536 49.7351 37.3536Z" fill="#FF6584"/>
</g>
<defs>
<clipPath id="clip0">
<rect width="180" height="140" fill="white"/>
</clipPath>
</defs>
</svg>
