<svg width="180" height="179" viewBox="0 0 180 179" fill="none" xmlns="http://www.w3.org/2000/svg">
<g clip-path="url(#clip0)">
<path d="M180 161.187C180 166.62 139.706 179 90 179C40.2944 179 0 166.62 0 161.187C0 155.754 40.2944 159.326 90 159.326C139.706 159.326 180 155.754 180 161.187Z" fill="#3F3D56"/>
<path opacity="0.1" d="M180 161.187C180 166.62 139.706 179 90 179C40.2944 179 0 166.62 0 161.187C0 155.754 40.2944 159.326 90 159.326C139.706 159.326 180 155.754 180 161.187Z" fill="black"/>
<path d="M25.6311 88.8717C27.7222 88.8717 29.4175 87.3242 29.4175 85.4154C29.4175 83.5066 27.7222 81.9592 25.6311 81.9592C23.5399 81.9592 21.8447 83.5066 21.8447 85.4154C21.8447 87.3242 23.5399 88.8717 25.6311 88.8717Z" fill="#FF8552"/>
<path d="M42.233 117.319C44.3242 117.319 46.0194 115.772 46.0194 113.863C46.0194 111.954 44.3242 110.407 42.233 110.407C40.1418 110.407 38.4466 111.954 38.4466 113.863C38.4466 115.772 40.1418 117.319 42.233 117.319Z" fill="#FF8552"/>
<path d="M29.4175 110.141C31.5087 110.141 33.2039 108.594 33.2039 106.685C33.2039 104.776 31.5087 103.228 29.4175 103.228C27.3263 103.228 25.6311 104.776 25.6311 106.685C25.6311 108.594 27.3263 110.141 29.4175 110.141Z" fill="#FF8552"/>
<path d="M30.6252 155.743C30.5583 155.643 28.9823 153.241 28.4359 148.253C27.9347 143.676 28.257 135.963 32.6395 125.203C40.9422 104.818 30.7262 88.3713 30.6218 88.2075L31.1258 87.9406C31.1522 87.9822 33.7884 92.1755 35.3457 98.8528C37.4033 107.705 36.6541 116.91 33.1857 125.388C24.8972 145.737 31.0592 155.37 31.1224 155.465L30.6252 155.743Z" fill="#CFCCE0"/>
<path d="M27.3786 87.2765C26.5721 87.2765 25.7837 87.0582 25.1131 86.6492C24.4426 86.2402 23.9199 85.6589 23.6113 84.9788C23.3027 84.2987 23.2219 83.5503 23.3793 82.8282C23.5366 82.1062 23.925 81.443 24.4952 80.9225C25.0655 80.4019 25.7921 80.0474 26.5831 79.9038C27.3741 79.7602 28.1939 79.8339 28.939 80.1156C29.6841 80.3973 30.321 80.8744 30.769 81.4865C31.2171 82.0986 31.4563 82.8182 31.4563 83.5544C31.455 84.5412 31.025 85.4873 30.2606 86.1851C29.4961 86.8829 28.4597 87.2754 27.3786 87.2765V87.2765ZM27.3786 80.364C26.6873 80.364 26.0116 80.5511 25.4368 80.9017C24.862 81.2522 24.414 81.7505 24.1495 82.3335C23.8849 82.9164 23.8157 83.5579 23.9506 84.1768C24.0855 84.7957 24.4183 85.3641 24.9071 85.8103C25.3959 86.2565 26.0187 86.5604 26.6967 86.6835C27.3747 86.8066 28.0775 86.7434 28.7161 86.5019C29.3548 86.2604 29.9006 85.8515 30.2847 85.3269C30.6687 84.8022 30.8737 84.1854 30.8737 83.5544C30.8727 82.7085 30.5041 81.8976 29.8489 81.2995C29.1936 80.7014 28.3052 80.365 27.3786 80.364V80.364Z" fill="#CFCCE0"/>
<path d="M39.3204 99.7722C41.4116 99.7722 43.1068 98.2248 43.1068 96.3159C43.1068 94.4071 41.4116 92.8597 39.3204 92.8597C37.2292 92.8597 35.534 94.4071 35.534 96.3159C35.534 98.2248 37.2292 99.7722 39.3204 99.7722Z" fill="#CFCCE0"/>
<path d="M31.1651 108.546C30.3586 108.546 29.5702 108.327 28.8996 107.918C28.2291 107.509 27.7064 106.928 27.3978 106.248C27.0892 105.568 27.0084 104.819 27.1658 104.097C27.3231 103.375 27.7115 102.712 28.2817 102.192C28.852 101.671 29.5786 101.317 30.3696 101.173C31.1606 101.029 31.9804 101.103 32.7255 101.385C33.4706 101.666 34.1075 102.144 34.5555 102.756C35.0036 103.368 35.2427 104.087 35.2427 104.824C35.2415 105.81 34.8115 106.757 34.0471 107.454C33.2826 108.152 32.2462 108.545 31.1651 108.546ZM31.1651 101.633C30.4738 101.633 29.798 101.82 29.2233 102.171C28.6485 102.521 28.2005 103.02 27.936 103.603C27.6714 104.186 27.6022 104.827 27.7371 105.446C27.8719 106.065 28.2048 106.633 28.6936 107.08C29.1824 107.526 29.8052 107.83 30.4832 107.953C31.1612 108.076 31.8639 108.013 32.5026 107.771C33.1412 107.53 33.6871 107.121 34.0712 106.596C34.4552 106.071 34.6602 105.455 34.6602 104.824C34.6592 103.978 34.2906 103.167 33.6354 102.569C32.9801 101.971 32.0917 101.634 31.1651 101.633V101.633Z" fill="#CFCCE0"/>
<path d="M41.068 115.724C40.2615 115.724 39.4731 115.506 38.8025 115.097C38.132 114.688 37.6093 114.106 37.3007 113.426C36.9921 112.746 36.9113 111.998 37.0686 111.276C37.226 110.554 37.6143 109.891 38.1846 109.37C38.7549 108.849 39.4815 108.495 40.2725 108.351C41.0634 108.208 41.8833 108.281 42.6284 108.563C43.3735 108.845 44.0104 109.322 44.4584 109.934C44.9065 110.546 45.1456 111.266 45.1456 112.002C45.1444 112.989 44.7144 113.935 43.95 114.633C43.1855 115.33 42.1491 115.723 41.068 115.724V115.724ZM41.068 108.812C40.3767 108.812 39.7009 108.999 39.1262 109.349C38.5514 109.7 38.1034 110.198 37.8389 110.781C37.5743 111.364 37.5051 112.005 37.64 112.624C37.7748 113.243 38.1077 113.812 38.5965 114.258C39.0853 114.704 39.7081 115.008 40.3861 115.131C41.0641 115.254 41.7668 115.191 42.4055 114.949C43.0442 114.708 43.59 114.299 43.9741 113.774C44.3581 113.25 44.5631 112.633 44.5631 112.002C44.5621 111.156 44.1935 110.345 43.5383 109.747C42.883 109.149 41.9946 108.813 41.068 108.812Z" fill="#CFCCE0"/>
<path d="M28.2525 126.625C30.3436 126.625 32.0389 125.077 32.0389 123.168C32.0389 121.259 30.3436 119.712 28.2525 119.712C26.1613 119.712 24.4661 121.259 24.4661 123.168C24.4661 125.077 26.1613 126.625 28.2525 126.625Z" fill="#CFCCE0"/>
<path d="M32.9126 155.87C32.9126 155.87 29.1262 147.362 40.4854 140.981L32.9126 155.87Z" fill="#CFCCE0"/>
<path d="M28.2559 155.715C28.2559 155.715 26.5327 146.668 13.1952 146.746L28.2559 155.715Z" fill="#CFCCE0"/>
<path d="M164.953 159.06H100.504C100.504 159.06 99.1976 141.57 106.927 141.372C114.657 141.173 113.786 149.123 123.475 138.192C133.164 127.261 144.921 127.857 146.445 134.316C147.97 140.775 143.506 145.943 151.671 144.353C159.836 142.763 171.594 146.937 164.953 159.06Z" fill="#FF8552"/>
<path d="M131.64 159.064L131.423 159.056C131.93 147.541 134.572 140.142 136.699 135.964C139.009 131.426 141.234 129.589 141.256 129.571L141.401 129.72C141.379 129.738 139.18 131.556 136.889 136.063C134.773 140.224 132.146 147.592 131.64 159.064Z" fill="#F2F2F2"/>
<path d="M154.966 159.088L154.757 159.032C157.274 151.147 163.201 146.168 163.261 146.119L163.407 146.266C163.348 146.315 157.465 151.258 154.966 159.088Z" fill="#F2F2F2"/>
<path d="M110.655 159.074L110.439 159.046C111.293 153.425 109.751 149.063 108.306 146.394C106.742 143.505 104.958 141.926 104.94 141.911L105.091 141.767C105.109 141.783 106.921 143.386 108.501 146.306C109.959 149 111.516 153.402 110.655 159.074Z" fill="#F2F2F2"/>
<path d="M173.7 159.326H93.5526L93.5341 159.078C93.488 158.462 92.4656 143.92 97.6275 138.731C98.7815 137.571 100.172 136.962 101.759 136.922C105.124 136.834 107.238 137.985 108.944 138.908C112.158 140.649 114.282 141.799 122.003 133.088C130.367 123.651 139.392 121.621 144.58 122.75C147.932 123.479 150.243 125.541 150.919 128.407C151.559 131.12 151.355 133.67 151.191 135.718C151.016 137.91 150.878 139.642 151.864 140.426C152.687 141.081 154.33 141.141 157.035 140.614C162.537 139.542 170.213 140.459 174.066 145.003C176.139 147.448 177.772 151.892 173.78 159.179L173.7 159.326ZM94.0995 158.794H173.339C176.313 153.286 176.406 148.632 173.605 145.329C170.071 141.16 162.655 140.063 157.157 141.134C154.218 141.706 152.467 141.612 151.481 140.827C150.275 139.868 150.423 138.02 150.61 135.68C150.772 133.665 150.972 131.158 150.35 128.519C149.723 125.861 147.57 123.947 144.445 123.267C139.423 122.173 130.65 124.178 122.456 133.422C114.418 142.49 111.997 141.18 108.647 139.365C106.92 138.431 104.96 137.371 101.775 137.453C100.352 137.49 99.1021 138.04 98.0588 139.089C93.4195 143.752 93.9859 156.828 94.0995 158.794Z" fill="#CFCCE0"/>
<path d="M90 171.024C139.706 171.024 180 166.62 180 161.187C180 155.754 139.706 151.35 90 151.35C40.2944 151.35 0 155.754 0 161.187C0 166.62 40.2944 171.024 90 171.024Z" fill="#3F3D56"/>
<path d="M91.979 32.5017C91.979 32.5017 87.4796 31.0349 84.5871 36.9021C81.6947 42.7694 77.1953 49.2233 77.1953 49.2233L79.7663 49.8101C79.7663 49.8101 80.4091 45.703 82.016 45.1163L81.3733 50.3968C81.3733 50.3968 100.656 56.5574 109.334 49.8101L109.012 47.7565C109.012 47.7565 110.298 48.0499 110.298 49.8101L111.262 48.93C111.262 48.93 110.298 47.1698 107.406 44.8229C105.507 43.2825 104.855 40.3519 104.63 38.5196C104.462 36.9897 103.792 35.5418 102.707 34.3658C100.784 32.3324 97.2819 30.1711 91.979 32.5017Z" fill="#2F2E41"/>
<path d="M87.233 55.5056L82.5728 50.1883L79.0777 39.2878L92.4757 26.2604C92.4757 26.2604 95.3884 16.1575 92.767 16.6892C90.1456 17.221 89.5631 24.6652 89.5631 24.6652L72.6699 36.6291C72.6699 36.6291 74.4175 53.3786 79.369 59.2277L83.1554 70.1282L87.233 55.5056Z" fill="#FFB9B9"/>
<path d="M100.049 55.5056L104.709 50.1883L108.204 39.2878L94.8058 26.2604C94.8058 26.2604 91.8932 16.1575 94.5145 16.6892C97.1359 17.221 97.7184 24.6652 97.7184 24.6652L114.612 36.6291C114.612 36.6291 112.864 53.3786 107.913 59.2277L104.126 70.1282L100.049 55.5056Z" fill="#FFB9B9"/>
<path d="M93.6408 50.9859C97.8232 50.9859 101.214 47.8911 101.214 44.0734C101.214 40.2558 97.8232 37.1609 93.6408 37.1609C89.4585 37.1609 86.068 40.2558 86.068 44.0734C86.068 47.8911 89.4585 50.9859 93.6408 50.9859Z" fill="#FFB9B9"/>
<path d="M90.1456 47.7955C90.1456 47.7955 90.4369 53.3787 88.6893 55.2398C86.9417 57.1008 85.1942 66.672 93.6408 66.9379C102.087 67.2037 101.214 58.9619 101.214 58.9619L99.466 54.4422C99.466 54.4422 96.8447 50.9859 97.7185 47.7955H90.1456Z" fill="#FFB9B9"/>
<path d="M82.2816 109.742L88.5437 111.47C88.5437 111.47 93.6408 108.679 93.6408 111.337C93.6408 113.996 91.8932 117.452 92.4757 119.845C93.0583 122.238 94.2233 128.087 92.4757 128.087C90.7282 128.087 87.233 117.718 87.233 117.718L81.4078 114.794L82.2816 109.742Z" fill="#FFB9B9"/>
<path d="M90.1456 146.963L87.8155 155.205C87.8155 155.205 85.7767 157.598 87.8155 158.661C88.7722 159.16 89.4724 160.186 89.9461 161.135C90.3591 161.989 91.05 162.706 91.9251 163.19C92.8003 163.673 93.8172 163.899 94.8377 163.836C95.8318 163.761 96.6692 163.402 96.8729 162.47C96.9293 162.177 96.9183 161.877 96.8407 161.588C96.763 161.3 96.6204 161.029 96.4219 160.794C94.2734 158.144 93.7864 156.401 93.7864 156.401L94.6602 147.096L90.1456 146.963Z" fill="#FFB9B9"/>
<path d="M84.5057 45.301C84.5057 45.301 87.0768 42.074 89.3265 41.4873C91.5762 40.9006 91.8976 37.967 91.8976 37.967C91.8976 37.967 97.6826 43.8342 101.218 44.1276C104.753 44.4209 101.539 37.0869 101.539 37.0869L95.1115 35.6201L89.0051 36.2068L84.1843 39.1404L84.5057 45.301Z" fill="#2F2E41"/>
<path d="M79.6602 89.5364L78.4951 91.6633C78.4951 91.6633 50.2427 99.9051 52.5728 107.615C54.9028 115.325 68.0097 113.198 68.0097 113.198L82.5728 115.591L84.0291 109.742L73.8349 107.349L91.3106 101.5L91.8932 128.619L89.5631 148.027L95.3883 148.558C95.3883 148.558 101.796 130.745 100.922 123.301C100.922 123.301 111.699 92.9926 105.583 88.4729C99.466 83.9532 79.6602 89.5364 79.6602 89.5364Z" fill="#2F2E41"/>
<path d="M93.9823 58.9655L89.4375 53.9518L86.3592 55.2397L83.1554 64.545C83.1554 64.545 80.534 69.0647 83.7379 73.8503C83.7379 73.8503 84.3204 77.0406 83.4466 77.8382C82.5729 78.6358 82.2816 83.6873 82.2816 83.6873L78.4952 90.3339C78.4952 90.3339 100.049 93.7901 106.456 89.0046C106.456 89.0046 103.094 77.689 105.133 74.2327C107.172 70.7765 107.463 65.478 105.133 63.0852C102.803 60.6924 100.34 54.4421 100.34 54.4421L98.9293 53.6187L93.9823 58.9655Z" fill="#CFCCE0"/>
<path d="M110.974 19.2711H108.18V16.7213H107.926V19.2711H105.133V19.5028H107.926V22.0527H108.18V19.5028H110.974V19.2711Z" fill="#CFCCE0"/>
<path d="M84.4248 13.9398H81.6313V11.3899H81.3775V13.9398H78.584V14.1715H81.3775V16.7213H81.6313V14.1715H84.4248V13.9398Z" fill="#CFCCE0"/>
<path d="M97.168 2.54987H94.3748V0H94.1207V2.54987H91.3273V2.78155H94.1207V5.33142H94.3748V2.78155H97.168V2.54987Z" fill="#CFCCE0"/>
</g>
<defs>
<clipPath id="clip0">
<rect width="180" height="179" fill="white"/>
</clipPath>
</defs>
</svg>
