<svg width="180" height="140" viewBox="0 0 180 140" fill="none" xmlns="http://www.w3.org/2000/svg">
<g clip-path="url(#clip0)">
<path d="M133.359 79.9814L97.6122 35.2525C95.9891 36.7389 93.9893 37.75 91.8312 38.1754C85.1016 39.5025 78.5294 34.9009 77.152 27.8973C76.1783 22.9466 78.0633 18.1236 81.6276 15.2513L69.4391 0L0 59.4252L63.9194 139.407L133.359 79.9814Z" fill="#F2F2F2"/>
<path d="M15.2426 139.814H180" stroke="#3F3D56" stroke-width="2" stroke-miterlimit="10"/>
<path d="M114.927 13.3154C116.439 13.3154 117.665 12.0881 117.665 10.574C117.665 9.06004 116.439 7.8327 114.927 7.8327C113.415 7.8327 112.19 9.06004 112.19 10.574C112.19 12.0881 113.415 13.3154 114.927 13.3154Z" stroke="#3F3D56" stroke-width="2" stroke-miterlimit="10"/>
<path d="M151.107 93.0167C152.619 93.0167 153.845 91.7893 153.845 90.2753C153.845 88.7613 152.619 87.534 151.107 87.534C149.595 87.534 148.37 88.7613 148.37 90.2753C148.37 91.7893 149.595 93.0167 151.107 93.0167Z" stroke="#3F3D56" stroke-width="2" stroke-miterlimit="10"/>
<path d="M31.6705 20.1894C33.1824 20.1894 34.4082 18.962 34.4082 17.448C34.4082 15.934 33.1824 14.7067 31.6705 14.7067C30.1585 14.7067 28.9327 15.934 28.9327 17.448C28.9327 18.962 30.1585 20.1894 31.6705 20.1894Z" stroke="#3F3D56" stroke-width="2" stroke-miterlimit="10"/>
<path d="M88.9424 36.0503C94.508 36.0503 99.0199 31.5325 99.0199 25.9595C99.0199 20.3864 94.508 15.8686 88.9424 15.8686C83.3767 15.8686 78.8649 20.3864 78.8649 25.9595C78.8649 31.5325 83.3767 36.0503 88.9424 36.0503Z" fill="#F2F2F2"/>
<path d="M29.1079 20.3209H73.7512C75.9054 20.3209 77.9956 21.0549 79.6781 22.402C81.3606 23.7492 82.5353 25.6295 83.0091 27.7338L105.566 127.921C105.812 129.014 105.817 130.147 105.579 131.242C105.341 132.336 104.868 133.366 104.191 134.258C103.514 135.149 102.65 135.882 101.66 136.405C100.671 136.927 99.5788 137.226 98.4615 137.281L52.5679 139.545C50.1105 139.667 47.6929 138.888 45.7664 137.356C43.8398 135.824 42.5359 133.642 42.098 131.217L29.3021 60.3837L28.3501 60.6561L25.9017 47.2305L26.8816 46.9852L23.3099 27.213C23.1569 26.3662 23.1924 25.4959 23.4138 24.6643C23.6352 23.8328 24.0371 23.0603 24.5908 22.4021C25.1445 21.7439 25.8365 21.2161 26.6173 20.8564C27.3981 20.4967 28.2485 20.3138 29.1079 20.3209Z" fill="#3F3D56"/>
<path d="M67.8739 22.4808H73.0851C74.5817 22.4808 76.0332 22.9933 77.1988 23.9332C78.3644 24.8731 79.1739 26.184 79.4929 27.6481L101.145 127.018C101.27 127.59 101.269 128.182 101.144 128.754C101.02 129.326 100.773 129.865 100.421 130.333C100.069 130.8 99.621 131.187 99.1066 131.465C98.5921 131.744 98.0237 131.908 97.4401 131.946L51.695 134.948C50.4045 135.033 49.128 134.639 48.1091 133.841C47.0902 133.043 46.4003 131.898 46.1711 130.623L27.6953 27.915C27.5757 27.2502 27.6033 26.5673 27.7761 25.9143C27.9489 25.2614 28.2627 24.6544 28.6954 24.1362C29.128 23.6179 29.669 23.2011 30.2801 22.915C30.8912 22.629 31.5576 22.4808 32.2321 22.4808H37.1758C37.6543 22.4808 38.1194 22.6387 38.4992 22.9302C38.879 23.2216 39.1522 23.6303 39.2766 24.0929C39.3864 24.5013 39.6276 24.8621 39.9629 25.1194C40.2982 25.3767 40.7088 25.5161 41.1312 25.5161H64.6004C65.4276 25.5161 66.2243 25.2035 66.8312 24.6407C67.4381 24.078 67.8105 23.3066 67.8739 22.4808L67.8739 22.4808Z" fill="#FF9F77"/>
<path d="M82.4476 48.1645H35.1123V48.398H82.4476V48.1645Z" fill="#2F2E41"/>
<path d="M84.3131 55.7529H36.5114V55.9863H84.3131V55.7529Z" fill="#2F2E41"/>
<path d="M38.1015 47.7948L39.177 46.3588L38.9906 46.2188L38.061 47.4598L34.479 44.5251L34.3315 44.7061L38.1015 47.7948Z" fill="#2F2E41"/>
<path d="M44.2808 81.6506L45.3563 80.2146L45.1699 80.0747L44.2401 81.3156L40.6581 78.3811L40.5106 78.5619L44.2808 81.6506Z" fill="#2F2E41"/>
<path d="M89.5571 81.6701L40.0066 82.7208L40.0115 82.9543L89.5621 81.9036L89.5571 81.6701Z" fill="#2F2E41"/>
<path d="M91.0725 88.558L40.5892 89.7255L40.5946 89.959L91.0779 88.7915L91.0725 88.558Z" fill="#2F2E41"/>
<path opacity="0.1" d="M60.1207 108.463C60.1207 111.404 61.2877 114.225 63.3648 116.305C65.442 118.385 68.2592 119.554 71.1967 119.554C74.1343 119.554 76.9515 118.385 79.0286 116.305C81.1058 114.225 82.2727 111.404 82.2727 108.463C82.2727 108.324 82.2704 108.186 82.2646 108.048C82.1562 105.145 80.9142 102.4 78.8058 100.404C76.6973 98.4077 73.8907 97.3198 70.9895 97.3741C68.0884 97.4284 65.3243 98.6205 63.2918 100.694C61.2593 102.768 60.1207 105.557 60.1207 108.463H60.1207Z" fill="#02196C"/>
<path opacity="0.1" d="M61.17 112.782C61.17 112.921 61.1724 113.059 61.1782 113.197C62.2526 115.476 64.07 117.32 66.3311 118.427C68.5921 119.534 71.1622 119.836 73.618 119.285C76.0737 118.734 78.2689 117.362 79.842 115.395C81.4152 113.428 82.2724 110.983 82.2727 108.463C82.2727 108.324 82.2704 108.186 82.2646 108.048C81.1902 105.77 79.3728 103.925 77.1117 102.818C74.8506 101.712 72.2806 101.409 69.8248 101.96C67.3691 102.511 65.1739 103.883 63.6008 105.85C62.0276 107.818 61.1704 110.262 61.17 112.782H61.17Z" fill="#02196C"/>
<path d="M128.569 50.4805C132.34 50.4805 135.397 47.4196 135.397 43.6437C135.397 39.8678 132.34 36.8069 128.569 36.8069C124.798 36.8069 121.741 39.8678 121.741 43.6437C121.741 47.4196 124.798 50.4805 128.569 50.4805Z" fill="#2F2E41"/>
<path d="M135.935 129.317L137.234 134.891H134.079L132.781 128.574L135.935 129.317Z" fill="#9F616A"/>
<path d="M120.721 129.318V134.519L117.567 134.891V129.318H120.721Z" fill="#9F616A"/>
<path d="M136.862 70.2382C136.862 70.2382 136.491 78.2269 136.12 78.7842C135.749 79.3416 132.41 87.3303 132.41 87.3303L130.74 82.1283C130.74 82.1283 133.337 77.8553 132.966 75.4401C132.595 73.0249 132.829 70.0529 132.829 70.0529L136.862 70.2382Z" fill="#9F616A"/>
<path d="M126.287 50.9167C129.156 50.9167 131.482 48.5877 131.482 45.7147C131.482 42.8417 129.156 40.5128 126.287 40.5128C123.418 40.5128 121.092 42.8417 121.092 45.7147C121.092 48.5877 123.418 50.9167 126.287 50.9167Z" fill="#9F616A"/>
<path d="M130.554 46.2721C130.554 46.2721 130.369 53.7034 131.667 54.8181C132.966 55.9328 124.246 55.0039 124.246 55.0039C124.246 55.0039 126.101 49.802 124.617 48.6873C123.133 47.5726 130.554 46.2721 130.554 46.2721Z" fill="#9F616A"/>
<path d="M123.689 54.6323C123.689 54.6323 124.803 52.5887 126.287 52.7745C127.771 52.9602 132.595 53.3318 132.781 53.7034C132.966 54.0749 133.523 55.3754 133.894 55.747C134.265 56.1186 137.048 56.6759 137.234 58.9053C137.419 61.1347 130.554 74.6969 130.554 74.6969C130.554 74.6969 131.482 77.8553 131.296 78.5984C131.111 79.3415 132.224 81.571 132.038 82.4999C131.853 83.4288 134.822 89.0023 133.337 96.2479V107.952C133.337 107.952 138.347 128.203 136.862 129.689C135.378 131.175 130.369 130.246 129.441 129.689C128.513 129.132 124.617 101.078 124.617 101.078L122.762 91.6033L122.576 112.411C122.576 112.411 122.947 129.875 121.648 130.432C120.35 130.989 115.34 131.175 114.969 130.061C114.68 129.191 113.262 106.059 112.652 95.9197C112.44 92.4198 112.715 88.9074 113.468 85.4832C114.241 81.976 115.362 77.8556 116.639 76.1832C119.051 73.0249 120.535 62.9926 120.535 62.9926L117.381 57.2333C117.381 57.2333 119.236 55.3754 120.35 55.3754C121.463 55.3754 123.689 54.6323 123.689 54.6323Z" fill="#2F2E41"/>
<path d="M136.12 57.6049L137.099 58.2717C137.099 58.2717 137.79 70.2381 137.234 70.9813C136.677 71.7244 132.807 71.3617 132.516 70.707C132.224 70.0524 136.12 57.6049 136.12 57.6049Z" fill="#2F2E41"/>
<path d="M119.575 68.4851C120.118 72.2577 120.594 75.6161 117.817 78.6544C115.026 81.7292 111.878 84.4592 108.441 86.7865C108.1 87.6899 103.1 94.3241 102.846 91.6778C102.592 89.0315 104.319 86.9569 106.774 84.7191C109.229 82.4812 112.663 77.6258 114.601 74.9616C116.539 72.2974 115.741 70.636 115.674 68.4106C115.607 66.1853 118.813 68.512 119.575 68.4851Z" fill="#9F616A"/>
<path d="M117.567 131.51C117.567 131.51 117.381 133.591 116.824 134.148C116.268 134.705 114.784 135.448 114.969 137.492C115.155 139.536 116.361 139.628 116.361 139.628L116.268 139.164L116.824 139.35L116.917 139.628H122.112C122.112 139.628 122.205 137.678 122.019 136.749C121.834 135.82 121.834 131.361 121.277 131.547C120.721 131.733 119.236 131.918 118.865 132.662C118.494 133.405 117.381 133.144 117.567 131.51Z" fill="#2F2E41"/>
<path d="M136.491 131.51C136.491 131.51 136.677 133.591 137.234 134.148C137.79 134.705 139.275 135.448 139.089 137.492C138.903 139.536 137.697 139.628 137.697 139.628L137.79 139.164L137.234 139.35L137.141 139.628H131.946C131.946 139.628 131.853 137.678 132.039 136.749C132.224 135.82 132.224 131.361 132.781 131.547C133.337 131.733 134.822 131.918 135.193 132.662C135.564 133.405 136.677 133.144 136.491 131.51Z" fill="#2F2E41"/>
<path d="M119.979 56.676L117.381 57.2333C117.381 57.2333 117.381 61.3206 116.639 62.9926C115.897 64.6647 114.598 68.5661 115.155 68.7519C115.711 68.9377 120.906 71.5387 121.277 70.0524C121.648 68.5661 122.576 56.676 119.979 56.676Z" fill="#2F2E41"/>
<path d="M135.966 41.4788C139.737 41.4788 142.793 38.4178 142.793 34.6419C142.793 30.8661 139.737 27.8051 135.966 27.8051C132.195 27.8051 129.138 30.8661 129.138 34.6419C129.138 38.4178 132.195 41.4788 135.966 41.4788Z" fill="#2F2E41"/>
<path d="M141.855 40.3032C140.971 40.9428 139.947 41.3612 138.869 41.5233C137.791 41.6854 136.689 41.5866 135.657 41.2351C134.625 40.8836 133.692 40.2897 132.935 39.503C132.179 38.7163 131.622 37.7597 131.311 36.7133C131.429 37.6511 131.74 38.5542 132.223 39.3657C132.707 40.1772 133.354 40.8793 134.123 41.4279C134.891 41.9765 135.765 42.3596 136.689 42.5529C137.613 42.7462 138.567 42.7457 139.491 42.5512C140.414 42.3568 141.288 41.9727 142.056 41.4232C142.824 40.8737 143.47 40.1708 143.953 39.3587C144.436 38.5467 144.745 37.6432 144.862 36.7053C144.978 35.7674 144.9 34.8155 144.63 33.9096C144.783 35.1266 144.606 36.3624 144.118 37.4874C143.63 38.6123 142.848 39.585 141.855 40.3032Z" fill="#2F2E41"/>
<path d="M130.39 49.7969C133.155 49.7969 135.397 47.5522 135.397 44.7832C135.397 42.0142 133.155 39.7695 130.39 39.7695C127.624 39.7695 125.383 42.0142 125.383 44.7832C125.383 47.5522 127.624 49.7969 130.39 49.7969Z" fill="#2F2E41"/>
<path d="M126.179 46.3785C128.63 46.3785 130.617 44.8225 130.617 42.9031C130.617 40.9837 128.63 39.4277 126.179 39.4277C123.728 39.4277 121.741 40.9837 121.741 42.9031C121.741 44.8225 123.728 46.3785 126.179 46.3785Z" fill="#2F2E41"/>
<path d="M124.995 47.9565C125.461 47.9565 125.838 47.2884 125.838 46.4643C125.838 45.6402 125.461 44.9721 124.995 44.9721C124.53 44.9721 124.153 45.6402 124.153 46.4643C124.153 47.2884 124.53 47.9565 124.995 47.9565Z" fill="#A0616A"/>
</g>
<defs>
<clipPath id="clip0">
<rect width="180" height="140" fill="white"/>
</clipPath>
</defs>
</svg>
