<svg width="180" height="140" viewBox="0 0 180 140" fill="none" xmlns="http://www.w3.org/2000/svg">
<g clip-path="url(#clip0)">
<path opacity="0.1" d="M155.371 80.3121C149.68 90.3175 150.686 103.907 153.124 114.623C153.941 118.211 154.883 121.995 154.157 126.015C153.27 130.931 150.089 134.806 146.876 137.024C141.018 141.069 134.348 140.987 129.518 136.81C125.337 133.201 122.6 126.885 118.336 123.471C111.191 117.757 101.351 121.286 92.7906 126.701C86.7338 130.529 80.0679 135.375 74.4985 132.675C70.5797 130.775 68.1564 125.375 67.0331 119.49C66.4924 116.65 66.172 113.547 64.9152 111.385C64.1675 110.1 63.1361 109.243 62.0662 108.541C52.301 102.142 39.0343 107.591 29.6229 100.337C23.2657 95.4377 19.679 85.278 18.5325 74.4007C17.3859 63.5235 18.4006 51.8712 19.6657 40.3982C20.5703 32.2461 21.7853 23.5163 25.7308 16.8694C29.9032 9.8385 36.4523 6.6774 42.1302 7.30711C47.8081 7.93682 52.7249 11.8532 56.9575 16.6361C62.2482 22.6139 67.0081 30.2583 73.8776 32.1618C78.5508 33.4589 83.6779 31.9088 88.6565 31.0226C96.9797 29.5407 105.179 29.9174 113.317 30.4216C121.11 30.9042 128.951 31.5177 136.203 34.4815C141.335 36.5787 145.262 40.9759 150.047 43.8249C153.166 45.6817 156.693 45.9024 159.597 48.3853C163.173 51.4352 166.256 57.1044 164.791 64.2823C163.397 71.1087 158.39 75.0036 155.371 80.3121Z" fill="#FF8552"/>
<path d="M49.1182 49.7488C49.1182 49.7488 24.5608 43.8464 55.8075 9.31287C55.8075 9.31287 69.2762 23.0355 64.336 40.0933C62.3499 46.9519 55.9577 51.1858 49.482 49.8296L49.1182 49.7488Z" fill="#FF8552"/>
<path opacity="0.4" d="M49.1182 49.7488C48.5791 49.6196 25.0848 43.2634 55.8075 9.31287C55.8075 9.31287 69.2762 23.0355 64.336 40.0933C62.3499 46.9519 55.9577 51.1858 49.4821 49.8296L49.1182 49.7488Z" fill="#FF8552"/>
<path d="M49.4437 49.9462C49.4437 49.9462 62.415 28.9415 55.8109 9.31464" stroke="#535461" stroke-miterlimit="10"/>
<path d="M150.144 70.1453C150.144 70.1453 145.911 51.8264 152.325 38.7837C155.019 33.31 156.088 27.0739 155.189 20.958C154.757 18.0569 154.079 15.2044 153.163 12.4363" stroke="#535461" stroke-width="2" stroke-miterlimit="10"/>
<path d="M157.16 4.19083C157.072 6.40827 153.081 12.6641 153.081 12.6641C153.081 12.6641 149.603 6.06381 149.691 3.84637C149.753 2.79645 150.194 1.81424 150.922 1.11067C151.65 0.407093 152.605 0.0382538 153.583 0.0833483C154.56 0.128443 155.483 0.583875 156.152 1.35185C156.82 2.11983 157.182 3.13911 157.16 4.19083Z" fill="#FF8552"/>
<path d="M162.845 16.7546C161.65 18.5648 155.135 21.4855 155.135 21.4855C155.135 21.4855 155.553 13.9128 156.748 12.1027C157.027 11.6596 157.386 11.281 157.803 10.989C158.22 10.697 158.687 10.4976 159.177 10.4023C159.667 10.3071 160.17 10.3179 160.656 10.4343C161.142 10.5507 161.601 10.7703 162.007 11.0801C162.413 11.3899 162.757 11.7838 163.02 12.2385C163.282 12.6933 163.457 13.1998 163.535 13.7284C163.613 14.257 163.592 14.7969 163.473 15.3166C163.354 15.8363 163.14 16.3252 162.843 16.7546H162.845Z" fill="#FF8552"/>
<path d="M161.738 37.7269C159.857 38.6401 152.862 37.6282 152.862 37.6282C152.862 37.6282 156.779 31.3186 158.66 30.4036C159.56 29.9887 160.576 29.9699 161.488 30.3512C162.401 30.7324 163.138 31.4833 163.541 32.4425C163.944 33.4017 163.981 34.4926 163.644 35.4807C163.307 36.4688 162.622 37.2753 161.738 37.7269Z" fill="#FF8552"/>
<path d="M157.577 53.3925C155.866 54.634 148.813 54.9067 148.813 54.9067C148.813 54.9067 151.682 47.9763 153.393 46.733C154.215 46.1592 155.213 45.9551 156.174 46.1647C157.134 46.3743 157.979 46.9808 158.528 47.8538C159.076 48.7267 159.284 49.7962 159.106 50.8321C158.928 51.868 158.379 52.7875 157.577 53.3925Z" fill="#FF8552"/>
<path d="M147.278 21.5609C148.695 23.1755 155.524 25.0916 155.524 25.0916C155.524 25.0916 154.129 17.6553 152.712 16.0424C152.026 15.2909 151.094 14.8586 150.114 14.8386C149.135 14.8186 148.188 15.2124 147.476 15.9353C146.764 16.6583 146.344 17.6526 146.307 18.7046C146.27 19.7566 146.619 20.7822 147.278 21.5609Z" fill="#FF8552"/>
<path d="M142.628 39.9408C144.431 41.0173 151.474 40.6584 151.474 40.6584C151.474 40.6584 148.081 34.0097 146.276 32.9279C145.413 32.4379 144.406 32.3302 143.47 32.6276C142.534 32.9251 141.744 33.6042 141.267 34.5199C140.791 35.4356 140.667 36.5152 140.921 37.5281C141.175 38.5411 141.788 39.407 142.628 39.9408Z" fill="#FF8552"/>
<path d="M140.39 58.4787C141.996 59.8727 149 60.793 149 60.793C149 60.793 146.694 53.6168 145.088 52.2282C144.315 51.5835 143.337 51.2904 142.365 51.4118C141.393 51.5333 140.504 52.0597 139.889 52.878C139.274 53.6963 138.982 54.7412 139.075 55.7883C139.169 56.8355 139.641 57.8014 140.39 58.4787Z" fill="#FF8552"/>
<path d="M157.16 4.19083C157.072 6.40827 153.081 12.6641 153.081 12.6641C153.081 12.6641 149.603 6.06381 149.691 3.84637C149.753 2.79645 150.194 1.81424 150.922 1.11067C151.65 0.407093 152.605 0.0382538 153.583 0.0833483C154.56 0.128443 155.483 0.583875 156.152 1.35185C156.82 2.11983 157.182 3.13911 157.16 4.19083Z" fill="#FC6681"/>
<path d="M162.845 16.7546C161.65 18.5648 155.135 21.4855 155.135 21.4855C155.135 21.4855 155.553 13.9128 156.748 12.1027C157.027 11.6596 157.386 11.281 157.803 10.989C158.22 10.697 158.687 10.4976 159.177 10.4023C159.667 10.3071 160.17 10.3179 160.656 10.4343C161.142 10.5507 161.601 10.7703 162.007 11.0801C162.413 11.3899 162.757 11.7838 163.02 12.2385C163.282 12.6933 163.457 13.1998 163.535 13.7284C163.613 14.257 163.592 14.7969 163.473 15.3166C163.354 15.8363 163.14 16.3252 162.843 16.7546H162.845Z" fill="#FC6681"/>
<path d="M161.738 37.7269C159.857 38.6401 152.862 37.6282 152.862 37.6282C152.862 37.6282 156.779 31.3186 158.66 30.4036C159.56 29.9887 160.576 29.9699 161.488 30.3512C162.401 30.7324 163.138 31.4833 163.541 32.4425C163.944 33.4017 163.981 34.4926 163.644 35.4807C163.307 36.4688 162.622 37.2753 161.738 37.7269Z" fill="#FC6681"/>
<path d="M157.577 53.3925C155.866 54.634 148.813 54.9067 148.813 54.9067C148.813 54.9067 151.682 47.9763 153.393 46.733C154.215 46.1592 155.213 45.9551 156.174 46.1647C157.134 46.3743 157.979 46.9808 158.528 47.8538C159.076 48.7267 159.284 49.7962 159.106 50.8321C158.928 51.868 158.379 52.7875 157.577 53.3925Z" fill="#FC6681"/>
<path d="M147.278 21.5609C148.695 23.1755 155.524 25.0916 155.524 25.0916C155.524 25.0916 154.129 17.6553 152.712 16.0424C152.026 15.2909 151.094 14.8586 150.114 14.8386C149.135 14.8186 148.188 15.2124 147.476 15.9353C146.764 16.6583 146.344 17.6526 146.307 18.7046C146.27 19.7566 146.619 20.7822 147.278 21.5609Z" fill="#FC6681"/>
<path d="M142.628 39.9408C144.431 41.0173 151.474 40.6584 151.474 40.6584C151.474 40.6584 148.081 34.0097 146.276 32.9279C145.413 32.4379 144.406 32.3302 143.47 32.6276C142.534 32.9251 141.744 33.6042 141.267 34.5199C140.791 35.4356 140.667 36.5152 140.921 37.5281C141.175 38.5411 141.788 39.407 142.628 39.9408Z" fill="#FC6681"/>
<path d="M140.39 58.4787C141.996 59.8727 149 60.793 149 60.793C149 60.793 146.694 53.6168 145.088 52.2282C144.315 51.5835 143.337 51.2904 142.365 51.4118C141.393 51.5333 140.504 52.0597 139.889 52.878C139.274 53.6963 138.982 54.7412 139.075 55.7883C139.169 56.8355 139.641 57.8014 140.39 58.4787Z" fill="#FC6681"/>
<path d="M134.649 58.3136C134.649 58.3136 152.4 42.3233 156.345 34.2591C160.291 26.1948 165.32 19.2483 165.32 19.2483" stroke="#535461" stroke-width="2" stroke-miterlimit="10"/>
<path d="M162.991 37.2713L155.314 35.4091C155.314 35.4091 157.123 44.1174 162.991 37.2713Z" fill="#FF8552"/>
<path d="M151.252 28.3782L155.671 35.4934C155.671 35.4934 147.036 36.168 151.252 28.3782Z" fill="#FF8552"/>
<path d="M166.012 30.5831L158.992 29.2591C158.992 29.2591 163.404 36.4694 166.012 30.5831Z" fill="#FF8552"/>
<path d="M155.631 24.2267L159.096 29.0958C159.096 29.0958 152.962 29.7165 155.631 24.2267Z" fill="#FF8552"/>
<path d="M162.624 23.2562C162.624 23.2562 168.608 23.5629 169.3 24.1765C169.993 24.7901 168.409 28.3889 166.129 27.8023C163.849 27.2156 162.624 23.2562 162.624 23.2562Z" fill="#FF8552"/>
<path d="M160.234 17.5134C160.234 17.5134 162.676 22.2964 162.584 23.2059C162.492 24.1155 158.864 25.1381 158.13 21.69C157.395 18.2418 160.234 17.5134 160.234 17.5134Z" fill="#FF8552"/>
<path d="M168.241 20.6147C168.519 19.6701 168.032 18.6619 167.154 18.3628C166.275 18.0637 165.337 18.587 165.059 19.5316C164.78 20.4762 165.267 21.4844 166.146 21.7835C167.025 22.0826 167.963 21.5593 168.241 20.6147Z" fill="#FFD037"/>
<path d="M165.629 18.785C165.908 17.8404 165.421 16.8321 164.542 16.533C163.663 16.2339 162.725 16.7572 162.447 17.7018C162.169 18.6464 162.656 19.6546 163.534 19.9537C164.413 20.2528 165.351 19.7296 165.629 18.785Z" fill="#FFD037"/>
<path d="M54.8862 62.4183C54.8862 62.4183 62.0629 56.6774 53.0503 36.5841C53.0503 36.5841 41.0336 20.6171 53.0503 5.54712C53.0503 5.54712 26.8473 6.26474 27.348 32.4578C27.8487 58.6508 40.4495 62.4183 40.4495 62.4183H54.8862Z" fill="#FF8552"/>
<path d="M48.1836 62.4184C48.1836 62.4184 46.3761 48.6042 41.536 40.1722C40.5801 38.4668 39.8927 36.6035 39.5015 34.6573C37.8843 27.0093 40.1908 19.0115 45.4164 13.5379L53.052 5.54181" stroke="#535461" stroke-width="2" stroke-miterlimit="10"/>
<path d="M69.832 16.3025C69.832 16.3025 71.481 18.6204 69.0709 22.1188C66.6609 25.6172 64.6748 28.5773 65.4776 30.7517C65.4776 30.7517 69.1127 24.2537 72.0718 24.1622C75.0309 24.0707 73.0865 20.2099 69.832 16.3025Z" fill="#FF8552"/>
<path opacity="0.1" d="M69.832 16.3025C69.9746 16.5265 70.087 16.7711 70.1658 17.0291C73.0531 20.6746 74.5902 24.0779 71.8164 24.164C69.2311 24.2429 66.1301 29.2124 65.3875 30.4665C65.412 30.5632 65.4415 30.6585 65.4759 30.7517C65.4759 30.7517 69.111 24.2537 72.0701 24.1622C75.0292 24.0707 73.0865 20.2099 69.832 16.3025Z" fill="black"/>
<path d="M72.8962 19.2554C72.8962 20.0717 72.8111 20.7319 72.706 20.7319C72.6008 20.7319 72.5157 20.0699 72.5157 19.2554C72.5157 18.4409 72.6225 18.8231 72.7277 18.8231C72.8328 18.8231 72.8962 18.4409 72.8962 19.2554Z" fill="#FFD037"/>
<path d="M73.9477 20.2296C73.2801 20.6207 72.701 20.8558 72.6509 20.7571C72.6008 20.6584 73.0999 20.2619 73.7658 19.8708C74.4317 19.4797 74.1697 19.765 74.2198 19.8708C74.2698 19.9767 74.6136 19.8385 73.9477 20.2296Z" fill="#FFD037"/>
<path d="M61.1266 16.3025C61.1266 16.3025 59.4776 18.6204 61.8876 22.1188C64.2976 25.6172 66.2837 28.5773 65.4809 30.7517C65.4809 30.7517 61.8459 24.2537 58.8868 24.1622C55.9277 24.0707 57.8687 20.2099 61.1266 16.3025Z" fill="#FF8552"/>
<path opacity="0.1" d="M61.1266 16.3025C60.9839 16.5265 60.8715 16.7711 60.7928 17.0291C57.9054 20.6746 56.3683 24.0779 59.1421 24.164C61.7274 24.2429 64.8284 29.2124 65.5711 30.4665C65.5466 30.5632 65.517 30.6585 65.4826 30.7517C65.4826 30.7517 61.8426 24.2519 58.8834 24.164C55.9243 24.0761 57.8687 20.2099 61.1266 16.3025Z" fill="black"/>
<path d="M58.059 19.2554C58.059 20.0717 58.1441 20.7319 58.2492 20.7319C58.3544 20.7319 58.4395 20.0699 58.4395 19.2554C58.4395 18.4409 58.3327 18.8231 58.2275 18.8231C58.1224 18.8231 58.059 18.4409 58.059 19.2554Z" fill="#FFD037"/>
<path d="M57.0075 20.2296C57.6751 20.6207 58.2542 20.8558 58.3043 20.7571C58.3544 20.6584 57.8553 20.2619 57.1894 19.8708C56.5235 19.4797 56.7855 19.765 56.7355 19.8708C56.6854 19.9767 56.3416 19.8385 57.0075 20.2296Z" fill="#FFD037"/>
<path d="M180 115.858L165.378 46.7007H159.945C159.729 44.0581 159.583 41.498 159.528 39.0868C159.528 39.0868 139.834 43.719 124.129 30.3175C108.424 16.916 89.9599 31.4765 89.9599 31.4765L89.8882 31.4208V31.3939V31.428C88.6064 30.4521 70.9185 17.4219 55.7958 30.3283C40.0974 43.7298 20.3967 39.0976 20.3967 39.0976C20.3416 41.5392 20.1947 44.1209 19.9727 46.7886H14.9324L0 116.107C0 116.107 60.701 118.55 81.9722 116.297C82.7349 118.03 86.0228 119.333 89.9616 119.333C94.3878 119.333 97.9878 117.687 98.1129 115.637C114.671 116.991 150.3 119.157 180 115.858Z" fill="url(#paint0_linear)"/>
<path d="M16.4963 47.3089L1.87762 115.185C1.87762 115.185 82.3511 118.425 88.8317 113.889C88.8317 113.889 138.789 119.316 178.122 114.943L163.806 47.23L16.4963 47.3089Z" fill="#E2E2EC"/>
<path opacity="0.1" d="M21.4698 49.6538L7.84088 112.935C7.84088 112.935 82.8684 115.956 88.9101 111.728C88.9101 111.728 135.487 116.787 172.157 112.709L158.806 49.5784L21.4698 49.6538Z" fill="black"/>
<path d="M158.08 39.7775C158.08 39.7775 138.789 44.3128 123.418 31.1912C108.047 18.0696 89.9616 32.325 89.9616 32.325C89.9616 32.325 71.8781 18.0696 56.5068 31.1912C41.1354 44.3128 21.8453 39.7775 21.8453 39.7775C21.2378 66.1822 9.79022 108.949 9.79022 108.949C9.79022 108.949 30.8879 115.104 58.7682 102.632C86.6486 90.1596 89.9632 107.006 89.9632 107.006C89.9632 107.006 93.2778 90.1578 121.158 102.632C149.039 115.106 170.136 108.949 170.136 108.949C170.136 108.949 158.682 66.1822 158.08 39.7775Z" fill="#F1F2FB"/>
<path opacity="0.1" d="M52.7399 107.496C52.7399 107.496 78.2086 101.34 89.9583 110.411C89.9583 110.411 101.261 99.3954 127.482 107.982" fill="black"/>
<path d="M89.9616 118.344C94.3731 118.344 97.9494 116.676 97.9494 114.618C97.9494 112.56 94.3731 110.892 89.9616 110.892C85.5501 110.892 81.9738 112.56 81.9738 114.618C81.9738 116.676 85.5501 118.344 89.9616 118.344Z" fill="#E8EAF8"/>
<path opacity="0.1" d="M89.8865 32.2444C89.8865 32.2444 95.6127 63.5092 90.0367 107.571L89.8865 32.2444Z" fill="black"/>
<path opacity="0.1" d="M27.363 49.5784C27.363 49.5784 39.358 52.5745 49.7407 49.5784C60.1235 46.5824 79.1866 36.7815 85.457 49.5784" stroke="black" stroke-width="4" stroke-miterlimit="10"/>
<path opacity="0.1" d="M27.363 55.0861C27.363 55.0861 39.358 58.0822 49.7407 55.0861C60.1235 52.0901 82.6047 52.2516 85.457 55.0861" stroke="black" stroke-width="4" stroke-miterlimit="10"/>
<path opacity="0.1" d="M27.363 64.7972C27.363 64.7972 39.358 67.7933 49.7407 64.7972C60.1235 61.8012 79.1866 52.0003 85.457 64.7972" stroke="black" stroke-width="4" stroke-miterlimit="10"/>
<path opacity="0.1" d="M27.363 70.3121C27.363 70.3121 39.358 73.3082 49.7407 70.3121C60.1235 67.3161 82.6047 67.4776 85.457 70.3121" stroke="black" stroke-width="4" stroke-miterlimit="10"/>
<path opacity="0.1" d="M152.562 49.5784C152.562 49.5784 140.567 52.5745 130.184 49.5784C119.801 46.5824 100.738 36.7815 94.4679 49.5784" stroke="black" stroke-width="4" stroke-miterlimit="10"/>
<path opacity="0.1" d="M152.562 55.0861C152.562 55.0861 140.567 58.0822 130.184 55.0861C119.801 52.0901 97.3202 52.2516 94.4679 55.0861" stroke="black" stroke-width="4" stroke-miterlimit="10"/>
<path opacity="0.1" d="M152.562 64.7972C152.562 64.7972 140.567 67.7933 130.184 64.7972C119.801 61.8012 100.738 52.0003 94.4679 64.7972" stroke="black" stroke-width="4" stroke-miterlimit="10"/>
<path opacity="0.1" d="M152.562 70.3121C152.562 70.3121 140.567 73.3082 130.184 70.3121C119.801 67.3161 97.3202 67.4776 94.4679 70.3121" stroke="black" stroke-width="4" stroke-miterlimit="10"/>
<path d="M152.806 128.628C153.306 128.217 153.782 127.731 153.927 127.144C154.001 126.832 153.962 126.502 153.816 126.221C153.67 125.94 153.43 125.729 153.144 125.633C152.425 125.393 151.657 125.829 151.073 126.27C150.489 126.712 149.823 127.216 149.06 127.122C149.85 126.509 150.229 125.508 150.008 124.611C149.971 124.415 149.879 124.237 149.745 124.099C149.346 123.724 148.621 123.886 148.144 124.18C146.624 125.118 146.2 126.929 146.191 128.559C146.038 127.971 146.168 127.359 146.163 126.755C146.158 126.15 145.971 125.483 145.39 125.158C145.019 124.985 144.616 124.903 144.212 124.916C143.529 124.894 142.767 124.953 142.301 125.393C141.722 125.931 141.872 126.851 142.376 127.451C142.88 128.05 143.648 128.427 144.354 128.841C144.893 129.157 145.437 129.525 145.767 130.023C145.81 130.089 145.845 130.16 145.873 130.235H150.157C151.098 129.819 151.988 129.279 152.806 128.628Z" fill="#FF8552"/>
<path d="M123.183 64.0241C123.183 64.0241 123.225 64.2824 123.295 64.7417C123.258 64.8135 123.221 64.8852 123.183 64.9552C121.814 67.431 121.604 70.9975 121.732 73.9254C121.852 76.2869 122.237 78.6241 122.879 80.8863C123.662 83.8263 124.055 86.8702 124.047 89.9283C124.589 90.5577 125.24 91.0673 125.963 91.4281C126 91.5483 126.038 91.6703 126.072 91.7869C126.703 94.0464 127.129 96.3661 127.345 98.7137L127.776 104.573C127.776 104.573 131.075 117.835 132.078 120.301C132.793 122.056 132.636 125.684 132.486 127.628C132.057 128.936 131.534 130.183 131.074 130.319C130.239 130.574 129.405 132.734 130.62 133.82C130.711 133.901 130.809 133.973 130.912 134.035L130.96 134.064L131.049 134.112L131.179 134.175L131.246 134.202L131.384 134.252L131.444 134.272C131.509 134.291 131.576 134.311 131.648 134.329C132.494 134.508 133.371 134.359 134.125 133.907C135.039 133.76 135.852 133.233 136.461 132.7L136.445 133.635H137.446L137.399 131.767C137.579 131.55 137.68 131.408 137.68 131.408C137.68 131.408 137.71 130.28 137.825 128.967L137.751 133.181H138.753L138.482 125.404C138.533 125.287 138.6 125.18 138.681 125.086C139.515 124.189 138.073 121.295 137.327 120.813C137.661 118.911 138.935 116.164 140.403 110.899C142.555 103.184 139.829 95.6333 139.829 95.6333V89.713C140.552 89.3793 140.978 89.1515 140.978 89.1515C140.978 89.1515 139.976 82.8292 140.978 78.3585C141.627 75.4683 141.795 72.901 141.253 70.445C141.974 67.7754 142.556 65.7141 142.556 65.7141L143.558 54.6125C143.813 52.9459 143.985 51.5196 144.095 50.3068C144.114 50.1561 144.127 50.0036 144.134 49.8529C144.317 47.5942 144.277 46.0854 144.157 45.0987C144.215 44.6465 144.235 44.1895 144.217 43.7334C144.24 43.4993 144.249 43.2638 144.244 43.0284C144.387 42.849 144.527 42.6696 144.661 42.4902C145.016 42.0158 145.318 41.4979 145.561 40.9473C146.664 38.7101 146.695 35.9778 145.155 34.0061C144.207 32.7916 143.912 31.4837 143.092 30.1902C142.343 29.0061 142.201 27.587 142.021 26.2236C141.797 24.5287 141.491 22.8478 141.103 21.1877C140.988 20.6997 140.357 20.4001 140.043 19.9947C139.437 19.2107 137.668 19.2376 136.648 19.0635C134.936 18.7711 133.082 18.4984 131.523 19.2214C130.438 19.7255 129.658 20.6423 128.811 21.4514C127.898 22.3215 126.028 22.7413 125.738 23.7837C125.479 24.1819 125.466 24.6807 125.905 25.3481C126.329 25.9903 126.996 26.4496 127.619 26.9304C127.699 26.9914 127.774 27.056 127.853 27.1098C127.642 28.4943 127.85 29.9151 128.446 31.163C129.042 32.4109 129.996 33.4201 131.166 34.042C131.149 34.1586 131.13 34.2734 131.11 34.3865C130.927 35.3924 130.675 36.3825 130.356 37.3484C130.171 37.9441 128.028 38.9846 126.517 39.652C126.343 39.4592 126.135 39.305 125.905 39.1981C124.757 38.8895 120.885 41.202 120.598 41.9735C120.517 42.1888 120.728 42.7844 121.07 43.5343C121.092 43.876 121.144 44.2147 121.225 44.5461C121.14 46.1249 121.293 48.6724 122.033 52.7682L123.183 64.0241ZM139.288 65.7589C139.235 65.6495 139.18 65.5382 139.122 65.4234C137.528 61.9591 136.581 56.3581 138.865 53.0176C139.068 53.0409 139.272 53.0625 139.475 53.0768C139.611 57.6229 139.532 65.0969 139.532 65.0969C139.532 65.0969 139.442 65.3481 139.288 65.7589ZM133.599 92.1636C133.923 93.9128 134.303 95.9455 134.659 97.7934C135.081 99.945 135.053 102.171 134.575 104.309L133.227 99.9606L132.913 92.309L132.893 91.995C133.11 91.9555 133.325 91.9131 133.539 91.8676L133.599 92.1636Z" fill="url(#paint1_linear)"/>
<path d="M134.64 97.4597C135.057 99.5776 135.029 101.769 134.559 103.873C134.474 104.273 134.363 104.666 134.225 105.048L134.605 121.679L134.649 123.565C135.001 123.644 135.358 123.701 135.717 123.733C136.05 123.771 136.385 123.771 136.718 123.733C137.052 123.689 137.346 123.581 137.503 123.375C137.66 123.168 137.693 122.836 137.471 122.354C137.227 121.823 137.132 121.228 137.199 120.641C137.212 120.475 137.237 120.301 137.267 120.122C137.601 118.251 138.848 115.545 140.295 110.364C142.413 102.775 139.731 95.3391 139.731 95.3391V88.3531L132.813 87.5942C132.813 87.5942 133.147 89.4744 133.606 91.9179C133.916 93.6402 134.29 95.6405 134.64 97.4597Z" fill="#FDC2CC"/>
<path opacity="0.1" d="M134.64 97.4597C135.057 99.5776 135.029 101.769 134.559 103.873C134.474 104.273 134.363 104.666 134.225 105.048L134.605 121.679L134.649 123.565C135.001 123.644 135.358 123.701 135.717 123.733C136.05 123.771 136.385 123.771 136.718 123.733C137.052 123.689 137.346 123.581 137.503 123.375C137.66 123.168 137.693 122.836 137.471 122.354C137.227 121.823 137.132 121.228 137.199 120.641C137.212 120.475 137.237 120.301 137.267 120.122C137.601 118.251 138.848 115.545 140.295 110.364C142.413 102.775 139.731 95.3391 139.731 95.3391V88.3531L132.813 87.5942C132.813 87.5942 133.147 89.4744 133.606 91.9179C133.916 93.6402 134.29 95.6405 134.64 97.4597Z" fill="black"/>
<path d="M125.039 88.3531C125.495 89.3869 125.878 90.4562 126.185 91.5519C126.806 93.7757 127.226 96.0587 127.439 98.3692L127.863 104.137C127.863 104.137 131.11 117.189 132.098 119.618C132.801 121.346 132.648 124.916 132.499 126.834C132.439 127.612 132.381 128.118 132.381 128.118L133.821 126.222L135.708 123.733L136.57 122.598L136.758 122.35C136.53 121.841 136.346 121.311 136.208 120.766C135.771 119.104 135.483 117.401 135.348 115.68C134.924 110.976 134.784 104.6 134.784 104.6L134.56 103.882L133.225 99.5928L132.916 92.0578L132.801 89.2681L125.039 88.3531Z" fill="#FDC2CC"/>
<path d="M135.96 121.093C135.199 122.159 134.63 123.369 134.281 124.661C133.833 126.302 133.043 128.825 132.381 129.028C131.392 129.331 130.404 132.366 132.945 132.975C135.485 133.583 137.604 130.545 137.604 130.545C137.604 130.545 137.746 125.233 138.592 124.324C139.439 123.414 137.886 120.377 137.18 120.074C136.898 119.95 136.421 120.452 135.96 121.093Z" fill="#5F5D7E"/>
<path opacity="0.1" d="M132.098 132.519C132.763 132.668 133.453 132.601 134.081 132.325C134.855 131.992 135.525 131.432 136.016 130.708C136.507 129.984 136.797 129.126 136.855 128.233C136.975 126.607 137.229 124.422 137.745 123.868C138.412 123.15 137.578 121.105 136.86 120.127C136.906 120.094 136.959 120.072 137.014 120.063C137.069 120.053 137.125 120.057 137.179 120.074C137.885 120.377 139.439 123.412 138.591 124.324C137.743 125.235 137.603 130.545 137.603 130.545C137.603 130.545 135.488 133.581 132.946 132.971C132.577 132.894 132.23 132.722 131.935 132.47C131.988 132.488 132.042 132.504 132.098 132.519Z" fill="black"/>
<path d="M138.392 124.451L138.664 132.291H137.676L137.813 124.456C137.817 124.377 137.85 124.303 137.904 124.25C137.958 124.196 138.03 124.168 138.103 124.171C138.176 124.169 138.246 124.196 138.3 124.249C138.354 124.301 138.387 124.373 138.392 124.451Z" fill="#5F5D7E"/>
<path opacity="0.15" d="M138.392 124.451L138.664 132.291H137.676L137.813 124.456C137.817 124.377 137.85 124.303 137.904 124.25C137.958 124.196 138.03 124.168 138.103 124.171C138.176 124.169 138.246 124.196 138.3 124.249C138.354 124.301 138.387 124.373 138.392 124.451Z" fill="black"/>
<path d="M134.69 121.548C133.929 122.615 133.36 123.825 133.011 125.117C132.562 126.758 131.773 129.281 131.11 129.483C130.122 129.787 129.134 132.822 131.675 133.43C134.215 134.038 136.334 130.998 136.334 130.998C136.334 130.998 136.476 125.685 137.322 124.776C138.169 123.866 136.616 120.829 135.91 120.526C135.625 120.413 135.151 120.908 134.69 121.548Z" fill="#5F5D7E"/>
<path opacity="0.1" d="M130.828 132.971C131.492 133.12 132.183 133.053 132.811 132.777C133.585 132.444 134.255 131.884 134.746 131.16C135.236 130.436 135.527 129.578 135.585 128.685C135.705 127.06 135.959 124.874 136.475 124.32C137.142 123.602 136.308 121.557 135.59 120.579C135.636 120.546 135.689 120.524 135.744 120.515C135.799 120.505 135.855 120.509 135.909 120.526C136.615 120.829 138.169 123.864 137.321 124.776C136.473 125.687 136.334 130.997 136.334 130.997C136.334 130.997 134.216 134.033 131.675 133.427C131.305 133.35 130.958 133.178 130.663 132.926C130.723 132.944 130.772 132.96 130.828 132.971Z" fill="black"/>
<path d="M137.12 124.898L137.392 132.738H136.398L136.535 124.903C136.539 124.824 136.571 124.75 136.625 124.697C136.68 124.643 136.751 124.615 136.825 124.618C136.899 124.613 136.971 124.64 137.026 124.693C137.081 124.745 137.115 124.819 137.12 124.898Z" fill="#5F5D7E"/>
<path opacity="0.15" d="M137.12 124.898L137.392 132.738H136.398L136.535 124.903C136.539 124.824 136.571 124.75 136.625 124.697C136.68 124.643 136.751 124.615 136.825 124.618C136.899 124.613 136.971 124.64 137.026 124.693C137.081 124.745 137.115 124.819 137.12 124.898Z" fill="black"/>
<path d="M125.181 40.8504L130.828 50.4127L137.464 51.324C137.464 51.324 141.558 42.6732 141.418 42.2175C141.278 41.7618 139.158 40.8522 137.182 39.1819C135.206 37.5117 137.606 30.5311 137.606 30.5311L131.112 31.1375C131.137 31.2307 131.162 31.3169 131.181 31.4209C131.439 32.5996 131.347 33.9075 131.149 35.0574C130.968 36.0458 130.719 37.0184 130.404 37.9674C130.122 38.877 125.181 40.8504 125.181 40.8504Z" fill="#FDC2CC"/>
<path opacity="0.1" d="M132.804 87.5942C132.804 87.5942 133.138 89.4744 133.597 91.9179C135.699 91.4371 137.752 90.7328 139.724 89.8153V88.3531L132.804 87.5942Z" fill="black"/>
<path opacity="0.1" d="M125.039 88.3531C125.495 89.3869 125.878 90.4562 126.185 91.5519C128.15 92.5045 130.593 92.4776 132.918 92.0524L132.803 89.2627L125.039 88.3531Z" fill="black"/>
<path d="M123.345 65.1328C121.998 67.5709 121.791 71.0783 121.918 73.9703C122.036 76.294 122.414 78.5939 123.046 80.8199C123.817 83.7138 124.205 86.71 124.198 89.7202C128.997 95.3356 140.857 88.9613 140.857 88.9613C140.857 88.9613 139.869 82.7396 140.857 78.337C141.545 75.2763 141.692 72.5799 140.994 69.9965C140.673 68.8159 140.199 67.6896 139.587 66.6506C139.4 66.3312 139.218 65.9778 139.043 65.5993C137.407 62.0435 136.463 56.2021 139.093 52.98C139.367 52.6446 139.675 52.3437 140.011 52.0829C142.304 50.2979 143.349 48.3155 143.79 46.638C144.065 45.5958 144.122 44.5008 143.957 43.4321C143.675 41.7618 139.721 40.2441 139.721 40.2441C139.863 45.253 133.933 49.5013 133.933 49.5013C133.933 49.5013 127.155 40.0916 126.027 39.7884C124.898 39.4852 121.085 41.7618 120.803 42.5207C120.521 43.2796 123.909 48.8949 123.909 48.8949C123.909 48.8949 126.028 60.2763 123.345 65.1328Z" fill="#D39999"/>
<path opacity="0.1" d="M140.006 52.0811C142.299 50.296 143.344 48.3136 143.785 46.6361C143.675 44.1245 143.117 43.7352 143.117 43.7352C143.117 43.7352 138.452 48.5898 138.876 50.2655C138.973 50.6512 139.043 51.6595 139.088 52.9853C139.361 52.6474 139.669 52.344 140.006 52.0811Z" fill="black"/>
<path opacity="0.1" d="M132.098 86.6846C133.086 89.8726 138.028 84.2554 138.17 81.8281C138.26 80.2744 139.854 74.1837 140.989 69.9981C140.668 68.8176 140.195 67.6913 139.582 66.6523C139.395 66.3329 139.213 65.9795 139.038 65.601C138.502 67.0165 136.351 72.8184 136.476 74.5443C136.618 76.5177 135.628 79.4007 135.628 79.4007C135.628 79.4007 131.11 83.4965 132.098 86.6846Z" fill="black"/>
<path d="M143.394 43.7333C143.394 43.7333 144.948 44.7954 143.394 54.9641L142.406 65.8916C142.406 65.8916 138.594 79.399 138.452 81.8281C138.31 84.2572 133.37 89.8708 132.381 86.6846C131.391 83.4984 135.91 79.399 135.91 79.399C135.91 79.399 136.898 76.5159 136.758 74.5425C136.618 72.569 139.44 65.2852 139.44 65.2852C139.44 65.2852 139.582 51.9303 139.158 50.2601C138.734 48.5898 143.394 43.7333 143.394 43.7333Z" fill="#FDC2CC"/>
<path opacity="0.1" d="M122.498 42.5189C122.498 42.5189 120.663 42.9745 122.498 53.1432L123.628 64.2232C123.628 64.2232 126.17 80.1597 126.028 81.9842C125.886 83.8088 131.536 88.511 131.958 85.9311C132.381 83.3513 129.134 79.1012 129.134 79.1012C129.134 79.1012 127.719 75.7571 127.719 69.5336L127.437 64.5246L125.463 46.4658L122.498 42.5189Z" fill="black"/>
<path d="M122.211 42.5189C122.211 42.5189 120.376 42.9745 122.211 53.1432L123.341 64.2232C123.341 64.2232 125.883 80.1597 125.741 81.9842C125.599 83.8088 131.249 88.511 131.671 85.9311C132.093 83.3513 128.847 79.1012 128.847 79.1012C128.847 79.1012 127.435 75.7625 127.435 69.539L127.153 64.53L125.181 46.4658L122.211 42.5189Z" fill="#FDC2CC"/>
<path opacity="0.1" d="M121.298 43.0498C121.298 43.0498 120.451 47.9063 126.38 49.5766C132.31 51.2468 125.675 43.8069 125.675 43.8069C125.675 43.8069 123.416 40.1668 121.298 43.0498Z" fill="black"/>
<path d="M121.439 42.8991C121.439 42.8991 120.592 47.7538 126.522 49.4241C132.452 51.0943 125.816 43.6562 125.816 43.6562C125.816 43.6562 123.557 40.0143 121.439 42.8991Z" fill="#D39999"/>
<path opacity="0.1" d="M144.03 43.0498C144.03 43.0498 144.878 47.9063 138.948 49.5766C133.018 51.2468 139.652 43.8069 139.652 43.8069C139.652 43.8069 141.905 40.1668 144.03 43.0498Z" fill="black"/>
<path d="M143.888 42.8991C143.888 42.8991 144.743 47.7538 138.806 49.4241C132.87 51.0943 139.512 43.6562 139.512 43.6562C139.512 43.6562 141.77 40.0143 143.888 42.8991Z" fill="#D39999"/>
<path opacity="0.1" d="M131.149 35.0557C131.928 35.2996 132.801 33.337 133.722 33.337C134.699 33.337 135.618 35.4378 136.433 34.9929C136.67 33.5781 137.015 32.1866 137.464 30.8325L131.181 31.4281C131.438 32.5996 131.347 33.9057 131.149 35.0557Z" fill="black"/>
<path d="M133.864 35.3858C137.178 35.3858 139.864 32.4982 139.864 28.9362C139.864 25.3742 137.178 22.4866 133.864 22.4866C130.551 22.4866 127.864 25.3742 127.864 28.9362C127.864 32.4982 130.551 35.3858 133.864 35.3858Z" fill="#FDC2CC"/>
<path opacity="0.1" d="M126.023 26.1518C126.441 26.7833 127.098 27.2282 127.711 27.709C128.468 28.292 129.183 28.9355 129.85 29.634C130.322 30.0971 130.725 30.6342 131.047 31.2271C131.523 32.1816 131.586 33.2616 131.643 34.3129L132.225 45.1722C132.264 45.8899 132.302 46.6236 132.132 47.3251C131.959 47.9227 131.716 48.4943 131.409 49.0258C130.64 50.4934 129.849 51.9896 128.61 53.1521C128.196 53.5379 127.692 54.0366 127.911 54.5425C128.088 54.9498 128.632 55.0807 129.099 55.1399C131.06 55.4234 133.233 55.6656 134.884 54.6376C135.507 54.2501 136.022 53.6939 136.72 53.4535C137.691 53.1216 138.763 53.4679 139.798 53.4661C140.896 53.4661 141.944 53.0732 142.969 52.6857C143.165 52.6323 143.345 52.5233 143.489 52.3699C143.571 52.2425 143.622 52.0951 143.638 51.9412C143.793 51.0603 143.94 50.1471 143.686 49.2842C143.411 48.3495 142.685 47.5404 142.603 46.5752C142.496 45.2332 143.648 44.1407 144.476 43.0373C146.238 40.6889 146.63 37.3071 144.821 34.991C143.888 33.7962 143.596 32.5081 142.79 31.2361C142.052 30.0718 141.912 28.6742 141.735 27.3323C141.515 25.664 141.213 24.0093 140.831 22.3753C140.719 21.8945 140.096 21.6003 139.787 21.2002C139.19 20.4288 137.451 20.4557 136.45 20.2835C134.764 19.9964 132.945 19.7273 131.404 20.4395C130.336 20.9347 129.568 21.8389 128.734 22.6337C127.552 23.7675 124.685 24.1227 126.023 26.1518Z" fill="black"/>
<path d="M126.165 25.8486C126.582 26.4801 127.24 26.925 127.853 27.4058C128.61 27.9899 129.325 28.6346 129.992 29.3344C130.464 29.7974 130.867 30.3346 131.189 30.9275C131.665 31.8819 131.728 32.9619 131.785 34.0133L132.372 44.869C132.411 45.5866 132.449 46.3204 132.279 47.0219C132.106 47.6195 131.863 48.1911 131.556 48.7226C130.787 50.1901 129.996 51.6864 128.757 52.8489C128.343 53.2346 127.839 53.7334 128.058 54.2393C128.235 54.6465 128.779 54.7775 129.246 54.8367C131.207 55.1202 133.38 55.3624 135.031 54.3344C135.653 53.9469 136.169 53.3907 136.867 53.1503C137.838 52.8184 138.91 53.1647 139.944 53.1629C141.043 53.1629 142.091 52.77 143.115 52.3825C143.312 52.3291 143.492 52.22 143.636 52.0667C143.718 51.9392 143.769 51.7919 143.785 51.6379C143.94 50.7571 144.087 49.8439 143.833 48.981C143.558 48.0463 142.832 47.2371 142.75 46.272C142.643 44.93 143.795 43.8374 144.623 42.7341C146.385 40.3857 146.777 37.0039 144.968 34.6878C144.035 33.493 143.743 32.2049 142.937 30.9329C142.199 29.7685 142.059 28.371 141.882 27.029C141.662 25.3607 141.36 23.7061 140.977 22.0721C140.866 21.5913 140.243 21.2971 139.934 20.897C139.337 20.1256 137.598 20.1525 136.596 19.9802C134.911 19.6932 133.092 19.4241 131.551 20.1363C130.483 20.6315 129.715 21.5357 128.881 22.3304C127.686 23.4643 124.827 23.8195 126.165 25.8486Z" fill="#865A61"/>
</g>
<defs>
<linearGradient id="paint0_linear" x1="90" y1="119.331" x2="90" y2="24.6519" gradientUnits="userSpaceOnUse">
<stop stop-color="#808080" stop-opacity="0.25"/>
<stop offset="0.54" stop-color="#808080" stop-opacity="0.12"/>
<stop offset="1" stop-color="#808080" stop-opacity="0.1"/>
</linearGradient>
<linearGradient id="paint1_linear" x1="-23211.3" y1="93581.4" x2="-23211.3" y2="19033.8" gradientUnits="userSpaceOnUse">
<stop stop-color="#808080" stop-opacity="0.25"/>
<stop offset="0.54" stop-color="#808080" stop-opacity="0.12"/>
<stop offset="1" stop-color="#808080" stop-opacity="0.1"/>
</linearGradient>
<clipPath id="clip0">
<rect width="180" height="140" fill="white"/>
</clipPath>
</defs>
</svg>
