<svg width="190" height="140" viewBox="0 0 190 140" fill="none" xmlns="http://www.w3.org/2000/svg">
<g clip-path="url(#clip0)">
<path d="M190 131.244C190 123.603 187.129 117.408 183.586 117.408C181.36 117.408 179.399 119.856 178.249 123.572C177.861 123.354 177.444 123.241 177.024 123.24C175.951 123.24 174.96 123.981 174.152 125.237C173.115 120.604 170.917 117.408 168.373 117.408C165.994 117.408 163.919 120.204 162.812 124.354C162.196 123.653 161.421 123.26 160.617 123.24C157.898 123.24 155.694 127.993 155.694 133.858C155.683 135.813 155.946 137.753 156.47 139.575H188.707C189.518 137.258 190 134.373 190 131.244Z" fill="#FF8552"/>
<path d="M167.006 51.3477C161.955 36.5938 152.071 24.0075 140.13 21.9561C136.973 21.4137 133.676 21.6313 130.747 23.3115C126.902 25.5171 124.068 29.969 121.204 34.0757C115.139 42.7685 108.353 50.4883 100.979 57.0823C97.3398 60.3358 93.4362 63.3714 89.1152 64.2039C80.4517 65.8729 71.8823 57.8953 67.9312 47.3513C65.4631 40.7648 64.3226 33.0316 62.3274 26.1807C60.0295 26.1748 57.2919 26.1759 54.3465 26.1942C46.2052 26.2449 39.5786 26.4073 39.5786 26.4073C39.5786 26.4073 47.4554 12.3186 54.317 17.5384C56.5097 19.2065 58.8064 20.695 60.9171 21.949C59.718 18.8345 58.2055 16.0321 56.1248 13.779C52.022 9.33631 46.4652 8.09014 41.2118 8.42099C35.6953 8.76842 30.1281 10.7627 25.6456 15.1182C17.6602 22.8772 14.3626 36.5344 11.5402 49.2602L18.3622 53.8782C21.2884 50.4622 25.5674 47.083 29.5114 50.0833C36.373 55.3031 44.2552 58.7688 44.2552 58.7688C44.2552 58.7688 37.6822 58.6885 29.541 58.7392C28.1736 58.7477 26.8506 58.7594 25.593 58.7729L101.333 110.044C126.315 110.519 145.151 108.695 168.889 110.044C170.127 110.114 172.912 101.351 172.921 99.0452C172.986 82.7914 172.057 66.1016 167.006 51.3477ZM142.749 55.7697C134.608 55.8204 127.981 55.9828 127.981 55.9828C127.981 55.9828 135.858 41.8941 142.72 47.1139C149.581 52.3336 157.464 55.7993 157.464 55.7993C157.464 55.7993 150.891 55.7191 142.749 55.7697L142.749 55.7697Z" fill="#F2F2F2"/>
<path opacity="0.3" d="M163.963 103.986C163.963 98.4303 161.415 93.9262 158.273 93.9262C156.298 93.9262 154.558 95.7062 153.538 98.4077C153.188 98.248 152.82 98.1665 152.451 98.1662C151.494 98.1881 150.581 98.7084 149.903 99.6185C148.983 96.2501 147.033 93.9262 144.776 93.9262C142.665 93.9262 140.824 95.9593 139.842 98.9767C139.266 98.4544 138.589 98.1726 137.895 98.1662C135.483 98.1662 133.528 101.623 133.528 105.887C133.521 107.325 133.756 108.747 134.216 110.044H162.815C163.582 108.194 163.978 106.106 163.963 103.986Z" fill="#FF8552"/>
<path d="M190 139.976H14.4259V139.501H189.824L190 139.976Z" fill="#2F2E41"/>
<path d="M175.574 110.519H0V110.044H175.398L175.574 110.519Z" fill="#2F2E41"/>
<path d="M74.5274 66.7852C74.5274 66.7852 75.6332 55.8355 77.4762 58.8218C79.3191 61.808 77.4762 66.2875 77.4762 66.2875L76.0018 68.776L74.5274 67.2829V66.7852Z" fill="#FFB8B8"/>
<path d="M70.1043 70.2692C70.1043 70.2692 73.7903 64.7944 74.5274 65.7898C75.2646 66.7852 77.4762 67.2829 77.1076 69.2738C76.739 71.2646 68.9985 77.7349 68.9985 77.7349L70.1043 70.2692Z" fill="#FF8552"/>
<path opacity="0.1" d="M70.1043 70.2692C70.1043 70.2692 73.7903 64.7944 74.5274 65.7898C75.2646 66.7852 77.4762 67.2829 77.1076 69.2738C76.739 71.2646 68.9985 77.7349 68.9985 77.7349L70.1043 70.2692Z" fill="black"/>
<path d="M49.0945 69.7715V73.7532C49.0945 73.7532 48.726 82.7121 50.9375 82.2143C53.149 81.7166 52.0433 74.2509 52.0433 74.2509L51.6747 69.7715H49.0945Z" fill="#FFB8B8"/>
<path d="M50.2003 98.6389C50.2003 98.6389 46.883 105.607 45.7772 106.105C44.6714 106.602 38.774 111.082 38.0368 115.561L32.8765 124.52L35.4566 128.999C35.4566 128.999 47.2516 112.077 50.5689 110.584C53.8863 109.091 57.2036 101.625 57.2036 101.625L50.2003 98.6389Z" fill="#FFB8B8"/>
<path d="M76.3704 87.1915C76.3704 87.1915 83.3736 88.6846 82.2679 94.6572C81.1621 100.63 70.4729 113.073 70.4729 113.073L70.1043 116.059L66.0498 117.054L64.2068 114.566L64.5754 113.073C64.5754 113.073 68.9985 107.598 69.3671 105.607C69.7357 103.616 73.7902 95.6526 75.6332 95.1549L73.0531 93.164L76.3704 87.1915Z" fill="#FFB8B8"/>
<path d="M33.9822 124.52C33.9822 124.52 35.4566 121.534 33.245 122.031C31.0335 122.529 29.5591 123.027 29.5591 125.018C29.5591 127.009 31.4021 140.945 33.6136 139.949C35.8252 138.954 33.9822 134.474 33.9822 134.474C33.9822 134.474 35.088 130.493 35.8252 129.995C36.5624 129.497 36.5624 127.009 35.8252 127.009C35.088 127.009 33.6136 125.515 33.9822 124.52Z" fill="#2F2E41"/>
<path d="M65.3126 113.57C65.3126 113.57 65.3126 111.082 63.8382 113.57C62.3639 116.059 61.6267 118.05 63.1011 119.543C64.5754 121.036 69.7357 124.52 69.7357 124.52C69.7357 124.52 75.2646 126.013 74.5274 122.529C74.5274 122.529 70.8415 120.041 70.8415 118.05C70.8415 116.059 70.8415 112.575 69.7357 113.57C68.6299 114.566 65.3126 115.063 65.3126 113.57Z" fill="#2F2E41"/>
<path d="M58.3094 76.2418C58.3094 76.2418 53.1491 77.2372 53.5176 87.1915C53.5176 87.1915 46.883 96.1504 48.7259 99.1367C50.5689 102.123 54.6234 107.598 56.0978 106.105C57.5722 104.612 61.9953 93.1641 61.9953 93.1641C61.9953 93.1641 72.3159 98.1412 74.1588 95.6527C76.0018 93.1641 77.8448 87.1915 77.8448 87.1915L68.6299 80.7212L58.3094 76.2418Z" fill="#2F2E41"/>
<path d="M72.6845 47.8721C75.1273 47.8721 77.1076 45.1981 77.1076 41.8995C77.1076 38.601 75.1273 35.9269 72.6845 35.9269C70.2416 35.9269 68.2614 38.601 68.2614 41.8995C68.2614 45.1981 70.2416 47.8721 72.6845 47.8721Z" fill="#FFB8B8"/>
<path d="M69.3671 42.3973C69.3671 42.3973 66.787 47.8721 66.0498 48.3698C65.3126 48.8676 71.2101 53.8447 71.2101 53.8447C71.2101 53.8447 71.2101 47.3744 73.0531 45.8813L69.3671 42.3973Z" fill="#FFB8B8"/>
<path d="M68.9985 47.8721C68.9985 47.8721 63.101 45.3836 61.9953 49.3653C60.8895 53.347 58.3093 60.8127 58.6779 65.7898C59.0465 70.767 59.7837 69.7716 58.6779 71.2647C57.5721 72.7578 56.835 71.7624 57.2035 73.7533C57.5721 75.7441 57.9407 75.7441 57.5721 76.7396C57.2035 77.735 61.9953 81.219 66.0498 81.7167L70.1043 82.2144C70.1043 82.2144 70.1043 73.2556 70.8415 71.2647C71.5787 69.2738 73.0531 65.2921 73.0531 63.799V59.8483C73.0531 57.2187 72.5449 54.6347 71.5787 52.3516C71.5787 52.3516 69.3671 47.8721 68.9985 47.8721Z" fill="#FF8552"/>
<path d="M64.5754 49.863C64.5754 49.863 50.9375 51.3561 49.4631 56.3333C47.9888 61.3104 47.2516 71.2647 48.7259 71.2647C50.2003 71.2647 52.0433 72.2601 52.4119 71.2647C52.7805 70.2692 54.2548 60.315 54.6234 60.315C54.992 60.315 66.0498 58.8218 66.0498 58.8218C66.0498 58.8218 70.8415 50.8584 64.5754 49.863Z" fill="#FF8552"/>
<path d="M72.8622 40.4188C72.8622 40.4188 74.036 37.6645 75.5031 40.0569C76.9703 42.4493 79.3571 38.0528 78.9907 37.1147C78.6243 36.1766 77.3304 37.1569 75.113 36.1781C72.8955 35.1993 68.624 33.2052 67.9086 39.7099C67.1932 46.2145 68.897 45.5326 68.897 45.5326C68.897 45.5326 69.678 39.7688 70.3838 41.4244L71.0896 43.08L71.7019 43.2835L72.8622 40.4188Z" fill="#2F2E41"/>
<path d="M114.582 25.1779C117.562 25.1779 119.979 21.9155 119.979 17.8911C119.979 13.8667 117.562 10.6042 114.582 10.6042C111.602 10.6042 109.186 13.8667 109.186 17.8911C109.186 21.9155 111.602 25.1779 114.582 25.1779Z" fill="#2F2E41"/>
<path d="M112.857 23.2846C112.857 23.2846 113.136 30.072 112.578 30.072C112.019 30.072 116.069 33.2772 116.069 33.2772L118.582 31.3918V29.1293C118.582 29.1293 115.231 28.5637 116.627 23.6617C118.023 18.7596 112.857 23.2846 112.857 23.2846Z" fill="#9F616A"/>
<path d="M101.128 97.7577L100.709 103.414L102.106 103.979L103.223 102.471L103.642 97.7577H101.128Z" fill="#9F616A"/>
<path d="M121.235 100.963L121.933 104.545L123.888 106.242L125.982 104.734L123.608 99.4545L121.235 100.963Z" fill="#9F616A"/>
<path d="M114.184 26.207C116.42 26.207 118.233 23.759 118.233 20.7393C118.233 17.7196 116.42 15.2717 114.184 15.2717C111.947 15.2717 110.134 17.7196 110.134 20.7393C110.134 23.759 111.947 26.207 114.184 26.207Z" fill="#9F616A"/>
<path d="M111.74 41.1959L110.763 40.6302C110.763 40.6302 109.087 39.3105 108.948 36.6709C108.808 34.0314 110.344 30.6376 110.344 30.6376L112.578 29.6949L115.203 32.5797L115.231 37.2365L111.74 41.1959Z" fill="#9F616A"/>
<path d="M110.763 31.0147L110.204 30.6376C110.204 30.6376 107.412 30.4491 107.132 34.974C106.853 39.4989 105.876 47.0405 105.876 47.0405C105.876 47.0405 103.642 52.3196 103.781 57.9758L102.664 62.8778C102.664 62.8778 101.128 70.0423 102.944 70.0423C104.759 70.0423 104.619 62.3122 104.619 62.3122C104.619 62.3122 107.97 51.3769 108.249 49.4915C108.529 47.6061 110.902 38.7448 110.204 36.2938C109.506 33.8428 110.763 31.0147 110.763 31.0147Z" fill="#9F616A"/>
<path d="M112.857 42.8927V44.9666C112.857 44.9666 113.835 46.475 113.416 47.4176C112.997 48.3603 112.578 50.2457 112.578 50.2457L114.533 54.3936L121.095 55.1478L122.4 43.3414L112.857 42.8927Z" fill="#9F616A"/>
<path d="M119.001 29.6949L120.118 28.9408C120.118 28.9408 122.491 26.6783 124.446 26.3012L130.45 20.8336L134.36 8.20144C134.36 8.20144 134.22 1.41402 135.337 2.16817C136.454 2.92233 136.314 8.76706 136.314 8.76706C136.314 8.76706 134.22 20.4565 132.405 23.6617C130.59 26.8668 124.027 32.1459 124.027 32.1459C124.027 32.1459 122.212 34.974 122.352 36.2938C122.491 37.6136 119.001 29.6949 119.001 29.6949Z" fill="#9F616A"/>
<path d="M113.835 50.2458C113.835 50.2458 112.299 48.926 111.321 51.1885C110.344 53.4509 108.529 54.0165 107.412 60.804C106.295 67.5914 103.642 78.3381 102.944 79.0923C102.245 79.8464 99.3133 87.7651 100.989 98.8889H103.781L106.155 82.8631C106.155 82.8631 113.835 70.0424 114.393 64.7633L116.906 84.5599C116.906 84.5599 117.046 92.1015 119.14 95.6837L121.374 102.848L124.307 100.963L120.956 82.8631C120.956 82.8631 122.631 64.5747 121.514 59.4842L121.354 52.8104C121.354 52.8104 116.767 53.0738 113.835 50.2458Z" fill="#2F2E41"/>
<path d="M102.106 102.471H100.43C100.151 102.471 97.9171 104.922 98.8944 106.242C99.8718 107.562 101.408 110.013 101.408 110.013C101.408 110.013 106.853 110.948 106.993 109.628C107.132 108.308 104.619 105.488 104.619 105.488L103.921 102.471C103.921 102.471 102.525 100.397 102.106 102.471Z" fill="#2F2E41"/>
<path d="M124.307 104.357C124.307 104.357 121.933 104.168 121.514 103.98C121.095 103.791 120.257 108.882 121.514 109.259C122.771 109.636 127.937 110.201 127.937 110.201C127.937 110.201 131.986 110.013 131.707 108.504C131.428 106.996 125.982 103.98 125.982 103.98C125.982 103.98 125.284 102.094 124.307 104.357Z" fill="#2F2E41"/>
<path d="M113.276 29.5064L112.578 28.9408L111.74 29.8835C111.74 29.8835 114.253 32.1459 113.695 34.2199C113.136 36.2938 110.763 40.6302 110.763 40.6302C110.763 40.6302 112.857 43.8354 112.857 44.9666C112.857 44.9666 118.303 42.3271 122.352 44.9666C122.352 44.9666 122.352 41.1959 122.91 40.4417C123.469 39.6876 123.748 37.048 122.352 34.7855C121.368 33.1207 120.481 31.3558 119.699 29.5064L118.303 28.3752L117.583 28.6832C117.583 28.6832 119.001 30.8262 117.604 31.0147C116.208 31.2033 113.974 30.6376 113.276 29.5064Z" fill="#FF8552"/>
<path d="M118.526 5.46765C118.052 6.18266 117.402 6.64221 116.697 6.76176C115.477 6.99705 116.435 9.58526 116.435 9.58526C116.435 9.58526 116.087 8.64409 116.784 7.82057C117.481 6.99705 118.526 6.52646 118.526 5.46765Z" fill="#2F2E41"/>
<path d="M116.174 12.1572C117.005 12.1572 117.678 11.248 117.678 10.1265C117.678 9.0049 117.005 8.0957 116.174 8.0957C115.344 8.0957 114.67 9.0049 114.67 10.1265C114.67 11.248 115.344 12.1572 116.174 12.1572Z" fill="#2F2E41"/>
<path d="M117.93 12.1261C116.768 11.3066 114.77 10.6621 113.708 10.7082L113.976 9.32135C114.916 10.1838 116.905 10.8404 118.199 10.7392L117.93 12.1261Z" fill="#FF8552"/>
<path d="M115.53 12.2481C115.53 12.2481 113.699 15.4266 110.037 16.133C106.376 16.8393 109.253 24.6091 109.253 24.6091C109.253 24.6091 108.207 21.7837 110.299 19.3115C112.391 16.8393 115.53 15.4266 115.53 12.2481Z" fill="#2F2E41"/>
<path d="M115.67 12.0596C115.67 12.0596 116.716 17.004 118.285 17.7103C119.854 18.4167 119.07 25.8332 116.454 26.5396C116.454 26.5396 118.677 22.4781 117.37 19.2996C116.062 16.121 115.277 13.6488 115.67 12.0596Z" fill="#2F2E41"/>
<path d="M140.294 3.77075H130.66V5.27907H140.294V3.77075Z" fill="#2F2E41"/>
<path d="M140.294 9.04989C140.756 9.04989 141.132 7.024 141.132 4.52495C141.132 2.02589 140.756 0 140.294 0C139.831 0 139.456 2.02589 139.456 4.52495C139.456 7.024 139.831 9.04989 140.294 9.04989Z" fill="#2F2E41"/>
<path d="M130.66 9.04989C131.122 9.04989 131.497 7.024 131.497 4.52495C131.497 2.02589 131.122 0 130.66 0C130.197 0 129.822 2.02589 129.822 4.52495C129.822 7.024 130.197 9.04989 130.66 9.04989Z" fill="#2F2E41"/>
<path d="M145.181 105.209H135.546V106.717H145.181V105.209Z" fill="#2F2E41"/>
<path d="M145.181 110.488C145.643 110.488 146.019 108.462 146.019 105.963C146.019 103.464 145.643 101.438 145.181 101.438C144.718 101.438 144.343 103.464 144.343 105.963C144.343 108.462 144.718 110.488 145.181 110.488Z" fill="#2F2E41"/>
<path d="M135.547 110.488C136.009 110.488 136.384 108.462 136.384 105.963C136.384 103.464 136.009 101.438 135.547 101.438C135.084 101.438 134.709 103.464 134.709 105.963C134.709 108.462 135.084 110.488 135.547 110.488Z" fill="#2F2E41"/>
<path opacity="0.3" d="M34.1296 103.986C34.1296 98.4303 31.5821 93.9262 28.4396 93.9262C26.4644 93.9262 24.7248 95.7062 23.7046 98.4077C23.3542 98.248 22.9869 98.1665 22.6172 98.1662C21.6609 98.1881 20.7479 98.7084 20.0693 99.6185C19.1496 96.2501 17.1995 93.9262 14.9422 93.9262C12.8317 93.9262 10.991 95.9593 10.0086 98.9767C9.43243 98.4544 8.75518 98.1726 8.06122 98.1662C5.64951 98.1662 3.69443 101.623 3.69443 105.887C3.68737 107.325 3.92263 108.747 4.38241 110.044H32.9821C33.749 108.194 34.1446 106.106 34.1296 103.986Z" fill="#FF8552"/>
</g>
<defs>
<clipPath id="clip0">
<rect width="190" height="140" fill="white"/>
</clipPath>
</defs>
</svg>
