<svg width="180" height="140" viewBox="0 0 180 140" fill="none" xmlns="http://www.w3.org/2000/svg">
<g clip-path="url(#clip0)">
<path opacity="0.1" d="M93.0964 25.1782C81.7285 27.4656 70.3766 26.485 59.4563 25.0587C48.536 23.6324 37.6428 21.7699 26.2701 22.3313C18.9544 22.6917 10.8072 24.4177 5.69903 29.4343C0.78203 34.2594 0.0158898 40.7707 0.0063329 46.6484C-0.00640956 51.0695 0.315338 55.6443 2.94666 59.1664C4.7752 61.6092 7.58969 63.3599 9.70972 65.615C17.086 73.4482 14.8433 85.7822 10.0028 96.2688C7.73145 101.189 4.9536 106.027 3.40698 111.063C1.86036 116.098 1.65489 121.494 4.42319 125.601C7.16601 129.673 12.4717 131.968 18.0035 133.157C29.2391 135.573 41.757 134.073 53.8687 132.04C80.6741 127.524 107.202 120.483 133.673 113.46C143.467 110.86 153.305 108.248 162.74 104.5C167.981 102.414 173.317 99.8175 176.701 95.7757C181.002 90.6547 181.11 83.6503 176.966 79.4644C170.012 72.4468 154.271 74.0039 148.892 65.981C145.933 61.5637 147.222 55.5646 149.577 50.2653C154.628 38.9005 164.391 27.6723 163.126 16.3417C162.253 8.56538 155.593 2.13001 146.667 0.453368C137.311 -1.30294 125.295 2.0276 119.908 9.85321C114.37 17.9159 103.134 23.1526 93.0964 25.1782Z" fill="#FF8552"/>
<path d="M102.486 68.1356H57.3411V80.5833H102.486V68.1356Z" fill="#565661"/>
<path opacity="0.1" d="M102.486 68.1356H57.3411V80.5833H102.486V68.1356Z" fill="black"/>
<path d="M62.7422 80.993L63.0592 114.224L58.7172 127.277L58.3811 80.993H62.7422Z" fill="#BCBEC9"/>
<path d="M57.8174 70.5254L101.771 70.8402V80.1111H57.8174V70.5254Z" fill="#565661"/>
<path d="M98.0101 80.993L101.771 81.6246V126.773L98.0101 112.963V80.993Z" fill="#BCBEC9"/>
<path d="M124.382 68.6344H103.2V122.234H124.382V68.6344Z" fill="#EFEFF0"/>
<path d="M122.688 70.1233H104.894V111.324H122.688V70.1233Z" fill="#565661"/>
<path opacity="0.1" d="M122.688 70.1233H104.894V111.324H122.688V70.1233Z" fill="black"/>
<path d="M122.688 70.9673H104.894V80.1111H122.688V70.9673Z" fill="#565661"/>
<path d="M122.688 80.993H104.894V100.415H122.688V80.993Z" fill="#565661"/>
<path d="M122.688 101.614H104.894V121.035H122.688V101.614Z" fill="#565661"/>
<path opacity="0.1" d="M122.688 101.614H104.894V121.035H122.688V101.614Z" fill="black"/>
<path d="M105.637 125.724C106.27 125.724 106.783 124.943 106.783 123.979C106.783 123.015 106.27 122.234 105.637 122.234C105.003 122.234 104.49 123.015 104.49 123.979C104.49 124.943 105.003 125.724 105.637 125.724Z" fill="#565661"/>
<path d="M121.541 125.807C122.174 125.807 122.688 125.026 122.688 124.062C122.688 123.099 122.174 122.317 121.541 122.317C120.907 122.317 120.394 123.099 120.394 124.062C120.394 125.026 120.907 125.807 121.541 125.807Z" fill="#565661"/>
<path d="M57.1819 127.277H58.7173L58.2952 69.0991H55.9634L57.1819 127.277Z" fill="#EFEFF0"/>
<path d="M101.771 68.6344V126.773H103.2V69.0991L101.771 68.6344Z" fill="#EFEFF0"/>
<path d="M58.37 79.5421V81.6246H101.771V80.1111L58.37 79.5421Z" fill="#EFEFF0"/>
<path d="M61.3119 64.7254H116.334L124.33 67.8776V69.706L55.6989 69.0763V67.2157L61.3119 64.7254Z" fill="white"/>
<path d="M55.6989 67.2157L124.33 67.8776V69.706L55.6989 69.0763V67.2157Z" fill="#BCBEC9"/>
<path d="M61.9156 88.8983L61.597 88.8414C61.597 88.8243 61.597 88.8092 61.597 88.794C61.5875 88.7048 61.5763 88.6176 61.5652 88.5284C61.6958 88.6517 61.82 88.775 61.9347 88.8983H61.9156Z" fill="url(#paint0_linear)"/>
<path d="M54.9933 118.185C55.2003 118.128 55.4106 118.08 55.6208 118.046C57.0648 117.801 58.5375 118.06 59.8609 118.79C59.7271 119.962 59.5949 121.174 59.8784 122.306C60.0759 123.103 60.4725 123.823 60.5569 124.654C60.7697 124.698 60.968 124.811 61.1297 124.981C61.2915 125.151 61.4103 125.372 61.4728 125.618C61.5339 125.835 61.5646 126.063 61.5636 126.293C61.5618 126.577 61.5319 126.859 61.4744 127.135C61.455 127.355 61.3643 127.558 61.2215 127.699C61.0787 127.841 60.8952 127.911 60.7098 127.894C59.477 128.061 58.2681 127.482 57.1213 126.915L54.8913 125.811C54.6301 125.682 54.3673 125.551 54.1172 125.392C53.6429 125.087 53.2218 124.677 52.8764 124.184C52.8034 124.096 52.7522 123.986 52.7283 123.865C52.6869 123.531 53.015 123.332 53.2237 123.106C53.2848 123.038 53.3383 122.96 53.3829 122.875C53.6298 122.431 53.6537 121.819 53.8019 121.295C54.1523 120.053 55.2354 119.252 55.6177 118.04C55.6384 117.974 55.6575 117.908 55.6734 117.839" fill="#A26565"/>
<path opacity="0.1" d="M61.5636 126.293C61.5618 126.577 61.5319 126.859 61.4744 127.135C61.455 127.355 61.3643 127.558 61.2215 127.699C61.0787 127.841 60.8952 127.911 60.7099 127.894C59.477 128.061 58.2681 127.482 57.1213 126.915L54.8913 125.811C54.6301 125.682 54.3673 125.551 54.1172 125.392C53.6429 125.087 53.2218 124.677 52.8764 124.184C52.8034 124.096 52.7522 123.986 52.7283 123.865C52.6869 123.531 53.015 123.332 53.2237 123.106C53.2848 123.038 53.3383 122.96 53.3829 122.875C53.9978 123.032 54.7607 123.493 55.2306 123.672C55.7013 123.824 56.1532 124.049 56.5749 124.341C57.1611 124.789 57.5832 125.479 58.0801 126.048C58.5771 126.617 59.219 127.135 59.9119 127.065C60.2782 126.999 60.6313 126.854 60.9536 126.636L61.5636 126.293Z" fill="black"/>
<path d="M58.953 99.3394C58.9944 99.5115 58.9907 99.6946 58.9423 99.8641C58.8939 100.034 58.8032 100.181 58.6822 100.288C58.4736 100.441 58.2044 100.421 57.9973 100.587C57.7409 100.802 57.7042 101.227 57.6596 101.595C57.5004 102.86 56.9731 104.007 56.5224 105.17C56.0716 106.332 55.6909 107.601 55.8566 108.864C55.9697 109.722 56.3233 110.636 55.992 111.408C55.9107 111.598 55.7897 111.766 55.6973 111.95C55.2434 112.853 55.5014 113.997 55.4839 115.048C55.4905 115.164 55.4689 115.281 55.4218 115.383C55.3521 115.48 55.2664 115.559 55.1701 115.615C55.0084 115.756 54.8756 115.939 54.7815 116.151C54.6875 116.362 54.6346 116.595 54.6269 116.834C54.6135 117.312 54.6619 117.789 54.7703 118.249C54.7878 118.435 54.8568 118.608 54.9662 118.742C55.093 118.842 55.2428 118.892 55.3947 118.886C56.3954 118.983 57.3769 119.267 58.3031 119.729C58.9068 120.028 59.493 120.404 60.1349 120.548C60.1969 120.571 60.2623 120.578 60.3269 120.57C60.3916 120.562 60.4541 120.538 60.5108 120.5C60.5915 120.414 60.6472 120.299 60.67 120.172C60.9169 119.205 61.167 118.207 61.0826 117.202C61.0459 116.77 60.9488 116.347 60.9233 115.914C60.8118 114.207 61.7818 112.667 62.0892 110.983C62.2278 110.224 62.2278 109.439 62.3266 108.673C62.5942 106.573 63.5658 104.69 63.9401 102.613C63.9922 102.226 64.0732 101.845 64.1822 101.475C64.4609 100.671 65.106 100.018 65.1203 99.1479C65.1292 98.9564 65.0868 98.7665 64.9993 98.6054C64.8491 98.4092 64.6496 98.2761 64.4307 98.2261C63.5653 97.9426 62.6845 97.731 61.7946 97.5926C61.3867 97.4972 60.9704 97.4628 60.5554 97.4902C60.0164 97.5657 59.4984 97.7834 59.039 98.1275C58.4242 98.5789 58.8192 98.687 58.953 99.3394Z" fill="#454B69"/>
<path opacity="0.05" d="M58.953 99.3394C58.9944 99.5115 58.9907 99.6946 58.9423 99.8641C58.8939 100.034 58.8032 100.181 58.6822 100.288C58.4736 100.441 58.2044 100.421 57.9973 100.587C57.7409 100.802 57.7042 101.227 57.6596 101.595C57.5004 102.86 56.9731 104.007 56.5224 105.17C56.0716 106.332 55.6909 107.601 55.8566 108.864C55.9697 109.722 56.3233 110.636 55.992 111.408C55.9107 111.598 55.7897 111.766 55.6973 111.95C55.2434 112.853 55.5014 113.997 55.4839 115.048C55.4905 115.164 55.4689 115.281 55.4218 115.383C55.3521 115.48 55.2664 115.559 55.1701 115.615C55.0084 115.756 54.8756 115.939 54.7815 116.151C54.6875 116.362 54.6346 116.595 54.6269 116.834C54.6135 117.312 54.6619 117.789 54.7703 118.249C54.7878 118.435 54.8568 118.608 54.9662 118.742C55.093 118.842 55.2428 118.892 55.3947 118.886C56.3954 118.983 57.3769 119.267 58.3031 119.729C58.9068 120.028 59.493 120.404 60.1349 120.548C60.1969 120.571 60.2623 120.578 60.3269 120.57C60.3916 120.562 60.4541 120.538 60.5108 120.5C60.5915 120.414 60.6472 120.299 60.67 120.172C60.9169 119.205 61.167 118.207 61.0826 117.202C61.0459 116.77 60.9488 116.347 60.9233 115.914C60.8118 114.207 61.7818 112.667 62.0892 110.983C62.2278 110.224 62.2278 109.439 62.3266 108.673C62.5942 106.573 63.5658 104.69 63.9401 102.613C63.9922 102.226 64.0732 101.845 64.1822 101.475C64.4609 100.671 65.106 100.018 65.1203 99.1479C65.1292 98.9564 65.0868 98.7665 64.9993 98.6054C64.8491 98.4092 64.6496 98.2761 64.4307 98.2261C63.5653 97.9426 62.6845 97.731 61.7946 97.5926C61.3867 97.4972 60.9704 97.4628 60.5554 97.4902C60.0164 97.5657 59.4984 97.7834 59.039 98.1275C58.4242 98.5789 58.8192 98.687 58.953 99.3394Z" fill="black"/>
<path d="M55.8358 127.924H54.4772L53.5884 106.181L53.5262 104.944L54.681 104.46L54.7591 105.775L55.8358 127.924Z" fill="#565661"/>
<path opacity="0.1" d="M54.7591 105.775L53.5884 106.181L53.5262 104.944L54.681 104.46L54.7591 105.775Z" fill="black"/>
<path d="M72.8837 132.523L70.6426 132.846L60.318 104.944L57.5338 104.701L52.6439 106.401L51.693 139.621H49.4519L50.3343 105.187L44.9681 105.35L35.3922 133.735H33.355L43.4263 100.561L43.8149 99.2826L58.824 98.6699L62.5655 101.168L62.6132 101.312L72.8837 132.523Z" fill="#565661"/>
<path opacity="0.1" d="M62.6132 101.312C59.3878 102.469 56.0397 103.732 56.0397 103.732C56.0397 103.732 52.9863 105.001 51.6929 103.732C51.5298 103.581 51.3476 103.461 51.153 103.377C51.3208 103.52 51.502 103.639 51.6929 103.732L43.4263 100.559L43.8133 99.2826L58.8239 98.6699L62.5654 101.168L62.6132 101.312Z" fill="black"/>
<path d="M47.3462 95.8059L53.4578 94.1881C53.4578 94.1881 68.0606 97.4238 69.1469 98.7173C69.1469 98.7173 57.4653 101.547 56.1751 102.511C54.8849 103.474 47.2092 104.54 47.3462 95.8059Z" fill="white"/>
<path d="M44.7181 77.6189C44.2402 79.4226 42.9357 81.0481 41.3477 81.1258C41.2321 81.1419 41.1152 81.1168 41.0116 81.0537C40.8125 80.9058 40.8077 80.5587 40.889 80.2951C40.9702 80.0314 41.112 79.7944 41.1343 79.5174C41.139 79.4609 41.1358 79.4039 41.1247 79.3486C41.0833 79.1229 40.9288 78.9219 40.7472 78.9693C40.8708 78.8515 40.9532 78.6831 40.9782 78.4969C41.0033 78.3107 40.9692 78.1201 40.8826 77.9622C40.8105 77.8653 40.7455 77.7612 40.6883 77.6511C40.5561 77.3287 40.7615 76.9664 40.8476 76.6213C41.0244 75.8626 40.5752 75.1039 40.5385 74.313C40.5067 73.6056 40.8077 72.9398 40.8826 72.2381C41.0021 71.1001 40.5274 70.0095 40.4716 68.8734C40.4334 68.0806 40.5975 67.2954 40.7807 66.531C40.9399 65.8482 41.1199 65.1579 41.1311 64.4447C41.1311 63.9269 41.0562 63.4148 41.0355 62.8989C41.0025 62.4273 41.0744 61.9537 41.2442 61.5258C41.3544 61.2742 41.5422 61.0831 41.7682 60.9928C42.2906 60.7842 42.6331 61.1085 42.7095 61.6984C42.837 62.7017 42.7637 63.7259 42.9309 64.733C43.0856 65.6748 43.3198 66.5956 43.6302 67.4813C43.9121 68.2817 44.2546 69.0555 44.4712 69.8843C44.6343 70.5675 44.7509 71.2652 44.82 71.9707C45.0334 73.8654 45.2007 75.8152 44.7181 77.6189Z" fill="#FF8552"/>
<path d="M80.9958 123.526C80.7943 123.864 80.535 124.147 80.235 124.358C79.9349 124.569 79.6009 124.701 79.2548 124.747C78.5636 124.85 77.8452 124.643 77.1746 124.868C77.0708 124.889 76.9728 124.939 76.8894 125.016C76.806 125.092 76.7398 125.192 76.6968 125.307C76.6802 125.461 76.6701 125.616 76.6665 125.771C76.5885 126.278 76.0294 126.391 75.5946 126.388L73.8011 126.374C73.4283 126.374 73.0158 126.35 72.7482 126.043C72.621 125.875 72.5492 125.658 72.5463 125.432C72.5434 125.205 72.6095 124.986 72.7323 124.813C72.7879 124.735 72.8562 124.67 72.933 124.624C72.821 124.58 72.7215 124.499 72.6456 124.392C72.5696 124.284 72.5202 124.154 72.5029 124.015C72.4703 123.736 72.4816 123.452 72.5364 123.179C72.5364 122.386 72.6956 121.058 73.1639 120.438C73.7389 119.666 74.736 118.668 75.6041 118.462C75.8973 118.395 76.1995 118.41 76.4866 118.508C76.7737 118.605 77.0377 118.781 77.2575 119.021C77.6684 119.476 77.9678 120.189 78.5317 120.269C78.8391 120.315 79.1354 120.142 79.4396 120.079C79.7854 120.026 80.1364 120.102 80.4447 120.296C80.7529 120.49 81.0033 120.792 81.1614 121.162C81.2386 121.35 81.2923 121.55 81.3207 121.756C81.4049 122.374 81.2887 123.006 80.9958 123.526Z" fill="#A26565"/>
<path opacity="0.1" d="M80.9958 123.526C80.7943 123.864 80.5351 124.147 80.235 124.358C79.935 124.568 79.601 124.701 79.2549 124.747C78.5636 124.849 77.8453 124.643 77.1747 124.868C77.0708 124.889 76.9729 124.939 76.8895 125.016C76.8061 125.092 76.7399 125.192 76.6968 125.307C76.6802 125.461 76.6701 125.616 76.6666 125.771C76.5885 126.278 76.0295 126.391 75.5946 126.388L73.8011 126.374C73.4284 126.374 73.0159 126.35 72.7483 126.042C72.621 125.875 72.5493 125.658 72.5464 125.432C72.5434 125.205 72.6095 124.986 72.7323 124.813C73.7677 124.762 74.7855 124.813 75.8176 124.559C76.2365 124.459 76.6491 124.326 77.0727 124.256C77.9902 124.1 78.9666 124.233 79.8092 123.77C80.5116 123.391 81.0149 122.619 81.3128 121.758C81.3989 122.374 81.2856 123.005 80.9958 123.526Z" fill="black"/>
<path d="M76.2636 120.527C75.6265 121.115 74.8795 121.574 74.0767 121.623C73.2739 121.673 72.4218 121.244 72.0283 120.413C71.4533 119.194 71.963 117.498 71.259 116.379C71.0392 116.028 70.7222 115.78 70.4897 115.44C70.2571 115.101 70.1233 114.59 70.3304 114.23C70.0803 114.344 69.8159 114.056 69.7427 113.748C69.6694 113.441 69.7156 113.111 69.671 112.8C69.5547 111.975 68.8746 111.446 68.548 110.714C68.2215 109.982 68.2661 109.031 68.2295 108.165C68.1481 106.053 67.4879 104.031 66.35 102.408C66.1333 102.101 65.8562 101.788 65.5185 101.803C65.5775 101.109 65.1888 100.445 64.6855 100.096C64.1822 99.7472 63.5833 99.6296 63.0003 99.5613C57.118 98.8709 50.9889 101.475 45.3727 99.2844C43.8101 98.6756 42.3033 97.6571 41.3477 96.0601C40.9754 95.4523 40.7091 94.7619 40.5643 94.0297C40.4196 93.2974 40.3995 92.5381 40.5051 91.7964V91.7698C40.7265 90.4232 41.3238 90.0913 42.3129 89.4768C43.4548 88.7579 44.6483 88.1619 45.8792 87.6958C48.2684 86.8063 50.8408 86.4857 53.3065 87.1382C54.4581 87.4454 55.5682 87.9537 56.7214 88.2515C57.1754 88.3691 57.6325 88.4526 58.0928 88.5227C58.808 88.629 59.5264 88.6991 60.2463 88.7978C62.5484 89.1134 64.8156 89.7206 67.0094 90.6091C67.8265 90.9391 68.6436 91.3165 69.346 91.914C69.9017 92.3945 70.3714 93.0018 70.728 93.7006C71.0846 94.3994 71.3209 95.1756 71.4231 95.9842C71.49 96.5418 71.4916 97.1222 71.5935 97.6627C71.6901 98.117 71.818 98.5611 71.9758 98.9904C73.3368 102.997 74.4489 107.118 75.3032 111.319C75.3516 111.631 75.4414 111.932 75.5691 112.21C75.773 112.603 76.1234 112.866 76.3289 113.259C76.8068 114.185 76.3464 115.476 76.7701 116.44C76.9167 116.773 77.1604 117.037 77.3069 117.371C77.7847 118.465 77.0791 119.774 76.2636 120.527Z" fill="#454B69"/>
<path opacity="0.1" d="M68.1243 98.7344C68.3508 98.5211 68.5461 98.2647 68.7025 97.9757C68.8595 97.6853 68.9218 97.3365 68.8777 96.9952C68.9398 97.427 68.9161 97.8701 68.8085 98.2891C68.7009 98.708 68.5124 99.0911 68.2581 99.4077C67.8583 99.8952 67.1081 100.373 66.5236 100.206C66.6064 99.6486 67.7532 99.11 68.1243 98.7344Z" fill="black"/>
<path opacity="0.1" d="M58.1725 89.2814C58.1244 89.4847 58.0346 89.6706 57.9112 89.8222C57.7877 89.9739 57.6345 90.0866 57.4653 90.1501C57.1257 90.2737 56.7701 90.3232 56.4157 90.2961H56.0971C51.9176 90.1861 47.6934 89.0823 43.6111 90.1349C43.1191 90.2557 42.6364 90.4251 42.168 90.6413C41.5713 90.9214 41.0125 91.3049 40.5099 91.7793V91.7528C40.7313 90.4062 41.3286 90.0742 42.3177 89.4597C43.4586 88.747 44.6505 88.1567 45.8792 87.6958C48.2685 86.8063 50.8408 86.4857 53.3065 87.1382C54.4581 87.4454 55.5683 87.9538 56.7215 88.2515C57.1754 88.3691 57.6326 88.4526 58.0929 88.5228C58.1822 88.7606 58.2099 89.0247 58.1725 89.2814Z" fill="black"/>
<path d="M58.1726 89.0102C58.1248 89.2139 58.0352 89.4002 57.9117 89.5523C57.7882 89.7043 57.6348 89.8172 57.4654 89.8808C57.1258 90.0047 56.77 90.0535 56.4157 90.0249H56.0971C51.9176 89.9149 47.6935 88.811 43.6111 89.8637C43.1193 89.9847 42.6367 90.1534 42.168 90.3682C41.5431 90.6649 40.9602 91.0743 40.4398 91.5821C40.3177 91.1825 40.1961 90.7823 40.0751 90.3815C39.9286 89.9035 40.3937 89.7973 40.4828 89.3687C40.5418 89.0785 40.4414 88.7484 40.3905 88.4393C40.3774 88.3636 40.3689 88.2869 40.365 88.2098C40.3363 87.5251 40.5418 87.1306 41.0133 86.7607C42.4117 85.6607 44.1176 84.9058 45.7136 84.3387C46.5621 84.0193 47.4386 83.8169 48.3258 83.7356C49.581 83.6483 50.8345 83.9252 52.0562 84.2761C53.5582 84.7181 55.0443 85.3022 56.3759 86.2373C57.0289 86.6906 57.666 87.2596 58.0181 88.0676C58.1585 88.3515 58.2131 88.6842 58.1726 89.0102Z" fill="#A26565"/>
<path opacity="0.1" d="M44.7181 77.6189C44.2403 79.4226 42.9358 81.048 41.3477 81.1258C41.2322 81.1419 41.1152 81.1168 41.0116 81.0537C40.8125 80.9058 40.8078 80.5587 40.889 80.2951C40.9702 80.0314 41.112 79.7944 41.1343 79.5174C41.139 79.4609 41.1358 79.4039 41.1247 79.3486C41.9673 77.9337 42.7844 76.5037 43.1078 74.8289C43.1732 74.5405 43.1932 74.2402 43.1667 73.9432C43.1237 73.6018 42.9788 73.2926 42.8991 72.9626C42.759 72.3784 42.8243 71.7601 42.8641 71.1551C43.0299 68.4909 42.6563 65.8182 41.7746 63.3617C41.5596 62.7699 41.3143 62.1706 41.2394 61.539C41.3497 61.2874 41.5375 61.0964 41.7635 61.006C42.2859 60.7974 42.6283 61.1217 42.7048 61.7116C42.8322 62.7149 42.759 63.7391 42.9262 64.7463C43.0808 65.6881 43.3151 66.6089 43.6254 67.4945C43.9074 68.2949 44.2498 69.0687 44.4664 69.8976C44.6295 70.5808 44.7462 71.2785 44.8153 71.9839C45.0335 73.8654 45.2007 75.8152 44.7181 77.6189Z" fill="black"/>
<path opacity="0.1" d="M58.1725 89.0102C58.1248 89.2139 58.0351 89.4003 57.9116 89.5523C57.7881 89.7043 57.6347 89.8172 57.4653 89.8808C57.1257 90.0047 56.77 90.0536 56.4156 90.0249H56.0971C54.7365 88.9489 53.1009 88.4788 51.4779 88.6973C50.9587 88.7712 50.4394 88.9154 49.9202 88.8585C48.8705 88.7447 48.0199 87.8457 47.085 87.271C46.021 86.6454 44.8244 86.4127 43.6486 86.6026C42.4728 86.7925 41.3715 87.3965 40.486 88.3369L40.3952 88.4317C40.3821 88.3561 40.3736 88.2794 40.3697 88.2022C40.341 87.5175 40.5465 87.123 41.018 86.7532C42.4165 85.6531 44.1223 84.8982 45.7183 84.3311C46.5668 84.0117 47.4433 83.8094 48.3305 83.728C49.5857 83.6408 50.8392 83.9177 52.0609 84.2686C53.5629 84.7105 55.049 85.2947 56.3806 86.2297C57.0289 86.6906 57.666 87.2596 58.018 88.0676C58.1585 88.3515 58.213 88.6842 58.1725 89.0102Z" fill="black"/>
<path d="M61.7452 68.2342L61.7229 68.3025C61.3661 69.4044 60.7099 70.3357 60.2894 71.4092C59.759 72.7691 59.6283 74.294 59.5105 75.7886C59.4085 77.0688 59.3082 78.3566 59.3894 79.6407C59.5933 82.8043 60.8914 85.8048 61.2387 88.9078C61.3242 89.6244 61.3461 90.3498 61.304 91.0718C61.2753 91.5289 61.2052 92.0202 60.9504 92.3578C60.6955 92.6954 60.2002 92.8282 59.9262 92.5038C60.0488 92.225 60.1731 91.9481 60.2973 91.6693C59.5694 90.996 58.4736 91.4796 57.623 91.0586C57.2487 90.8689 56.9492 90.5275 56.6355 90.2221C55.9193 89.5288 55.094 89.0129 54.208 88.7048C53.3221 88.3967 52.3933 88.3025 51.4764 88.4279C50.9571 88.5038 50.4378 88.6479 49.9186 88.591C48.8689 88.4753 48.0184 87.5782 47.0834 87.0035C46.0195 86.3782 44.8231 86.1454 43.6474 86.335C42.4717 86.5246 41.3703 87.1279 40.4844 88.0675C40.2614 88.3141 39.9619 88.6024 39.688 88.4469C39.5821 88.3697 39.4965 88.2586 39.4411 88.1263C38.3978 86.004 39.1655 83.2671 40.2805 81.1997C41.3955 79.1324 42.872 77.2262 43.3307 74.8308C43.397 74.5425 43.417 74.242 43.3897 73.945C43.3467 73.6036 43.2017 73.2945 43.1221 72.9644C42.9819 72.3803 43.0472 71.762 43.087 71.1569C43.2542 68.4924 42.8816 65.8191 42.0007 63.3617C41.7459 62.6542 41.4433 61.9373 41.4433 61.1691C41.4433 59.9591 42.1712 58.9557 42.7733 57.9827C43.4661 56.8637 44.0475 55.6252 44.9251 54.7053C45.7566 53.8309 46.9607 53.2961 47.9897 53.7399C49.7381 53.2345 51.5377 53.0257 53.3352 53.1197C53.9564 53.1538 54.5983 53.2316 55.143 53.5901C55.726 53.9694 56.1449 54.6446 56.7183 55.0486C57.1372 55.3464 57.6198 55.4867 58.0754 55.6954C59.3332 56.2804 60.3716 57.3862 60.9997 58.8097C61.6369 60.2796 61.7962 61.9695 61.9363 63.6158C62.0701 65.1654 62.1975 66.7756 61.7452 68.2342Z" fill="#FF8552"/>
<path opacity="0.1" d="M59.3894 79.6407C59.5933 82.8043 60.8915 85.8049 61.2387 88.9078C60.5442 88.2079 59.5774 87.5043 59.4484 86.6906C59.305 85.8106 58.8463 84.6574 58.7698 83.7679C58.6934 82.8783 59.2174 81.7915 58.6679 81.1808C58.4003 80.883 59.1123 80.9665 58.8511 80.6611C58.2633 79.9802 58.1184 78.9314 58.0817 77.9584C58.0196 76.2362 58.2028 74.4951 57.9368 72.8014C57.7775 71.7563 57.4446 70.7606 57.1786 69.7459C56.8696 68.5642 56.6466 67.3542 56.4236 66.1422C56.2042 65.0647 56.0445 63.9711 55.9458 62.8686C55.8773 61.9202 55.9092 60.915 56.2643 60.0501C56.6195 59.1853 57.3379 58.4835 58.1439 58.4968C60.8389 58.5385 60.3738 62.8894 60.9663 64.8999C61.2036 65.7003 61.5238 66.4741 61.6528 67.3086C61.6999 67.6358 61.7254 67.9668 61.7293 68.2987C61.3725 69.4007 60.7162 70.3319 60.2957 71.4054C59.7653 72.7653 59.6347 74.2902 59.5169 75.7848C59.4085 77.0689 59.3082 78.3567 59.3894 79.6407Z" fill="black"/>
<path d="M61.1414 64.8506C61.3788 65.651 61.6989 66.4248 61.8279 67.2593C62.043 68.6572 61.7101 70.1422 62.0716 71.4965C62.1658 71.7855 62.2445 72.0813 62.3074 72.3822C62.3695 72.8127 62.2978 73.2528 62.2978 73.6909C62.2978 74.3964 62.4842 75.0792 62.6498 75.7564C63.21 78.0573 63.5808 80.4178 63.7568 82.8043C63.7831 83.4456 63.8681 84.0816 64.0101 84.701C64.077 84.9109 64.1344 85.1249 64.1821 85.3421C64.2249 85.6319 64.2351 85.9272 64.2124 86.2202C64.1694 87.1496 64.0818 88.0827 64.1694 89.0083C64.257 89.9339 64.5405 90.8727 65.125 91.4929C64.6026 91.6276 64.0499 91.7623 63.5402 91.5631C62.8235 91.2843 62.3934 90.4251 62.0286 89.6437C61.5667 88.646 59.8115 87.747 59.6299 86.6261C59.4881 85.7479 59.0294 84.5948 58.9529 83.7034C58.8765 82.8119 59.3989 81.7289 58.8494 81.1182C58.5834 80.8204 59.2954 80.902 59.0326 80.5985C58.4464 79.9176 58.3015 78.8688 58.2648 77.8939C58.2027 76.1736 58.3843 74.4325 58.1199 72.7388C57.9606 71.6937 57.6277 70.698 57.3617 69.6814C57.0527 68.5016 56.8297 67.2916 56.6067 66.0777C56.3866 65.0003 56.227 63.9067 56.1289 62.8041C56.0604 61.8557 56.0907 60.8486 56.4475 59.9837C56.8042 59.1189 57.5226 58.419 58.327 58.4304C61.0108 58.4873 60.5489 62.8401 61.1414 64.8506Z" fill="#FF8552"/>
<path opacity="0.1" d="M53.461 65.5922C53.7127 65.943 54.036 66.3281 54.4167 66.2598C54.3878 66.3143 54.3421 66.3532 54.2894 66.3681C54.2367 66.383 54.1812 66.3727 54.1348 66.3394C54.0434 66.2673 53.9702 66.167 53.9229 66.0493L53.3782 64.9549C53.3065 64.8126 52.8127 63.9838 52.6917 64.4618C52.6439 64.6647 53.3384 65.4215 53.461 65.5922Z" fill="black"/>
<path opacity="0.1" d="M53.1679 68.3214C53.1523 67.9638 53.0257 67.6259 52.8127 67.3731C52.6213 67.1663 52.3978 67.0059 52.1549 66.9008C51.5576 66.6088 50.8504 66.3736 50.2021 66.4115C50.4379 66.8212 51.1945 67.0658 51.5735 67.2972C52.1108 67.6273 52.6423 67.9687 53.1679 68.3214Z" fill="black"/>
<path opacity="0.1" d="M54.8643 76.0902C54.7544 77.0612 54.087 77.7971 53.4116 78.3661C52.7363 78.9351 51.9781 79.4245 51.5369 80.2476C51.2311 80.8166 51.0941 81.4767 50.8345 82.0703C50.5478 82.7247 50.1193 83.2747 49.7769 83.8892C49.4344 84.5037 49.1668 85.2377 49.2719 85.9661C49.2734 85.9996 49.2807 86.0324 49.2933 86.0624C49.3059 86.0924 49.3236 86.119 49.3452 86.1405C49.378 86.1571 49.4138 86.1633 49.4493 86.1586C49.4847 86.154 49.5185 86.1386 49.5475 86.114C50.242 85.6816 50.5159 84.6934 50.8074 83.838C51.1134 82.9746 51.4579 82.1313 51.8395 81.3117C52.0116 80.9323 52.2011 80.5189 52.5213 80.3083C52.7405 80.1996 52.9649 80.1065 53.1934 80.0295C53.5176 79.8525 53.8019 79.5867 54.0233 79.2538C54.8928 78.0186 55.3468 76.4434 55.2975 74.8327C55.288 74.4932 55.272 72.8582 54.8436 73.3628C54.4151 73.8673 54.9375 75.4301 54.8643 76.0902Z" fill="black"/>
<path d="M55.9139 38.8455C57.2837 39.5567 58.4624 41.1215 58.4194 42.8949C58.3828 44.7574 57.0735 46.5118 57.5242 48.2966C57.7855 49.3321 58.5723 50.0263 59.1951 50.8134C61.5668 53.8026 61.562 59.0203 59.1824 62.0037C58.2713 63.1417 57.1006 63.9516 56.1369 65.0384C52.7394 68.8506 52.5945 75.4453 54.4135 80.5644C53.0198 80.9233 51.5993 81.114 50.1734 81.1334C49.506 81.1334 48.6889 80.9987 48.4468 80.2572C48.2238 79.5725 48.6061 78.6469 48.1665 78.1405C47.9594 77.9034 47.6488 77.8712 47.3701 77.8162C45.5766 77.471 44.1048 75.7659 43.4327 73.7573C42.7605 71.7487 42.7955 69.4879 43.181 67.375C43.455 65.8482 43.8834 64.1678 43.2479 62.8022C42.4515 61.0838 40.161 60.3593 40.1961 58.3944C40.2247 56.7841 41.8191 56.0008 42.7239 54.804C44.3931 52.6001 43.5983 49.1804 43.5951 46.2102C43.5951 43.5966 44.3629 40.8996 45.9971 39.1585C48.4277 36.5468 53.109 37.3946 55.9139 38.8455Z" fill="#A26565"/>
<g opacity="0.1">
<path opacity="0.1" d="M43.5091 60.8543C42.8098 59.3522 40.9733 58.6087 40.5465 57.1312C40.3329 57.476 40.2129 57.8902 40.2024 58.3185C40.1674 60.2834 42.4546 61.0079 43.2542 62.7282C43.5168 63.3372 43.6274 64.023 43.5728 64.7045C43.8245 63.3844 44.0459 62.0075 43.5091 60.8543Z" fill="black"/>
<path opacity="0.1" d="M57.7073 45.865C57.994 44.8692 58.4098 43.864 58.4305 42.8303C58.4334 42.7183 58.4307 42.6062 58.4225 42.4946C58.1023 43.6364 57.6118 44.7441 57.7073 45.865Z" fill="black"/>
<path opacity="0.1" d="M43.783 51.17C44.3309 49.1083 43.8579 46.5516 43.8563 44.2643C43.8563 43.9874 43.8658 43.7086 43.8834 43.4316C43.6946 44.3156 43.5994 45.2242 43.5999 46.1363C43.603 47.7693 43.8435 49.5408 43.783 51.17Z" fill="black"/>
<path opacity="0.1" d="M59.4484 60.0634C58.5373 61.2014 57.3666 62.0113 56.4029 63.098C54.6827 65.027 53.7987 67.669 53.5773 70.4704C53.9882 68.384 54.8181 66.4627 56.1481 64.9701C57.1037 63.889 58.2824 63.0829 59.1935 61.9354C60.2772 60.529 60.9066 58.7103 60.9695 56.803C60.6944 58.0218 60.1721 59.1414 59.4484 60.0634Z" fill="black"/>
<path opacity="0.1" d="M50.4394 79.1874C49.772 79.1874 48.9549 79.0509 48.7128 78.3093C48.4898 77.6265 48.8721 76.7009 48.4325 76.1926C48.2254 75.9555 47.9132 75.9233 47.6361 75.8683C45.8442 75.525 44.3724 73.818 43.7003 71.8113C43.2049 70.3281 43.0982 68.7103 43.2224 67.1133C43.2097 67.1759 43.1985 67.2385 43.1874 67.3029C42.8083 69.4158 42.7685 71.6785 43.439 73.6871C44.1096 75.6957 45.583 77.4008 47.3749 77.7441C47.6584 77.7991 47.9706 77.8332 48.1713 78.0684C48.6157 78.5767 48.2286 79.5023 48.4516 80.1851C48.6937 80.9267 49.5108 81.0727 50.1782 81.0632C51.604 81.0436 53.0246 80.853 54.4183 80.4942C54.2217 79.9409 54.05 79.3755 53.9038 78.8005C52.7599 79.0426 51.6012 79.172 50.4394 79.1874Z" fill="black"/>
</g>
<path opacity="0.1" d="M55.6558 70.9161C56.0493 71.2688 56.4762 69.9241 56.2325 69.5884C56.1671 69.6756 55.5953 70.8667 55.6558 70.9161Z" fill="black"/>
<path opacity="0.1" d="M57.3331 95.2578C57.7966 95.0681 58.2888 94.8784 58.5915 94.4232C58.8415 94.0572 59.047 92.6044 58.5182 93.3004C58.069 93.8979 57.8572 94.685 57.3331 95.2578Z" fill="black"/>
<path opacity="0.1" d="M62.0525 93.7348C61.9968 94.1824 61.8932 94.6471 61.6272 94.9695C61.5779 95.0302 61.4679 95.0681 61.4536 94.9866C61.7507 94.7982 62.0268 94.5663 62.2755 94.2962C62.8139 93.6608 62.8871 92.0961 62.0668 91.6807C62.0589 92.3673 62.1401 93.0368 62.0525 93.7348Z" fill="black"/>
<path d="M67.7183 90.9145C67.7183 90.9145 63.1979 88.7997 61.5637 89.0178C59.9294 89.2359 63.4145 92.3028 63.4145 92.3028L65.4979 93.9757C65.4979 93.9757 66.7722 93.4067 66.8566 93.3631C66.941 93.3194 67.7183 90.9145 67.7183 90.9145Z" fill="#454B69"/>
<path d="M36.6155 68.2266C36.6155 68.2266 40.0113 65.8823 44.4935 68.7956C48.9757 71.7089 49.7227 88.8528 49.7227 88.8528C49.7227 88.8528 47.8894 106.319 54.9583 102.433C54.9583 102.433 67.86 97.6628 69.1518 98.7135C69.1518 98.7135 70.375 98.7135 67.9301 99.3603C65.4851 100.007 56.0398 103.571 56.0398 103.571C56.0398 103.571 52.9864 104.842 51.693 103.571C50.3996 102.3 46.7346 103.734 46.2583 94.9979C45.9432 89.4928 45.3763 84.0122 44.5604 78.5805L43.3005 74.1328L36.6155 68.2266Z" fill="#565661"/>
<path d="M36.2076 95.2389C36.2076 95.2389 37.7017 77.5279 35.252 71.138C33.1208 65.5694 41.362 68.1736 43.5123 68.9322C43.845 69.0507 44.1353 69.2976 44.3373 69.634C45.6116 71.7677 50.1829 80.3198 48.8354 91.7623C48.8354 91.7623 48.2923 101.953 51.6881 103.569L41.225 99.5557C40.376 99.2295 39.5143 98.9583 38.6446 98.7231C37.536 98.4234 35.7298 97.5718 36.2076 95.2389Z" fill="white"/>
<path d="M110.625 128.303H111.984L112.874 106.56L112.935 105.323L111.78 104.84L111.704 106.154L110.625 128.303Z" fill="#565661"/>
<path opacity="0.1" d="M111.703 106.154L112.874 106.56L112.935 105.323L111.78 104.84L111.703 106.154Z" fill="black"/>
<path d="M99.2813 119.907C99.2479 120.205 99.1837 120.496 99.0901 120.775C98.9936 121.14 98.7862 121.448 98.5088 121.64C98.3224 121.732 98.1227 121.779 97.921 121.779C97.1708 121.832 96.3776 121.819 95.7325 121.363C95.4577 121.153 95.2057 120.902 94.9823 120.618C93.5327 118.903 92.2149 117.037 91.0449 115.042C90.849 114.706 90.6467 114.31 90.7343 113.904C92.25 113.403 93.6892 112.619 94.9982 111.58C95.1789 111.415 95.3812 111.287 95.5971 111.201C95.9667 111.107 96.3472 111.09 96.7216 111.152C97.0832 111.222 97.0991 111.235 97.2377 111.721C97.4671 112.542 97.4288 113.428 97.6869 114.249C97.8507 114.703 98.0501 115.137 98.2826 115.546C98.9484 116.872 99.4597 118.437 99.2813 119.907Z" fill="#A26565"/>
<path opacity="0.1" d="M99.2813 119.907C99.2479 120.205 99.1837 120.496 99.0901 120.775C98.9936 121.14 98.7862 121.448 98.5088 121.64C98.3224 121.732 98.1227 121.779 97.921 121.779C97.1708 121.832 96.3776 121.819 95.7325 121.363C95.4577 121.153 95.2057 120.902 94.9823 120.618C93.5327 118.903 92.2149 117.037 91.0449 115.042C90.849 114.706 90.6467 114.31 90.7343 113.904C91.2287 113.741 91.7157 113.547 92.1933 113.323L92.2172 113.344C92.7062 113.76 93.0614 114.355 93.407 114.939L94.522 116.808C94.7207 117.175 94.9555 117.512 95.2212 117.813C95.5507 118.128 95.9145 118.388 96.3027 118.587C96.8268 118.888 97.3508 119.19 97.8955 119.433C98.2475 119.601 98.8433 119.668 99.2813 119.907Z" fill="black"/>
<path d="M100.31 99.6523C100.2 99.9675 100.067 100.27 99.912 100.557C98.4315 103.517 97.2895 106.699 96.5161 110.019C96.2963 109.961 96.1721 110.317 96.1737 110.588C96.1753 110.86 96.1737 111.201 95.9634 111.3C95.9013 111.328 95.8312 111.328 95.7707 111.36C95.6369 111.432 95.5987 111.635 95.5796 111.81L95.3916 113.452C95.3263 114.021 95.269 114.638 95.5031 115.14C95.6646 115.439 95.8741 115.697 96.1195 115.899L99.2287 118.82C99.3561 118.939 99.5138 119.067 99.6667 119C100.016 118.848 99.7065 118.105 99.9853 117.803C100.17 117.597 100.463 117.752 100.72 117.727C101.054 117.697 101.307 117.331 101.392 116.946C101.451 116.554 101.457 116.153 101.409 115.759C101.388 115.579 101.406 115.396 101.46 115.226C101.555 115.046 101.686 114.897 101.841 114.791C102.38 114.322 102.815 113.703 103.107 112.987C103.399 112.272 103.539 111.482 103.515 110.687C103.49 110.445 103.497 110.2 103.537 109.961C103.602 109.742 103.7 109.539 103.826 109.361C104.955 107.542 105.896 105.568 106.831 103.597C107.369 102.459 107.917 101.304 108.105 100.022C108.122 99.9745 108.128 99.9229 108.125 99.8716C108.122 99.8202 108.108 99.7705 108.086 99.7264C108.064 99.6822 108.033 99.6448 107.997 99.6172C107.96 99.5895 107.919 99.5723 107.876 99.567C107.41 99.3936 106.934 99.258 106.452 99.1611C104.988 98.8083 103.575 98.264 102.151 97.7405C100.727 97.217 100.739 98.283 100.31 99.6523Z" fill="#454B69"/>
<path d="M93.5775 132.903L95.8202 133.225L106.143 105.323L108.927 105.081L113.819 106.78L114.768 140H117.009L116.127 105.566L121.493 105.729L131.069 134.115H133.106L123.035 100.94L122.648 99.6619L107.637 99.0493L103.896 101.547L103.848 101.691L93.5775 132.903Z" fill="#565661"/>
<path opacity="0.1" d="M103.848 101.691C107.073 102.848 110.421 104.111 110.421 104.111C110.421 104.111 113.475 105.38 114.768 104.111C114.931 103.96 115.114 103.84 115.308 103.757C115.14 103.9 114.959 104.019 114.768 104.111L123.035 100.938L122.653 99.6619L107.642 99.0493L103.9 101.547L103.848 101.691Z" fill="black"/>
<path d="M119.115 96.1852L113.003 94.5674C113.003 94.5674 98.4005 97.8031 97.3142 99.0966C97.3142 99.0966 108.996 101.926 110.286 102.89C111.576 103.853 119.252 104.919 119.115 96.1852Z" fill="white"/>
<path d="M96.4366 122.185C96.0687 123.019 95.1624 123.254 94.3659 123.268C93.2602 123.284 92.1619 123.05 91.1294 122.579C90.54 122.31 89.9746 121.963 89.3661 121.766C88.4598 121.47 87.4547 121.494 86.6583 120.901C86.2359 120.565 85.887 120.115 85.6405 119.586C85.5943 119.493 85.5497 119.397 85.5083 119.298C85.1276 118.416 84.9508 117.39 85.1627 116.438C85.3745 115.486 86.1438 114.437 87.0358 114.452C88.095 114.471 89.3581 115.068 90.3807 115.378C91.655 115.757 92.9292 116.195 94.0554 116.997C94.9983 117.673 95.8313 118.642 96.2757 119.825C96.3612 120.054 96.4315 120.289 96.486 120.531C96.6246 121.077 96.6564 121.686 96.4366 122.185Z" fill="#A26565"/>
<path opacity="0.1" d="M96.4366 122.185C96.0686 123.019 95.1623 123.254 94.3659 123.268C93.2602 123.284 92.1619 123.05 91.1293 122.579C90.54 122.31 89.9745 121.963 89.3661 121.766C88.4598 121.47 87.4547 121.494 86.6583 120.901C86.2359 120.565 85.887 120.115 85.6405 119.586C85.5943 119.493 85.5497 119.397 85.5083 119.298C85.6676 119.313 85.8141 119.332 85.8938 119.342C86.8717 119.454 87.8051 119.878 88.7385 120.199C90.0343 120.645 91.3723 120.893 92.7206 120.939C93.6762 120.971 94.6733 120.887 95.508 120.332C95.7572 120.144 96.0157 119.975 96.2821 119.825C96.3675 120.054 96.4378 120.289 96.4923 120.531C96.6245 121.077 96.6564 121.686 96.4366 122.185Z" fill="black"/>
<path d="M103.281 86.1216C101.21 85.7176 99.1013 85.619 97.002 85.5204L94.4344 85.399C94.2518 85.3738 94.0667 85.4004 93.8944 85.4767C93.7459 85.5904 93.6048 85.7172 93.4723 85.8561C93.2143 86.0647 92.8846 86.0875 92.574 86.1083C90.3707 86.2529 88.1793 86.5914 86.018 87.1212C84.903 87.3924 83.745 87.7471 82.9072 88.6631C82.0216 89.6323 81.633 91.1098 81.6027 92.5399C81.5725 93.97 81.8878 95.3754 82.2207 96.7486C82.6445 98.4016 82.8787 100.115 82.9168 101.843C82.9018 102.322 82.9173 102.802 82.963 103.279C83.0371 103.734 83.1497 104.179 83.2991 104.606L84.4714 108.333C84.5749 108.66 84.6768 108.984 84.7899 109.303C84.903 109.621 85.0113 109.872 85.1085 110.171C85.2518 110.581 85.3649 111.006 85.478 111.429L86.2585 114.348L86.3604 114.727C86.6424 115.778 86.9307 116.847 87.4627 117.75C87.9947 118.653 88.8181 119.381 89.7436 119.436C90.0422 119.423 90.3412 119.433 90.6387 119.465C90.8924 119.539 91.1386 119.645 91.373 119.782C92.0679 120.125 92.8138 120.299 93.5663 120.292C94.2592 120.292 95.0285 120.062 95.4044 119.368C95.6115 118.989 95.6656 118.522 95.723 118.075C95.8233 117.176 95.9205 116.237 95.664 115.383C95.5047 114.873 95.2372 114.435 95.0524 113.932C94.7944 113.248 94.7099 112.491 94.5427 111.768C94.1808 110.213 93.4443 108.818 92.4243 107.755C92.062 106.047 91.7959 104.312 91.6278 102.562C91.6045 102.174 91.5397 101.792 91.4351 101.424C91.2488 100.855 90.8713 100.394 90.7136 99.8136C90.5654 99.2749 90.6101 98.6528 90.3409 98.1882C92.5819 98.9222 94.8007 98.7572 97.1278 98.7135C97.873 98.7164 98.6177 98.6657 99.3578 98.5618C99.7028 98.4865 100.052 98.4421 100.403 98.429C101.123 98.429 101.798 98.8084 102.459 99.1422C104.327 100.091 106.296 100.836 108.325 100.938C110.42 101.043 112.49 100.457 114.537 99.8762C115.437 99.6201 116.372 99.3432 117.086 98.6396C117.799 97.9359 118.201 96.667 117.761 95.7016C117.427 94.9752 116.734 94.6187 116.087 94.3152C114.297 93.4731 112.497 92.6518 110.772 91.6333C108.137 90.1046 106.167 86.6906 103.281 86.1216Z" fill="#454B69"/>
<path d="M99.5887 77.5411C99.3387 78.186 98.9181 78.7132 98.6075 79.3202C98.088 80.3192 97.9165 81.5204 98.1297 82.6678C98.2417 83.2349 98.4615 83.764 98.7721 84.2141C99.0828 84.6643 99.476 85.0235 99.9216 85.2643C100.319 85.453 100.738 85.573 101.164 85.6209C101.725 85.7024 102.322 85.7195 102.817 85.3971C103.188 85.1321 103.492 84.7535 103.698 84.3008C104.127 83.4473 104.37 82.4857 104.593 81.5279C105.006 79.7602 105.358 77.947 105.307 76.1129C105.289 75.4813 105.184 74.7701 104.745 74.4059C104.518 74.2499 104.266 74.1517 104.006 74.1176L101.905 73.67C101.499 73.5828 100.79 73.2281 100.438 73.5771C100.086 73.9261 100.059 74.9579 99.9981 75.4415C99.9025 76.1565 99.8436 76.883 99.5887 77.5411Z" fill="#A1616A"/>
<path d="M125.126 70.2049L124.577 75.69C124.463 76.6683 124.397 77.6538 124.381 78.6412C124.381 79.1912 124.395 79.802 124.089 80.2135C123.94 80.4008 123.75 80.5365 123.541 80.6061C122.874 80.8527 122.146 80.6327 121.509 80.2932C121.136 80.1035 120.756 79.8285 120.587 79.3866C120.489 79.0802 120.448 78.7521 120.467 78.425C120.467 75.1533 120.727 71.7412 122.162 68.9531C122.284 68.6795 122.457 68.4422 122.667 68.2589C123.065 67.9554 123.586 68.0408 124.037 68.2058C124.314 68.3063 125.062 68.4182 125.239 68.7122C125.416 69.0062 125.164 69.8274 125.126 70.2049Z" fill="#A1616A"/>
<path d="M110.547 50.3695C113.714 50.3695 116.281 47.3125 116.281 43.5415C116.281 39.7705 113.714 36.7136 110.547 36.7136C107.38 36.7136 104.813 39.7705 104.813 43.5415C104.813 47.3125 107.38 50.3695 110.547 50.3695Z" fill="#A1616A"/>
<path d="M109.013 53.7172C108.993 54.2484 108.871 54.7672 108.658 55.2346C111.586 54.7035 114.506 54.1117 117.419 53.4593C116.452 52.8678 115.722 51.845 115.386 50.6143C115.228 49.9544 115.141 49.273 115.128 48.5868C115.082 47.4986 115.099 46.4079 115.181 45.3226C114.161 45.4497 113.196 45.9049 112.224 46.2956C111.248 46.6887 110.254 47.0198 109.247 47.2876C108.762 47.4165 108.273 47.5265 107.782 47.629C107.209 47.7503 106.933 47.7485 107.331 48.3478C108.4 49.9486 109.163 51.5759 109.013 53.7172Z" fill="#A1616A"/>
<path d="M110.775 52.8049C110.018 52.9396 109.225 53.0913 108.622 53.6489C108.392 53.8839 108.173 54.134 107.967 54.3981C106.768 55.7846 105.074 56.3422 103.619 57.3209C103.381 57.4606 103.171 57.6576 103.001 57.8993C102.841 58.163 102.76 58.4987 102.593 58.7604C102.398 59.0639 102.091 59.2536 101.94 59.5893C101.788 59.925 101.822 60.2816 101.806 60.6381C101.769 61.4214 101.521 62.1649 101.328 62.9141C100.444 66.5007 100.928 70.5007 99.5903 73.8882C99.6519 74.0833 99.746 74.2616 99.867 74.4122C99.988 74.5628 100.133 74.6826 100.294 74.7644C100.631 74.9089 100.982 74.9988 101.339 75.0319L104.303 75.47C104.727 75.5326 105.176 75.5914 105.563 75.3808C105.209 76.5431 104.959 77.7465 104.816 78.9712C104.744 79.7198 104.633 80.4623 104.482 81.1941C104.074 82.8632 103.048 84.2534 101.833 85.2036C101.68 85.2991 101.551 85.4411 101.459 85.6152C101.299 85.9946 101.535 86.4194 101.702 86.7912C102.188 87.8685 102.121 89.162 102.115 90.3834C102.109 91.6049 102.212 92.9458 102.929 93.8221C103.353 94.3399 103.932 94.6206 104.496 94.888L109.133 97.0938C109.898 97.4818 110.687 97.7988 111.493 98.0421C112.715 98.374 113.985 98.3608 115.238 98.2963C116.066 98.2546 116.894 98.1913 117.72 98.1066C118.048 98.1053 118.371 98.0041 118.658 97.8126C118.905 97.5808 119.094 97.2742 119.207 96.925C119.852 95.2541 120.069 93.3043 121.069 91.9045C121.756 90.9429 122.821 90.1748 122.899 88.9173C122.936 88.2914 122.702 87.6826 122.699 87.0548C122.699 86.2828 123.038 85.5488 123.017 84.7788C122.974 83.5251 121.982 82.5692 121.824 81.3288C121.423 78.1841 122.764 75.0433 123.588 72.0181C123.736 71.4775 123.927 70.8801 124.363 70.6487C124.8 70.4173 125.415 70.5387 125.571 70.0266C125.964 68.7407 126.058 67.2328 126.007 65.8653C125.978 65.0744 125.743 64.3006 125.77 63.5078C125.789 62.9501 125.939 62.4077 125.978 61.852C126.039 61.0118 125.853 60.1772 125.66 59.3655C125.604 59.0756 125.521 58.7944 125.411 58.5271C125.294 58.2847 125.155 58.0578 124.997 57.85L124.221 56.7519C123.858 56.2379 123.474 55.7049 122.947 55.4451C122.777 54.9425 122.232 54.5954 121.842 54.3185C121.448 54.0527 121.042 53.8152 120.625 53.6072L116.238 51.3009C116.074 51.2026 115.899 51.1348 115.717 51.0998C115.45 51.0892 115.185 51.1542 114.943 51.2895C113.605 51.9211 112.209 52.5508 110.775 52.8049Z" fill="#FF8552"/>
<path d="M106.129 44.7289C105.96 44.0215 105.528 43.4108 105.463 42.6787C105.404 42.0281 105.645 41.3984 105.782 40.7649C105.919 40.1314 105.914 39.3576 105.492 38.9366C105.422 38.8645 105.332 38.8 105.307 38.6938C105.256 38.5041 105.417 38.3315 105.466 38.14C105.557 37.7606 105.164 37.3415 105.307 36.9773C105.388 36.7782 105.592 36.708 105.77 36.6454C106.452 36.4045 107.143 35.8697 107.292 35.0408C107.825 35.3063 108.394 34.8075 108.803 34.3239C109.213 33.8402 109.716 33.2883 110.28 33.4343L110.154 33.7397C111.023 33.3639 111.974 33.3511 112.85 33.7037H112.583C113.352 33.7192 114.097 34.0195 114.716 34.5629C114.647 34.5629 114.641 34.6842 114.668 34.7525C114.891 35.3727 115.464 35.7009 116.017 35.8545C116.35 35.9493 116.711 36.0176 116.955 36.3021C117.199 36.5866 117.204 37.1802 116.882 37.3168C117.538 37.621 118.159 38.0225 118.731 38.5117C118.89 38.6502 119.07 38.8379 119.05 39.0807C119.027 39.2026 118.994 39.3214 118.951 39.4354C118.919 39.6378 118.931 39.8465 118.984 40.0423L119.161 40.911C119.356 41.8764 119.508 43.039 118.918 43.7389C119.139 44.231 119.221 44.795 119.152 45.3471C119.083 45.8991 118.866 46.41 118.534 46.8039C118.581 46.9733 118.597 47.1527 118.581 47.3301C118.566 47.5076 118.519 47.6791 118.443 47.8334C118.368 47.9876 118.266 48.1212 118.145 48.2252C118.023 48.3293 117.884 48.4014 117.737 48.4369C117.933 48.8011 117.753 49.3208 117.444 49.5484C117.135 49.776 116.747 49.7779 116.387 49.738C116.027 49.6982 115.662 49.6015 115.302 49.666C114.778 49.7627 114.265 50.1875 113.76 49.9979C113.572 49.902 113.391 49.7865 113.22 49.6527C112.866 49.427 112.455 49.3758 112.064 49.2733C111.396 49.1024 110.761 48.7805 110.195 48.325C109.82 48.0564 109.521 47.66 109.337 47.187C108.986 46.1325 109.576 44.7498 108.956 43.8906C108.593 43.3899 107.873 43.3823 107.467 43.811C107.264 44.0253 107.237 44.4767 107.027 44.6379C106.734 44.7263 106.43 44.757 106.129 44.7289Z" fill="#464353"/>
<path opacity="0.1" d="M98.3368 99.1138C98.1104 98.9004 97.915 98.6441 97.7586 98.3551C97.6016 98.0646 97.5393 97.7159 97.5834 97.3745C97.5213 97.8063 97.545 98.2495 97.6526 98.6684C97.7602 99.0874 97.9487 99.4705 98.203 99.7871C98.6028 100.275 99.353 100.752 99.9376 100.586C99.8547 100.028 98.7079 99.4893 98.3368 99.1138Z" fill="black"/>
<path d="M129.846 68.6059C129.846 68.6059 126.45 66.2617 121.968 69.1749C117.485 72.0882 116.738 89.2321 116.738 89.2321C116.738 89.2321 118.572 106.698 111.503 102.812C111.503 102.812 98.6011 98.0421 97.3093 99.0928C97.3093 99.0928 96.086 99.0928 98.531 99.7396C100.976 100.386 110.421 103.95 110.421 103.95C110.421 103.95 113.475 105.221 114.768 103.95C116.061 102.679 119.726 104.113 120.203 95.3773C120.518 89.8721 121.085 84.3915 121.901 78.9598L123.161 74.5121L129.846 68.6059Z" fill="#565661"/>
<path d="M130.253 95.6182C130.253 95.6182 128.759 77.9072 131.209 71.5174C133.34 65.9488 125.099 68.5529 122.949 69.3116C122.616 69.43 122.326 69.6769 122.124 70.0133C120.849 72.1471 116.278 80.6991 117.626 92.1417C117.626 92.1417 118.169 102.332 114.773 103.948L125.236 99.935C126.085 99.6088 126.947 99.3376 127.816 99.1024C128.925 98.8027 130.731 97.9511 130.253 95.6182Z" fill="white"/>
<path opacity="0.1" d="M157.683 130.058C166.255 130.058 173.204 128.729 173.204 127.089C173.204 125.45 166.255 124.121 157.683 124.121C149.112 124.121 142.163 125.45 142.163 127.089C142.163 128.729 149.112 130.058 157.683 130.058Z" fill="#FF8552"/>
<path d="M158.182 70.2257H157.183V97.0009H158.182V70.2257Z" fill="#535461"/>
<path d="M164.459 96.9193L164.397 98.1256L164.308 99.8326L164.271 100.542L164.183 102.249L164.145 102.958L164.056 104.665L163.049 124.024C163.003 124.855 162.694 125.634 162.183 126.203C161.673 126.773 160.999 127.089 160.3 127.089H155.065C154.364 127.089 153.69 126.771 153.18 126.199C152.67 125.627 152.362 124.846 152.319 124.013L151.309 104.652L151.221 102.945L151.184 102.236L151.094 100.529L151.057 99.8193L150.969 98.1123L150.906 96.906C150.895 96.6748 150.923 96.4433 150.99 96.2257C151.056 96.0081 151.159 95.8088 151.292 95.6401C151.426 95.4714 151.586 95.3367 151.765 95.2442C151.943 95.1518 152.135 95.1035 152.33 95.1023H163.037C163.232 95.1036 163.425 95.1525 163.604 95.2459C163.783 95.3392 163.944 95.4752 164.077 95.6453C164.21 95.8155 164.313 96.0163 164.378 96.2353C164.444 96.4544 164.472 96.6872 164.459 96.9193Z" fill="#565661"/>
<path d="M164.397 98.1255L164.308 99.8269H151.059L150.969 98.1255H164.397Z" fill="#9D9CB5"/>
<path d="M164.271 100.538L164.183 102.241H151.185L151.095 100.538H164.271Z" fill="#9D9CB5"/>
<path d="M164.145 102.951L164.056 104.652H151.31L151.221 102.951H164.145Z" fill="#9D9CB5"/>
<path d="M149.444 80.2609C155.261 85.2719 157.683 93.1089 157.683 93.1089C157.683 93.1089 150.675 92.8225 144.856 87.8115C139.038 82.8005 136.618 74.9655 136.618 74.9655C136.618 74.9655 143.628 75.2519 149.444 80.2609Z" fill="#FF8552"/>
<path d="M136.618 74.9655C136.618 74.9655 143.893 79.7735 146.228 83.7546C148.563 87.7357 157.683 93.1089 157.683 93.1089" stroke="#535461" stroke-width="2" stroke-miterlimit="10"/>
<path d="M153.198 70.1669C156.364 72.8924 157.683 77.1599 157.683 77.1599C157.683 77.1599 153.86 77.0025 150.702 74.277C147.543 71.5515 146.226 67.284 146.226 67.284C146.226 67.284 150.033 67.4395 153.198 70.1669Z" fill="#FF8552"/>
<path d="M146.226 67.284C146.226 67.284 150.186 69.9014 151.455 72.0674C152.725 74.2334 157.691 77.1599 157.691 77.1599" stroke="#535461" stroke-width="2" stroke-miterlimit="10"/>
<path d="M162.283 76.9418C158.647 81.7005 157.878 87.9196 157.878 87.9196C157.878 87.9196 163.005 86.4212 166.638 81.6606C170.271 76.9 171.044 70.6828 171.044 70.6828C171.044 70.6828 165.92 72.1831 162.283 76.9418Z" fill="#FF8552"/>
<path d="M171.047 70.6847C171.047 70.6847 166.31 75.5629 165.106 78.9238C163.902 82.2847 157.878 87.9196 157.878 87.9196" stroke="#535461" stroke-width="2" stroke-miterlimit="10"/>
<path d="M88.7162 65.4859V65.9183H77.9473V65.5675C78.2425 65.4356 78.522 65.2583 78.7787 65.0402C79.236 64.6503 79.6087 64.1361 79.8657 63.5404C80.1228 62.9447 80.2569 62.2846 80.2568 61.6148C80.257 61.2649 80.2201 60.9163 80.1469 60.5774C80.0167 59.9674 79.7734 59.3998 79.435 58.9164C79.0965 58.4329 78.6714 58.0459 78.191 57.7836H88.643C88.1625 58.0459 87.7374 58.4329 87.399 58.9164C87.0605 59.3998 86.8172 59.9674 86.687 60.5774C86.6144 60.9164 86.578 61.2649 86.5787 61.6148C86.5783 62.2844 86.7121 62.9445 86.9689 63.5402C87.2257 64.136 87.5981 64.6502 88.0552 65.0402C88.2619 65.2158 88.4835 65.3652 88.7162 65.4859Z" fill="#DFE6F5"/>
<path opacity="0.1" d="M88.6429 57.7836C88.1624 58.0459 87.7374 58.4329 87.3989 58.9164C87.0605 59.3998 86.8172 59.9674 86.687 60.5774H80.1469C80.0167 59.9674 79.7734 59.3998 79.4349 58.9164C79.0965 58.4329 78.6714 58.0459 78.1909 57.7836H88.6429Z" fill="black"/>
<path d="M65.6173 55.574V58.0093C65.6173 59.3522 66.4424 60.4428 67.4618 60.4428H99.1443C100.164 60.4428 100.99 59.3522 100.99 58.0093V55.574H65.6173Z" fill="#DFE6F5"/>
<path opacity="0.1" d="M88.7162 65.4859V65.9184H77.9473V65.5675C78.2425 65.4356 78.522 65.2584 78.7787 65.0402H88.0552C88.2619 65.2158 88.4835 65.3652 88.7162 65.4859Z" fill="black"/>
<path d="M91.7346 65.1749H74.9289C74.6307 65.1749 74.3889 65.4624 74.3889 65.817C74.3889 66.1715 74.6307 66.459 74.9289 66.459H91.7346C92.0328 66.459 92.2746 66.1715 92.2746 65.817C92.2746 65.4624 92.0328 65.1749 91.7346 65.1749Z" fill="#DFE6F5"/>
<path d="M100.99 28.9012C100.99 28.6126 100.943 28.3269 100.85 28.0603C100.757 27.7937 100.621 27.5515 100.45 27.3475C100.278 27.1435 100.075 26.9818 99.8506 26.8715C99.6267 26.7613 99.3866 26.7046 99.1443 26.7049H67.4618C67.2195 26.7046 66.9796 26.7613 66.7557 26.8716C66.5318 26.9819 66.3284 27.1436 66.1571 27.3476C65.9858 27.5516 65.8499 27.7938 65.7573 28.0604C65.6647 28.327 65.6171 28.6127 65.6173 28.9012V56.0481H100.99V28.9012Z" fill="#474157"/>
<path d="M100.025 29.8819V53.2108C100.025 53.3529 100.002 53.4937 99.9565 53.6251C99.9109 53.7565 99.8441 53.8759 99.7598 53.9765C99.6754 54.0771 99.5753 54.1569 99.465 54.2113C99.3548 54.2658 99.2366 54.2938 99.1172 54.2938H67.4904C67.3711 54.2938 67.2529 54.2658 67.1426 54.2113C67.0324 54.1569 66.9322 54.0771 66.8479 53.9765C66.7636 53.8759 66.6967 53.7565 66.6512 53.6251C66.6056 53.4937 66.5823 53.3529 66.5825 53.2108V29.8819C66.5817 29.6921 66.6235 29.5055 66.7036 29.3413C66.7833 29.1769 66.898 29.0403 67.0362 28.9454C67.1743 28.8506 67.331 28.8007 67.4904 28.8008H99.1172C99.358 28.8008 99.5889 28.9147 99.7592 29.1174C99.9295 29.3202 100.025 29.5952 100.025 29.8819Z" fill="#4C4C78"/>
<path d="M83.3038 28.2583C83.5387 28.2583 83.7291 28.0316 83.7291 27.7519C83.7291 27.4722 83.5387 27.2455 83.3038 27.2455C83.0689 27.2455 82.8785 27.4722 82.8785 27.7519C82.8785 28.0316 83.0689 28.2583 83.3038 28.2583Z" fill="white"/>
<path d="M83.3039 59.3597C83.8836 59.3597 84.3536 58.8001 84.3536 58.1098C84.3536 57.4195 83.8836 56.8599 83.3039 56.8599C82.7242 56.8599 82.2543 57.4195 82.2543 58.1098C82.2543 58.8001 82.7242 59.3597 83.3039 59.3597Z" fill="white"/>
<path d="M100.025 29.8819H66.5857C66.5857 29.5952 66.6813 29.3202 66.8516 29.1174C67.0219 28.9147 67.2528 28.8008 67.4936 28.8008H99.1172C99.358 28.8008 99.5889 28.9147 99.7592 29.1174C99.9294 29.3202 100.025 29.5952 100.025 29.8819Z" fill="#C8CAD7"/>
<path d="M67.4905 29.6125C67.6163 29.6125 67.7182 29.4911 67.7182 29.3413C67.7182 29.1915 67.6163 29.0701 67.4905 29.0701C67.3647 29.0701 67.2627 29.1915 67.2627 29.3413C67.2627 29.4911 67.3647 29.6125 67.4905 29.6125Z" fill="#EDEDF4"/>
<path d="M68.1721 29.6125C68.2979 29.6125 68.3999 29.4911 68.3999 29.3413C68.3999 29.1915 68.2979 29.0701 68.1721 29.0701C68.0463 29.0701 67.9443 29.1915 67.9443 29.3413C67.9443 29.4911 68.0463 29.6125 68.1721 29.6125Z" fill="#EDEDF4"/>
<path d="M68.8539 29.6125C68.9797 29.6125 69.0816 29.4911 69.0816 29.3413C69.0816 29.1915 68.9797 29.0701 68.8539 29.0701C68.7281 29.0701 68.6261 29.1915 68.6261 29.3413C68.6261 29.4911 68.7281 29.6125 68.8539 29.6125Z" fill="#EDEDF4"/>
</g>
<defs>
<linearGradient id="paint0_linear" x1="61.554" y1="88.7143" x2="61.9236" y2="88.7143" gradientUnits="userSpaceOnUse">
<stop stop-color="#808080" stop-opacity="0.25"/>
<stop offset="0.54" stop-color="#808080" stop-opacity="0.12"/>
<stop offset="1" stop-color="#808080" stop-opacity="0.1"/>
</linearGradient>
<clipPath id="clip0">
<rect width="180" height="140" fill="white"/>
</clipPath>
</defs>
</svg>
