<svg width="180" height="140" viewBox="0 0 180 140" fill="none" xmlns="http://www.w3.org/2000/svg">
<path d="M24.7576 140C38.4309 140 49.5152 138.314 49.5152 136.235C49.5152 134.155 38.4309 132.47 24.7576 132.47C11.0844 132.47 0 134.155 0 136.235C0 138.314 11.0844 140 24.7576 140Z" fill="#E6E6E6"/>
<path d="M31.07 36.4225C31.0574 36.5027 31.0447 36.5807 31.0303 36.6609C30.3706 40.2415 30.5166 43.8656 31.3367 47.5264H17.6377L19.8007 34.944C19.8001 34.0242 19.9548 33.1151 20.2542 32.2779C20.5537 31.4407 20.991 30.695 21.5365 30.0912C21.6284 29.988 21.724 29.8872 21.8231 29.7955C22.6996 28.9527 23.7688 28.4979 24.8675 28.5003H26.0428C26.7505 28.4989 27.4513 28.679 28.103 29.0298C28.213 29.0895 28.3212 29.1536 28.4257 29.2224C30.6969 30.2264 32.065 33.1995 31.7892 36.2712C31.4611 39.9252 31.9388 43.5035 33.087 47.0175L32.3714 47.123C31.2268 43.6249 30.7491 40.0627 31.07 36.4225Z" fill="#2F2E41"/>
<path d="M22.7749 38.2426C22.7749 38.2426 23.8564 44.2025 21.6934 44.661C19.5304 45.1195 27.2811 46.4949 27.2811 46.4949C27.2811 46.4949 26.7404 41.681 28.0021 40.0764L22.7749 38.2426Z" fill="#FBBEBE"/>
<path d="M13.7508 79.4894C13.7508 79.4894 13.309 86.4987 15.1894 86.5929C17.0698 86.6872 16.0253 79.6913 16.0253 79.6913L13.7508 79.4894Z" fill="#FBBEBE"/>
<path d="M38.8172 82.9425C38.8172 82.9425 40.6197 89.5902 38.8172 90.2779C37.0146 90.9656 36.6541 83.8594 36.6541 83.8594L38.8172 82.9425Z" fill="#FBBEBE"/>
<path d="M29.2639 49.9332L31.8008 49.4408L32.869 50.3918L33.7702 53.8301L35.9333 67.8134L37.5555 76.9825L40.0789 83.401L35.9333 85.6933L31.9676 69.1886L29.2639 49.9332Z" fill="#FF8552"/>
<path d="M19.26 67.0111C19.26 67.0111 18.1785 76.1803 18.8995 78.0141C18.8995 78.0141 17.5579 88.6588 16.5562 95.6649L15.1142 105.751L11.8697 121.109L17.097 122.943L27.7318 85.3495L30.796 106.439L31.3368 121.568L36.9245 121.339L36.2035 94.9772C36.2035 94.9772 39.448 77.5557 33.8603 71.1372C28.2725 64.7188 27.3713 64.7188 27.3713 64.7188L19.26 67.0111Z" fill="#2F2E41"/>
<path d="M35.2122 120.651L36.6542 126.84L37.5554 132.342C37.5554 132.342 40.7999 138.531 37.5554 137.843C34.3109 137.156 33.9504 134.863 33.9504 134.863V133.488L33.0492 132.8V130.508C33.0492 130.508 31.7874 129.362 33.0492 127.528L32.5084 121.109L35.2122 120.651Z" fill="#2F2E41"/>
<path d="M13.2216 120.651L11.7796 126.84L10.8783 132.342C10.8783 132.342 7.6338 138.531 10.8783 137.843C14.1228 137.156 14.4833 134.863 14.4833 134.863V133.488L15.3846 132.8V130.508C15.3846 130.508 16.6463 129.362 15.3846 127.528L15.9253 121.109L13.2216 120.651Z" fill="#2F2E41"/>
<path d="M26.1996 41.4518C28.6884 41.4518 30.7059 38.8861 30.7059 35.7211C30.7059 32.556 28.6884 29.9903 26.1996 29.9903C23.7109 29.9903 21.6934 32.556 21.6934 35.7211C21.6934 38.8861 23.7109 41.4518 26.1996 41.4518Z" fill="#FBBEBE"/>
<path d="M21.6934 43.5149C21.6934 43.5149 26.3799 46.0364 27.6416 45.578C28.9034 45.1195 29.2639 47.1826 29.2639 47.1826L32.8689 50.3918L31.7874 58.1856C31.7874 58.1856 32.6887 62.3118 31.6071 65.0626C31.6071 65.0626 34.4912 66.2087 33.4097 68.0426C33.4097 68.0426 35.3924 69.4179 34.3109 72.1687C34.3109 72.1687 28.9034 70.3349 28.3626 66.8964L22.7749 67.8133L18.8093 71.7102C18.8093 71.7102 16.8266 71.481 17.5476 67.8133C17.9714 65.5417 17.9091 63.1671 17.3673 60.9364L15.3846 44.8903L21.6934 43.5149Z" fill="#FF8552"/>
<path d="M15.9815 44.6777L15.2618 44.9203C15.0109 45.0049 14.7861 45.1845 14.6173 45.4353L14.3841 45.7818C14.1532 46.1247 14.0153 46.553 13.9906 47.0033L13.8302 49.9255L13.5766 64.1528L13.8038 73.5468L12.6188 80.5628L17.0832 81.4677L17.6865 64.2269L16.5706 45.2109C16.5655 45.1234 16.5453 45.0384 16.5114 44.9619C16.4775 44.8854 16.4307 44.8194 16.3745 44.7685C16.3182 44.7176 16.2539 44.683 16.186 44.6673C16.118 44.6516 16.0482 44.6552 15.9815 44.6777Z" fill="#FF8552"/>
<path d="M27.0828 46.8731C26.3429 44.5945 25.2462 42.1862 24.5223 40.0246C24.0228 37.4991 23.8973 35.3372 25.028 34.231C25.028 31.7989 25.0947 30.2126 23.5752 29.0298C23.2093 29.2327 22.8636 29.49 22.5453 29.7962L22.5441 29.7954C22.484 29.851 22.4256 29.9106 22.3682 29.9714C22.3438 29.9969 22.3202 30.0232 22.2962 30.0493C22.2834 30.0633 22.2702 30.0769 22.2575 30.0911L22.2587 30.0921C21.713 30.6956 21.2755 31.4411 20.9758 32.2781C20.6762 33.1151 20.5213 34.0242 20.5217 34.9439V47.0679H26.1095C25.9247 46.0439 25.6787 44.9827 25.4239 43.9251C25.8273 44.9491 26.2241 45.98 26.5511 46.9854L27.0828 46.8731Z" fill="#2F2E41"/>
<path d="M31.3368 34.231C28.8947 35.1019 26.1478 34.9583 23.2255 34.231V29.6464H27.7318C28.6879 29.6464 29.6048 30.1294 30.2809 30.9892C30.957 31.849 31.3368 33.0151 31.3368 34.231V34.231Z" fill="#2F2E41"/>
<path d="M180 10.4175H68.1849V98.9662H180V10.4175Z" fill="#E6E6E6"/>
<path d="M96.1619 27.4762H75.683V44.4046H96.1619V27.4762Z" fill="white"/>
<path d="M121.609 27.4762H101.13V44.4046H121.609V27.4762Z" fill="white"/>
<path d="M147.055 27.4762H126.576V44.4046H147.055V27.4762Z" fill="white"/>
<path d="M172.502 27.4762H152.023V44.4046H172.502V27.4762Z" fill="white"/>
<path d="M96.1619 51.4364H75.683V68.3648H96.1619V51.4364Z" fill="white"/>
<path d="M121.609 51.4364H101.13V68.3648H121.609V51.4364Z" fill="white"/>
<path d="M147.055 51.4364H126.576V68.3648H147.055V51.4364Z" fill="white"/>
<path d="M172.502 51.4364H152.023V68.3648H172.502V51.4364Z" fill="white"/>
<path d="M96.1619 75.3966H75.683V92.325H96.1619V75.3966Z" fill="white"/>
<path d="M121.609 75.3966H101.13V92.325H121.609V75.3966Z" fill="white"/>
<path d="M147.055 75.3966H126.576V92.325H147.055V75.3966Z" fill="white"/>
<path d="M172.502 75.3966H152.023V92.325H172.502V75.3966Z" fill="white"/>
<path d="M97.4698 20.835C99.1663 20.835 100.542 19.0859 100.542 16.9284C100.542 14.7709 99.1663 13.0219 97.4698 13.0219C95.7733 13.0219 94.3979 14.7709 94.3979 16.9284C94.3979 19.0859 95.7733 20.835 97.4698 20.835Z" fill="white"/>
<path d="M148.258 20.835C149.954 20.835 151.329 19.0859 151.329 16.9284C151.329 14.7709 149.954 13.0219 148.258 13.0219C146.561 13.0219 145.186 14.7709 145.186 16.9284C145.186 19.0859 146.561 20.835 148.258 20.835Z" fill="white"/>
<path d="M98.6985 0H96.2411V17.9702H98.6985V0Z" fill="#E6E6E6"/>
<path d="M149.486 0H147.029V17.9702H149.486V0Z" fill="#E6E6E6"/>
<path d="M166.893 35.9403C166.892 37.3546 166.49 38.7209 165.76 39.7882C165.031 40.8555 164.023 41.552 162.921 41.7499C161.82 41.9477 160.7 41.6335 159.766 40.865C158.833 40.0966 158.148 38.9255 157.839 37.5669C157.53 36.2083 157.617 34.7535 158.084 33.4698C158.551 32.1861 159.366 31.1597 160.38 30.5792C161.394 29.9988 162.539 29.9032 163.604 30.3102C164.669 30.7171 165.583 31.5992 166.178 32.7943C166.645 33.7358 166.894 34.8266 166.893 35.9403Z" fill="#FF8552"/>
<path d="M166.178 32.7944L161.619 38.5906C161.333 38.0265 159.736 35.405 159.736 35.405C159.941 35.142 160.159 34.897 160.39 34.6715L161.713 36.9159L165.644 31.9174C165.843 32.1876 166.022 32.4812 166.178 32.7944Z" fill="white"/>
<path d="M116 59.9006C115.999 61.3149 115.597 62.6813 114.867 63.7485C114.137 64.8158 113.129 65.5124 112.028 65.7102C110.927 65.908 109.807 65.5938 108.873 64.8254C107.939 64.0569 107.255 62.8858 106.946 61.5272C106.637 60.1686 106.724 58.7138 107.191 57.4301C107.657 56.1464 108.473 55.12 109.487 54.5396C110.501 53.9591 111.646 53.8636 112.711 54.2705C113.776 54.6774 114.69 55.5595 115.284 56.7546C115.752 57.6961 116 58.787 116 59.9006Z" fill="#FF8552"/>
<path d="M115.284 56.7546L110.726 62.5508C110.439 61.9867 108.843 59.3652 108.843 59.3652C109.048 59.1023 109.266 58.8572 109.496 58.6317L110.82 60.8761L114.751 55.8776C114.95 56.1478 115.129 56.4414 115.284 56.7546Z" fill="white"/>
<path d="M90.5535 59.9006C90.5524 61.3149 90.1501 62.6812 89.4204 63.7485C88.6906 64.8158 87.6826 65.5124 86.5814 65.7102C85.4802 65.908 84.3599 65.5938 83.4263 64.8254C82.4926 64.0569 81.8084 62.8858 81.4993 61.5272C81.1903 60.1686 81.2771 58.7138 81.7439 57.4301C82.2106 56.1463 83.026 55.12 84.0401 54.5395C85.0543 53.9591 86.1991 53.8635 87.2642 54.2704C88.3292 54.6774 89.2431 55.5594 89.8378 56.7545C90.3055 57.6961 90.5536 58.7869 90.5535 59.9006Z" fill="#FF8552"/>
<path d="M89.8378 56.7546L85.2792 62.5508C84.9927 61.9867 83.3965 59.3652 83.3965 59.3652C83.601 59.1023 83.8193 58.8572 84.0499 58.6317L85.3735 60.8761L89.304 55.8776C89.5033 56.1478 89.682 56.4414 89.8378 56.7546Z" fill="white"/>
</svg>
