<svg width="52" height="46" viewBox="0 0 52 46" fill="none" xmlns="http://www.w3.org/2000/svg">
<g clip-path="url(#clip0)">
<g clip-path="url(#clip1)">
<path d="M42.7335 8.86595H10.6575C7.76643 8.86595 5.40582 10.995 5.40582 13.6203V32.0373C5.40582 34.6546 7.75759 36.7917 10.6575 36.7917H25.502V41.3299H18.1018C17.4387 41.3299 16.9083 41.8101 16.9083 42.4104C16.9083 43.0107 17.4387 43.491 18.1018 43.491H35.2892C35.9523 43.491 36.4828 43.0107 36.4828 42.4104C36.4828 41.8101 35.9523 41.3299 35.2892 41.3299H27.8891V36.7917H42.7335C45.6246 36.7917 47.9852 34.6626 47.9852 32.0373V13.6203C47.9852 10.995 45.6334 8.86595 42.7335 8.86595ZM10.6575 11.027H42.7424C44.3161 11.027 45.6069 12.1876 45.6069 13.6203V29.0118H7.79296V13.6203C7.79296 12.1876 9.07494 11.027 10.6575 11.027ZM42.7335 34.6306H10.6575C9.08378 34.6306 7.79296 33.47 7.79296 32.0373V31.1729H45.5981V32.0373C45.5981 33.462 44.3161 34.6306 42.7335 34.6306Z" fill="#02196C"/>
</g>
</g>
<defs>
<clipPath id="clip0">
<rect x="0.732422" y="0.793884" width="51.1304" height="44.8855" fill="white"/>
</clipPath>
<clipPath id="clip1">
<rect x="5.40582" y="6.90498" width="42.5794" height="38.5469" fill="white"/>
</clipPath>
</defs>
</svg>
