<svg width="44" height="28" viewBox="0 0 44 28" fill="none" xmlns="http://www.w3.org/2000/svg">
<path d="M41.1613 11.2001V4.90028C41.1616 4.40699 41.0297 3.92239 40.7789 3.49559C40.5281 3.0688 40.1674 2.71499 39.7333 2.47002C39.2992 2.22505 38.8071 2.09763 38.307 2.10068C37.8069 2.10372 37.3165 2.23713 36.8855 2.48737C36.8045 1.77631 36.4506 1.12282 35.8964 0.661067C35.3423 0.199313 34.6299 -0.0356599 33.9056 0.00439372C33.1813 0.0444473 32.5 0.356488 32.0017 0.876446C31.5033 1.3964 31.2257 2.08482 31.2258 2.80034V11.2001H12.7742V2.80034C12.7733 2.08549 12.4952 1.39804 11.997 0.878903C11.4987 0.359767 10.818 0.0482662 10.0944 0.00824682C9.37078 -0.0317725 8.65904 0.202722 8.10507 0.663665C7.5511 1.12461 7.19686 1.77709 7.11496 2.48737C6.68395 2.23702 6.19349 2.10352 5.69331 2.10042C5.19313 2.09732 4.701 2.22471 4.26684 2.4697C3.83267 2.71468 3.47189 3.06854 3.22109 3.49539C2.97028 3.92225 2.83837 4.40692 2.83871 4.90028V11.2001C2.08584 11.2001 1.3638 11.4951 0.831439 12.0202C0.299078 12.5452 0 13.2574 0 14C0 14.7426 0.299078 15.4548 0.831439 15.9798C1.3638 16.5049 2.08584 16.7999 2.83871 16.7999V23.0997C2.83837 23.5931 2.97028 24.0777 3.22109 24.5046C3.47189 24.9315 3.83267 25.2853 4.26684 25.5303C4.701 25.7753 5.19313 25.9027 5.69331 25.8996C6.19349 25.8965 6.68395 25.763 7.11496 25.5126C7.19686 26.2229 7.5511 26.8754 8.10507 27.3363C8.65904 27.7973 9.37078 28.0318 10.0944 27.9918C10.818 27.9517 11.4987 27.6402 11.997 27.1211C12.4952 26.602 12.7733 25.9145 12.7742 25.1997V16.7999H31.2258V25.1997C31.2257 25.9152 31.5033 26.6036 32.0017 27.1236C32.5 27.6435 33.1813 27.9555 33.9056 27.9956C34.6299 28.0357 35.3423 27.8007 35.8964 27.3389C36.4506 26.8772 36.8045 26.2237 36.8855 25.5126C37.3165 25.7629 37.8069 25.8963 38.307 25.8993C38.8071 25.9024 39.2992 25.775 39.7333 25.53C40.1674 25.285 40.5281 24.9312 40.7789 24.5044C41.0297 24.0776 41.1616 23.593 41.1613 23.0997V16.7999C41.9142 16.7999 42.6362 16.5049 43.1686 15.9798C43.7009 15.4548 44 14.7426 44 14C44 13.2574 43.7009 12.5452 43.1686 12.0202C42.6362 11.4951 41.9142 11.2001 41.1613 11.2001ZM2.83871 15.4C2.46227 15.4 2.10125 15.2525 1.83507 14.9899C1.56889 14.7274 1.41935 14.3713 1.41935 14C1.41935 13.6287 1.56889 13.2726 1.83507 13.0101C2.10125 12.7475 2.46227 12.6 2.83871 12.6V15.4ZM5.67742 24.4997C5.30112 24.4992 4.94036 24.3516 4.67428 24.0892C4.40819 23.8267 4.25851 23.4709 4.25806 23.0997V4.90028C4.25806 4.52899 4.4076 4.1729 4.67378 3.91036C4.93996 3.64782 5.30098 3.50032 5.67742 3.50032C6.05386 3.50032 6.41487 3.64782 6.68105 3.91036C6.94724 4.1729 7.09677 4.52899 7.09677 4.90028V23.0997C7.09633 23.4709 6.94665 23.8267 6.68056 24.0892C6.41448 24.3516 6.05372 24.4992 5.67742 24.4997ZM11.3548 25.1997C11.3548 25.5709 11.2053 25.927 10.9391 26.1896C10.6729 26.4521 10.3119 26.5996 9.93548 26.5996C9.55905 26.5996 9.19803 26.4521 8.93185 26.1896C8.66567 25.927 8.51613 25.5709 8.51613 25.1997V2.80034C8.51613 2.42905 8.66567 2.07297 8.93185 1.81043C9.19803 1.54788 9.55905 1.40039 9.93548 1.40039C10.3119 1.40039 10.6729 1.54788 10.9391 1.81043C11.2053 2.07297 11.3548 2.42905 11.3548 2.80034V25.1997ZM12.7742 15.4V12.6H31.2258V15.4H12.7742ZM35.4839 25.1997C35.4839 25.5709 35.3343 25.927 35.0682 26.1896C34.802 26.4521 34.441 26.5996 34.0645 26.5996C33.6881 26.5996 33.3271 26.4521 33.0609 26.1896C32.7947 25.927 32.6452 25.5709 32.6452 25.1997V2.80034C32.6452 2.42905 32.7947 2.07297 33.0609 1.81043C33.3271 1.54788 33.6881 1.40039 34.0645 1.40039C34.441 1.40039 34.802 1.54788 35.0682 1.81043C35.3343 2.07297 35.4839 2.42905 35.4839 2.80034V25.1997ZM39.7419 23.0997C39.7419 23.471 39.5924 23.8271 39.3262 24.0896C39.06 24.3522 38.699 24.4997 38.3226 24.4997C37.9461 24.4997 37.5851 24.3522 37.3189 24.0896C37.0528 23.8271 36.9032 23.471 36.9032 23.0997V4.90028C36.9032 4.52899 37.0528 4.1729 37.3189 3.91036C37.5851 3.64782 37.9461 3.50032 38.3226 3.50032C38.699 3.50032 39.06 3.64782 39.3262 3.91036C39.5924 4.1729 39.7419 4.52899 39.7419 4.90028V23.0997ZM41.1613 15.4V12.6C41.5377 12.6 41.8987 12.7475 42.1649 13.0101C42.4311 13.2726 42.5806 13.6287 42.5806 14C42.5806 14.3713 42.4311 14.7274 42.1649 14.9899C41.8987 15.2525 41.5377 15.4 41.1613 15.4Z" fill="#02196C"/>
</svg>
