<svg width="17" height="19" viewBox="0 0 17 19" fill="none" xmlns="http://www.w3.org/2000/svg">
<path d="M0.230713 11.767C0.230713 10.9397 0.49541 9.99069 1.0248 8.91989C1.5542 7.8491 2.23485 6.81204 3.06675 5.80871C4.78556 3.87248 6.27405 2.4115 7.53222 1.42578L8.35725 0.748093C8.63226 0.994523 8.93477 1.22042 9.26478 1.42578C9.71854 1.81889 10.4095 2.47164 11.3377 3.38402C12.2658 4.29639 13.0599 5.12516 13.7199 5.87032C14.5037 6.82084 15.1672 7.83736 15.7103 8.91989C16.2535 10.0024 16.525 10.9515 16.525 11.767C16.525 12.7058 16.3119 13.6021 15.8856 14.4558C15.4594 15.3095 14.8836 16.0473 14.1582 16.6692C13.4329 17.2912 12.5649 17.7855 11.5542 18.1522C10.5436 18.5189 9.47791 18.7023 8.35725 18.7023C7.25721 18.7023 6.20701 18.5248 5.20667 18.1698C4.20632 17.8148 3.34176 17.3308 2.61298 16.7176C1.88421 16.1045 1.30497 15.3681 0.875267 14.5086C0.445564 13.649 0.230713 12.7352 0.230713 11.767ZM2.71611 9.0123C2.71611 9.79267 2.90862 10.4146 3.29363 10.8781C3.67865 11.3417 4.26304 11.5734 5.04682 11.5734C5.83747 11.5734 6.42702 11.3431 6.81547 10.8825C7.20392 10.4219 7.40159 9.79853 7.40846 9.0123C7.40159 8.22608 7.20392 7.6012 6.81547 7.13767C6.42702 6.67415 5.83747 6.44239 5.04682 6.44239C4.26304 6.44239 3.67865 6.67415 3.29363 7.13767C2.90862 7.6012 2.71611 8.22608 2.71611 9.0123ZM4.44867 9.0123C4.44867 8.87149 4.45039 8.76294 4.45383 8.68666C4.45727 8.61039 4.46414 8.50771 4.47445 8.37863C4.48477 8.24954 4.50196 8.14833 4.52602 8.07499C4.55008 8.00165 4.58274 7.92537 4.62399 7.84616C4.66524 7.76695 4.72196 7.70975 4.79415 7.67454C4.86634 7.63934 4.95056 7.62173 5.04682 7.62173C5.19807 7.62173 5.31839 7.65987 5.40777 7.73615C5.49715 7.81242 5.56074 7.93271 5.59856 8.09699C5.63637 8.26128 5.65871 8.4021 5.66559 8.51944C5.67246 8.63679 5.6759 8.80108 5.6759 9.0123C5.6759 9.22353 5.67246 9.38635 5.66559 9.50076C5.65871 9.61518 5.63637 9.75453 5.59856 9.91882C5.56074 10.0831 5.49715 10.2034 5.40777 10.2797C5.31839 10.3559 5.19807 10.3941 5.04682 10.3941C4.95056 10.3941 4.86634 10.3765 4.79415 10.3413C4.72196 10.3061 4.66524 10.2489 4.62399 10.1696C4.58274 10.0904 4.55008 10.0142 4.52602 9.94082C4.50196 9.86748 4.48477 9.76626 4.47445 9.63718C4.46414 9.5081 4.45727 9.40689 4.45383 9.33354C4.45039 9.2602 4.44867 9.15312 4.44867 9.0123ZM5.08807 16.2908H6.54218L12.0286 6.20476H10.5436L5.08807 16.2908ZM9.82167 13.4833C9.83542 14.2695 10.0365 14.8944 10.425 15.3579C10.8134 15.8214 11.3995 16.0532 12.1833 16.0532C12.974 16.0532 13.5601 15.8229 13.9417 15.3623C14.3232 14.9017 14.5175 14.2754 14.5243 13.4833C14.5175 12.697 14.3232 12.0736 13.9417 11.613C13.5601 11.1524 12.974 10.9221 12.1833 10.9221C11.3995 10.9221 10.8134 11.1524 10.425 11.613C10.0365 12.0736 9.83542 12.697 9.82167 13.4833ZM11.5542 13.4833C11.5542 13.272 11.5577 13.1092 11.5645 12.9948C11.5714 12.8804 11.5938 12.741 11.6316 12.5767C11.6694 12.4125 11.733 12.2922 11.8224 12.2159C11.9117 12.1396 12.0321 12.1015 12.1833 12.1015C12.2864 12.1015 12.3741 12.1191 12.4463 12.1543C12.5185 12.1895 12.5769 12.2482 12.6216 12.3303C12.6663 12.4125 12.7024 12.4873 12.7299 12.5547C12.7574 12.6222 12.7746 12.7234 12.7815 12.8584L12.7969 13.162L12.8021 13.4833C12.8021 13.6358 12.8004 13.7458 12.7969 13.8133L12.7815 14.1169L12.7299 14.4206L12.6216 14.645L12.4463 14.821L12.1833 14.8738C12.0321 14.8738 11.9117 14.8357 11.8224 14.7594C11.733 14.6831 11.6694 14.5629 11.6316 14.3986C11.5938 14.2343 11.5714 14.0935 11.5645 13.9761C11.5577 13.8588 11.5542 13.6945 11.5542 13.4833Z" fill="#02196C"/>
</svg>
