<svg width="168" height="148" viewBox="0 0 168 148" fill="none" xmlns="http://www.w3.org/2000/svg">
<path d="M87.6522 0.438934H141.753C155.007 0.438934 165.753 11.1841 165.753 24.4389V46.0115C165.753 59.2663 155.007 70.0115 141.753 70.0115H87.6522V0.438934Z" fill="#FFE4E4" fill-opacity="0.6"/>
<path d="M2.2475 24.4389C2.2475 11.1841 12.9927 0.438934 26.2475 0.438934H80.3478V70.0115H26.2475C12.9927 70.0115 2.2475 59.2663 2.2475 46.0115V24.4389Z" fill="#FFE4E4" fill-opacity="0.6"/>
<path d="M58.9077 19.8453C60.1878 19.8453 61.3852 20.1866 62.3679 20.7747L61.41 22.8731C60.7265 22.3241 59.8335 22.0209 58.9077 22.0236C56.8432 22.0236 55.1916 23.4757 55.1916 25.291C55.1916 27.1062 56.8432 28.5584 58.9077 28.5584C59.7583 28.5584 60.5346 28.3115 61.1622 27.8904L62.1037 29.9597C61.139 30.4703 60.0337 30.739 58.9077 30.7366C57.2651 30.7366 55.6897 30.1629 54.5282 29.1416C53.3667 28.1204 52.7141 26.7352 52.7141 25.291C52.7141 23.8467 53.3667 22.4616 54.5282 21.4403C55.6897 20.419 57.2651 19.8453 58.9077 19.8453ZM50.2367 18.3931C50.8937 18.3931 51.5239 18.6226 51.9885 19.0311C52.4531 19.4396 52.7141 19.9937 52.7141 20.5714C52.7141 21.1491 52.4531 21.7032 51.9885 22.1117C51.5239 22.5202 50.8937 22.7497 50.2367 22.7497C49.5796 22.7497 48.9495 22.5202 48.4848 22.1117C48.0202 21.7032 47.7592 21.1491 47.7592 20.5714C47.7592 19.9937 48.0202 19.4396 48.4848 19.0311C48.9495 18.6226 49.5796 18.3931 50.2367 18.3931ZM50.2367 19.8453C50.0176 19.8453 49.8076 19.9218 49.6527 20.058C49.4979 20.1941 49.4108 20.3788 49.4108 20.5714C49.4108 20.764 49.4979 20.9486 49.6527 21.0848C49.8076 21.221 50.0176 21.2975 50.2367 21.2975C50.4557 21.2975 50.6657 21.221 50.8206 21.0848C50.9755 20.9486 51.0625 20.764 51.0625 20.5714C51.0625 20.3788 50.9755 20.1941 50.8206 20.058C50.6657 19.9218 50.4557 19.8453 50.2367 19.8453Z" fill="#02196C"/>
<path d="M26.4476 58.7937V59.3517H25.3376V62.9637H24.6536V59.3517H23.5376V58.7937H26.4476ZM27.8243 59.3457V60.5697H29.2643V61.1277H27.8243V62.4057H29.4443V62.9637H27.1403V58.7877H29.4443V59.3457H27.8243ZM34.6788 58.7937V62.9637H33.9948V60.1077L32.7228 62.9637H32.2488L30.9708 60.1077V62.9637H30.2868V58.7937H31.0248L32.4888 62.0637L33.9468 58.7937H34.6788ZM38.4938 60.0357C38.4938 60.2477 38.4438 60.4477 38.3438 60.6357C38.2438 60.8237 38.0838 60.9777 37.8638 61.0977C37.6438 61.2137 37.3618 61.2717 37.0178 61.2717H36.2618V62.9637H35.5778V58.7937H37.0178C37.3378 58.7937 37.6078 58.8497 37.8278 58.9617C38.0518 59.0697 38.2178 59.2177 38.3258 59.4057C38.4378 59.5937 38.4938 59.8037 38.4938 60.0357ZM37.0178 60.7137C37.2778 60.7137 37.4718 60.6557 37.5998 60.5397C37.7278 60.4197 37.7918 60.2517 37.7918 60.0357C37.7918 59.5797 37.5338 59.3517 37.0178 59.3517H36.2618V60.7137H37.0178ZM39.8302 59.3457V60.5697H41.2702V61.1277H39.8302V62.4057H41.4502V62.9637H39.1462V58.7877H41.4502V59.3457H39.8302ZM44.4587 62.9637L43.4987 61.2957H42.9767V62.9637H42.2927V58.7937H43.7327C44.0527 58.7937 44.3227 58.8497 44.5427 58.9617C44.7667 59.0737 44.9327 59.2237 45.0407 59.4117C45.1527 59.5997 45.2087 59.8097 45.2087 60.0417C45.2087 60.3137 45.1287 60.5617 44.9687 60.7857C44.8127 61.0057 44.5707 61.1557 44.2427 61.2357L45.2747 62.9637H44.4587ZM42.9767 60.7497H43.7327C43.9887 60.7497 44.1807 60.6857 44.3087 60.5577C44.4407 60.4297 44.5067 60.2577 44.5067 60.0417C44.5067 59.8257 44.4427 59.6577 44.3147 59.5377C44.1867 59.4137 43.9927 59.3517 43.7327 59.3517H42.9767V60.7497ZM48.5977 62.1117H46.8517L46.5517 62.9637H45.8377L47.3317 58.7877H48.1237L49.6177 62.9637H48.8977L48.5977 62.1117ZM48.4057 61.5537L47.7277 59.6157L47.0437 61.5537H48.4057ZM52.9613 58.7937V59.3517H51.8513V62.9637H51.1673V59.3517H50.0513V58.7937H52.9613ZM54.332 58.7937V61.4517C54.332 61.7677 54.414 62.0057 54.578 62.1657C54.746 62.3257 54.978 62.4057 55.274 62.4057C55.574 62.4057 55.806 62.3257 55.97 62.1657C56.138 62.0057 56.222 61.7677 56.222 61.4517V58.7937H56.906V61.4397C56.906 61.7797 56.832 62.0677 56.684 62.3037C56.536 62.5397 56.338 62.7157 56.09 62.8317C55.842 62.9477 55.568 63.0057 55.268 63.0057C54.968 63.0057 54.694 62.9477 54.446 62.8317C54.202 62.7157 54.008 62.5397 53.864 62.3037C53.72 62.0677 53.648 61.7797 53.648 61.4397V58.7937H54.332ZM59.9626 62.9637L59.0026 61.2957H58.4806V62.9637H57.7966V58.7937H59.2366C59.5566 58.7937 59.8266 58.8497 60.0466 58.9617C60.2706 59.0737 60.4366 59.2237 60.5446 59.4117C60.6566 59.5997 60.7126 59.8097 60.7126 60.0417C60.7126 60.3137 60.6326 60.5617 60.4726 60.7857C60.3166 61.0057 60.0746 61.1557 59.7466 61.2357L60.7786 62.9637H59.9626ZM58.4806 60.7497H59.2366C59.4926 60.7497 59.6846 60.6857 59.8126 60.5577C59.9446 60.4297 60.0106 60.2577 60.0106 60.0417C60.0106 59.8257 59.9466 59.6577 59.8186 59.5377C59.6906 59.4137 59.4966 59.3517 59.2366 59.3517H58.4806V60.7497ZM62.2716 59.3457V60.5697H63.7116V61.1277H62.2716V62.4057H63.8916V62.9637H61.5876V58.7877H63.8916V59.3457H62.2716Z" fill="#02196C"/>
<path d="M87.6522 77.3053H141.743C154.997 77.3053 165.743 88.0505 165.743 101.305V122.68C165.743 135.935 154.997 146.68 141.743 146.68H87.6522V77.3053Z" fill="#FFE4E4" fill-opacity="0.6"/>
<path d="M129.231 110.767C129.231 109.94 129.495 108.991 130.025 107.92C130.554 106.849 131.235 105.812 132.067 104.809C133.786 102.872 135.274 101.411 136.532 100.426L137.357 99.7481C137.632 99.9945 137.935 100.22 138.265 100.426C138.719 100.819 139.41 101.472 140.338 102.384C141.266 103.296 142.06 104.125 142.72 104.87C143.504 105.821 144.167 106.837 144.71 107.92C145.253 109.002 145.525 109.951 145.525 110.767C145.525 111.706 145.312 112.602 144.886 113.456C144.459 114.309 143.884 115.047 143.158 115.669C142.433 116.291 141.565 116.786 140.554 117.152C139.544 117.519 138.478 117.702 137.357 117.702C136.257 117.702 135.207 117.525 134.207 117.17C133.206 116.815 132.342 116.331 131.613 115.718C130.884 115.105 130.305 114.368 129.875 113.509C129.446 112.649 129.231 111.735 129.231 110.767ZM131.716 108.012C131.716 108.793 131.909 109.415 132.294 109.878C132.679 110.342 133.263 110.573 134.047 110.573C134.837 110.573 135.427 110.343 135.815 109.883C136.204 109.422 136.402 108.799 136.408 108.012C136.402 107.226 136.204 106.601 135.815 106.138C135.427 105.674 134.837 105.442 134.047 105.442C133.263 105.442 132.679 105.674 132.294 106.138C131.909 106.601 131.716 107.226 131.716 108.012ZM133.449 108.012C133.449 107.871 133.45 107.763 133.454 107.687C133.457 107.61 133.464 107.508 133.474 107.379C133.485 107.25 133.502 107.148 133.526 107.075C133.55 107.002 133.583 106.925 133.624 106.846C133.665 106.767 133.722 106.71 133.794 106.675C133.866 106.639 133.951 106.622 134.047 106.622C134.198 106.622 134.318 106.66 134.408 106.736C134.497 106.812 134.561 106.933 134.599 107.097C134.636 107.261 134.659 107.402 134.666 107.519C134.672 107.637 134.676 107.801 134.676 108.012C134.676 108.224 134.672 108.386 134.666 108.501C134.659 108.615 134.636 108.755 134.599 108.919C134.561 109.083 134.497 109.203 134.408 109.28C134.318 109.356 134.198 109.394 134.047 109.394C133.951 109.394 133.866 109.376 133.794 109.341C133.722 109.306 133.665 109.249 133.624 109.17C133.583 109.09 133.55 109.014 133.526 108.941C133.502 108.867 133.485 108.766 133.474 108.637C133.464 108.508 133.457 108.407 133.454 108.334C133.45 108.26 133.449 108.153 133.449 108.012ZM134.088 115.291H135.542L141.029 105.205H139.544L134.088 115.291ZM138.822 112.483C138.835 113.269 139.037 113.894 139.425 114.358C139.813 114.821 140.4 115.053 141.183 115.053C141.974 115.053 142.56 114.823 142.942 114.362C143.323 113.902 143.517 113.275 143.524 112.483C143.517 111.697 143.323 111.074 142.942 110.613C142.56 110.152 141.974 109.922 141.183 109.922C140.4 109.922 139.813 110.152 139.425 110.613C139.037 111.074 138.835 111.697 138.822 112.483ZM140.554 112.483C140.554 112.272 140.558 112.109 140.565 111.995C140.571 111.88 140.594 111.741 140.632 111.577C140.669 111.412 140.733 111.292 140.822 111.216C140.912 111.14 141.032 111.101 141.183 111.101C141.286 111.101 141.374 111.119 141.446 111.154C141.518 111.189 141.577 111.248 141.622 111.33C141.666 111.412 141.702 111.487 141.73 111.555C141.757 111.622 141.775 111.723 141.781 111.858L141.797 112.162L141.802 112.483C141.802 112.636 141.8 112.746 141.797 112.813L141.781 113.117L141.73 113.421L141.622 113.645L141.446 113.821L141.183 113.874C141.032 113.874 140.912 113.836 140.822 113.759C140.733 113.683 140.669 113.563 140.632 113.399C140.594 113.234 140.571 113.093 140.565 112.976C140.558 112.859 140.554 112.694 140.554 112.483Z" fill="#02196C"/>
<path d="M106.374 59.947C106.374 60.159 106.324 60.359 106.224 60.547C106.124 60.735 105.964 60.889 105.744 61.009C105.524 61.125 105.242 61.183 104.898 61.183H104.142V62.875H103.458V58.705H104.898C105.218 58.705 105.488 58.761 105.708 58.873C105.932 58.981 106.098 59.129 106.206 59.317C106.318 59.505 106.374 59.715 106.374 59.947ZM104.898 60.625C105.158 60.625 105.352 60.567 105.48 60.451C105.608 60.331 105.672 60.163 105.672 59.947C105.672 59.491 105.414 59.263 104.898 59.263H104.142V60.625H104.898ZM109.54 62.023H107.794L107.494 62.875H106.78L108.274 58.699H109.066L110.56 62.875H109.84L109.54 62.023ZM109.348 61.465L108.67 59.527L107.986 61.465H109.348ZM113.376 62.875L112.416 61.207H111.894V62.875H111.21V58.705H112.65C112.97 58.705 113.24 58.761 113.46 58.873C113.684 58.985 113.85 59.135 113.958 59.323C114.07 59.511 114.126 59.721 114.126 59.953C114.126 60.225 114.046 60.473 113.886 60.697C113.73 60.917 113.488 61.067 113.16 61.147L114.192 62.875H113.376ZM111.894 60.661H112.65C112.906 60.661 113.098 60.597 113.226 60.469C113.358 60.341 113.424 60.169 113.424 59.953C113.424 59.737 113.36 59.569 113.232 59.449C113.104 59.325 112.91 59.263 112.65 59.263H111.894V60.661ZM117.695 58.705V59.263H116.585V62.875H115.901V59.263H114.785V58.705H117.695ZM119.072 62.323H120.482V62.875H118.388V58.705H119.072V62.323ZM124.144 58.705L122.764 61.363V62.875H122.08V61.363L120.694 58.705H121.456L122.422 60.751L123.388 58.705H124.144ZM126.017 60.781C126.017 60.373 126.111 60.007 126.299 59.683C126.491 59.359 126.749 59.107 127.073 58.927C127.401 58.743 127.759 58.651 128.147 58.651C128.591 58.651 128.985 58.761 129.329 58.981C129.677 59.197 129.929 59.505 130.085 59.905H129.263C129.155 59.685 129.005 59.521 128.813 59.413C128.621 59.305 128.399 59.251 128.147 59.251C127.871 59.251 127.625 59.313 127.409 59.437C127.193 59.561 127.023 59.739 126.899 59.971C126.779 60.203 126.719 60.473 126.719 60.781C126.719 61.089 126.779 61.359 126.899 61.591C127.023 61.823 127.193 62.003 127.409 62.131C127.625 62.255 127.871 62.317 128.147 62.317C128.399 62.317 128.621 62.263 128.813 62.155C129.005 62.047 129.155 61.883 129.263 61.663H130.085C129.929 62.063 129.677 62.371 129.329 62.587C128.985 62.803 128.591 62.911 128.147 62.911C127.755 62.911 127.397 62.821 127.073 62.641C126.749 62.457 126.491 62.203 126.299 61.879C126.111 61.555 126.017 61.189 126.017 60.781ZM131.57 62.323H132.98V62.875H130.886V58.705H131.57V62.323ZM135.454 62.917C135.066 62.917 134.708 62.827 134.38 62.647C134.056 62.463 133.798 62.209 133.606 61.885C133.418 61.557 133.324 61.189 133.324 60.781C133.324 60.373 133.418 60.007 133.606 59.683C133.798 59.359 134.056 59.107 134.38 58.927C134.708 58.743 135.066 58.651 135.454 58.651C135.846 58.651 136.204 58.743 136.528 58.927C136.856 59.107 137.114 59.359 137.302 59.683C137.49 60.007 137.584 60.373 137.584 60.781C137.584 61.189 137.49 61.557 137.302 61.885C137.114 62.209 136.856 62.463 136.528 62.647C136.204 62.827 135.846 62.917 135.454 62.917ZM135.454 62.323C135.73 62.323 135.976 62.261 136.192 62.137C136.408 62.009 136.576 61.829 136.696 61.597C136.82 61.361 136.882 61.089 136.882 60.781C136.882 60.473 136.82 60.203 136.696 59.971C136.576 59.739 136.408 59.561 136.192 59.437C135.976 59.313 135.73 59.251 135.454 59.251C135.178 59.251 134.932 59.313 134.716 59.437C134.5 59.561 134.33 59.739 134.206 59.971C134.086 60.203 134.026 60.473 134.026 60.781C134.026 61.089 134.086 61.361 134.206 61.597C134.33 61.829 134.5 62.009 134.716 62.137C134.932 62.261 135.178 62.323 135.454 62.323ZM138.935 58.705V61.363C138.935 61.679 139.017 61.917 139.181 62.077C139.349 62.237 139.581 62.317 139.877 62.317C140.177 62.317 140.409 62.237 140.573 62.077C140.741 61.917 140.825 61.679 140.825 61.363V58.705H141.509V61.351C141.509 61.691 141.435 61.979 141.287 62.215C141.139 62.451 140.941 62.627 140.693 62.743C140.445 62.859 140.171 62.917 139.871 62.917C139.571 62.917 139.297 62.859 139.049 62.743C138.805 62.627 138.611 62.451 138.467 62.215C138.323 61.979 138.251 61.691 138.251 61.351V58.705H138.935ZM143.761 58.705C144.205 58.705 144.593 58.791 144.925 58.963C145.261 59.131 145.519 59.375 145.699 59.695C145.883 60.011 145.975 60.381 145.975 60.805C145.975 61.229 145.883 61.597 145.699 61.909C145.519 62.221 145.261 62.461 144.925 62.629C144.593 62.793 144.205 62.875 143.761 62.875H142.399V58.705H143.761ZM143.761 62.317C144.249 62.317 144.623 62.185 144.883 61.921C145.143 61.657 145.273 61.285 145.273 60.805C145.273 60.321 145.143 59.943 144.883 59.671C144.623 59.399 144.249 59.263 143.761 59.263H143.083V62.317H143.761ZM149.743 58.705L148.363 61.363V62.875H147.679V61.363L146.293 58.705H147.055L148.021 60.751L148.987 58.705H149.743Z" fill="#02196C"/>
<path d="M116.427 134.876V139.046H115.743V137.222H113.781V139.046H113.097V134.876H113.781V136.664H115.743V134.876H116.427ZM118.005 134.876V137.534C118.005 137.85 118.087 138.088 118.251 138.248C118.419 138.408 118.651 138.488 118.947 138.488C119.247 138.488 119.479 138.408 119.643 138.248C119.811 138.088 119.895 137.85 119.895 137.534V134.876H120.579V137.522C120.579 137.862 120.505 138.15 120.357 138.386C120.209 138.622 120.011 138.798 119.763 138.914C119.515 139.03 119.241 139.088 118.941 139.088C118.641 139.088 118.367 139.03 118.119 138.914C117.875 138.798 117.681 138.622 117.537 138.386C117.393 138.15 117.321 137.862 117.321 137.522V134.876H118.005ZM125.862 134.876V139.046H125.178V136.19L123.906 139.046H123.432L122.154 136.19V139.046H121.47V134.876H122.208L123.672 138.146L125.13 134.876H125.862ZM127.445 134.876V139.046H126.761V134.876H127.445ZM129.705 134.876C130.149 134.876 130.537 134.962 130.869 135.134C131.205 135.302 131.463 135.546 131.643 135.866C131.827 136.182 131.919 136.552 131.919 136.976C131.919 137.4 131.827 137.768 131.643 138.08C131.463 138.392 131.205 138.632 130.869 138.8C130.537 138.964 130.149 139.046 129.705 139.046H128.343V134.876H129.705ZM129.705 138.488C130.193 138.488 130.567 138.356 130.827 138.092C131.087 137.828 131.217 137.456 131.217 136.976C131.217 136.492 131.087 136.114 130.827 135.842C130.567 135.57 130.193 135.434 129.705 135.434H129.027V138.488H129.705ZM133.281 134.876V139.046H132.597V134.876H133.281ZM136.873 134.876V135.434H135.763V139.046H135.079V135.434H133.963V134.876H136.873ZM140.655 134.876L139.275 137.534V139.046H138.591V137.534L137.205 134.876H137.967L138.933 136.922L139.899 134.876H140.655Z" fill="#02196C"/>
<path d="M2.2475 101.305C2.2475 88.0505 12.9927 77.3053 26.2475 77.3053H80.338V146.68H26.2475C12.9926 146.68 2.2475 135.935 2.2475 122.68V101.305Z" fill="#FFE4E4" fill-opacity="0.6"/>
<g clip-path="url(#clip0)">
<g clip-path="url(#clip1)">
<path d="M57.7335 89.866H25.6575C22.7664 89.866 20.4058 91.995 20.4058 94.6203V113.037C20.4058 115.655 22.7576 117.792 25.6575 117.792H40.502V122.33H33.1018C32.4387 122.33 31.9083 122.81 31.9083 123.41C31.9083 124.011 32.4387 124.491 33.1018 124.491H50.2892C50.9523 124.491 51.4828 124.011 51.4828 123.41C51.4828 122.81 50.9523 122.33 50.2892 122.33H42.8891V117.792H57.7335C60.6246 117.792 62.9852 115.663 62.9852 113.037V94.6203C62.9852 91.995 60.6334 89.866 57.7335 89.866ZM25.6575 92.027H57.7424C59.3161 92.027 60.6069 93.1876 60.6069 94.6203V110.012H22.793V94.6203C22.793 93.1876 24.0749 92.027 25.6575 92.027ZM57.7335 115.631H25.6575C24.0838 115.631 22.793 114.47 22.793 113.037V112.173H60.5981V113.037C60.5981 114.462 59.3161 115.631 57.7335 115.631Z" fill="#02196C"/>
</g>
</g>
<path d="M19.106 136.952C19.106 136.544 19.2 136.178 19.388 135.854C19.58 135.53 19.838 135.278 20.162 135.098C20.49 134.914 20.848 134.822 21.236 134.822C21.68 134.822 22.074 134.932 22.418 135.152C22.766 135.368 23.018 135.676 23.174 136.076H22.352C22.244 135.856 22.094 135.692 21.902 135.584C21.71 135.476 21.488 135.422 21.236 135.422C20.96 135.422 20.714 135.484 20.498 135.608C20.282 135.732 20.112 135.91 19.988 136.142C19.868 136.374 19.808 136.644 19.808 136.952C19.808 137.26 19.868 137.53 19.988 137.762C20.112 137.994 20.282 138.174 20.498 138.302C20.714 138.426 20.96 138.488 21.236 138.488C21.488 138.488 21.71 138.434 21.902 138.326C22.094 138.218 22.244 138.054 22.352 137.834H23.174C23.018 138.234 22.766 138.542 22.418 138.758C22.074 138.974 21.68 139.082 21.236 139.082C20.844 139.082 20.486 138.992 20.162 138.812C19.838 138.628 19.58 138.374 19.388 138.05C19.2 137.726 19.106 137.36 19.106 136.952ZM25.8766 139.088C25.4886 139.088 25.1306 138.998 24.8026 138.818C24.4786 138.634 24.2206 138.38 24.0286 138.056C23.8406 137.728 23.7466 137.36 23.7466 136.952C23.7466 136.544 23.8406 136.178 24.0286 135.854C24.2206 135.53 24.4786 135.278 24.8026 135.098C25.1306 134.914 25.4886 134.822 25.8766 134.822C26.2686 134.822 26.6266 134.914 26.9506 135.098C27.2786 135.278 27.5366 135.53 27.7246 135.854C27.9126 136.178 28.0066 136.544 28.0066 136.952C28.0066 137.36 27.9126 137.728 27.7246 138.056C27.5366 138.38 27.2786 138.634 26.9506 138.818C26.6266 138.998 26.2686 139.088 25.8766 139.088ZM25.8766 138.494C26.1526 138.494 26.3986 138.432 26.6146 138.308C26.8306 138.18 26.9986 138 27.1186 137.768C27.2426 137.532 27.3046 137.26 27.3046 136.952C27.3046 136.644 27.2426 136.374 27.1186 136.142C26.9986 135.91 26.8306 135.732 26.6146 135.608C26.3986 135.484 26.1526 135.422 25.8766 135.422C25.6006 135.422 25.3546 135.484 25.1386 135.608C24.9226 135.732 24.7526 135.91 24.6286 136.142C24.5086 136.374 24.4486 136.644 24.4486 136.952C24.4486 137.26 24.5086 137.532 24.6286 137.768C24.7526 138 24.9226 138.18 25.1386 138.308C25.3546 138.432 25.6006 138.494 25.8766 138.494ZM33.0717 134.876V139.046H32.3877V136.19L31.1157 139.046H30.6417L29.3637 136.19V139.046H28.6797V134.876H29.4177L30.8817 138.146L32.3397 134.876H33.0717ZM36.8867 136.118C36.8867 136.33 36.8367 136.53 36.7367 136.718C36.6367 136.906 36.4767 137.06 36.2567 137.18C36.0367 137.296 35.7547 137.354 35.4107 137.354H34.6547V139.046H33.9707V134.876H35.4107C35.7307 134.876 36.0007 134.932 36.2207 135.044C36.4447 135.152 36.6107 135.3 36.7187 135.488C36.8307 135.676 36.8867 135.886 36.8867 136.118ZM35.4107 136.796C35.6707 136.796 35.8647 136.738 35.9927 136.622C36.1207 136.502 36.1847 136.334 36.1847 136.118C36.1847 135.662 35.9267 135.434 35.4107 135.434H34.6547V136.796H35.4107ZM38.217 134.876V137.534C38.217 137.85 38.299 138.088 38.463 138.248C38.631 138.408 38.863 138.488 39.159 138.488C39.459 138.488 39.691 138.408 39.855 138.248C40.023 138.088 40.107 137.85 40.107 137.534V134.876H40.791V137.522C40.791 137.862 40.717 138.15 40.569 138.386C40.421 138.622 40.223 138.798 39.975 138.914C39.727 139.03 39.453 139.088 39.153 139.088C38.853 139.088 38.579 139.03 38.331 138.914C38.087 138.798 37.893 138.622 37.749 138.386C37.605 138.15 37.533 137.862 37.533 137.522V134.876H38.217ZM44.3756 134.876V135.434H43.2656V139.046H42.5816V135.434H41.4656V134.876H44.3756ZM45.7523 135.428V136.652H47.1923V137.21H45.7523V138.488H47.3723V139.046H45.0683V134.87H47.3723V135.428H45.7523ZM50.3808 139.046L49.4208 137.378H48.8988V139.046H48.2148V134.876H49.6548C49.9748 134.876 50.2448 134.932 50.4648 135.044C50.6888 135.156 50.8548 135.306 50.9628 135.494C51.0748 135.682 51.1308 135.892 51.1308 136.124C51.1308 136.396 51.0508 136.644 50.8908 136.868C50.7348 137.088 50.4928 137.238 50.1648 137.318L51.1968 139.046H50.3808ZM48.8988 136.832H49.6548C49.9108 136.832 50.1028 136.768 50.2308 136.64C50.3628 136.512 50.4288 136.34 50.4288 136.124C50.4288 135.908 50.3648 135.74 50.2368 135.62C50.1088 135.496 49.9148 135.434 49.6548 135.434H48.8988V136.832ZM56.2584 134.876V135.434H55.1484V139.046H54.4644V135.434H53.3484V134.876H56.2584ZM57.6352 134.876V139.046H56.9512V134.876H57.6352ZM62.9252 134.876V139.046H62.2412V136.19L60.9692 139.046H60.4952L59.2172 136.19V139.046H58.5332V134.876H59.2712L60.7352 138.146L62.1932 134.876H62.9252ZM64.5082 135.428V136.652H65.9482V137.21H64.5082V138.488H66.1282V139.046H63.8242V134.87H66.1282V135.428H64.5082Z" fill="#02196C"/>
<path d="M28.0739 41.0123V38.9483L36.1379 27.3803H39.4499V38.6363H41.6819V41.0123H39.4499V44.6603H36.7619V41.0123H28.0739ZM36.8819 30.1643L31.2179 38.6363H36.8819V30.1643Z" fill="#02196C"/>
<path d="M32.891 104.238V103.55L35.579 99.6942H36.683V103.446H37.427V104.238H36.683V105.454H35.787V104.238H32.891ZM35.827 100.622L33.939 103.446H35.827V100.622ZM42.6608 100.974C42.9968 100.974 43.2954 101.046 43.5568 101.19C43.8234 101.334 44.0314 101.548 44.1808 101.83C44.3354 102.113 44.4128 102.454 44.4128 102.854V105.454H43.5088V102.99C43.5088 102.596 43.4101 102.294 43.2128 102.086C43.0154 101.873 42.7461 101.766 42.4048 101.766C42.0634 101.766 41.7914 101.873 41.5888 102.086C41.3914 102.294 41.2928 102.596 41.2928 102.99V105.454H40.3808V99.5342H41.2928V101.558C41.4474 101.372 41.6421 101.228 41.8768 101.126C42.1168 101.025 42.3781 100.974 42.6608 100.974ZM46.4881 101.686C46.6214 101.462 46.7974 101.289 47.0161 101.166C47.2401 101.038 47.5041 100.974 47.8081 100.974V101.918H47.5761C47.2188 101.918 46.9468 102.009 46.7601 102.19C46.5788 102.372 46.4881 102.686 46.4881 103.134V105.454H45.5761V101.046H46.4881V101.686ZM50.2464 105.526C49.8997 105.526 49.5877 105.465 49.3104 105.342C49.0384 105.214 48.8224 105.044 48.6624 104.83C48.5024 104.612 48.4171 104.369 48.4064 104.102H49.3504C49.3664 104.289 49.4544 104.446 49.6144 104.574C49.7797 104.697 49.9851 104.758 50.2304 104.758C50.4864 104.758 50.6837 104.71 50.8224 104.614C50.9664 104.513 51.0384 104.385 51.0384 104.23C51.0384 104.065 50.9584 103.942 50.7984 103.862C50.6437 103.782 50.3957 103.694 50.0544 103.598C49.7237 103.508 49.4544 103.42 49.2464 103.334C49.0384 103.249 48.8571 103.118 48.7024 102.942C48.5531 102.766 48.4784 102.534 48.4784 102.246C48.4784 102.012 48.5477 101.798 48.6864 101.606C48.8251 101.409 49.0224 101.254 49.2784 101.142C49.5397 101.03 49.8384 100.974 50.1744 100.974C50.6757 100.974 51.0784 101.102 51.3824 101.358C51.6917 101.609 51.8571 101.953 51.8784 102.39H50.9664C50.9504 102.193 50.8704 102.036 50.7264 101.918C50.5824 101.801 50.3877 101.742 50.1424 101.742C49.9024 101.742 49.7184 101.788 49.5904 101.878C49.4624 101.969 49.3984 102.089 49.3984 102.238C49.3984 102.356 49.4411 102.454 49.5264 102.534C49.6117 102.614 49.7157 102.678 49.8384 102.726C49.9611 102.769 50.1424 102.825 50.3824 102.894C50.7024 102.98 50.9637 103.068 51.1664 103.158C51.3744 103.244 51.5531 103.372 51.7024 103.542C51.8517 103.713 51.9291 103.94 51.9344 104.222C51.9344 104.473 51.8651 104.697 51.7264 104.894C51.5877 105.092 51.3904 105.246 51.1344 105.358C50.8837 105.47 50.5877 105.526 50.2464 105.526Z" fill="#02196C"/>
<path d="M130.359 18.0902L128.819 22.3017L127.279 18.0902C127.198 17.8681 127.177 17.6318 127.216 17.4007C127.255 17.1697 127.354 16.9504 127.505 16.7609C127.655 16.5714 127.852 16.4171 128.081 16.3107C128.309 16.2043 128.562 16.1488 128.819 16.1488C129.075 16.1488 129.328 16.2043 129.557 16.3107C129.785 16.4171 129.983 16.5714 130.133 16.7609C130.283 16.9504 130.382 17.1697 130.422 17.4007C130.461 17.6318 130.44 17.8681 130.359 18.0902ZM138.621 22.3719L134.264 24.3584L136.443 20.3869C136.645 20.0503 136.982 19.7982 137.384 19.6835C137.785 19.5689 138.22 19.6006 138.596 19.7721C138.972 19.9436 139.261 20.2415 139.401 20.6031C139.542 20.9646 139.523 21.3617 139.348 21.7107C139.191 21.997 138.936 22.229 138.621 22.3719ZM141.141 30.7248L136.52 29.321L141.141 27.9171C141.385 27.8431 141.645 27.8229 141.899 27.8583C142.154 27.8937 142.395 27.9836 142.604 28.1207C142.812 28.2578 142.982 28.4381 143.099 28.6468C143.217 28.8555 143.278 29.0866 143.278 29.321C143.278 29.5554 143.217 29.7865 143.099 29.9952C142.982 30.2038 142.812 30.3841 142.604 30.5212C142.395 30.6583 142.154 30.7483 141.899 30.7837C141.645 30.8191 141.385 30.7989 141.141 30.7248ZM121.194 20.3869L123.374 24.3584L119.016 22.3719C118.785 22.2674 118.585 22.1143 118.432 21.9253C118.279 21.7362 118.177 21.5166 118.135 21.2847C118.093 21.0527 118.113 20.815 118.192 20.5913C118.271 20.3676 118.407 20.1642 118.59 19.998C118.772 19.8318 118.995 19.7075 119.241 19.6354C119.486 19.5634 119.747 19.5456 120.002 19.5837C120.256 19.6217 120.497 19.7143 120.704 19.854C120.912 19.9937 121.08 20.1763 121.194 20.3869ZM135.405 31.205C135.619 30.6097 135.75 29.9822 135.75 29.321C135.75 25.838 132.64 23.0037 128.819 23.0037C126.755 23.0037 124.911 23.8375 123.648 25.1487L123.428 25.1094C122.127 25.1102 120.841 25.3622 119.654 25.8488C118.468 26.3354 117.408 27.0456 116.544 27.9326C116.257 27.836 115.946 27.8153 115.647 27.8728C115.348 27.9304 115.072 28.0638 114.853 28.2578C114.633 28.4517 114.478 28.6983 114.405 28.9691C114.332 29.24 114.345 29.524 114.442 29.7885C114.53 30.0229 114.685 30.2082 114.868 30.3655C114.419 31.371 114.187 32.4466 114.186 33.5325L114.189 33.7094C112.867 34.0217 111.695 34.7251 110.859 35.7092C110.022 36.6934 109.567 37.9028 109.565 39.1479C109.565 42.2448 112.33 44.7633 115.726 44.7633H132.67C136.916 44.7633 140.371 41.6145 140.371 37.7441C140.371 34.7553 138.301 32.2143 135.405 31.205ZM128.819 25.8114C130.943 25.8114 132.67 27.3851 132.67 29.321C132.67 29.8348 132.522 30.3121 132.303 30.7515C131.758 30.781 131.194 30.8554 130.581 31.0154C130.185 30.0766 129.572 29.2265 128.783 28.5228C127.995 27.8191 127.049 27.2784 126.011 26.9373C126.368 26.5832 126.802 26.3005 127.286 26.1067C127.769 25.9129 128.291 25.8124 128.819 25.8114ZM132.67 41.9556H115.726C114.026 41.9556 112.646 40.6964 112.646 39.1479C112.646 37.5995 114.026 36.3402 115.585 36.3318L117.775 36.3543L117.393 34.6669C117.21 33.8505 117.228 33.0072 117.446 32.1979C117.664 31.3887 118.077 30.6338 118.654 29.9878C119.232 29.3418 119.96 28.821 120.785 28.4628C121.611 28.1047 122.514 27.9183 123.428 27.9171L123.534 27.8975C124.949 27.9284 126.31 28.4011 127.389 29.2367C128.467 30.0723 129.198 31.2201 129.46 32.4881L129.518 32.7492C129.609 33.0372 129.801 33.2905 130.064 33.4708C130.326 33.6511 130.646 33.7486 130.975 33.7487L131.42 33.7164C131.901 33.5901 132.297 33.5325 132.67 33.5325C135.217 33.5325 137.29 35.4221 137.29 37.7441C137.29 40.0661 135.217 41.9556 132.67 41.9556Z" fill="#02196C"/>
<path d="M109.059 105.82C108.883 105.084 108.563 104.532 108.099 104.164C107.635 103.796 106.987 103.612 106.155 103.612C104.891 103.612 103.947 104.1 103.323 105.076C102.699 106.036 102.371 107.636 102.339 109.876C102.755 109.172 103.363 108.628 104.163 108.244C104.963 107.86 105.827 107.668 106.755 107.668C107.811 107.668 108.739 107.9 109.539 108.364C110.355 108.812 110.987 109.468 111.435 110.332C111.899 111.196 112.131 112.228 112.131 113.428C112.131 114.548 111.907 115.548 111.459 116.428C111.027 117.308 110.379 118.004 109.515 118.516C108.651 119.012 107.611 119.26 106.395 119.26C104.747 119.26 103.451 118.9 102.507 118.18C101.579 117.444 100.923 116.412 100.539 115.084C100.171 113.756 99.9871 112.1 99.9871 110.116C99.9871 104.26 102.051 101.332 106.179 101.332C107.779 101.332 109.035 101.764 109.947 102.628C110.875 103.492 111.419 104.556 111.579 105.82H109.059ZM106.155 109.972C105.179 109.972 104.347 110.268 103.659 110.86C102.987 111.436 102.651 112.276 102.651 113.38C102.651 114.484 102.963 115.364 103.587 116.02C104.227 116.66 105.115 116.98 106.251 116.98C107.259 116.98 108.051 116.668 108.627 116.044C109.219 115.42 109.515 114.588 109.515 113.548C109.515 112.46 109.227 111.596 108.651 110.956C108.091 110.3 107.259 109.972 106.155 109.972ZM126.138 103.876L119.466 119.26H116.706L123.45 104.164H114.57V101.836H126.138V103.876Z" fill="#02196C"/>
<defs>
<clipPath id="clip0">
<rect x="15.7324" y="81.7939" width="51.1304" height="44.8855" fill="white"/>
</clipPath>
<clipPath id="clip1">
<rect x="20.4058" y="87.905" width="42.5794" height="38.5469" fill="white"/>
</clipPath>
</defs>
</svg>
