<svg width="180" height="140" viewBox="0 0 180 140" fill="none" xmlns="http://www.w3.org/2000/svg">
<path d="M180 136.137C178.878 141.511 119.999 141.06 120.088 136.136C121.209 130.762 180.089 131.213 180 136.137Z" fill="#E6E6E6"/>
<path d="M113.268 122.435C113.016 123.639 99.8182 123.538 99.8382 122.435C100.09 121.23 113.288 121.331 113.268 122.435Z" fill="#E6E6E6"/>
<path d="M147.335 44.1244C149.606 44.1244 151.447 42.3353 151.447 40.1282C151.447 37.9212 149.606 36.1321 147.335 36.1321C145.064 36.1321 143.224 37.9212 143.224 40.1282C143.224 42.3353 145.064 44.1244 147.335 44.1244Z" fill="#2F2E41"/>
<path d="M143.229 38.5035L145.803 37.8904C146.785 37.8904 147.756 37.6782 148.643 37.269C149.531 36.8599 150.314 36.2641 150.935 35.5248C151.557 34.7854 152.002 33.921 152.237 32.9941C152.473 32.0672 152.494 31.101 152.298 30.1654C152.298 27.9324 151.385 25.7909 149.761 24.212C148.136 22.633 145.932 21.746 143.635 21.746H143.635C142.497 21.746 141.371 21.9637 140.32 22.3869C139.268 22.81 138.313 23.4301 137.509 24.212C136.705 24.9938 136.066 25.9219 135.631 26.9434C135.196 27.9649 134.972 29.0597 134.972 30.1654V30.1654C134.64 31.292 134.619 32.4835 134.91 33.6206C135.201 34.7578 135.794 35.8006 136.63 36.6449C137.467 37.4892 138.516 38.1052 139.674 38.4314C140.832 38.7575 142.058 38.7824 143.229 38.5035Z" fill="#2F2E41"/>
<path d="M159.783 64.1143L153.421 55.3136L149.967 61.5478L153.914 66.0235L159.783 64.1143Z" fill="#575A89"/>
<path d="M156.464 63.2262C156.464 63.2262 158.437 62.4269 159.589 63.8655C160.74 65.3042 162.714 68.3412 162.056 68.8208C161.398 69.3003 159.26 67.3822 159.26 67.3822L156.464 63.2262Z" fill="#575A89"/>
<path d="M161.907 71.0256C162.547 70.5303 162.285 69.1775 161.322 68.004C160.359 66.8304 159.061 66.2806 158.422 66.7759C157.782 67.2711 158.044 68.6239 159.007 69.7975C159.97 70.971 161.268 71.5208 161.907 71.0256Z" fill="#FFB8B8"/>
<path d="M162.878 85.4448C162.878 85.4448 162.549 95.675 161.398 101.589C160.247 107.504 162.056 128.763 162.056 128.763L158.437 130.362L156.135 127.964C156.135 127.964 156.957 123.648 155.806 120.611C154.655 117.574 154.161 104.467 154.161 104.467L152.187 86.8834L162.878 85.4448Z" fill="#FFB8B8"/>
<path d="M149.391 88.4818L139.029 106.864L129.654 123.648V127.165L124.885 125.726L126.529 122.05C126.529 122.05 127.352 107.663 133.273 102.069L138.372 87.8424L149.391 88.4818Z" fill="#FFB8B8"/>
<path d="M155.559 63.7855H157.368C157.368 63.7855 167.237 76.8929 166.743 84.8853L152.599 90.4799L152.105 89.361C152.105 89.361 140.427 91.439 137.467 89.0413L141.579 68.5809L141.908 65.7037L155.559 63.7855Z" fill="#2F2E41"/>
<path d="M160.082 128.603C160.082 128.603 157.779 125.726 160.576 125.566C163.372 125.406 163.372 127.165 163.372 127.165L169.622 131.321C169.622 131.321 179.984 134.997 172.582 136.116C172.582 136.116 169.457 136.755 165.51 135.317C163.139 134.452 160.639 133.966 158.108 133.878C158.108 133.878 154.49 133.718 154.49 131.96C154.49 130.202 156.255 127.165 156.255 127.165C156.255 127.165 159.095 129.083 160.082 128.603Z" fill="#2F2E41"/>
<path d="M124.556 124.607C124.556 124.607 130.148 123.488 130.312 125.566C130.477 127.644 130.312 131.161 130.312 131.161C130.312 131.161 128.997 132.759 129.325 133.878C129.654 134.997 128.503 138.514 124.556 138.034C120.608 137.555 121.924 132.12 121.924 132.12L124.556 125.886V124.607Z" fill="#2F2E41"/>
<path d="M142.483 36.292C145.526 36.292 147.993 33.8945 147.993 30.9371C147.993 27.9797 145.526 25.5823 142.483 25.5823C139.44 25.5823 136.974 27.9797 136.974 30.9371C136.974 33.8945 139.44 36.292 142.483 36.292Z" fill="#FFB8B8"/>
<path d="M146.184 33.8943L146.266 43.0854L139.523 40.8476C139.523 40.8476 140.345 35.5727 140.181 35.0931L146.184 33.8943Z" fill="#FFB8B8"/>
<path d="M147.418 40.3681C147.418 40.3681 140.345 37.9704 139.523 38.2901C138.7 38.6098 138.371 40.3681 138.371 40.3681C138.371 40.3681 134.424 39.5689 133.931 42.1264C133.437 44.684 137.056 55.8732 137.056 55.8732L140.674 62.4269C140.674 62.4269 138.865 65.1443 141.99 66.1034C145.115 67.0624 156.464 64.0254 156.464 64.0254C156.464 64.0254 158.437 61.7875 156.464 61.7875C156.464 61.7875 155.806 59.7095 155.148 59.23C154.49 58.7504 155.641 57.9512 154.983 57.7914C154.325 57.6315 154.326 57.3118 154.326 57.3118C154.326 57.3118 157.615 52.996 154.654 49.4793C151.694 45.9627 151.283 42.6859 149.802 42.2063C148.322 41.7268 147.418 40.3681 147.418 40.3681Z" fill="#575A89"/>
<path d="M146.472 78.0748C146.78 77.3386 145.869 76.2842 144.438 75.7198C143.007 75.1554 141.598 75.2946 141.291 76.0308C140.983 76.767 141.894 77.8213 143.325 78.3858C144.755 78.9502 146.165 78.811 146.472 78.0748Z" fill="#FFB8B8"/>
<path d="M136.398 41.6469H134.079C134.079 41.6469 127.352 57.4716 129.325 62.4269C131.299 67.3821 138.536 76.0138 138.536 76.0138C138.536 76.0138 140.839 80.01 142.483 80.01C144.128 80.01 145.937 74.2555 145.937 74.2555L140.674 72.0176L134.424 60.8284L137.385 52.1967L136.398 41.6469Z" fill="#575A89"/>
<path opacity="0.2" d="M154.408 57.2319L158.026 63.4659L157.368 63.7857L154.408 57.2319Z" fill="black"/>
<path opacity="0.2" d="M147.491 71.2595L147.172 71.3391L151.95 89.3999L152.268 89.3203L147.491 71.2595Z" fill="black"/>
<path d="M135.822 28.7792L136.809 27.0209L138.289 27.9855C138.442 28.1896 138.643 28.3549 138.875 28.4672C139.107 28.5795 139.364 28.6355 139.623 28.6304L144.792 28.5291C145.024 28.5245 145.252 28.4739 145.463 28.3805C145.675 28.287 145.864 28.1526 146.02 27.9855C146.426 28.1319 146.79 28.3713 147.081 28.6836C147.371 28.9959 147.58 29.3717 147.69 29.7792L148.322 32.136V24.1437H138.454L135.822 28.7792Z" fill="#2F2E41"/>
<path d="M92.8257 0H0V116.228H92.8257V0Z" fill="#E6E6E6"/>
<path d="M90.2472 14.9163H2.57849V44.0329H90.2472V14.9163Z" fill="white"/>
<path d="M90.2472 49.0448H2.57849V78.1614H90.2472V49.0448Z" fill="white"/>
<path d="M90.2472 83.1732H2.57849V112.29H90.2472V83.1732Z" fill="white"/>
<path d="M87.9143 6.92116C89.2706 6.92116 90.37 5.85264 90.37 4.53455C90.37 3.21647 89.2706 2.14795 87.9143 2.14795C86.5581 2.14795 85.4586 3.21647 85.4586 4.53455C85.4586 5.85264 86.5581 6.92116 87.9143 6.92116Z" fill="white"/>
<path d="M10.6209 65.9896C11.9771 65.9896 13.0766 64.9211 13.0766 63.603C13.0766 62.2849 11.9771 61.2164 10.6209 61.2164C9.26462 61.2164 8.16516 62.2849 8.16516 63.603C8.16516 64.9211 9.26462 65.9896 10.6209 65.9896Z" fill="#E6E6E6"/>
<path d="M40.8262 61.6938H17.7426V65.5124H40.8262V61.6938Z" fill="#E6E6E6"/>
<path d="M54.2711 66.109C55.6274 66.109 56.7268 65.0405 56.7268 63.7224C56.7268 62.4043 55.6274 61.3358 54.2711 61.3358C52.9149 61.3358 51.8154 62.4043 51.8154 63.7224C51.8154 65.0405 52.9149 66.109 54.2711 66.109Z" fill="#E6E6E6"/>
<path d="M84.4763 61.8131H61.3927V65.6317H84.4763V61.8131Z" fill="#E6E6E6"/>
<path d="M89.1931 3.62925L88.8458 3.29175L87.9145 4.19711L86.9829 3.29175L86.6356 3.62925L87.5672 4.53462L86.6356 5.43977L86.9829 5.77727L87.9145 4.87191L88.8458 5.77727L89.1931 5.43977L88.2617 4.53462L89.1931 3.62925Z" fill="#E6E6E6"/>
<path d="M10.6209 31.8612C11.9771 31.8612 13.0766 30.7927 13.0766 29.4746C13.0766 28.1565 11.9771 27.088 10.6209 27.088C9.26462 27.088 8.16516 28.1565 8.16516 29.4746C8.16516 30.7927 9.26462 31.8612 10.6209 31.8612Z" fill="#E6E6E6"/>
<path d="M84.6605 27.3267H22.2855V31.1452H84.6605V27.3267Z" fill="#E6E6E6"/>
<path d="M74.4693 27.3267H18.4791V31.1452H74.4693V27.3267Z" fill="#FF8552"/>
<path d="M10.6209 100.118C11.9771 100.118 13.0766 99.0497 13.0766 97.7316C13.0766 96.4135 11.9771 95.345 10.6209 95.345C9.26462 95.345 8.16516 96.4135 8.16516 97.7316C8.16516 99.0497 9.26462 100.118 10.6209 100.118Z" fill="#E6E6E6"/>
<path d="M84.6605 95.5836H22.2855V99.4022H84.6605V95.5836Z" fill="#E6E6E6"/>
<path d="M53.5343 95.5836H18.4791V99.4022H53.5343V95.5836Z" fill="#FF8552"/>
<path d="M25.0483 61.6938H17.7426V65.5124H25.0483V61.6938Z" fill="#FF8552"/>
<path d="M75.8814 61.8131H61.3927V65.6317H75.8814V61.8131Z" fill="#FF8552"/>
<path d="M111.64 117.312C111.677 121.073 109.39 122.408 106.553 122.435C106.487 122.435 106.421 122.435 106.356 122.434C106.225 122.433 106.094 122.428 105.966 122.421C103.403 122.269 101.399 120.907 101.364 117.41C101.328 113.791 106.042 109.178 106.395 108.837L106.396 108.837C106.409 108.824 106.416 108.817 106.416 108.817C106.416 108.817 111.602 113.552 111.64 117.312Z" fill="#E6E6E6"/>
</svg>
