<svg width="180" height="140" viewBox="0 0 180 140" fill="none" xmlns="http://www.w3.org/2000/svg">
<g clip-path="url(#clip0)">
<path opacity="0.1" d="M106.848 23.0812C95.6552 22.6153 84.9951 18.2868 74.8158 13.5502C64.6366 8.81358 54.5472 3.56547 43.6277 1.05527C36.6012 -0.558054 28.5663 -0.785775 22.8991 3.72662C17.4514 8.07086 15.6909 15.5682 14.7449 22.5259C14.0324 27.76 13.6139 33.2692 15.5647 38.1687C16.9188 41.5705 19.3244 44.431 20.9881 47.6892C26.7764 59.028 22.6846 73.0084 16.4138 84.0809C13.4738 89.273 10.0582 94.2286 7.78752 99.757C5.51681 105.285 4.46706 111.62 6.45415 117.258C8.42221 122.848 13.1141 127.047 18.1968 130C28.5196 135.998 40.6791 137.708 52.5446 138.687C78.8004 140.838 105.198 139.913 131.525 138.974C141.267 138.624 151.053 138.274 160.638 136.473C165.961 135.471 171.455 133.88 175.319 130.039C180.225 125.164 181.441 116.901 178.153 110.794C172.64 100.54 157.4 97.993 153.542 86.987C151.422 80.9296 153.599 74.182 156.682 68.5643C163.294 56.5126 174.38 45.9393 174.962 32.1638C175.364 22.7046 170.035 13.2279 161.796 8.75227C153.161 4.05945 141.185 4.64977 134.818 12.4168C128.26 20.4151 116.731 23.4929 106.848 23.0812Z" fill="#FF8552"/>
<path d="M73.6536 45.8142L64.4393 47.2768L59.718 47.7323L58.459 47.8549C58.459 47.8549 56.2108 48.2158 55.9912 47.8549C55.7715 47.4941 51.4394 47.8549 51.4394 47.8549C51.4394 47.8549 48.8072 44.6773 42.5537 46.3554C41.9223 46.7342 41.2109 46.9552 40.4784 47.0001C40.4775 46.9872 40.4775 46.9744 40.4784 46.9615C40.5009 46.2311 40.411 43.7121 38.2163 42.3335C37.5921 42.3989 36.9865 42.5869 36.4333 42.8871L36.3832 42.9151L36.2344 43.0027L36.2154 43.0237C36.2801 42.7354 36.324 42.4426 36.3468 42.1478C36.3468 42.0375 36.3468 41.9271 36.359 41.8168C36.6107 41.7461 36.831 41.5903 36.9833 41.3753C37.0458 41.2479 37.0727 41.1055 37.0611 40.9637C37.0611 40.9129 37.0611 40.8603 37.0611 40.8095C37.0602 40.7985 37.0602 40.7873 37.0611 40.7763C37.0611 40.7763 37.0611 40.7763 37.0611 40.7868C37.0248 40.2679 36.9497 39.7526 36.8363 39.2453L37.5142 39.7007C37.6768 39.8093 37.8808 39.9249 38.0745 39.8636C38.1367 39.8412 38.1929 39.8043 38.2386 39.7559C38.2842 39.7076 38.318 39.6491 38.3374 39.5851C38.4585 39.2523 38.3703 38.8546 38.6262 38.5796C38.6867 38.5148 38.7628 38.4622 38.8147 38.3939C38.8853 38.3004 38.9192 38.1837 38.9098 38.0664C38.9105 37.9983 38.9053 37.9303 38.8943 37.8632V37.8772C38.8494 37.7057 38.8423 37.5263 38.8735 37.3517C38.9639 37.3874 39.0633 37.3925 39.1568 37.3663C39.2503 37.3401 39.3329 37.284 39.3923 37.2063C39.4853 37.0586 39.5312 36.8855 39.5238 36.7105C39.5393 36.4145 39.5514 36.1115 39.5445 35.8102C39.5454 35.8044 39.5454 35.7985 39.5445 35.7926C39.5272 35.0797 39.3941 34.3773 38.9098 33.808C39.0361 32.9917 38.1593 32.1018 37.1804 31.9897C36.94 31.9634 36.6443 31.9494 36.5371 31.7655C36.5008 31.678 36.4849 31.5834 36.4904 31.4887C36.4662 31.1786 36.2552 30.9036 36.0528 30.6426C35.9706 30.5286 35.8714 30.4282 35.7588 30.3448C35.4372 30.1346 34.9806 30.1907 34.5829 30.2625C33.8542 30.3921 33.1302 30.5369 32.4107 30.6969C32.3243 30.3442 32.3297 29.9749 32.4263 29.6249C32.4931 29.4498 32.5339 29.2656 32.5473 29.0783C32.5506 29.0193 32.5442 28.9601 32.5283 28.9032V28.9259C32.5183 28.8967 32.5068 28.8681 32.4937 28.8401C32.4593 28.7761 32.4096 28.7217 32.3492 28.682C32.2888 28.6422 32.2196 28.6183 32.1479 28.6124C32.054 28.6093 31.9613 28.6337 31.8809 28.6828C31.8004 28.732 31.7358 28.8036 31.6947 28.8892C31.2832 29.4961 30.9978 30.1815 30.856 30.9036C30.5816 30.7097 30.2637 30.5883 29.9312 30.5504C29.5986 30.5124 29.262 30.5592 28.9519 30.6864C28.7957 30.7716 28.6269 30.8308 28.4521 30.8616C28.3066 30.862 28.1635 30.8239 28.0371 30.7511C27.9106 30.6783 27.805 30.5733 27.7309 30.4464C27.5321 30.1469 27.4439 29.7895 27.0599 29.5916C26.9743 29.5472 26.8795 29.524 26.7832 29.524C26.687 29.524 26.5922 29.5472 26.5065 29.5916C26.4617 29.6154 26.422 29.6482 26.3899 29.6879C26.3578 29.7277 26.3339 29.7735 26.3198 29.8228C26.3206 29.8141 26.3206 29.8053 26.3198 29.7965C26.3171 29.8222 26.3171 29.848 26.3198 29.8736C26.3198 29.8841 26.3198 29.8946 26.3198 29.9052C26.3198 29.9157 26.3198 29.9314 26.3198 29.9437C26.3059 30.2818 26.5394 30.7197 26.2748 30.986C26.1685 31.0758 26.0448 31.1421 25.9116 31.1804L24.9708 31.522C24.4684 31.7333 23.9372 31.8656 23.3953 31.9144C22.9024 31.9319 22.4044 31.8215 21.9184 31.8338C21.8956 31.822 21.8736 31.8085 21.8527 31.7935C21.7442 31.7993 21.6362 31.8122 21.5293 31.832C21.5399 31.8457 21.5515 31.8586 21.5639 31.8706H21.5293C21.777 32.1495 22.1038 32.344 22.4649 32.4276C22.688 32.4837 22.9232 32.5012 23.1394 32.5713C23.3556 32.6413 23.5613 32.7815 23.5994 32.9741C23.6034 33.1355 23.5652 33.295 23.4887 33.4366L23.4801 33.4226C23.4574 33.4848 23.4463 33.5507 23.4472 33.617C23.443 33.6484 23.443 33.6802 23.4472 33.7116C23.4851 33.8219 23.5612 33.9144 23.6614 33.9721C23.7616 34.0298 23.8791 34.0486 23.992 34.0252L22.88 34.7346C22.7971 34.785 22.7195 34.8436 22.6482 34.9098L22.6171 34.901C22.5855 34.9325 22.5605 34.9701 22.5439 35.0117C22.5272 35.0533 22.5192 35.0979 22.5202 35.1428C22.5167 35.1771 22.5208 35.2118 22.5324 35.2444L22.8903 35.3477L21.9132 36.7175C21.8537 36.7971 21.8016 36.8822 21.7576 36.9715L21.7472 36.954C21.725 37.0097 21.7133 37.0691 21.7126 37.1292C21.7092 37.1589 21.7092 37.1889 21.7126 37.2185C21.721 37.2678 21.7396 37.3146 21.7673 37.356C21.795 37.3973 21.8311 37.4322 21.8732 37.4583C21.9153 37.4843 21.9624 37.5009 22.0114 37.507C22.0603 37.5131 22.11 37.5085 22.1571 37.4936C21.9429 37.7112 21.7705 37.9672 21.6486 38.2485L21.6331 38.238L21.6175 38.2748C21.5931 38.3299 21.5807 38.3896 21.5812 38.45C21.5739 38.4961 21.5831 38.5433 21.6071 38.5831C21.651 38.6298 21.7053 38.6652 21.7655 38.6862C21.8257 38.7073 21.89 38.7133 21.953 38.704C22.4718 38.704 22.9543 38.3449 23.0356 37.9157C23.1947 38.0909 23.0235 38.2993 22.873 38.4798C22.2608 39.205 21.6383 39.9424 21.3166 40.7885C21.2035 41.0787 21.1347 41.3847 21.1125 41.6959C21.1125 41.6959 21.1125 41.6819 21.1125 41.6749C21.1125 41.6977 21.1125 41.7204 21.1125 41.7432C21.0692 42.3241 21.2502 42.8994 21.6175 43.3478C21.7535 43.4873 21.8752 43.6405 21.9807 43.805C22.1744 44.1693 22.0637 44.637 22.3646 44.9453C22.6074 44.2898 22.9012 43.6549 23.2431 43.0465C23.2377 43.2111 23.2134 43.3745 23.1705 43.5334V43.5194C23.1705 43.5615 23.1567 43.6018 23.1532 43.6421C23.1515 43.6718 23.1515 43.7016 23.1532 43.7314C23.1452 43.837 23.1705 43.9424 23.2255 44.0325C23.2805 44.1226 23.3624 44.1926 23.4593 44.2324C23.7654 44.3427 24.0819 44.1185 24.2894 43.8943C24.3188 43.9714 24.3482 44.0467 24.3811 44.122C25.0248 45.5724 26.1881 46.7213 27.6358 47.3364L27.6635 47.3942C26.4962 48.0949 23.7827 49.7993 23.6063 50.4527C23.3798 51.2865 23.461 53.4796 25.0867 53.9246C25.4385 54.0217 25.8035 54.0608 26.1676 54.0402C26.0984 54.1506 26.0309 54.2627 25.9652 54.3713C25.5156 55.1105 25.1386 55.7954 25.0244 56.1633C24.6958 57.2371 21.6244 58.5368 21.6244 58.5368C21.6244 58.5368 18.8262 60.814 18.2244 65.1933C18.2244 65.1933 15.2619 69.0926 13.6173 69.9054C11.9726 70.7182 9.12081 75.7001 9.12081 75.7001C9.12081 75.7001 6.29669 77.7075 5.69659 79.6642C5.09648 81.6208 3.6213 82.1026 3.6213 82.1026C3.6213 82.1026 3.75619 82.1691 3.96718 82.3023C3.89973 82.339 3.82883 82.3811 3.74928 82.4301C2.40726 83.2394 -0.555214 85.4553 0.10023 88.9115C0.736652 92.2397 4.45142 89.0008 6.25692 87.1895L6.41948 87.0249C6.39186 87.2114 6.35375 87.3962 6.30534 87.5784C6.69591 86.961 7.18035 86.41 7.74075 85.9458C8.34379 85.4523 8.83906 84.8373 9.19518 84.1398C9.46842 83.6143 9.90596 83.0888 10.5787 82.9136C12.0591 82.5352 19.5716 76.6863 21.2197 73.6523C22.8679 70.6184 26.3198 69.4482 26.3198 69.4482L27.9039 74.4669C28.1455 75.2342 28.1878 76.0517 28.0267 76.8404C27.6808 78.5501 27.2467 81.8538 28.2947 84.4236C28.2947 84.4236 28.3432 84.378 28.4314 84.3027C28.5749 84.9544 28.7582 85.8109 28.9242 86.6535C28.964 86.8602 29.0021 87.0669 29.0384 87.2701C29.1439 87.8429 29.2321 88.3807 29.2822 88.8099C29.5019 90.6527 30.1054 94.8778 30.5983 95.3104C31.0912 95.7431 33.8842 104.517 33.8842 104.517C33.8842 104.517 36.352 110.26 35.9698 112.805C35.935 113.117 35.9402 113.432 35.9854 113.742C36.0705 114.375 36.1964 115.002 36.3624 115.618C36.4108 115.804 36.4593 115.993 36.5146 116.186C36.5596 116.352 36.608 116.522 36.6564 116.692C37.8514 120.8 40.1377 126.291 40.1377 126.291C40.1377 126.291 40.3279 126.79 40.5752 127.458C40.6565 127.682 40.7482 127.926 40.8364 128.176C41.2428 129.297 41.6717 130.555 41.6717 130.84C41.6717 130.905 41.7582 130.977 41.9086 131.051C41.5169 131.71 41.1702 132.396 40.871 133.104C40.3902 134.253 39.0067 135.391 39.0067 135.391C39.0067 135.391 37.3603 135.864 37.3603 137.318V138.429C37.3603 138.429 40.8571 138.36 42.0089 138.686C43.1607 139.012 44.6964 138.455 44.6964 138.455L45.025 138.024C45.025 138.024 49.0147 138.199 49.262 137.196C49.3347 136.901 49.3312 136.274 49.2724 135.526C49.197 134.614 49.0642 133.708 48.8747 132.813C49.1375 132.802 49.3174 132.785 49.3174 132.785C49.3174 132.785 51.1419 133.976 51.3321 135.155C51.3905 135.501 51.5224 135.831 51.7189 136.121C51.9154 136.41 52.1717 136.653 52.4701 136.833C52.4701 136.833 54.3638 137.709 57.9955 137.308C59.8979 137.103 60.2559 136.122 60.0812 135.249C59.9221 134.451 59.3134 133.743 59.0245 133.801C58.4227 133.923 55.9946 130.388 55.9946 130.388L54.7616 127.761C54.8722 126.359 54.5471 125.696 54.0905 125.414C54.4036 122.458 54.4451 118.498 54.4451 118.498C54.4451 118.498 54.7201 113.731 54.4451 109.452C54.1701 105.173 54.1701 96.7784 53.2345 93.9616C52.8021 92.6514 52.1761 88.9815 51.6331 85.4326C51.5916 85.1663 51.5501 84.9071 51.512 84.639C51.3806 83.7755 51.2578 82.9311 51.1436 82.1394C51.1973 82.1131 51.2526 82.0868 51.301 82.0588L51.007 79.4592L50.9655 79.1001C50.9759 79.1107 50.9897 79.1177 51.0001 79.1264C51.9876 80.0461 50.6715 74.9556 50.6715 74.9556C50.6715 74.9556 50.0783 69.1014 50.1181 65.7346C50.1219 64.5367 50.0589 63.3396 49.9296 62.1488C49.8293 61.1469 50.0628 59.8454 51.557 58.9292C51.9495 58.6782 52.3178 58.3903 52.6569 58.0691C53.0737 57.6855 53.9833 57.1933 55.9427 57.1355C59.2286 57.0286 62.5145 55.2944 62.5145 55.2944C62.5145 55.2944 66.3002 55.5116 68.0486 53.2362C69.797 50.9607 74.1914 50.4212 74.1914 50.4212L73.6536 45.8142ZM5.89547 84.2449L5.40951 83.5547C5.59004 83.7708 5.75258 84.0017 5.89547 84.2449ZM47.2577 112.421C47.23 112.771 47.2092 113.183 47.2058 113.647C47.1919 115.098 47.3338 117.032 47.9788 118.88L47.7038 126.158H47.6814C47.4496 126.134 47.2335 126.876 47.0657 127.855C46.9285 127.451 46.7584 127.059 46.5573 126.684C46.2287 126.197 46.5036 123.49 46.5036 123.49C46.5036 123.49 45.1305 121.269 45.0233 120.78C44.916 120.292 43.2662 112.384 43.2662 112.384C43.2662 112.384 43.1572 106.211 42.5537 104.642C41.9501 103.072 41.7858 96.2459 41.7858 96.2459C41.7858 96.2459 44.8019 101.173 45.0233 103.666L47.3805 111.304C47.3805 111.304 47.3078 111.72 47.2577 112.421Z" fill="url(#paint0_linear)"/>
<path d="M53.8555 118.272C53.8555 118.272 53.7655 126.938 52.8645 128.116C51.9635 129.295 47.2509 128.171 47.2509 128.171L47.5968 118.647C46.9724 116.818 46.8341 114.902 46.8497 113.465C46.8497 113.006 46.8721 112.589 46.8981 112.251C46.9482 111.551 47.0174 111.137 47.0174 111.137L44.7398 103.573C44.5271 101.103 41.6147 96.216 41.6147 96.216C41.6147 96.216 41.7739 102.976 42.3567 104.531C42.9395 106.087 43.0484 112.202 43.0484 112.202C43.0484 112.202 44.6377 120.036 44.7432 120.519C44.8487 121.003 46.1735 123.201 46.1735 123.201C46.1735 123.201 45.9089 125.883 46.2271 126.366C46.5453 126.85 47.8683 130.606 47.5501 131.303C47.2319 132 41.5127 131.033 41.5127 130.497C41.5127 130.215 41.0977 128.968 40.7051 127.857L40.4526 127.146C40.2139 126.486 40.0289 125.992 40.0289 125.992C40.0289 125.992 37.8222 120.551 36.6686 116.482C36.6202 116.306 36.5753 116.145 36.5303 115.982C36.4784 115.79 36.43 115.602 36.385 115.418C36.2251 114.808 36.1032 114.188 36.0201 113.561C35.9767 113.254 35.9715 112.942 36.0046 112.633C36.3747 110.111 33.9915 104.425 33.9915 104.425C33.9915 104.425 31.2902 95.7326 30.8129 95.3034C30.3356 94.8742 29.7528 90.6912 29.5418 88.8659C29.4934 88.4385 29.4086 87.9059 29.3066 87.3401C29.272 87.1387 29.2339 86.9337 29.1959 86.727C28.8725 85.0366 28.4747 83.2867 28.4747 83.2867L34.4152 79.3155L50.0404 77.5989C50.0404 77.5989 50.4762 80.9902 51.0244 84.7283C51.0625 84.9876 51.1023 85.2538 51.142 85.5149C51.6609 89.0288 52.2713 92.6653 52.6881 93.9616C53.5874 96.7521 53.5874 105.067 53.8537 109.305C54.1201 113.542 53.8555 118.272 53.8555 118.272Z" fill="#63667E"/>
<path opacity="0.1" d="M38.4862 82.5545L40.4525 92.7232H41.3864L39.5187 82.2007L38.4862 82.5545Z" fill="black"/>
<path opacity="0.1" d="M29.3133 87.3419C29.2787 87.1405 29.2407 86.9355 29.2026 86.7288C30.1175 86.5396 32.1876 85.7671 31.8659 82.6701H32.5006C32.5006 82.6701 33.1024 86.7498 29.3133 87.3419Z" fill="black"/>
<path opacity="0.1" d="M51.1489 85.5219C49.9625 85.7426 46.2546 86.389 45.4781 85.9616C44.5529 85.4518 43.6381 82.6894 43.6381 82.6894L44.4855 82.5545C44.4855 82.5545 43.7384 86.6062 51.0313 84.7354C51.0693 84.9946 51.1091 85.2574 51.1489 85.5219Z" fill="black"/>
<path d="M50.829 82.1796C49.7603 82.8085 47.2509 83.1115 44.3299 83.2307C44.0636 83.2412 43.7955 83.2517 43.5223 83.2587C38.7872 83.4093 33.2583 83.1378 31.055 83.0099C30.4341 82.9749 30.0779 82.9504 30.0779 82.9504L32.0114 81.5963L35.19 80.4157L41.8759 79.0879L50.4434 78.8461L50.5298 79.5906L50.829 82.1796Z" fill="#33363D"/>
<path d="M44.3298 83.2377C44.0635 83.2482 43.7954 83.2587 43.5222 83.2657C43.1867 81.8258 42.1283 79.5241 42.1283 79.5241L43.0276 79.4032L44.3298 83.2377Z" fill="#63667E"/>
<path d="M8.25622 86.2243C8.25622 86.2243 7.88267 86.6622 7.30851 87.2543C5.56527 89.0498 1.97675 92.2572 1.36454 88.9605C0.729849 85.5429 3.59201 83.355 4.88734 82.5457C5.25397 82.3162 5.49436 82.1954 5.49436 82.1954L8.25622 86.2243Z" fill="#FFA2A2"/>
<path d="M40.354 47.6167C40.354 47.6167 38.3289 46.3292 37.9519 46.4501C37.5749 46.5709 37.9519 48.2981 37.9519 48.2981C37.4635 49.242 36.6912 50.004 35.7469 50.4737C34.6644 51.047 33.6163 51.6846 32.608 52.3831C31.8275 52.306 31.0397 52.395 30.2951 52.6445C29.5505 52.894 28.8657 53.2984 28.2845 53.8318C27.8782 54.1085 27.4185 54.2947 26.9358 54.378C26.4532 54.4614 25.9585 54.44 25.4846 54.3152C23.9143 53.8738 23.8365 51.7017 24.0544 50.8766C24.2273 50.2285 26.8457 48.5469 27.9732 47.8462C28.2845 47.6535 28.4817 47.5361 28.4817 47.5361C28.4817 47.5361 33.5696 47.361 34.7179 45.1626C35.0712 44.4831 35.598 43.9121 36.2432 43.5089L36.2726 43.4932L36.4179 43.4056L36.4646 43.3793C36.9991 43.081 37.5871 42.8939 38.194 42.8293C40.6792 44.4374 40.354 47.6167 40.354 47.6167Z" fill="#CED7E7"/>
<path opacity="0.1" d="M40.354 47.6167C40.354 47.6167 38.3289 46.3292 37.9519 46.4501C37.5749 46.5709 37.9519 48.2981 37.9519 48.2981C37.4635 49.242 36.6912 50.004 35.7469 50.4737C34.6644 51.047 33.6163 51.6846 32.608 52.3831C31.8275 52.306 31.0397 52.395 30.2951 52.6445C29.5505 52.894 28.8657 53.2984 28.2845 53.8318C27.8782 54.1085 27.4185 54.2947 26.9358 54.378C26.4532 54.4614 25.9585 54.44 25.4846 54.3152C23.9143 53.8738 23.8365 51.7017 24.0544 50.8766C24.2273 50.2285 26.8457 48.5469 27.9732 47.8462C28.2845 47.6535 28.4817 47.5361 28.4817 47.5361C28.4817 47.5361 33.5696 47.361 34.7179 45.1626C35.0712 44.4831 35.598 43.9121 36.2432 43.5089L36.2726 43.4932L36.4179 43.4056L36.4646 43.3793C36.9991 43.081 37.5871 42.8939 38.194 42.8293C40.6792 44.4374 40.354 47.6167 40.354 47.6167Z" fill="black"/>
<path opacity="0.1" d="M50.5299 79.5976C49.577 78.6849 43.6451 80.3473 43.6451 80.3473C43.6451 80.3473 39.5603 81.535 36.4439 81.7277C36.0196 81.7562 35.5941 81.7615 35.1693 81.7434C33.8601 81.6751 32.4956 82.2111 31.3508 82.854L31.062 83.0292C30.4411 82.9941 30.0848 82.9696 30.0848 82.9696L32.0183 81.6155L35.197 80.4349L41.8829 79.1071L50.4503 78.8654L50.5299 79.5976Z" fill="black"/>
<path opacity="0.1" d="M7.3085 87.2543C7.70453 84.5812 5.65691 83.0274 4.88733 82.5457C5.25396 82.3162 5.49435 82.1954 5.49435 82.1954L8.2614 86.2243C8.2614 86.2243 7.88266 86.6622 7.3085 87.2543Z" fill="black"/>
<path d="M72.9289 50.8363C72.9289 50.8363 68.6902 51.3618 66.9971 53.625C65.304 55.8882 61.6463 55.664 61.6463 55.664C61.6463 55.664 58.4677 57.3807 55.2907 57.4875C53.404 57.5506 52.5237 58.0306 52.1225 58.4107C51.7962 58.7287 51.4406 59.0144 51.0606 59.2638C49.6183 60.1712 49.3917 61.4587 49.4903 62.4519C49.6139 63.6319 49.6745 64.8178 49.6719 66.0044C49.6339 69.3326 50.2063 75.1378 50.2063 75.1378C50.2063 75.1378 51.4774 80.1809 50.5228 79.2701C49.5681 78.3592 43.638 80.0198 43.638 80.0198C43.638 80.0198 39.5531 81.2074 36.4368 81.4019C36.0125 81.4299 35.587 81.4346 35.1622 81.4159C33.853 81.3476 32.4885 81.8836 31.3437 82.5282C30.3585 83.0911 29.437 83.7613 28.5956 84.5269C27.5822 81.9817 28.0042 78.7077 28.3362 77.0156C28.4914 76.2343 28.4509 75.4262 28.2186 74.6648L26.6881 69.6935C26.6881 69.6935 23.3521 70.8461 21.7628 73.8503C20.1734 76.8544 12.9168 82.6491 11.4849 83.0257C10.8295 83.2009 10.4075 83.7176 10.1429 84.2326C9.80267 84.9212 9.32509 85.5308 8.74033 86.0229C8.19834 86.485 7.73146 87.0307 7.3568 87.6397C8.31144 83.9909 4.7627 82.2199 4.7627 82.2199C4.7627 82.2199 6.19119 81.7365 6.77399 79.8096C7.3568 77.8827 10.0599 75.8945 10.0599 75.8945C10.0599 75.8945 12.8148 70.9582 14.4041 70.1524C15.9935 69.3466 18.8539 65.4859 18.8539 65.4859C19.435 61.1399 22.1398 58.8872 22.1398 58.8872C22.1398 58.8872 25.1074 57.5997 25.4256 56.5364C25.5363 56.172 25.8995 55.4941 26.3336 54.7619C26.7383 54.0717 27.1983 53.3377 27.5701 52.7649C27.9419 52.1921 28.2342 51.7507 28.2342 51.7507L32.9901 51.7052L33.8548 51.6964L36.3883 46.8652C36.3883 46.8652 37.2894 45.9543 38.851 47.0263C39.3 47.33 39.8338 47.4787 40.3729 47.4503C41.0808 47.4039 41.7672 47.1852 42.3738 46.8126C48.4129 45.1485 50.9551 48.2981 50.9551 48.2981C50.9551 48.2981 55.1386 47.939 55.3495 48.2981C55.5605 48.6572 57.7327 48.2981 57.7327 48.2981L63.5071 47.7235L72.4067 46.2766L72.9289 50.8363Z" fill="#CED7E7"/>
<path d="M38.1818 49.2265L35.4805 53.7319C35.4805 53.7319 28.1184 59.1516 29.1785 54.9125C29.3503 54.1995 29.4116 53.4637 29.3601 52.7316C29.3446 52.4461 29.3117 52.1606 29.2702 51.8786C29.0782 50.7096 28.7388 49.5704 28.2602 48.489C28.2066 48.3594 28.1513 48.235 28.0873 48.1124C28.0043 47.9372 27.923 47.762 27.8417 47.5974C27.5008 46.8982 27.113 46.2233 26.6813 45.5777C26.6813 45.5777 34.6798 38.979 34.9444 43.1095C35.0023 44.0426 35.2127 44.9595 35.567 45.8229L35.6292 45.9683C36.0744 46.9865 36.7145 47.9052 37.5125 48.6712C37.7213 48.8734 37.945 49.059 38.1818 49.2265Z" fill="#FFA2A2"/>
<path d="M27.4838 53.4114L28.7289 57.1653L33.7944 57.9973L36.6998 54.7602C36.6998 54.7602 38.3686 52.3463 38.4741 52.292C38.5796 52.2377 38.8442 49.9325 38.8442 49.9325L39.1555 48.6292L37.1961 47.9618L34.4412 50.9922L33.3153 51.6929L32.065 52.0012L27.9144 53.2274L27.4838 53.4114Z" fill="#CED7E7"/>
<path opacity="0.1" d="M40.354 47.939C40.354 47.939 38.9705 47.925 38.6021 48.0458C38.2338 48.1667 37.9519 48.6187 37.9519 48.6187C37.4639 49.5632 36.6915 50.3259 35.7469 50.796C34.6644 51.3693 33.6162 52.0068 32.608 52.7054C31.8274 52.6278 31.0395 52.7167 30.2949 52.9662C29.5502 53.2157 28.8654 53.6203 28.2845 54.154C27.705 54.548 27.023 54.759 26.3251 54.7601C26.7298 54.07 27.1898 53.336 27.5616 52.7632C29.2703 52.574 32.8864 51.9031 32.8864 51.9031L32.9816 51.7034C33.3171 51.0027 34.4533 48.6362 34.8718 47.9215C35.3595 47.0877 36.8883 44.4829 36.9367 44.4005L35.4356 45.7914L36.238 43.833L36.2674 43.8172L36.4127 43.7296L36.4594 43.7034C36.9939 43.405 37.5819 43.218 38.1888 43.1533C40.0825 44.3795 40.3523 46.4991 40.373 47.4538C40.3758 47.6157 40.3694 47.7777 40.354 47.939Z" fill="black"/>
<path opacity="0.1" d="M27.9679 47.5256L28.3605 48.4014C28.3605 48.4014 28.3277 48.4294 28.2585 48.482C28.2049 48.3524 28.1495 48.228 28.0855 48.1054C28.0025 47.9302 27.9212 47.755 27.84 47.5904C27.8815 47.5659 27.9195 47.5396 27.9576 47.5186L27.9679 47.5256Z" fill="black"/>
<path opacity="0.1" d="M37.5194 48.6712C37.0429 49.2904 36.4377 49.7957 35.7468 50.1514C34.664 50.7249 33.6159 51.363 32.6079 52.0625C31.4835 51.9498 30.3517 52.183 29.3601 52.7317C29.3445 52.4461 29.3116 52.1606 29.2701 51.8786C30.9719 51.6123 32.8863 51.2567 32.8863 51.2567C32.8863 51.2567 34.3771 48.1194 34.8717 47.2751C35.0446 46.9913 35.3283 46.4956 35.6361 45.9683C36.0812 46.9866 36.7214 47.9053 37.5194 48.6712Z" fill="black"/>
<path d="M40.3541 47.6167C40.3541 47.6167 38.9705 47.6027 38.6004 47.7235C38.2303 47.8444 37.9519 48.2981 37.9519 48.2981C37.4635 49.242 36.6913 50.0039 35.7469 50.4737C34.6644 51.047 33.6163 51.6845 32.608 52.3831C31.8275 52.306 31.0397 52.395 30.2951 52.6445C29.5505 52.894 28.8657 53.2984 28.2845 53.8317C27.8782 54.1085 27.4185 54.2947 26.9358 54.378C26.4532 54.4614 25.9585 54.44 25.4846 54.3152C23.9143 53.8738 23.8365 51.7017 24.0544 50.8766C24.2273 50.2285 26.8457 48.5468 27.9732 47.8462L28.3658 48.7308C27.5479 49.3658 26.6913 49.9479 25.8011 50.4737C24.1115 51.4985 24.9658 52.6056 24.9658 52.6056C25.5737 52.4989 26.1911 52.4578 26.8076 52.4829C27.6827 52.5425 32.8865 51.5773 32.8865 51.5773C32.8865 51.5773 34.3772 48.4382 34.8718 47.5957C35.3664 46.7531 36.8883 44.1571 36.9367 44.0747L35.4356 45.4761L36.2381 43.5177L36.2675 43.5019L36.4127 43.4143L36.4594 43.388C36.9939 43.0897 37.5819 42.9027 38.1888 42.838C40.6792 44.4373 40.3541 47.6167 40.3541 47.6167Z" fill="#CED7E7"/>
<path opacity="0.1" d="M35.5739 45.8264C34.7958 47.0443 33.616 47.9427 32.2448 48.3614C30.8737 48.78 29.4002 48.6918 28.0873 48.1124C27.6877 47.23 27.2175 46.3823 26.6813 45.5777C26.6813 45.5777 34.6798 38.979 34.9444 43.1095C35.0042 44.0442 35.2169 44.9624 35.5739 45.8264Z" fill="black"/>
<path d="M36.3883 42.1811C36.3883 42.3341 36.3831 42.4847 36.3727 42.633C36.259 44.2354 35.529 45.7285 34.3396 46.7912C33.1502 47.8539 31.5966 48.4013 30.0128 48.3157C28.4291 48.2301 26.9418 47.5183 25.8708 46.3334C24.7999 45.1485 24.2309 43.5852 24.2862 41.9797C24.3414 40.3743 25.0166 38.8549 26.1665 37.7485C27.3164 36.642 28.849 36.0369 30.4348 36.0633C32.0206 36.0897 33.5328 36.7455 34.6462 37.8896C35.7595 39.0337 36.3851 40.5747 36.3883 42.1811Z" fill="#FFA2A2"/>
<path opacity="0.1" d="M20.7045 61.8878C20.7045 61.8878 22.0344 64.4085 23.6704 65.7959C25.3064 67.1832 26.2645 69.3378 26.2645 69.3378C26.2645 69.3378 25.7889 65.16 20.7045 61.8878Z" fill="black"/>
<path opacity="0.1" d="M18.6378 68.2185C18.6378 68.2185 23.3072 67.0378 25.6575 68.2185H18.6378Z" fill="black"/>
<path opacity="0.1" d="M16.943 75.2551L21.9669 73.5034C21.9669 73.5034 18.7485 75.8367 16.943 75.2551Z" fill="black"/>
<path opacity="0.1" d="M8.25623 82.1131C8.25623 82.1131 10.4284 82.0062 11.1167 82.7034C11.1167 82.7034 8.99814 82.8646 8.25623 82.1131Z" fill="black"/>
<path opacity="0.1" d="M58.9415 48.1755C58.9415 48.1755 54.0715 51.1043 53.8553 55.8252L58.9415 48.1755Z" fill="black"/>
<path opacity="0.1" d="M64.8251 52.6055C64.8251 52.6055 58.786 53.8405 57.7795 54.4834C56.7729 55.1262 54.6025 55.4485 54.6025 55.4485C54.6025 55.4485 63.3412 54.2697 64.8251 52.6055Z" fill="black"/>
<path opacity="0.1" d="M47.1108 78.4975C46.6716 78.96 41.2499 80.2633 36.4041 81.3528C35.9643 81.3823 35.5232 81.3875 35.0828 81.3686C33.7252 81.2985 32.3158 81.8503 31.1225 82.5124C29.6594 82.8278 28.7134 83.0257 28.7134 83.0257C28.7134 83.0257 27.1206 81.754 29.317 78.8829C31.5133 76.0119 31.899 71.4819 31.899 71.4819L41.677 68.949C41.677 68.949 44.3144 72.6276 45.5769 73.2179C46.8393 73.8082 47.9237 77.6462 47.1108 78.4975Z" fill="black"/>
<path d="M46.7648 78.6255C46.3394 79.0774 41.1114 80.3421 36.4386 81.4019C36.0143 81.4299 35.5888 81.4346 35.164 81.4159C33.8548 81.3476 32.4903 81.8836 31.3455 82.5283C29.9343 82.8331 29.0211 83.0257 29.0211 83.0257C29.0211 83.0257 27.4854 81.7908 29.6039 78.9968C31.7225 76.2028 32.0926 71.8061 32.0926 71.8061L41.5213 69.3397C41.5213 69.3397 44.0635 72.9131 45.281 73.4877C46.4985 74.0623 47.5431 77.8004 46.7648 78.6255Z" fill="#CED7E7"/>
<path opacity="0.1" d="M39.1104 113.793L36.3883 115.425C36.2284 114.815 36.1065 114.195 36.0234 113.568C36.4195 113.903 39.1104 113.793 39.1104 113.793Z" fill="black"/>
<path opacity="0.1" d="M36.5371 115.989C37.4987 115.804 39.7815 115.341 41.0336 114.907C39.8991 115.467 37.8463 116.405 36.6807 116.483C36.627 116.32 36.5821 116.152 36.5371 115.989Z" fill="black"/>
<path opacity="0.1" d="M41.836 114.493C41.7357 114.618 41.4417 114.758 41.0353 114.9C41.5212 114.669 41.836 114.493 41.836 114.493Z" fill="black"/>
<path opacity="0.1" d="M43.479 127.982C42.7077 128.046 41.4539 127.941 40.712 127.864L40.4595 127.153C41.2533 127.239 42.8288 127.374 43.479 127.178C44.3662 126.911 44.6325 127.889 43.479 127.982Z" fill="black"/>
<path opacity="0.1" d="M50.3707 113.724C50.2427 113.707 48.1847 113.472 46.86 113.465C46.86 113.006 46.8825 112.589 46.9084 112.251C47.8215 112.642 50.2341 113.677 50.3707 113.724Z" fill="black"/>
<path d="M48.8558 136.794C48.6171 137.791 44.764 137.616 44.764 137.616L44.4458 138.043C44.4458 138.043 42.9637 138.593 41.8517 138.271C40.7397 137.949 37.3552 138.017 37.3552 138.017V136.915C37.3552 135.481 38.9445 135.011 38.9445 135.011C38.9445 135.011 40.2814 133.885 40.7449 132.744C41.0339 132.039 41.3696 131.353 41.7496 130.693C41.7496 130.693 40.5062 129.164 43.8422 128.766C47.1281 128.381 45.8397 131.403 45.8034 131.487C45.857 131.438 47.09 130.315 47.7749 130.669C48.2695 130.926 48.7174 133.365 48.8575 135.13C48.9215 135.88 48.9249 136.502 48.8558 136.794Z" fill="#CED7E7"/>
<path opacity="0.1" d="M48.8558 136.794C48.6171 137.791 44.764 137.616 44.764 137.616L44.4458 138.043C44.4458 138.043 42.9637 138.593 41.8517 138.271C40.7397 137.949 37.3552 138.017 37.3552 138.017V136.966C39.3925 137.068 43.4704 137.204 44.387 136.726C44.387 136.726 45.4852 136.444 45.7377 136.257C45.9504 136.097 48.1882 135.356 48.8506 135.137C48.9215 135.88 48.925 136.502 48.8558 136.794Z" fill="black"/>
<path d="M57.29 136.905C53.7811 137.294 51.9531 136.434 51.9531 136.434C51.6625 136.253 51.4138 136.011 51.2243 135.724C51.0347 135.437 50.9087 135.112 50.8549 134.771C50.6699 133.605 48.9076 132.426 48.9076 132.426C48.9076 132.426 46.7372 132.639 46.4708 131.995C46.4069 131.721 46.3824 131.44 46.3982 131.159C46.3982 129.43 46.8254 125.799 47.3183 125.851C47.8993 125.916 49.6962 128.327 49.8761 128.568C49.7187 128.309 48.1553 125.61 51.6228 125.289C51.6228 125.289 54.4555 123.667 54.165 127.449L55.3565 130.05C55.3565 130.05 57.7016 133.554 58.2827 133.431C58.5611 133.373 59.1474 134.074 59.3031 134.866C59.4708 135.729 59.1232 136.702 57.29 136.905Z" fill="#CED7E7"/>
<path opacity="0.1" d="M36.3884 42.1811C36.3884 42.3341 36.3832 42.4847 36.3729 42.6331L36.2259 42.6891L35.6569 42.8993C35.561 42.941 35.4585 42.9647 35.3542 42.9694C35.2729 42.966 35.1935 42.9438 35.1218 42.9047C35.0502 42.8655 34.9884 42.8104 34.9409 42.7434C34.859 42.6167 34.8004 42.4761 34.768 42.3283L34.3374 40.6519C34.2509 40.319 34.1177 39.9354 33.7494 39.8111C33.6418 39.7872 33.536 39.7556 33.4329 39.7165C33.2029 39.6061 33.1544 39.3469 33.0766 39.1296C32.9037 38.6234 32.4419 38.2188 31.9421 37.9034C31.6042 37.6638 31.2028 37.5332 30.7903 37.5286C30.5695 37.5321 30.356 37.6097 30.1833 37.7493C29.8219 38.0593 29.872 38.478 29.9153 38.9194C29.9585 39.3609 30.0744 39.8321 29.9464 40.2735C29.8599 40.5608 29.6749 40.8288 29.642 41.1266C29.6143 41.3666 29.6922 41.6101 29.6783 41.85C29.6756 41.9797 29.6298 42.1046 29.5481 42.2044C29.4665 42.3043 29.3539 42.3732 29.2287 42.4001C29.2062 42.2547 28.9969 42.2074 28.8569 42.1286C28.5404 41.9534 28.5231 41.5715 28.5369 41.2527C28.5611 40.7762 28.5836 40.298 28.6061 39.8216C28.4664 40.8872 28.2496 41.9411 27.9576 42.9746C27.9216 43.1543 27.8393 43.3212 27.7189 43.4581C27.648 43.5297 27.5575 43.5781 27.4592 43.5971C27.3609 43.6161 27.2592 43.605 27.1672 43.565C27.0602 43.4966 26.981 43.3915 26.9441 43.2689C26.7232 42.7139 26.647 42.1107 26.7228 41.5172C26.5308 42.2932 26.3389 43.078 25.9688 43.8067C25.8218 44.0957 25.5987 44.4093 25.2372 44.4671C25.127 44.4706 25.0176 44.4889 24.9121 44.5214C24.87 44.5417 24.8319 44.5696 24.7997 44.6037C24.4473 43.7703 24.2822 42.868 24.3164 41.9621C24.3507 41.0561 24.5833 40.1692 24.9976 39.3656C25.4119 38.5619 25.9974 37.8616 26.7118 37.3154C27.4261 36.7691 28.2515 36.3906 29.128 36.2072C30.0046 36.0238 30.9105 36.0401 31.78 36.2549C32.6496 36.4698 33.4611 36.8778 34.1559 37.4494C34.8506 38.021 35.4112 38.7419 35.797 39.56C36.1829 40.378 36.3843 41.2728 36.3867 42.1794L36.3884 42.1811Z" fill="black"/>
<path d="M30.1834 37.4358C30.3556 37.2952 30.5693 37.2169 30.7904 37.2133C31.2028 37.2184 31.6041 37.3491 31.9422 37.5882C32.442 37.8965 32.8968 38.2994 33.0767 38.8144C33.1545 39.0316 33.2012 39.2926 33.4226 39.4029C33.5262 39.4402 33.6318 39.4712 33.7391 39.4958C34.1092 39.6201 34.2423 40.0038 34.3271 40.3366L34.7611 42.013C34.7893 42.1607 34.8451 42.3016 34.9254 42.4281C34.9727 42.4954 35.0345 42.5509 35.1061 42.5904C35.1777 42.6298 35.2573 42.6522 35.3388 42.6559C35.4437 42.6512 35.5469 42.6268 35.6431 42.584L36.2121 42.3738C36.5113 42.2635 36.8364 42.1321 36.9731 41.8764C37.0447 41.7113 37.0687 41.5291 37.0422 41.3508C37.009 40.8157 36.935 40.2839 36.8209 39.7603L37.4746 40.2105C37.632 40.3173 37.8291 40.4312 38.0159 40.3716C38.0766 40.3487 38.1312 40.3117 38.1753 40.2637C38.2194 40.2156 38.2519 40.1578 38.2701 40.0949C38.3877 39.7655 38.303 39.3714 38.5485 39.0999C38.6073 39.0368 38.68 38.9825 38.7319 38.916C38.955 38.6252 38.6904 38.231 38.782 37.8912C38.8703 37.9265 38.9675 37.9313 39.0588 37.905C39.15 37.8788 39.2302 37.8228 39.287 37.7458C39.3769 37.5989 39.4209 37.428 39.4132 37.2553C39.4651 36.2656 39.4893 35.1936 38.8201 34.3878C38.9428 33.5785 38.0954 32.6974 37.1581 32.587C36.9246 32.559 36.6393 32.545 36.5372 32.3646C36.501 32.2777 36.485 32.1836 36.4906 32.0896C36.4663 31.783 36.264 31.5097 36.0686 31.2522C35.9905 31.1387 35.8947 31.0387 35.785 30.9562C35.4754 30.7495 35.0344 30.8055 34.6505 30.8756C33.946 31.0029 33.2462 31.146 32.551 31.3048C32.4694 30.9586 32.4747 30.5973 32.5665 30.2538C32.6374 29.9945 32.7585 29.7282 32.6271 29.469C32.5936 29.4042 32.5442 29.3494 32.4836 29.3097C32.4229 29.2701 32.3532 29.2471 32.2812 29.243C32.1897 29.2406 32.0995 29.2653 32.0218 29.3142C31.944 29.3631 31.8821 29.4339 31.8436 29.518C31.4454 30.1212 31.1702 30.799 31.0343 31.5115C30.773 31.3242 30.4692 31.2068 30.1512 31.1701C29.8332 31.1333 29.5112 31.1785 29.2149 31.3013C29.0655 31.3864 28.9029 31.4456 28.7342 31.4765C28.5935 31.4745 28.4558 31.4355 28.3345 31.3633C28.2132 31.2912 28.1126 31.1883 28.0424 31.0648C27.8522 30.767 27.7657 30.4132 27.3956 30.2187C27.3133 30.1747 27.2215 30.1517 27.1284 30.1517C27.0353 30.1517 26.9436 30.1747 26.8612 30.2187C26.3718 30.5078 26.9823 31.2242 26.6191 31.6008C26.5183 31.6887 26.4005 31.7543 26.2732 31.7935L25.3653 32.1316C24.8813 32.341 24.3677 32.4717 23.8434 32.5187C23.2416 32.5432 22.6328 32.3558 22.0414 32.4819C22.2792 32.7562 22.5952 32.949 22.9458 33.0337C23.1603 33.088 23.3868 33.1055 23.5961 33.1756C23.6976 33.1985 23.7916 33.2472 23.8694 33.317C23.9471 33.3869 24.006 33.4757 24.0406 33.575C24.0873 33.822 23.8521 34.0602 23.8987 34.3072C23.9343 34.4132 24.0062 34.5028 24.1014 34.5597C24.1966 34.6166 24.3088 34.637 24.4176 34.6173L23.3436 35.3179C23.1499 35.4441 22.9337 35.628 23.0064 35.8277L23.3523 35.9293L22.4201 37.2834C22.299 37.4206 22.2298 37.5969 22.2247 37.7809C22.2337 37.828 22.2523 37.8728 22.2792 37.9124C22.306 37.952 22.3407 37.9856 22.3809 38.011C22.4211 38.0365 22.4661 38.0533 22.513 38.0604C22.5599 38.0675 22.6078 38.0648 22.6536 38.0524C22.4302 38.288 22.254 38.5652 22.1348 38.8687C22.1131 38.9084 22.101 38.9527 22.0995 38.9981C22.098 39.0435 22.1071 39.0886 22.1261 39.1297C22.1672 39.1747 22.2182 39.2091 22.2751 39.2302C22.3319 39.2512 22.3929 39.2582 22.453 39.2505C22.9545 39.2505 23.4197 38.9002 23.4906 38.4675C23.6445 38.6427 23.4802 38.8494 23.3332 39.0263C22.7435 39.7445 22.1417 40.4767 21.8286 41.3141C21.5156 42.1514 21.5295 43.1288 22.1157 43.8488C22.2455 43.9881 22.3614 44.1401 22.4616 44.3025C22.6484 44.6633 22.5412 45.1258 22.8317 45.4323C23.0653 44.7838 23.3486 44.1548 23.6791 43.551C23.6604 43.7634 23.6298 43.9745 23.5875 44.1834C23.5735 44.2939 23.5946 44.4061 23.6478 44.5038C23.701 44.6014 23.7834 44.6793 23.8832 44.7264C24.1876 44.8385 24.504 44.5985 24.7029 44.376C24.7524 44.3099 24.8156 44.2555 24.888 44.2166C24.9931 44.1848 25.1017 44.1666 25.2114 44.1623C25.5728 44.1045 25.7942 43.7927 25.9429 43.5019C26.313 42.775 26.5067 41.9902 26.6969 41.2107C26.6206 41.8043 26.6974 42.4079 26.92 42.9624C26.9558 43.0851 27.0345 43.1903 27.1414 43.2584C27.2336 43.2977 27.3353 43.3084 27.4335 43.2891C27.5317 43.2697 27.6221 43.2213 27.6931 43.1498C27.8138 43.0131 27.8962 42.8462 27.9317 42.6664C28.2231 41.6327 28.4399 40.5789 28.5803 39.5133L28.5111 40.9444C28.4955 41.2668 28.5111 41.6451 28.8293 41.8203C28.9728 41.8991 29.1752 41.9464 29.2028 42.0901C29.3282 42.0644 29.441 41.996 29.5226 41.8962C29.6041 41.7964 29.6493 41.6713 29.6508 41.5418C29.6663 41.3 29.5885 41.0583 29.6162 40.8166C29.649 40.5205 29.8358 40.2525 29.9205 39.9635C30.0485 39.5238 29.9361 39.0631 29.8894 38.6112C29.8427 38.1592 29.8168 37.7441 30.1834 37.4358Z" fill="#896363"/>
<path opacity="0.1" d="M57.29 136.905C53.7811 137.294 51.9531 136.434 51.9531 136.434C51.6625 136.253 51.4138 136.011 51.2243 135.724C51.0347 135.437 50.9087 135.112 50.8549 134.771C50.6699 133.605 48.9076 132.426 48.9076 132.426C48.9076 132.426 46.7372 132.639 46.4708 131.995C46.4069 131.721 46.3824 131.44 46.3982 131.159C47.2007 131.354 49.0494 131.8 49.6218 131.967C50.3655 132.18 52.5376 135.749 52.5376 135.749C54.6285 136.863 58.089 135.433 59.3031 134.873C59.4708 135.729 59.1232 136.702 57.29 136.905Z" fill="black"/>
<path opacity="0.1" d="M41.7496 130.693C41.7496 130.693 40.6809 132.354 45.8033 131.495L41.7496 130.693Z" fill="black"/>
<path opacity="0.1" d="M49.8778 128.568C49.8778 128.568 55.2805 129.758 54.1668 127.449L49.8778 128.568Z" fill="black"/>
<g opacity="0.1">
<path opacity="0.1" d="M23.9367 34.0094C23.9071 34.0868 23.8975 34.1707 23.909 34.2529C23.9317 34.3474 23.9901 34.4292 24.0716 34.4806L24.4365 34.2424C24.3397 34.2598 24.2399 34.2468 24.1506 34.2051C24.0613 34.1635 23.9867 34.0952 23.9367 34.0094Z" fill="black"/>
<path opacity="0.1" d="M22.9473 32.9812C23.1635 33.0355 23.39 33.053 23.5993 33.1231C23.774 33.1701 23.9236 33.2845 24.0161 33.4419C24.0458 33.3651 24.0554 33.2818 24.0438 33.2002C24.0092 33.1008 23.9503 33.0121 23.8726 32.9422C23.7948 32.8723 23.7008 32.8236 23.5993 32.8008C23.39 32.7307 23.1635 32.7132 22.9473 32.6589C22.7367 32.6055 22.537 32.5148 22.3576 32.3909C22.2524 32.3949 22.1477 32.4078 22.0446 32.4294C22.282 32.7033 22.5974 32.8961 22.9473 32.9812Z" fill="black"/>
<path opacity="0.1" d="M23.7049 43.1761C23.3738 43.7799 23.0899 44.4089 22.8557 45.0575C22.5669 44.7509 22.6724 44.2885 22.4856 43.9276C22.386 43.7648 22.2701 43.6127 22.1398 43.4739C21.8451 43.1076 21.6747 42.655 21.6538 42.1829C21.6059 42.7639 21.7799 43.3413 22.1398 43.7962C22.2701 43.9351 22.386 44.0871 22.4856 44.2499C22.6724 44.6108 22.5669 45.0715 22.8557 45.3798C23.0755 44.7733 23.3385 44.1838 23.6426 43.6158C23.6805 43.4723 23.7014 43.3247 23.7049 43.1761Z" fill="black"/>
<path opacity="0.1" d="M22.2747 37.5076C22.244 37.5767 22.2315 37.6528 22.2384 37.7283C22.2483 37.782 22.2706 37.8327 22.3033 37.8762C22.336 37.9197 22.3784 37.9548 22.4269 37.9788C22.4992 37.8721 22.5795 37.7714 22.6673 37.6775C22.5926 37.7004 22.5123 37.696 22.4405 37.6649C22.3687 37.6338 22.31 37.5781 22.2747 37.5076Z" fill="black"/>
<path opacity="0.1" d="M32.511 30.6076C32.5185 30.4703 32.5399 30.3341 32.575 30.2012C32.6372 29.977 32.7341 29.7493 32.6735 29.5215C32.6493 29.6407 32.6078 29.7615 32.575 29.8719C32.5107 30.1113 32.489 30.3605 32.511 30.6076Z" fill="black"/>
<path opacity="0.1" d="M26.6864 30.4114C26.667 30.6153 26.6828 30.8209 26.7331 31.0193C26.753 30.8155 26.7372 30.6097 26.6864 30.4114Z" fill="black"/>
<path opacity="0.1" d="M23.5095 38.0927C23.4317 38.5183 22.9648 38.8669 22.4719 38.8757C22.3628 38.8844 22.2545 38.8506 22.1693 38.7811L22.1537 38.8161C22.1321 38.8558 22.12 38.9001 22.1182 38.9454C22.1164 38.9907 22.125 39.0358 22.1433 39.0771C22.1849 39.1218 22.2364 39.156 22.2935 39.1767C22.3506 39.1974 22.4117 39.2041 22.4719 39.1962C22.676 39.1927 22.8757 39.1353 23.0513 39.0298C23.1533 38.9019 23.2571 38.7758 23.3591 38.6514C23.4132 38.5884 23.4629 38.5217 23.5078 38.4517C23.5115 38.4397 23.5144 38.4274 23.5165 38.415V38.4237C23.553 38.3761 23.5722 38.3172 23.571 38.2569C23.5697 38.1967 23.548 38.1387 23.5095 38.0927Z" fill="black"/>
<path opacity="0.1" d="M23.1014 35.4774C23.0613 35.514 23.0322 35.5615 23.0175 35.6141C23.0028 35.6668 23.0031 35.7226 23.0184 35.7752L23.1809 35.8225L23.3642 35.5544L23.1014 35.4774Z" fill="black"/>
<path opacity="0.1" d="M38.7404 38.5516C38.6885 38.6182 38.6158 38.6725 38.557 38.7268C38.3097 38.9983 38.3962 39.3924 38.2786 39.7218C38.2601 39.7846 38.2276 39.8423 38.1835 39.8903C38.1394 39.9383 38.0849 39.9753 38.0244 39.9985C37.8376 40.0581 37.6404 39.9442 37.4831 39.8374L36.8293 39.3872C36.8553 39.5098 36.8795 39.6342 36.902 39.7585L37.4831 40.1579C37.6404 40.2665 37.8376 40.3804 38.0244 40.3208C38.0848 40.2974 38.1391 40.2603 38.1832 40.2123C38.2273 40.1644 38.2599 40.1068 38.2786 40.0441C38.3962 39.7148 38.3097 39.3206 38.557 39.0491C38.6158 38.9843 38.6885 38.9317 38.7404 38.8652C38.7857 38.7945 38.8158 38.7148 38.8287 38.6315C38.8415 38.5482 38.8367 38.4631 38.8147 38.3817C38.8031 38.4434 38.7777 38.5015 38.7404 38.5516Z" fill="black"/>
<path opacity="0.1" d="M37.0472 41.272C37.04 41.3521 37.0177 41.43 36.9815 41.5015C36.8449 41.7572 36.5198 41.8886 36.2189 41.999L35.6516 42.2092C35.5551 42.2512 35.4521 42.2755 35.3472 42.281C35.2658 42.2774 35.1862 42.255 35.1146 42.2155C35.043 42.1761 34.9812 42.1206 34.9339 42.0533C34.8514 41.9269 34.7928 41.7861 34.761 41.6381L34.3286 39.9617C34.2421 39.6289 34.1107 39.2453 33.7406 39.1209C33.6334 39.0964 33.5277 39.0654 33.4241 39.0281C33.1941 38.916 33.1457 38.6567 33.0783 38.4395C32.9053 37.9315 32.4436 37.5286 31.9438 37.2133C31.6055 36.9745 31.2043 36.8439 30.792 36.8384C30.5708 36.8418 30.357 36.9201 30.185 37.0609C29.8961 37.3079 29.8702 37.625 29.8927 37.9683C29.8993 37.8555 29.9287 37.7452 29.9789 37.6443C30.0292 37.5434 30.0993 37.4539 30.185 37.3815C30.3578 37.2421 30.5711 37.1639 30.792 37.159C31.204 37.1661 31.6048 37.2965 31.9438 37.5339C32.4436 37.8439 32.8984 38.2468 33.0783 38.7601C33.1543 38.9773 33.2028 39.2365 33.4241 39.3486C33.5277 39.3859 33.6334 39.4169 33.7406 39.4415C34.1107 39.5659 34.2421 39.9495 34.3286 40.2823L34.761 41.9569C34.7923 42.1051 34.851 42.246 34.9339 42.3721C34.9808 42.4399 35.0425 42.4959 35.1142 42.5357C35.1858 42.5755 35.2656 42.598 35.3472 42.6016C35.452 42.5952 35.5549 42.5709 35.6516 42.5298L36.2154 42.3231C36.5163 42.2127 36.8414 42.0813 36.9781 41.8256C37.0497 41.6605 37.0737 41.4783 37.0472 41.3001C37.049 41.2965 37.049 41.286 37.0472 41.272Z" fill="black"/>
<path opacity="0.1" d="M39.4216 36.8927C39.4293 37.0654 39.3853 37.2363 39.2954 37.3832C39.2386 37.4602 39.1584 37.5162 39.0672 37.5424C38.9759 37.5687 38.8787 37.5639 38.7904 37.5286C38.7657 37.644 38.7657 37.7635 38.7904 37.879V37.8544C38.8787 37.8897 38.9759 37.8945 39.0672 37.8683C39.1584 37.842 39.2386 37.786 39.2954 37.709C39.3851 37.5621 39.4291 37.3912 39.4216 37.2185C39.4372 36.933 39.4493 36.6405 39.4424 36.3514C39.4389 36.5284 39.4303 36.7176 39.4216 36.8927Z" fill="black"/>
<path opacity="0.1" d="M26.7228 40.8306C26.5607 41.6215 26.3077 42.3905 25.9688 43.1218C25.8201 43.4126 25.5987 43.7244 25.2355 43.7822C25.1259 43.7867 25.0173 43.805 24.9121 43.8365C24.8405 43.8758 24.778 43.9302 24.7288 43.9959C24.5299 44.2236 24.21 44.4636 23.9091 44.3462C23.8377 44.3182 23.7746 44.272 23.7259 44.2122C23.6771 44.1524 23.6443 44.081 23.6306 44.0047C23.6306 44.0467 23.6168 44.087 23.6133 44.1273C23.5978 44.2378 23.6183 44.3504 23.6716 44.4481C23.725 44.5458 23.8084 44.6232 23.9091 44.6686C24.2134 44.7824 24.5299 44.5407 24.7288 44.3182C24.7786 44.2535 24.841 44.1998 24.9121 44.1606C25.0169 44.1273 25.1258 44.1091 25.2355 44.1063C25.5987 44.0485 25.8201 43.7366 25.9688 43.4459C26.2927 42.7521 26.5358 42.0226 26.6934 41.272C26.6937 41.1244 26.7035 40.9769 26.7228 40.8306Z" fill="black"/>
<path opacity="0.1" d="M28.6059 39.1384C28.4655 40.204 28.2487 41.2578 27.9573 42.2915C27.9218 42.4717 27.8388 42.6388 27.7169 42.775C27.6461 42.8466 27.5557 42.8952 27.4575 42.9145C27.3592 42.9339 27.2575 42.9231 27.1653 42.8836C27.0595 42.8146 26.9817 42.7096 26.9456 42.5875C26.8026 42.2238 26.7207 41.8383 26.7035 41.4472C26.681 41.9471 26.7654 42.446 26.9508 42.9098C26.9868 43.0324 27.0646 43.138 27.1704 43.2076C27.2627 43.2467 27.3643 43.2572 27.4625 43.2379C27.5607 43.2186 27.651 43.1702 27.7221 43.099C27.8437 42.9627 27.9267 42.7957 27.9625 42.6156C28.2394 41.6324 28.4486 40.6309 28.5886 39.6184L28.6059 39.1384Z" fill="black"/>
<path opacity="0.1" d="M29.9445 39.5939C29.8598 39.8829 29.6747 40.1492 29.6419 40.447C29.6306 40.543 29.6306 40.64 29.6419 40.736C29.6834 40.4522 29.858 40.1947 29.9393 39.9162C29.9942 39.7127 30.0124 39.5009 29.9929 39.2908C29.987 39.3933 29.9708 39.4948 29.9445 39.5939Z" fill="black"/>
<path opacity="0.1" d="M29.2286 41.7204C29.2044 41.5768 28.9968 41.5295 28.855 41.4506C28.7564 41.3862 28.6756 41.2974 28.6203 41.1926C28.5649 41.0878 28.5368 40.9704 28.5385 40.8516V40.8918C28.523 41.2142 28.5385 41.5925 28.8567 41.7677C28.9986 41.8465 29.2026 41.8921 29.2303 42.0375C29.3555 42.0109 29.468 41.9419 29.5494 41.842C29.6308 41.742 29.6762 41.617 29.6782 41.4874C29.6822 41.4044 29.6793 41.3212 29.6696 41.2387C29.6567 41.3563 29.6069 41.4665 29.5275 41.5533C29.4481 41.64 29.3433 41.6986 29.2286 41.7204Z" fill="black"/>
</g>
<path d="M83.1342 140H62.9884C62.7505 140 62.5153 139.95 62.2982 139.851C62.081 139.753 61.887 139.609 61.7288 139.429C61.5706 139.249 61.4519 139.037 61.3804 138.807C61.309 138.578 61.2865 138.335 61.3143 138.096L66.2189 95.8797L66.321 94.9881C66.3692 94.5731 66.5662 94.1906 66.8744 93.9129C67.1827 93.6352 67.5808 93.4818 67.9933 93.4816H78.5703C78.9858 93.4818 79.3866 93.6375 79.6956 93.9188C80.0046 94.2001 80.2 94.5872 80.2444 95.0056L80.3326 95.8517L84.8118 138.112C84.837 138.35 84.8125 138.591 84.7396 138.819C84.6668 139.047 84.5474 139.257 84.3891 139.435C84.2308 139.613 84.0373 139.756 83.8211 139.853C83.6049 139.95 83.3708 140 83.1342 140Z" fill="#4E5A86"/>
<path opacity="0.1" d="M67.6095 98.5301C67.6095 98.5301 68.3497 117.681 65.491 124.981C65.491 124.981 65.7884 126.536 66.5926 124.981C67.3968 123.425 70.1517 107.222 68.827 98.7998C68.827 98.7981 68.5555 97.8854 67.6095 98.5301Z" fill="black"/>
<path opacity="0.1" d="M71.1582 98.5301C71.1582 98.5301 71.8984 117.681 69.0397 124.981C69.0397 124.981 69.3371 126.536 70.1413 124.981C70.9455 123.425 73.7004 107.222 72.3757 98.7998C72.3757 98.7981 72.1111 97.8854 71.1582 98.5301Z" fill="black"/>
<path opacity="0.1" d="M79.7964 98.5301C79.7964 98.5301 79.0545 117.682 81.915 124.981C81.915 124.981 81.6158 126.536 80.8116 124.981C80.0074 123.425 77.249 107.22 78.572 98.7981C78.572 98.7981 78.8384 97.8855 79.7964 98.5301Z" fill="black"/>
<path opacity="0.1" d="M76.2427 98.5301C76.2427 98.5301 75.5007 117.682 78.3612 124.981C78.3612 124.981 78.062 126.536 77.2578 124.981C76.4537 123.425 73.7004 107.22 75.0234 98.7981C75.0234 98.7981 75.2898 97.8855 76.2427 98.5301Z" fill="black"/>
<path d="M77.9962 3.40179H68.4222V88.0146H77.9962V3.40179Z" fill="#4E5A86"/>
<path opacity="0.1" d="M80.3326 95.8569C80.2248 95.8859 80.1137 95.9007 80.0022 95.9007H66.4178C66.3512 95.9008 66.2846 95.8956 66.2189 95.885L66.3209 94.9933C66.3692 94.5784 66.5661 94.1958 66.8744 93.9181C67.1826 93.6405 67.5807 93.487 67.9932 93.4869H78.5703C78.9858 93.4871 79.3865 93.6428 79.6955 93.9241C80.0045 94.2054 80.2 94.5924 80.2444 95.0109L80.3326 95.8569Z" fill="black"/>
<path opacity="0.1" d="M78.0948 86.3242H68.4222V88.0146H78.0948V86.3242Z" fill="black"/>
<path d="M79.8899 86.6465H66.5285C65.7644 86.6465 65.145 87.2739 65.145 88.0479V94.1771C65.145 94.951 65.7644 95.5784 66.5285 95.5784H79.8899C80.654 95.5784 81.2735 94.951 81.2735 94.1771V88.0479C81.2735 87.2739 80.654 86.6465 79.8899 86.6465Z" fill="#4E5A86"/>
<path opacity="0.1" d="M70.4422 3.40179H69.0656V83.9909H70.4422V3.40179Z" fill="black"/>
<path opacity="0.1" d="M72.7458 3.40179H71.3691V83.9909H72.7458V3.40179Z" fill="black"/>
<path opacity="0.1" d="M75.0493 3.40179H73.6727V83.9909H75.0493V3.40179Z" fill="black"/>
<path opacity="0.1" d="M77.3546 3.40179H75.978V83.9909H77.3546V3.40179Z" fill="black"/>
<path d="M78.5946 43.8015C78.5946 43.8015 75.4436 42.8083 75.9209 46.3222C76.3982 49.8361 77.6157 50.0516 77.6157 50.0516C77.6157 50.0516 78.6741 49.8098 78.8073 48.4155C78.9405 47.0211 78.5946 43.8015 78.5946 43.8015Z" fill="#FFA2A2"/>
<g opacity="0.1">
<path opacity="0.1" d="M150.439 118.655C153.09 122.62 152.243 136.812 152.243 136.812C152.243 136.812 138.927 132.345 136.267 128.381C135.636 127.438 135.195 126.378 134.969 125.262C134.743 124.147 134.736 122.997 134.949 121.878C135.378 119.619 136.676 117.626 138.557 116.336C140.437 115.047 142.746 114.566 144.976 115.001C147.207 115.436 149.175 116.751 150.448 118.655H150.439Z" fill="#FF8552"/>
<path opacity="0.1" d="M150.439 118.655C153.09 122.62 152.243 136.812 152.243 136.812C152.243 136.812 138.927 132.345 136.267 128.381C135.636 127.438 135.195 126.378 134.969 125.262C134.743 124.147 134.736 122.997 134.949 121.878C135.378 119.619 136.676 117.626 138.557 116.336C140.437 115.047 142.746 114.566 144.976 115.001C147.207 115.436 149.175 116.751 150.448 118.655H150.439Z" fill="black"/>
<path opacity="0.1" d="M138.605 116.35C138.605 116.35 148.591 124.159 152.295 136.822" stroke="#535461" stroke-miterlimit="10"/>
<path opacity="0.1" d="M154.809 126.065C154.809 126.065 147.719 124.839 152.561 136.735C152.561 136.735 157.488 134.834 157.872 130.101C157.949 129.18 157.689 128.263 157.143 127.523C156.596 126.783 155.8 126.272 154.906 126.086L154.809 126.065Z" fill="#FF8552"/>
<path opacity="0.1" d="M154.915 126.055C154.915 126.055 156.266 132.634 152.57 136.74" stroke="#535461" stroke-miterlimit="10"/>
</g>
<g opacity="0.1">
<path opacity="0.1" d="M77.2109 106.786C77.2109 106.786 87.8606 79.2841 108.221 68.8807C116.768 64.5154 123.796 57.5997 128.049 48.9112C130.059 44.7876 131.693 40.4861 132.929 36.0607" stroke="#535461" stroke-width="2" stroke-miterlimit="10"/>
<path opacity="0.1" d="M145.721 29.4269C143.618 32.1719 132.616 36.2709 132.616 36.2709C132.616 36.2709 133.809 24.4573 135.912 21.7142C136.405 21.0431 137.025 20.4783 137.736 20.053C138.447 19.6277 139.235 19.3504 140.053 19.2372C140.872 19.1241 141.704 19.1774 142.502 19.3941C143.299 19.6108 144.046 19.9865 144.699 20.4992C145.351 21.0119 145.896 21.6513 146.302 22.38C146.707 23.1087 146.965 23.912 147.06 24.7429C147.156 25.5738 147.086 26.4155 146.856 27.2189C146.626 28.0223 146.24 28.7712 145.721 29.4217V29.4269Z" fill="#FF8552"/>
<path opacity="0.1" d="M142.179 51.001C138.942 52.1467 127.505 49.5296 127.505 49.5296C127.505 49.5296 134.847 40.2718 138.084 39.1262C138.854 38.8538 139.669 38.7377 140.483 38.7844C141.297 38.8312 142.094 39.0399 142.829 39.3986C143.563 39.7574 144.221 40.2592 144.764 40.8753C145.307 41.4914 145.725 42.2099 145.994 42.9896C146.263 43.7693 146.377 44.595 146.331 45.4196C146.285 46.2442 146.079 47.0515 145.725 47.7954C145.37 48.5394 144.875 49.2054 144.267 49.7554C143.659 50.3054 142.949 50.7287 142.179 51.001Z" fill="#FF8552"/>
<path opacity="0.1" d="M121.92 76.6933C118.552 76.0276 109.987 67.9207 109.987 67.9207C109.987 67.9207 120.939 63.6816 124.304 64.349C125.105 64.5075 125.866 64.8241 126.546 65.2807C127.225 65.7373 127.809 66.325 128.264 67.0102C128.719 67.6954 129.037 68.4647 129.199 69.2742C129.36 70.0837 129.363 70.9175 129.206 71.7281C129.05 72.5386 128.737 73.31 128.287 73.9982C127.836 74.6863 127.256 75.2779 126.579 75.7389C125.903 76.2 125.143 76.5216 124.344 76.6853C123.545 76.8491 122.722 76.8518 121.921 76.6933H121.92Z" fill="#FF8552"/>
<path opacity="0.1" d="M102.267 92.6373C98.8388 92.5568 89.0417 86.0334 89.0417 86.0334C89.0417 86.0334 99.1276 79.9813 102.557 80.0618C103.372 80.0812 104.176 80.2629 104.922 80.5968C105.667 80.9306 106.341 81.41 106.904 82.0075C107.467 82.6051 107.908 83.309 108.203 84.0793C108.497 84.8496 108.639 85.671 108.619 86.4967C108.6 87.3224 108.421 88.1363 108.091 88.8917C107.762 89.6472 107.288 90.3295 106.699 90.8997C106.109 91.4699 105.414 91.9169 104.653 92.215C103.893 92.5132 103.082 92.6567 102.267 92.6373Z" fill="#FF8552"/>
<path opacity="0.1" d="M116.806 41.9727C117.283 45.4113 124.816 54.5097 124.816 54.5097C124.816 54.5097 129.581 43.6596 129.103 40.2192C128.851 38.588 127.975 37.1228 126.665 36.1399C125.356 35.1569 123.717 34.735 122.103 34.9651C120.488 35.1953 119.028 36.0591 118.037 37.3701C117.046 38.6811 116.604 40.3342 116.806 41.9727Z" fill="#FF8552"/>
<path opacity="0.1" d="M94.0519 60.9034C95.5237 64.0442 105.392 70.4397 105.392 70.4397C105.392 70.4397 106.734 58.6419 105.26 55.5046C104.91 54.7587 104.419 54.09 103.814 53.5365C103.208 52.983 102.502 52.5557 101.733 52.279C100.965 52.0022 100.151 51.8814 99.3364 51.9234C98.5221 51.9655 97.724 52.1696 96.9876 52.5241C96.2512 52.8786 95.591 53.3765 95.0445 53.9895C94.4981 54.6024 94.0763 55.3184 93.803 56.0965C93.5298 56.8745 93.4105 57.6995 93.452 58.5243C93.4936 59.3491 93.6951 60.1575 94.045 60.9034H94.0519Z" fill="#FF8552"/>
<path opacity="0.1" d="M74.4353 82.3863C75.3622 85.7304 84.03 93.7287 84.03 93.7287C84.03 93.7287 87.3159 82.3303 86.3924 78.9863C85.9292 77.4013 84.8687 76.0647 83.4402 75.2654C82.0118 74.4662 80.3301 74.2686 78.7589 74.7154C77.1878 75.1622 75.8533 76.2174 75.0442 77.6529C74.2351 79.0884 74.0164 80.7888 74.4353 82.3863Z" fill="#FF8552"/>
</g>
<g opacity="0.1">
<path opacity="0.1" d="M75.4487 57.2511C75.4487 57.2511 79.2967 47.3137 86.6519 43.558C89.7471 42.0017 92.2606 39.4705 93.8151 36.3445C94.5418 34.855 95.1323 33.3011 95.5791 31.7025" stroke="#535461" stroke-width="2" stroke-miterlimit="10"/>
<path opacity="0.1" d="M100.204 29.3079C99.4426 30.2993 95.4684 31.7795 95.4684 31.7795C95.4684 31.7795 95.899 27.5124 96.66 26.5244C96.8309 26.2634 97.0532 26.041 97.3129 25.871C97.5726 25.701 97.8641 25.5871 98.1692 25.5364C98.4743 25.4857 98.7865 25.4993 99.0862 25.5763C99.3859 25.6533 99.6666 25.7921 99.911 25.9841C100.155 26.176 100.358 26.4169 100.506 26.6917C100.654 26.9666 100.745 27.2694 100.773 27.5814C100.8 27.8933 100.764 28.2076 100.666 28.5047C100.568 28.8018 100.41 29.0752 100.204 29.3079Z" fill="#FF8552"/>
<path opacity="0.1" d="M98.9202 37.1012C97.7512 37.5146 93.6196 36.5757 93.6196 36.5757C93.6196 36.5757 96.2708 33.23 97.4399 32.8165C97.7231 32.6944 98.028 32.6325 98.3358 32.6346C98.6435 32.6367 98.9476 32.7028 99.2291 32.8287C99.5107 32.9547 99.7637 33.1379 99.9725 33.367C100.181 33.596 100.341 33.8661 100.443 34.1604C100.545 34.4547 100.585 34.7669 100.563 35.0779C100.54 35.3888 100.455 35.6917 100.312 35.9679C100.17 36.2441 99.9724 36.4877 99.733 36.6835C99.4935 36.8794 99.2169 37.0233 98.9202 37.1065V37.1012Z" fill="#FF8552"/>
<path opacity="0.1" d="M91.5997 46.3835C90.3891 46.1418 87.29 43.2129 87.29 43.2129C87.29 43.2129 91.2452 41.6819 92.461 41.9237C92.7658 41.9639 93.0592 42.0671 93.3231 42.2267C93.587 42.3864 93.8158 42.5992 93.9953 42.8519C94.1749 43.1047 94.3013 43.3921 94.3668 43.6963C94.4324 44.0005 94.4356 44.3151 94.3764 44.6206C94.3171 44.9261 94.1967 45.2161 94.0224 45.4726C93.8482 45.7291 93.6238 45.9467 93.3633 46.112C93.1027 46.2772 92.8115 46.3865 92.5075 46.4332C92.2036 46.4799 91.8935 46.463 91.5963 46.3835H91.5997Z" fill="#FF8552"/>
<path opacity="0.1" d="M84.5005 52.1431C83.2622 52.1133 79.7239 49.7573 79.7239 49.7573C79.7239 49.7573 83.3677 47.5694 84.606 47.5992C85.1753 47.6496 85.7042 47.9178 86.0853 48.3491C86.4664 48.7804 86.6711 49.3426 86.6576 49.9213C86.6442 50.5 86.4137 51.0517 86.013 51.4644C85.6123 51.8772 85.0715 52.1198 84.5005 52.1431Z" fill="#FF8552"/>
<path opacity="0.1" d="M89.751 33.836C89.9239 35.078 92.646 38.3659 92.646 38.3659C92.646 38.3659 94.3754 34.4456 94.2025 33.2036C94.18 32.8927 94.0947 32.5897 93.9519 32.3134C93.8091 32.0372 93.6118 31.7936 93.3723 31.5978C93.1327 31.4019 92.856 31.258 92.5593 31.1749C92.2626 31.0918 91.9522 31.0714 91.6474 31.1147C91.3426 31.1581 91.0498 31.2645 90.7871 31.4272C90.5245 31.5899 90.2977 31.8055 90.1207 32.0606C89.9438 32.3157 89.8204 32.6049 89.7583 32.9103C89.6962 33.2157 89.6966 33.5308 89.7597 33.836H89.751Z" fill="#FF8552"/>
<path opacity="0.1" d="M81.5259 40.6782C82.0586 41.8115 85.6263 44.1238 85.6263 44.1238C85.6263 44.1238 86.1106 39.8619 85.5779 38.7285C85.2989 38.2255 84.8417 37.8485 84.2988 37.6737C83.7559 37.4989 83.1677 37.5394 82.6532 37.787C82.1386 38.0346 81.736 38.4708 81.5268 39.0075C81.3175 39.5441 81.3172 40.1413 81.5259 40.6782Z" fill="#FF8552"/>
<path opacity="0.1" d="M74.4457 48.44C74.7812 49.6469 77.9045 52.5372 77.9045 52.5372C77.9045 52.5372 79.1047 48.419 78.7589 47.2103C78.6926 46.9082 78.5662 46.6229 78.3875 46.3719C78.2088 46.1209 77.9814 45.9094 77.7193 45.7504C77.4571 45.5914 77.1658 45.4882 76.8629 45.4471C76.5601 45.406 76.2522 45.4278 75.9579 45.5112C75.6637 45.5947 75.3894 45.738 75.1517 45.9324C74.914 46.1268 74.7179 46.3683 74.5754 46.6421C74.4329 46.9158 74.347 47.2162 74.3229 47.5247C74.2988 47.8332 74.3371 48.1434 74.4354 48.4365L74.4457 48.44Z" fill="#FF8552"/>
</g>
<g opacity="0.1">
<path opacity="0.1" d="M107.856 139.676C107.856 139.676 108.019 129.004 113.606 122.874C115.968 120.318 117.446 117.055 117.819 113.575C117.984 111.922 117.998 110.257 117.862 108.601" stroke="#535461" stroke-width="2" stroke-miterlimit="10"/>
<path opacity="0.1" d="M121.361 104.717C120.993 105.91 117.783 108.713 117.783 108.713C117.783 108.713 116.711 104.561 117.079 103.363C117.286 102.826 117.687 102.389 118.199 102.14C118.712 101.89 119.299 101.847 119.842 102.018C120.385 102.19 120.844 102.563 121.126 103.064C121.408 103.564 121.492 104.155 121.361 104.715V104.717Z" fill="#FF8552"/>
<path opacity="0.1" d="M122.859 112.47C121.906 113.272 117.71 113.856 117.71 113.856C117.71 113.856 119.035 109.781 119.988 108.977C120.45 108.637 121.022 108.487 121.589 108.558C122.155 108.629 122.674 108.917 123.039 109.361C123.405 109.806 123.589 110.374 123.556 110.952C123.522 111.529 123.273 112.072 122.859 112.47Z" fill="#FF8552"/>
<path opacity="0.1" d="M119.227 123.762C118.004 123.968 114.092 122.325 114.092 122.325C114.092 122.325 117.267 119.486 118.488 119.279C119.056 119.222 119.624 119.385 120.078 119.736C120.531 120.087 120.836 120.6 120.929 121.17C121.023 121.74 120.9 122.325 120.584 122.807C120.267 123.288 119.782 123.629 119.227 123.762Z" fill="#FF8552"/>
<path opacity="0.1" d="M114.557 131.678C113.387 132.089 109.257 131.14 109.257 131.14C109.257 131.14 111.92 127.806 113.089 127.386C113.373 127.262 113.679 127.198 113.988 127.2C114.298 127.201 114.603 127.267 114.886 127.393C115.169 127.519 115.423 127.703 115.633 127.933C115.843 128.164 116.003 128.435 116.104 128.731C116.205 129.027 116.245 129.341 116.221 129.653C116.197 129.965 116.11 130.269 115.965 130.546C115.82 130.822 115.62 131.066 115.378 131.26C115.136 131.455 114.856 131.597 114.557 131.678Z" fill="#FF8552"/>
<path opacity="0.1" d="M113.145 112.668C113.736 113.772 117.423 115.882 117.423 115.882C117.423 115.882 117.677 111.601 117.077 110.498C116.772 110.01 116.295 109.659 115.743 109.514C115.192 109.369 114.606 109.442 114.106 109.718C113.605 109.993 113.226 110.452 113.046 110.999C112.866 111.547 112.898 112.143 113.136 112.668H113.145Z" fill="#FF8552"/>
<path opacity="0.1" d="M107.813 121.996C108.703 122.872 112.845 123.765 112.845 123.765C112.845 123.765 111.823 119.603 110.933 118.729C110.496 118.365 109.94 118.181 109.375 118.213C108.81 118.246 108.279 118.493 107.886 118.905C107.493 119.318 107.268 119.865 107.256 120.438C107.243 121.01 107.445 121.567 107.82 121.996H107.813Z" fill="#FF8552"/>
<path opacity="0.1" d="M103.866 131.781C104.598 132.793 108.536 134.387 108.536 134.387C108.536 134.387 108.223 130.108 107.498 129.096C107.131 128.653 106.612 128.368 106.046 128.298C105.479 128.229 104.908 128.38 104.447 128.722C103.987 129.064 103.672 129.57 103.566 130.138C103.461 130.706 103.572 131.293 103.878 131.781H103.866Z" fill="#FF8552"/>
</g>
<g opacity="0.1">
<path opacity="0.1" d="M81.9237 137.998C81.9237 137.998 82.0863 127.325 87.674 121.194C90.0353 118.638 91.5137 115.375 91.8868 111.896C92.0512 110.243 92.0656 108.578 91.9301 106.922" stroke="#535461" stroke-width="2" stroke-miterlimit="10"/>
<path opacity="0.1" d="M95.4286 103.037C95.0603 104.235 91.8505 107.035 91.8505 107.035C91.8505 107.035 90.7783 102.885 91.1466 101.687C91.217 101.382 91.3486 101.095 91.5332 100.845C91.7178 100.594 91.9514 100.384 92.2195 100.229C92.4876 100.073 92.7845 99.9757 93.0915 99.9418C93.3986 99.9078 93.7092 99.9382 94.0041 100.031C94.299 100.124 94.5718 100.278 94.8056 100.482C95.0393 100.687 95.2289 100.938 95.3625 101.22C95.4962 101.502 95.571 101.809 95.5824 102.122C95.5938 102.434 95.5414 102.746 95.4286 103.037Z" fill="#FF8552"/>
<path opacity="0.1" d="M96.9298 110.79C95.9769 111.594 91.7814 112.176 91.7814 112.176C91.7814 112.176 93.1061 108.101 94.059 107.299C94.5206 106.962 95.0915 106.814 95.6563 106.886C96.2212 106.958 96.738 107.245 97.1024 107.688C97.4668 108.131 97.6516 108.698 97.6196 109.274C97.5875 109.849 97.341 110.391 96.9298 110.79Z" fill="#FF8552"/>
<path opacity="0.1" d="M93.286 122.084C92.0633 122.288 88.1514 120.645 88.1514 120.645C88.1514 120.645 91.3266 117.806 92.5475 117.601C92.847 117.529 93.1578 117.521 93.4607 117.576C93.7635 117.632 94.0519 117.749 94.3081 117.922C94.5642 118.094 94.7826 118.319 94.9498 118.58C95.117 118.842 95.2294 119.135 95.2801 119.443C95.3307 119.75 95.3185 120.065 95.2443 120.367C95.17 120.67 95.0352 120.953 94.8483 121.201C94.6613 121.449 94.4262 121.655 94.1575 121.806C93.8888 121.958 93.5922 122.053 93.286 122.084Z" fill="#FF8552"/>
<path opacity="0.1" d="M88.632 129.998C87.4612 130.411 83.3314 129.46 83.3314 129.46C83.3314 129.46 85.9878 126.119 87.1569 125.704C87.4402 125.582 87.7452 125.521 88.0531 125.523C88.3609 125.526 88.6649 125.592 88.9464 125.718C89.2278 125.845 89.4807 126.028 89.6892 126.258C89.8978 126.487 90.0576 126.757 90.1588 127.052C90.2601 127.346 90.3005 127.658 90.2776 127.969C90.2548 128.28 90.1692 128.583 90.026 128.859C89.8829 129.135 89.6853 129.379 89.4455 129.574C89.2057 129.77 88.9288 129.913 88.632 129.996V129.998Z" fill="#FF8552"/>
<path opacity="0.1" d="M87.2122 110.99C87.8037 112.094 91.4908 114.204 91.4908 114.204C91.4908 114.204 91.745 109.923 91.1449 108.82C91.0206 108.53 90.838 108.269 90.6088 108.054C90.3796 107.84 90.1088 107.676 89.8136 107.573C89.5184 107.47 89.2053 107.431 88.8943 107.457C88.5832 107.484 88.281 107.575 88.0069 107.727C87.7328 107.878 87.4928 108.085 87.3022 108.336C87.1116 108.586 86.9745 108.874 86.8998 109.181C86.825 109.488 86.8142 109.807 86.868 110.119C86.9218 110.43 87.039 110.727 87.2122 110.99Z" fill="#FF8552"/>
<path opacity="0.1" d="M81.8839 120.316C82.7746 121.192 86.9165 122.087 86.9165 122.087C86.9165 122.087 85.8944 117.923 85.0038 117.051C84.7987 116.814 84.5474 116.623 84.2658 116.49C83.9842 116.357 83.6784 116.284 83.3677 116.277C83.057 116.27 82.7482 116.328 82.4607 116.447C82.1732 116.567 81.9133 116.745 81.6974 116.972C81.4815 117.198 81.3143 117.468 81.2064 117.763C81.0984 118.058 81.0521 118.373 81.0703 118.687C81.0884 119.001 81.1708 119.308 81.312 119.589C81.4532 119.869 81.6503 120.117 81.8909 120.316H81.8839Z" fill="#FF8552"/>
<path opacity="0.1" d="M77.934 130.101C78.6655 131.114 82.6034 132.708 82.6034 132.708C82.6034 132.708 82.2903 128.428 81.5657 127.416C81.4006 127.153 81.184 126.927 80.9292 126.752C80.6745 126.577 80.387 126.457 80.0846 126.4C79.7822 126.342 79.4714 126.348 79.1713 126.417C78.8712 126.486 78.5883 126.616 78.34 126.8C78.0918 126.985 77.8835 127.218 77.7281 127.487C77.5727 127.756 77.4735 128.055 77.4365 128.364C77.3996 128.674 77.4258 128.987 77.5134 129.286C77.6011 129.585 77.7483 129.862 77.9461 130.101H77.934Z" fill="#FF8552"/>
</g>
<path d="M70.1118 13.5705C70.4577 14.6495 69.5203 18.4052 69.5203 18.4052C69.5203 18.4052 66.6011 15.9055 66.2587 14.8212C66.1635 14.5613 66.1213 14.2846 66.1346 14.0078C66.1479 13.731 66.2165 13.4597 66.3362 13.2105C66.4559 12.9612 66.6242 12.7391 66.831 12.5576C67.0378 12.376 67.2787 12.2388 67.5393 12.1543C67.7999 12.0697 68.0747 12.0394 68.3471 12.0654C68.6196 12.0914 68.884 12.173 69.1244 12.3054C69.3649 12.4378 69.5763 12.6181 69.746 12.8355C69.9157 13.053 70.0401 13.303 70.1118 13.5705Z" fill="#FF8552"/>
<path d="M55.7577 37.5934C56.1036 38.6724 55.1663 42.4281 55.1663 42.4281C55.1663 42.4281 52.2436 39.9284 51.9012 38.8494C51.8198 38.5929 51.789 38.3226 51.8107 38.0541C51.8324 37.7856 51.9061 37.524 52.0276 37.2843C52.149 37.0447 52.3159 36.8316 52.5187 36.6572C52.7215 36.4829 52.9562 36.3507 53.2095 36.2682C53.4627 36.1857 53.7295 36.1546 53.9946 36.1766C54.2597 36.1985 54.5179 36.2732 54.7546 36.3962C54.9912 36.5193 55.2016 36.6883 55.3737 36.8937C55.5458 37.0992 55.6763 37.3369 55.7577 37.5934Z" fill="#FF8552"/>
<path d="M85.9981 27.0043C86.344 28.0834 85.4049 31.839 85.4049 31.839C85.4049 31.839 82.484 29.3411 82.1416 28.2621C81.9769 27.7441 82.0221 27.181 82.2673 26.6968C82.5125 26.2126 82.9376 25.8468 83.449 25.68C83.9604 25.5133 84.5163 25.5591 84.9943 25.8074C85.4724 26.0558 85.8335 26.4863 85.9981 27.0043Z" fill="#FF8552"/>
<path d="M101.642 45.1573C101.988 46.2346 101.051 49.9902 101.051 49.9902C101.051 49.9902 98.1282 47.4923 97.7823 46.4132C97.6944 46.1552 97.6582 45.8819 97.6759 45.6095C97.6936 45.3371 97.7648 45.071 97.8853 44.8268C98.0058 44.5826 98.1733 44.3652 98.3778 44.1874C98.5824 44.0097 98.8199 43.875 99.0765 43.7914C99.3331 43.7078 99.6036 43.6769 99.8721 43.7006C100.141 43.7242 100.402 43.8019 100.64 43.9292C100.879 44.0564 101.09 44.2305 101.261 44.4414C101.432 44.6523 101.56 44.8957 101.637 45.1573H101.642Z" fill="#FF8552"/>
<path d="M91.0861 15.3467C90.5171 16.3224 87.124 18.1074 87.124 18.1074C87.124 18.1074 87.0289 14.2361 87.5979 13.2604C87.871 12.7919 88.3167 12.4524 88.8369 12.3168C89.3571 12.1811 89.9093 12.2603 90.3718 12.5369C90.8344 12.8136 91.1695 13.2651 91.3034 13.792C91.4374 14.3189 91.3592 14.8782 91.0861 15.3467Z" fill="#FF8552"/>
<path d="M129.349 12.4231C128.78 13.3988 125.387 15.1838 125.387 15.1838C125.387 15.1838 125.294 11.3108 125.863 10.3368C125.995 10.0992 126.173 9.89064 126.386 9.72343C126.598 9.55623 126.842 9.43372 127.102 9.36308C127.363 9.29245 127.634 9.2751 127.901 9.31206C128.168 9.34902 128.425 9.43954 128.657 9.57832C128.889 9.71711 129.091 9.90136 129.252 10.1203C129.412 10.3393 129.528 10.5885 129.593 10.8534C129.657 11.1183 129.669 11.3936 129.627 11.6631C129.585 11.9327 129.491 12.1911 129.349 12.4231Z" fill="#FF8552"/>
<path d="M52.2989 19.9414C51.2163 20.2269 47.5673 19.0656 47.5673 19.0656C47.5673 19.0656 50.1977 16.2541 51.2803 15.9685C51.5378 15.9008 51.806 15.8851 52.0696 15.9223C52.3331 15.9596 52.5868 16.049 52.8162 16.1856C53.0456 16.3221 53.2462 16.5031 53.4066 16.7182C53.5669 16.9333 53.6839 17.1782 53.7508 17.4391C53.8176 17.7 53.8331 17.9716 53.7964 18.2385C53.7596 18.5055 53.6713 18.7625 53.5365 18.9948C53.4017 19.2272 53.223 19.4304 53.0106 19.5928C52.7983 19.7552 52.5565 19.8737 52.2989 19.9414Z" fill="#FF8552"/>
<path d="M87.3575 64.2719C86.7885 65.2476 83.3954 67.0326 83.3954 67.0326C83.3954 67.0326 83.3003 63.1613 83.8692 62.1856C84.0045 61.9536 84.1835 61.7509 84.3961 61.589C84.6087 61.4271 84.8507 61.3092 85.1083 61.242C85.3659 61.1748 85.634 61.1597 85.8974 61.1975C86.1607 61.2352 86.4142 61.3252 86.6432 61.4622C86.8723 61.5992 87.0724 61.7805 87.2323 61.9958C87.3921 62.2112 87.5085 62.4563 87.5748 62.7172C87.6412 62.9781 87.6561 63.2497 87.6188 63.5165C87.5815 63.7832 87.4927 64.0399 87.3575 64.2719Z" fill="#FF8552"/>
</g>
<defs>
<linearGradient id="paint0_linear" x1="37.1009" y1="138.79" x2="37.1009" y2="28.6071" gradientUnits="userSpaceOnUse">
<stop stop-color="#808080" stop-opacity="0.25"/>
<stop offset="0.54" stop-color="#808080" stop-opacity="0.12"/>
<stop offset="1" stop-color="#808080" stop-opacity="0.1"/>
</linearGradient>
<clipPath id="clip0">
<rect width="180" height="140" fill="white"/>
</clipPath>
</defs>
</svg>
