<svg width="231" height="146" viewBox="0 0 231 146" fill="none" xmlns="http://www.w3.org/2000/svg">
<g clip-path="url(#clip0)">
<path d="M50.0513 129.598C56.6861 129.598 62.0646 123.681 62.0646 116.383C62.0646 109.085 56.6861 103.168 50.0513 103.168C43.4165 103.168 38.038 109.085 38.038 116.383C38.038 123.681 43.4165 129.598 50.0513 129.598Z" fill="#F2F2F2"/>
<path d="M52.0048 127.664C58.6395 127.664 64.0181 121.747 64.0181 114.449C64.0181 107.151 58.6395 101.234 52.0048 101.234C45.37 101.234 39.9915 107.151 39.9915 114.449C39.9915 121.747 45.37 127.664 52.0048 127.664Z" fill="#FF8552"/>
<path d="M210.317 99.8274H61.6796V100.273H210.317V99.8274Z" fill="#3F3D56"/>
<path d="M138.659 4.16049H85.902V2.96439H61.9799V4.16049H9.0055C8.53686 4.16048 8.07282 4.26202 7.63985 4.45929C7.20689 4.65656 6.81349 4.94571 6.48211 5.31022C6.15073 5.67474 5.88787 6.10748 5.70853 6.58373C5.52919 7.05999 5.43689 7.57045 5.43689 8.08594V87.5502C5.43689 88.5913 5.81287 89.5898 6.48211 90.326C7.15135 91.0621 8.05904 91.4757 9.0055 91.4757H138.659C139.605 91.4757 140.513 91.0621 141.182 90.326C141.852 89.5898 142.228 88.5913 142.228 87.5502V8.08594C142.228 7.57045 142.135 7.05999 141.956 6.58373C141.777 6.10748 141.514 5.67474 141.182 5.31022C140.851 4.94571 140.458 4.65656 140.025 4.45929C139.592 4.26202 139.128 4.16048 138.659 4.16049Z" fill="#3F3D56"/>
<path d="M137.443 11.0979H10.2213V90.0404H137.443V11.0979Z" fill="#FF8552"/>
<path d="M73.7234 8.94488C74.4441 8.94488 75.0283 8.30227 75.0283 7.50957C75.0283 6.71686 74.4441 6.07425 73.7234 6.07425C73.0028 6.07425 72.4186 6.71686 72.4186 7.50957C72.4186 8.30227 73.0028 8.94488 73.7234 8.94488Z" fill="#FF8552"/>
<path opacity="0.1" d="M101.06 90.0405H10.2213V11.0979L101.06 90.0405Z" fill="black"/>
<path d="M30.1278 84.1331C36.8816 84.1331 42.3567 78.1105 42.3567 70.6813C42.3567 63.252 36.8816 57.2295 30.1278 57.2295C23.3739 57.2295 17.8988 63.252 17.8988 70.6813C17.8988 78.1105 23.3739 84.1331 30.1278 84.1331Z" fill="#F2F2F2"/>
<path d="M115.292 53.6722H103.408V56.4037H115.292V53.6722Z" fill="#3F3D56"/>
<path d="M129.659 32.4054H89.0406V33.576H129.659V32.4054Z" fill="#3F3D56"/>
<path d="M129.659 36.1125H89.0406V37.2831H129.659V36.1125Z" fill="#3F3D56"/>
<path d="M129.659 39.8195H89.0406V40.9902H129.659V39.8195Z" fill="#3F3D56"/>
<path d="M129.659 43.5266H89.0406V44.6972H129.659V43.5266Z" fill="#3F3D56"/>
<path d="M129.659 47.2336H89.0406V48.4043H129.659V47.2336Z" fill="#3F3D56"/>
<path d="M129.659 12.6994H124.692V18.1625H129.659V12.6994Z" fill="#F2F2F2"/>
<path d="M131.965 20.6989H125.934V14.0652H131.965V20.6989ZM126.196 20.4105H131.702V14.3536H126.196V20.4105Z" fill="#3F3D56"/>
<path d="M145.8 88.6051H133.384V87.621C133.384 87.5954 133.379 87.5701 133.37 87.5464C133.361 87.5227 133.348 87.5012 133.332 87.4831C133.315 87.465 133.296 87.4506 133.274 87.4408C133.253 87.431 133.229 87.4259 133.206 87.4259H128.949C128.926 87.4259 128.903 87.431 128.881 87.4408C128.86 87.4506 128.84 87.465 128.824 87.4831C128.807 87.5012 128.794 87.5227 128.785 87.5464C128.776 87.5701 128.772 87.5954 128.772 87.621V88.6051H126.111V87.621C126.111 87.5954 126.107 87.5701 126.098 87.5464C126.089 87.5227 126.076 87.5012 126.059 87.4831C126.043 87.465 126.023 87.4506 126.002 87.4408C125.98 87.431 125.957 87.4259 125.934 87.4259H121.677C121.654 87.4259 121.631 87.431 121.609 87.4408C121.588 87.4506 121.568 87.465 121.552 87.4831C121.535 87.5012 121.522 87.5227 121.513 87.5464C121.504 87.5701 121.5 87.5954 121.5 87.621V88.6051H118.839V87.621C118.839 87.5954 118.834 87.5701 118.826 87.5464C118.817 87.5227 118.804 87.5012 118.787 87.4831C118.771 87.465 118.751 87.4506 118.73 87.4408C118.708 87.431 118.685 87.4259 118.662 87.4259H114.405C114.381 87.4259 114.358 87.431 114.337 87.4408C114.315 87.4506 114.296 87.465 114.279 87.4831C114.263 87.5012 114.25 87.5227 114.241 87.5464C114.232 87.5701 114.227 87.5954 114.227 87.621V88.6051H111.567V87.621C111.567 87.5954 111.562 87.5701 111.553 87.5464C111.544 87.5227 111.531 87.5012 111.515 87.4831C111.498 87.465 111.479 87.4506 111.457 87.4408C111.436 87.431 111.413 87.4259 111.389 87.4259H107.133C107.109 87.4259 107.086 87.431 107.065 87.4408C107.043 87.4506 107.024 87.465 107.007 87.4831C106.991 87.5012 106.978 87.5227 106.969 87.5464C106.96 87.5701 106.955 87.5954 106.955 87.621V88.6051H104.295V87.621C104.295 87.5954 104.29 87.5701 104.281 87.5464C104.272 87.5227 104.259 87.5012 104.243 87.4831C104.226 87.465 104.207 87.4506 104.185 87.4408C104.164 87.431 104.141 87.4259 104.117 87.4259H99.8603C99.837 87.4259 99.8139 87.431 99.7924 87.4408C99.7709 87.4506 99.7514 87.465 99.7349 87.4831C99.7184 87.5012 99.7053 87.5227 99.6964 87.5464C99.6875 87.5701 99.6829 87.5954 99.6829 87.621V88.6051H97.0224V87.621C97.0224 87.5954 97.0178 87.5701 97.0089 87.5464C96.9999 87.5227 96.9869 87.5012 96.9704 87.4831C96.9539 87.465 96.9344 87.4506 96.9129 87.4408C96.8913 87.431 96.8683 87.4259 96.845 87.4259H92.5881C92.5648 87.4259 92.5417 87.431 92.5202 87.4408C92.4987 87.4506 92.4791 87.465 92.4626 87.4831C92.4462 87.5012 92.4331 87.5227 92.4242 87.5464C92.4153 87.5701 92.4107 87.5954 92.4107 87.621V88.6051H89.7501V87.621C89.7501 87.5954 89.7455 87.5701 89.7366 87.5464C89.7277 87.5227 89.7146 87.5012 89.6982 87.4831C89.6817 87.465 89.6621 87.4506 89.6406 87.4408C89.6191 87.431 89.596 87.4259 89.5727 87.4259H56.2268C56.2036 87.4259 56.1805 87.431 56.159 87.4408C56.1374 87.4506 56.1179 87.465 56.1014 87.4831C56.085 87.5012 56.0719 87.5227 56.063 87.5464C56.0541 87.5701 56.0495 87.5954 56.0495 87.621V88.6051H53.3889V87.621C53.3889 87.5954 53.3843 87.5701 53.3754 87.5464C53.3665 87.5227 53.3534 87.5012 53.3369 87.4831C53.3205 87.465 53.3009 87.4506 53.2794 87.4408C53.2579 87.431 53.2348 87.4259 53.2115 87.4259H48.9546C48.9313 87.4259 48.9082 87.431 48.8867 87.4408C48.8652 87.4506 48.8456 87.465 48.8292 87.4831C48.8127 87.5012 48.7996 87.5227 48.7907 87.5464C48.7818 87.5701 48.7772 87.5954 48.7772 87.621V88.6051H46.1167V87.621C46.1167 87.5954 46.1121 87.5701 46.1032 87.5464C46.0942 87.5227 46.0812 87.5012 46.0647 87.4831C46.0482 87.465 46.0287 87.4506 46.0072 87.4408C45.9856 87.431 45.9626 87.4259 45.9393 87.4259H41.6824C41.6591 87.4259 41.636 87.431 41.6145 87.4408C41.593 87.4506 41.5734 87.465 41.5569 87.4831C41.5405 87.5012 41.5274 87.5227 41.5185 87.5464C41.5096 87.5701 41.505 87.5954 41.505 87.621V88.6051H38.8444V87.621C38.8444 87.5954 38.8398 87.5701 38.8309 87.5464C38.822 87.5227 38.8089 87.5012 38.7925 87.4831C38.776 87.465 38.7564 87.4506 38.7349 87.4408C38.7134 87.431 38.6903 87.4259 38.667 87.4259H34.4101C34.3868 87.4259 34.3638 87.431 34.3422 87.4408C34.3207 87.4506 34.3012 87.465 34.2847 87.4831C34.2682 87.5012 34.2552 87.5227 34.2462 87.5464C34.2373 87.5701 34.2327 87.5954 34.2327 87.621V88.6051H31.5722V87.621C31.5722 87.5954 31.5676 87.5701 31.5587 87.5464C31.5498 87.5227 31.5367 87.5012 31.5202 87.4831C31.5038 87.465 31.4842 87.4506 31.4627 87.4408C31.4412 87.431 31.4181 87.4259 31.3948 87.4259H27.1379C27.1146 87.4259 27.0915 87.431 27.07 87.4408C27.0485 87.4506 27.0289 87.465 27.0125 87.4831C26.996 87.5012 26.9829 87.5227 26.974 87.5464C26.9651 87.5701 26.9605 87.5954 26.9605 87.621V88.6051H24.2999V87.621C24.2999 87.5954 24.2953 87.5701 24.2864 87.5464C24.2775 87.5227 24.2645 87.5012 24.248 87.4831C24.2315 87.465 24.212 87.4506 24.1904 87.4408C24.1689 87.431 24.1459 87.4259 24.1226 87.4259H19.8656C19.8423 87.4259 19.8193 87.431 19.7978 87.4408C19.7762 87.4506 19.7567 87.465 19.7402 87.4831C19.7237 87.5012 19.7107 87.5227 19.7018 87.5464C19.6929 87.5701 19.6883 87.5954 19.6883 87.621V88.6051H17.0277V87.621C17.0277 87.5954 17.0231 87.5701 17.0142 87.5464C17.0053 87.5227 16.9922 87.5012 16.9757 87.4831C16.9593 87.465 16.9397 87.4506 16.9182 87.4408C16.8967 87.431 16.8736 87.4259 16.8503 87.4259H12.5934C12.5701 87.4259 12.547 87.431 12.5255 87.4408C12.504 87.4506 12.4844 87.465 12.468 87.4831C12.4515 87.5012 12.4384 87.5227 12.4295 87.5464C12.4206 87.5701 12.416 87.5954 12.416 87.621V88.6051H4.25692C3.12792 88.6051 2.04515 89.0984 1.24682 89.9766C0.448497 90.8547 1.07561e-06 92.0458 0 93.2877V95.4051C3.22681e-06 96.647 0.448501 97.838 1.24683 98.7162C2.04516 99.5943 3.12792 100.088 4.25692 100.088H145.8C146.929 100.088 148.011 99.5943 148.81 98.7162C149.608 97.838 150.057 96.647 150.057 95.4051V93.2877C150.057 92.0458 149.608 90.8547 148.81 89.9766C148.011 89.0984 146.929 88.6051 145.8 88.6051Z" fill="#3F3D56"/>
<path d="M33.0877 79.0831C30.0397 79.0831 27.0601 78.0889 24.5257 76.2261C21.9914 74.3634 20.0161 71.7158 18.8496 68.6182C17.6832 65.5206 17.378 62.112 17.9726 58.8236C18.5673 55.5352 20.0351 52.5146 22.1904 50.1438C24.3457 47.773 27.0917 46.1584 30.0811 45.5043C33.0706 44.8502 36.1693 45.1859 38.9853 46.469C41.8014 47.7521 44.2083 49.9249 45.9017 52.7127C47.5951 55.5004 48.4989 58.778 48.4989 62.1308C48.4943 66.6253 46.8691 70.9342 43.98 74.1123C41.0908 77.2904 37.1736 79.078 33.0877 79.0831ZM33.0877 45.6247C30.1199 45.6247 27.2187 46.5927 24.751 48.4065C22.2834 50.2202 20.3601 52.7981 19.2243 55.8142C18.0886 58.8303 17.7914 62.1492 18.3704 65.351C18.9494 68.5529 20.3786 71.494 22.4771 73.8025C24.5757 76.1109 27.2495 77.6829 30.1603 78.3198C33.0711 78.9567 36.0882 78.6299 38.8301 77.3805C41.5721 76.1312 43.9156 74.0156 45.5645 71.3012C47.2133 68.5867 48.0934 65.3954 48.0934 62.1308C48.0889 57.7547 46.5065 53.5591 43.6934 50.4647C40.8802 47.3703 37.0661 45.6296 33.0877 45.6247Z" fill="#3F3D56"/>
<path d="M170.572 7.25897H118.863V7.70508H170.572V7.25897Z" fill="#3F3D56"/>
<path d="M231 125.033H82.363V125.479H231V125.033Z" fill="#3F3D56"/>
<path d="M90.7783 145.554H39.0697V146H90.7783V145.554Z" fill="#3F3D56"/>
<path d="M101.187 122.681H95.5089V128.927H101.187V122.681Z" fill="#FF8552"/>
<path d="M104.634 125.358H97.7395V117.774H104.634V125.358ZM98.0393 125.028H104.334V118.103H98.0393V125.028Z" fill="#3F3D56"/>
<path d="M167.09 4.90724H161.412V11.1528H167.09V4.90724Z" fill="#FF8552"/>
<path d="M170.537 7.58391H163.643V0H170.537V7.58391ZM163.942 7.25418H170.237V0.329736H163.942V7.25418Z" fill="#3F3D56"/>
<path d="M224.274 122.681H218.596V128.927H224.274V122.681Z" fill="#FF8552"/>
<path d="M227.721 125.358H220.826V117.774H227.721V125.358ZM221.126 125.028H227.421V118.103H221.126V125.028Z" fill="#3F3D56"/>
<path d="M214.372 51.7398H213.89V37.205C213.89 36.1003 213.692 35.0064 213.308 33.9858C212.923 32.9652 212.36 32.0378 211.65 31.2567C210.94 30.4755 210.097 29.8559 209.169 29.4331C208.241 29.0103 207.247 28.7928 206.242 28.7928H178.248C177.244 28.7928 176.249 29.0103 175.321 29.4331C174.394 29.8558 173.551 30.4755 172.84 31.2567C172.13 32.0378 171.567 32.9652 171.183 33.9858C170.798 35.0064 170.6 36.1003 170.6 37.205V116.944C170.6 118.048 170.798 119.142 171.183 120.163C171.567 121.183 172.13 122.111 172.84 122.892C173.551 123.673 174.394 124.293 175.321 124.716C176.249 125.138 177.244 125.356 178.248 125.356H206.242C207.247 125.356 208.241 125.138 209.169 124.716C210.097 124.293 210.94 123.673 211.65 122.892C212.36 122.111 212.923 121.183 213.308 120.163C213.692 119.142 213.89 118.048 213.89 116.944V62.0858H214.372V51.7398Z" fill="#3F3D56"/>
<path d="M212.261 37.6995V117.322C212.262 118.988 211.66 120.586 210.589 121.764C209.518 122.943 208.066 123.605 206.551 123.605H178.422C176.907 123.605 175.454 122.943 174.383 121.764C173.313 120.586 172.711 118.988 172.711 117.322V37.6995C172.711 36.0336 173.313 34.4361 174.384 33.2581C175.455 32.0802 176.907 31.4184 178.422 31.4182H181.834C181.666 31.8714 181.602 32.363 181.648 32.8498C181.693 33.3366 181.847 33.8037 182.095 34.2098C182.343 34.6159 182.678 34.9487 183.071 35.1788C183.464 35.4088 183.902 35.5292 184.347 35.5291H200.385C200.829 35.5292 201.268 35.4088 201.66 35.1788C202.053 34.9487 202.388 34.616 202.636 34.2098C202.884 33.8037 203.038 33.3366 203.084 32.8498C203.129 32.363 203.065 31.8714 202.897 31.4182H206.551C208.065 31.4184 209.518 32.0802 210.589 33.2581C211.66 34.4361 212.261 36.0336 212.261 37.6995Z" fill="#FF8552"/>
<path d="M196.676 83.9177H188.297V86.6492H196.676V83.9177Z" fill="#3F3D56"/>
<path d="M206.807 62.6509H178.166V63.8216H206.807V62.6509Z" fill="#3F3D56"/>
<path d="M206.807 66.358H178.166V67.5286H206.807V66.358Z" fill="#3F3D56"/>
<path d="M206.807 70.0651H178.166V71.2357H206.807V70.0651Z" fill="#3F3D56"/>
<path d="M206.807 73.7721H178.166V74.9427H206.807V73.7721Z" fill="#3F3D56"/>
<path d="M206.807 77.4792H178.166V78.6498H206.807V77.4792Z" fill="#3F3D56"/>
<path d="M193.487 47.1048H188.52V52.5678H193.487V47.1048Z" fill="#F2F2F2"/>
<path d="M190.422 48.4709V55.1046H196.452V48.4709H190.422ZM196.191 54.8168H190.683V48.7586H196.191V54.8168Z" fill="#3F3D56"/>
<path opacity="0.1" d="M212.261 108.819V117.322C212.262 118.988 211.66 120.586 210.589 121.764C209.518 122.943 208.066 123.605 206.551 123.605H178.422C176.907 123.605 175.454 122.943 174.383 121.764C173.313 120.586 172.711 118.988 172.711 117.322V74.448L196.41 95.0428L196.816 95.3952L201.224 99.2251L201.636 99.5842L212.261 108.819Z" fill="black"/>
<path d="M190.053 121.025C194.966 121.025 198.948 116.644 198.948 111.24C198.948 105.836 194.966 101.455 190.053 101.455C185.14 101.455 181.157 105.836 181.157 111.24C181.157 116.644 185.14 121.025 190.053 121.025Z" fill="#F2F2F2"/>
<path d="M64.924 146C61.4348 146 58.0239 144.862 55.1228 142.73C52.2216 140.597 49.9604 137.566 48.6251 134.02C47.2899 130.474 46.9405 126.573 47.6212 122.808C48.3019 119.044 49.9821 115.586 52.4494 112.872C54.9166 110.158 58.0601 108.31 61.4823 107.561C64.9044 106.812 68.4516 107.197 71.6752 108.665C74.8988 110.134 77.6541 112.622 79.5926 115.813C81.5311 119.004 82.5658 122.756 82.5658 126.594C82.5605 131.739 80.7001 136.672 77.3928 140.31C74.0855 143.948 69.6013 145.994 64.924 146ZM64.924 107.634C61.515 107.634 58.1826 108.746 55.3481 110.83C52.5136 112.913 50.3044 115.874 48.9998 119.339C47.6953 122.803 47.3539 126.615 48.019 130.293C48.684 133.971 50.3256 137.349 52.7362 140.001C55.1467 142.652 58.2179 144.458 61.5614 145.19C64.9049 145.921 68.3705 145.546 71.52 144.111C74.6695 142.676 77.3615 140.246 79.2554 137.128C81.1493 134.01 82.1602 130.344 82.1602 126.594C82.1551 121.567 80.3374 116.748 77.1061 113.194C73.8748 109.639 69.4937 107.64 64.924 107.634Z" fill="#3F3D56"/>
<path d="M192.675 118.787C190.469 118.787 188.313 118.068 186.479 116.72C184.645 115.372 183.215 113.456 182.371 111.214C181.527 108.972 181.306 106.505 181.736 104.126C182.167 101.746 183.229 99.5599 184.789 97.8442C186.348 96.1285 188.336 94.96 190.499 94.4867C192.662 94.0133 194.905 94.2563 196.943 95.1848C198.981 96.1133 200.723 97.6858 201.948 99.7033C203.174 101.721 203.828 104.093 203.828 106.519C203.824 109.772 202.648 112.89 200.557 115.19C198.467 117.49 195.632 118.783 192.675 118.787ZM192.675 94.6971C190.549 94.6971 188.471 95.3904 186.704 96.6894C184.937 97.9884 183.559 99.8348 182.746 101.995C181.932 104.155 181.719 106.532 182.134 108.825C182.549 111.119 183.572 113.225 185.075 114.878C186.578 116.532 188.493 117.658 190.578 118.114C192.663 118.57 194.824 118.336 196.788 117.441C198.751 116.546 200.43 115.031 201.611 113.087C202.792 111.143 203.422 108.857 203.422 106.519C203.419 103.385 202.286 100.38 200.271 98.1635C198.256 95.9472 195.524 94.7006 192.675 94.6971Z" fill="#3F3D56"/>
</g>
<defs>
<clipPath id="clip0">
<rect width="231" height="146" fill="white"/>
</clipPath>
</defs>
</svg>
