<svg width="38" height="38" viewBox="0 0 38 38" fill="none" xmlns="http://www.w3.org/2000/svg">
<path d="M20.5832 9.5C20.5832 10.3744 19.8744 11.0832 19 11.0832C18.1256 11.0832 17.4168 10.3744 17.4168 9.5C17.4168 8.62561 18.1256 7.91676 19 7.91676C19.8744 7.91676 20.5832 8.62561 20.5832 9.5Z" fill="#02196C"/>
<path d="M19 30.0832C18.3445 30.0832 17.8125 29.5512 17.8125 28.8957V16.625H16.2293C15.5738 16.625 15.0418 16.093 15.0418 15.4375C15.0418 14.782 15.5738 14.25 16.2293 14.25H19C19.6555 14.25 20.1875 14.782 20.1875 15.4375V28.8957C20.1875 29.5512 19.6555 30.0832 19 30.0832Z" fill="#02196C"/>
<path d="M19 38C8.52298 38 0 29.477 0 19C0 8.52298 8.52298 0 19 0C29.477 0 38 8.52298 38 19C38 29.477 29.477 38 19 38ZM19 2.375C9.83253 2.375 2.375 9.83253 2.375 19C2.375 28.1675 9.83253 35.625 19 35.625C28.1675 35.625 35.625 28.1675 35.625 19C35.625 9.83253 28.1675 2.375 19 2.375Z" fill="#02196C"/>
<path d="M22.5625 30.0832H15.4375C14.782 30.0832 14.25 29.5512 14.25 28.8957C14.25 28.2402 14.782 27.7082 15.4375 27.7082H22.5625C23.218 27.7082 23.75 28.2402 23.75 28.8957C23.75 29.5512 23.218 30.0832 22.5625 30.0832Z" fill="#02196C"/>
</svg>
