       <svg width="495" height="249" viewBox="0 0 495 249" fill="none" xmlns="http://www.w3.org/2000/svg">
       <path d="M486.3 87.7578L485.84 87.5806C471.248 81.9221 458.689 70.587 449.831 55.2731C458.926 46.116 467.695 36.3196 476.071 25.8539C480.805 19.9394 480.805 10.3506 476.071 4.43469C471.339 -1.47823 463.664 -1.47823 458.93 4.43469C411.393 63.832 350.673 100.767 285.014 110.988C284.574 111.026 284.14 111.09 283.713 111.184C271.767 112.979 259.662 113.898 247.444 113.899L247.424 113.898L247.405 113.899C235.186 113.899 223.081 112.979 211.134 111.184C210.707 111.088 210.274 111.025 209.833 110.988C144.174 100.767 83.4539 63.832 35.917 4.43469C31.1835 -1.47672 23.5092 -1.47823 18.7756 4.43469C14.0421 10.3491 14.0421 19.9379 18.7756 25.8539C27.1518 36.3196 35.9207 46.1175 45.0157 55.2731C36.1595 70.587 23.6025 81.9237 9.02243 87.5746L8.54725 87.7578C2.15058 90.2266 -1.43262 98.7052 0.543231 106.698C2.15058 113.201 6.94475 117.377 12.1195 117.377C13.3051 117.377 14.51 117.157 15.7003 116.698L16.1913 116.509C35.717 108.938 52.5348 93.8085 64.4433 73.3784C68.5889 76.9482 72.7915 80.3924 77.0523 83.7048C71.1333 106.911 57.2793 125.663 38.9039 134.772L35.1509 136.63C28.9276 139.714 25.885 148.517 28.3518 156.291C30.238 162.236 34.7982 165.856 39.6215 165.856C41.1088 165.856 42.6204 165.51 44.0871 164.785L47.8437 162.923C71.4218 151.235 89.5936 127.976 98.4752 98.9581C103.131 101.984 107.84 104.863 112.603 107.596C111.214 133.566 99.1964 156.748 80.5398 168.911L79.8173 169.382C73.8813 173.248 71.5781 182.395 74.6716 189.812C76.8329 194.993 81.0562 197.959 85.4285 197.959C87.3159 197.959 89.2323 197.406 91.0215 196.24L91.7476 195.767C115.55 180.25 131.65 151.967 135.87 119.582C141.011 121.937 146.199 124.133 151.436 126.158C150.743 150.181 143.288 173.014 130.237 190.804C125.713 196.97 126.046 206.548 130.982 212.202C133.31 214.867 136.243 216.182 139.168 216.182C142.448 216.182 145.717 214.528 148.107 211.27C163.814 189.859 173.291 162.828 175.324 134.154C182.29 136.126 189.327 137.796 196.42 139.191C194.849 162.457 189.135 185.082 179.629 205.295L177.998 208.765C174.607 215.978 176.538 225.257 182.311 229.495C184.239 230.91 186.352 231.584 188.439 231.584C192.597 231.584 196.644 228.908 198.902 224.105L200.532 220.638C211.735 196.817 218.528 170.187 220.504 142.786C225.416 143.288 230.349 143.65 235.302 143.878V233.856C235.302 242.219 240.729 249 247.423 249C254.117 249 259.544 242.218 259.544 233.856V143.878C264.498 143.65 269.43 143.288 274.342 142.786C276.318 170.184 283.109 196.817 294.312 220.635L295.944 224.105C298.202 228.909 302.25 231.584 306.406 231.584C308.493 231.584 310.607 230.91 312.535 229.495C318.307 225.257 320.237 215.978 316.848 208.765L315.215 205.292C305.711 185.082 299.996 162.454 298.425 139.191C305.519 137.795 312.556 136.126 319.522 134.154C321.554 162.826 331.032 189.859 346.739 211.27C349.13 214.528 352.398 216.182 355.678 216.182C358.604 216.182 361.537 214.866 363.864 212.202C368.798 206.549 369.133 196.97 364.609 190.804C351.559 173.014 344.103 150.178 343.409 126.158C348.647 124.133 353.835 121.939 358.976 119.582C363.196 151.968 379.297 180.252 403.102 195.769L403.824 196.24C405.615 197.406 407.53 197.959 409.417 197.959C413.791 197.959 418.013 194.992 420.174 189.812C423.269 182.395 420.966 173.247 415.029 169.382L414.31 168.912C395.649 156.75 383.632 133.566 382.243 107.596C387.007 104.863 391.716 101.984 396.371 98.9581C405.251 127.976 423.423 151.235 447.003 162.925L450.759 164.786C452.225 165.512 453.737 165.857 455.224 165.857C460.048 165.857 464.608 162.233 466.494 156.293C468.962 148.517 465.918 139.715 459.695 136.632L455.942 134.772C437.565 125.662 423.71 106.91 417.792 83.7033C422.053 80.3909 426.256 76.9468 430.401 73.3769C442.31 93.8086 459.129 108.938 478.669 116.514L479.144 116.697C480.336 117.157 481.541 117.375 482.725 117.375C487.901 117.375 492.694 113.198 494.301 106.696C496.28 98.7052 492.698 90.2266 486.3 87.7578Z" fill="#FAF5EE"/>
       </svg>
