<svg width="375" height="667" viewBox="0 0 375 667" fill="none" xmlns="http://www.w3.org/2000/svg">
<g clip-path="url(#clip0)">
<rect width="375" height="667" fill="url(#paint0_linear)"/>
<path fill-rule="evenodd" clip-rule="evenodd" d="M73.2553 -256.331C117.326 -258.188 160.632 -307.187 199.027 -285.45C236.445 -264.265 233.974 -207.787 234.983 -164.767C235.783 -130.588 208.851 -103.467 204.085 -69.6134C197.628 -23.756 231.486 29.8123 202.504 65.9093C174.222 101.133 118.189 97.6944 73.2553 93.332C31.3549 89.264 -12.6023 75.3087 -38.977 42.465C-63.2743 12.2082 -47.7271 -32.0642 -57.5913 -69.6079C-66.5782 -103.812 -96.041 -131.226 -93.8879 -166.528C-91.4097 -207.159 -80.8842 -255.917 -45.0537 -275.168C-8.98677 -294.546 32.3577 -254.608 73.2553 -256.331Z" fill="#F9F2E8"/>
<path fill-rule="evenodd" clip-rule="evenodd" d="M242.506 -508.924C307.611 -529.772 376.636 -585.345 438.021 -555.26C497.77 -525.977 501.57 -440.619 514.894 -375.428C525.979 -321.19 527.051 -264.839 508.001 -212.861C491.021 -166.532 438.286 -145.187 414.635 -101.882C381.222 -40.7003 405.31 59.4422 342.627 89.9472C283.654 118.647 223.758 44.6981 162.714 20.7164C108.2 -0.699585 46.0941 -3.83838 2.9817 -43.4836C-42.5912 -85.3915 -67.7175 -144.139 -82.0556 -204.368C-97.3972 -268.813 -122.816 -347.161 -81.6707 -399.08C-38.9244 -453.018 48.5467 -429.328 113.729 -451.414C159.175 -466.813 196.809 -494.29 242.506 -508.924Z" fill="#FFB297"/>
<path d="M32.1209 27.932C33.5849 28.196 34.8089 28.916 35.7929 30.092C36.8009 31.268 37.3049 32.648 37.3049 34.232C37.3049 35.528 36.9929 36.692 36.3689 37.724C35.7689 38.732 34.8569 39.536 33.6329 40.136C32.4329 40.712 30.9689 41 29.2409 41H21.2129V15.728H29.0969C31.6169 15.728 33.5129 16.316 34.7849 17.492C36.0809 18.644 36.7289 20.144 36.7289 21.992C36.7289 23.6 36.2969 24.908 35.4329 25.916C34.5689 26.9 33.4649 27.572 32.1209 27.932ZM22.8329 27.212H29.1689C31.0649 27.212 32.5169 26.768 33.5249 25.88C34.5569 24.968 35.0729 23.72 35.0729 22.136C35.0729 20.6 34.5689 19.388 33.5609 18.5C32.5529 17.612 31.0289 17.168 28.9889 17.168H22.8329V27.212ZM29.1329 39.596C31.1729 39.596 32.7689 39.116 33.9209 38.156C35.0969 37.172 35.6849 35.828 35.6849 34.124C35.6849 32.444 35.0849 31.112 33.8849 30.128C32.7089 29.12 31.0889 28.616 29.0249 28.616H22.8329V39.596H29.1329ZM51.2405 39.632H60.6365V41H49.6205V15.728H51.2405V39.632ZM73.4958 15.728V41H71.8758V15.728H73.4958ZM105.066 41H103.446L88.6144 18.392V41H86.9944V15.764H88.6144L103.446 38.3V15.764H105.066V41ZM131.814 41L120.186 29.084V41H118.566V15.728H120.186V27.752L131.814 15.728H133.902L121.59 28.4L133.938 41H131.814Z" fill="#02196C"/>
<path d="M79.2482 57.6391L79.2187 57.6277C78.281 57.2641 77.474 56.5357 76.9048 55.5517C77.4892 54.9633 78.0527 54.3338 78.5909 53.6613C78.8951 53.2812 78.8951 52.6651 78.5909 52.285C78.2868 51.905 77.7936 51.905 77.4895 52.285C74.4349 56.1017 70.5332 58.475 66.3141 59.1318C66.2859 59.1342 66.258 59.1383 66.2306 59.1443C65.4629 59.2597 64.6851 59.3187 63.9 59.3188L63.8987 59.3187L63.8975 59.3188C63.1124 59.3188 62.3345 59.2597 61.5668 59.1443C61.5394 59.1382 61.5116 59.1341 61.4833 59.1318C57.2642 58.475 53.3625 56.1017 50.3079 52.285C50.0038 51.9051 49.5106 51.905 49.2065 52.285C48.9023 52.665 48.9023 53.2812 49.2065 53.6613C49.7447 54.3338 50.3082 54.9634 50.8926 55.5517C50.3235 56.5357 49.5166 57.2642 48.5798 57.6273L48.5492 57.6391C48.1382 57.7977 47.9079 58.3425 48.0349 58.8561C48.1382 59.274 48.4462 59.5423 48.7788 59.5423C48.8549 59.5423 48.9324 59.5282 49.0089 59.4987L49.0404 59.4865C50.2951 59 51.3757 58.0279 52.1409 56.7151C52.4073 56.9445 52.6774 57.1658 52.9512 57.3786C52.5708 58.8698 51.6806 60.0747 50.4998 60.66L50.2587 60.7795C49.8588 60.9776 49.6633 61.5432 49.8218 62.0428C49.943 62.4248 50.236 62.6574 50.546 62.6574C50.6415 62.6574 50.7387 62.6352 50.8329 62.5886L51.0743 62.469C52.5894 61.7179 53.757 60.2234 54.3277 58.3588C54.6269 58.5532 54.9295 58.7382 55.2355 58.9138C55.1463 60.5826 54.3741 62.0722 53.1752 62.8537L53.1288 62.884C52.7474 63.1324 52.5994 63.7201 52.7982 64.1967C52.9371 64.5297 53.2084 64.7202 53.4894 64.7202C53.6107 64.7202 53.7338 64.6847 53.8488 64.6098L53.8954 64.5794C55.4249 63.5823 56.4594 61.7649 56.7306 59.684C57.0609 59.8353 57.3943 59.9764 57.7309 60.1066C57.6863 61.6502 57.2073 63.1173 56.3686 64.2605C56.0779 64.6567 56.0994 65.2722 56.4165 65.6355C56.5661 65.8067 56.7546 65.8912 56.9425 65.8912C57.1533 65.8912 57.3634 65.7849 57.5169 65.5756C58.5262 64.1998 59.1352 62.4628 59.2658 60.6203C59.7134 60.747 60.1656 60.8544 60.6214 60.944C60.5204 62.439 60.1533 63.8928 59.5424 65.1917L59.4376 65.4146C59.2197 65.8781 59.3438 66.4744 59.7147 66.7467C59.8387 66.8376 59.9744 66.8809 60.1086 66.8809C60.3757 66.8809 60.6357 66.7089 60.7808 66.4003L60.8856 66.1775C61.6055 64.6469 62.042 62.9357 62.1689 61.175C62.4846 61.2073 62.8016 61.2305 63.1198 61.2451V67.0269C63.1198 67.5643 63.4685 68 63.8987 68C64.3288 68 64.6775 67.5642 64.6775 67.0269V61.2451C64.9958 61.2305 65.3128 61.2073 65.6284 61.175C65.7554 62.9355 66.1918 64.6469 66.9116 66.1773L67.0165 66.4003C67.1616 66.709 67.4217 66.8809 67.6888 66.8809C67.8228 66.8809 67.9587 66.8376 68.0826 66.7467C68.4535 66.4744 68.5775 65.8781 68.3597 65.4146L68.2548 65.1915C67.6441 63.8928 67.2769 62.4388 67.1759 60.944C67.6317 60.8543 68.0839 60.747 68.5315 60.6203C68.6621 62.4627 69.2711 64.1998 70.2804 65.5756C70.434 65.7849 70.644 65.8912 70.8548 65.8912C71.0428 65.8912 71.2313 65.8066 71.3808 65.6355C71.6979 65.2722 71.7194 64.6567 71.4287 64.2605C70.5901 63.1173 70.111 61.65 70.0665 60.1066C70.403 59.9764 70.7364 59.8354 71.0667 59.684C71.3379 61.765 72.3725 63.5824 73.9021 64.5795L73.9486 64.6098C74.0636 64.6847 74.1867 64.7202 74.3079 64.7202C74.589 64.7202 74.8603 64.5296 74.9991 64.1967C75.198 63.7201 75.05 63.1323 74.6685 62.884L74.6223 62.8538C73.4233 62.0723 72.651 60.5826 72.5618 58.9138C72.8679 58.7382 73.1705 58.5532 73.4696 58.3588C74.0402 60.2234 75.2079 61.7179 76.7231 62.4691L76.9644 62.5887C77.0587 62.6353 77.1558 62.6575 77.2514 62.6575C77.5613 62.6575 77.8543 62.4246 77.9755 62.0429C78.1341 61.5432 77.9385 60.9777 77.5386 60.7796L77.2975 60.66C76.1167 60.0746 75.2264 58.8697 74.8461 57.3785C75.1199 57.1657 75.3899 56.9444 75.6563 56.715C76.4215 58.0279 77.5023 59 78.7579 59.4868L78.7884 59.4986C78.865 59.5282 78.9424 59.5422 79.0185 59.5422C79.3511 59.5422 79.6591 59.2738 79.7623 58.856C79.8895 58.3425 79.6593 57.7977 79.2482 57.6391Z" fill="#FF8552"/>
</g>
<defs>
<linearGradient id="paint0_linear" x1="187.5" y1="0" x2="187.5" y2="667" gradientUnits="userSpaceOnUse">
<stop stop-color="#FF8552"/>
<stop offset="0.229167" stop-color="white"/>
</linearGradient>
<clipPath id="clip0">
<rect width="375" height="667" fill="white"/>
</clipPath>
</defs>
</svg>
