<svg width="375" height="667" viewBox="0 0 375 667" fill="none" xmlns="http://www.w3.org/2000/svg">
<g clip-path="url(#clip0)">
<rect width="375" height="667" fill="url(#paint0_linear)"/>
<path fill-rule="evenodd" clip-rule="evenodd" d="M45.2553 -170.331C89.3263 -172.188 132.632 -221.187 171.027 -199.45C208.445 -178.265 205.974 -121.787 206.983 -78.7668C207.783 -44.5883 180.851 -17.4667 176.085 16.3866C169.628 62.244 203.486 115.812 174.504 151.909C146.222 187.133 90.1891 183.694 45.2553 179.332C3.35495 175.264 -40.6023 161.309 -66.977 128.465C-91.2743 98.2082 -75.7271 53.9358 -85.5913 16.3921C-94.5782 -17.8125 -124.041 -45.2263 -121.888 -80.5284C-119.41 -121.159 -108.884 -169.917 -73.0537 -189.168C-36.9868 -208.546 4.35769 -168.608 45.2553 -170.331Z" fill="#FF8552" fill-opacity="0.6"/>
<path fill-rule="evenodd" clip-rule="evenodd" d="M214.506 -422.924C279.611 -443.772 348.636 -499.345 410.021 -469.26C469.77 -439.977 473.57 -354.619 486.894 -289.428C497.979 -235.19 499.051 -178.839 480.001 -126.861C463.021 -80.5322 410.286 -59.1873 386.635 -15.8824C353.222 45.2997 377.31 145.442 314.627 175.947C255.654 204.647 195.758 130.698 134.714 106.716C80.1996 85.3004 18.0941 82.1616 -25.0183 42.5164C-70.5912 0.608521 -95.7175 -58.1386 -110.056 -118.368C-125.397 -182.813 -150.816 -261.161 -109.671 -313.08C-66.9244 -367.018 20.5467 -343.328 85.7294 -365.414C131.175 -380.813 168.809 -408.29 214.506 -422.924Z" fill="#F9F2E8"/>
</g>
<defs>
<linearGradient id="paint0_linear" x1="187.5" y1="0" x2="187.5" y2="667" gradientUnits="userSpaceOnUse">
<stop stop-color="#FF8552"/>
<stop offset="0.392242" stop-color="white"/>
</linearGradient>
<clipPath id="clip0">
<rect width="375" height="667" fill="white"/>
</clipPath>
</defs>
</svg>
