<svg width="375" height="667" viewBox="0 0 375 667" fill="none" xmlns="http://www.w3.org/2000/svg">
<g clip-path="url(#clip0)">
<rect width="375" height="667" fill="url(#paint0_linear)"/>
<path fill-rule="evenodd" clip-rule="evenodd" d="M45.2553 -170.331C89.3263 -172.188 132.632 -221.187 171.027 -199.45C208.445 -178.265 205.974 -121.787 206.983 -78.7668C207.783 -44.5883 180.851 -17.4667 176.085 16.3866C169.628 62.244 203.486 115.812 174.504 151.909C146.222 187.133 90.1891 183.694 45.2553 179.332C3.35495 175.264 -40.6023 161.309 -66.977 128.465C-91.2743 98.2082 -75.7271 53.9358 -85.5913 16.3921C-94.5782 -17.8125 -124.041 -45.2263 -121.888 -80.5284C-119.41 -121.159 -108.884 -169.917 -73.0537 -189.168C-36.9868 -208.546 4.35769 -168.608 45.2553 -170.331Z" fill="#FF8552" fill-opacity="0.6"/>
<path fill-rule="evenodd" clip-rule="evenodd" d="M214.506 -422.924C279.611 -443.772 348.636 -499.345 410.021 -469.26C469.77 -439.977 473.57 -354.619 486.894 -289.428C497.979 -235.19 499.051 -178.839 480.001 -126.861C463.021 -80.5322 410.286 -59.1873 386.635 -15.8824C353.222 45.2997 377.31 145.442 314.627 175.947C255.654 204.647 195.758 130.698 134.714 106.716C80.1996 85.3004 18.0941 82.1616 -25.0183 42.5164C-70.5912 0.608521 -95.7175 -58.1386 -110.056 -118.368C-125.397 -182.813 -150.816 -261.161 -109.671 -313.08C-66.9244 -367.018 20.5467 -343.328 85.7294 -365.414C131.175 -380.813 168.809 -408.29 214.506 -422.924Z" fill="#F9F2E8"/>
<path d="M35.1209 35.932C36.5849 36.196 37.8089 36.916 38.7929 38.092C39.8009 39.268 40.3049 40.648 40.3049 42.232C40.3049 43.528 39.9929 44.692 39.3689 45.724C38.7689 46.732 37.8569 47.536 36.6329 48.136C35.4329 48.712 33.9689 49 32.2409 49H24.2129V23.728H32.0969C34.6169 23.728 36.5129 24.316 37.7849 25.492C39.0809 26.644 39.7289 28.144 39.7289 29.992C39.7289 31.6 39.2969 32.908 38.4329 33.916C37.5689 34.9 36.4649 35.572 35.1209 35.932ZM25.8329 35.212H32.1689C34.0649 35.212 35.5169 34.768 36.5249 33.88C37.5569 32.968 38.0729 31.72 38.0729 30.136C38.0729 28.6 37.5689 27.388 36.5609 26.5C35.5529 25.612 34.0289 25.168 31.9889 25.168H25.8329V35.212ZM32.1329 47.596C34.1729 47.596 35.7689 47.116 36.9209 46.156C38.0969 45.172 38.6849 43.828 38.6849 42.124C38.6849 40.444 38.0849 39.112 36.8849 38.128C35.7089 37.12 34.0889 36.616 32.0249 36.616H25.8329V47.596H32.1329ZM54.2405 47.632H63.6365V49H52.6205V23.728H54.2405V47.632ZM76.4958 23.728V49H74.8758V23.728H76.4958ZM108.066 49H106.446L91.6144 26.392V49H89.9944V23.764H91.6144L106.446 46.3V23.764H108.066V49ZM134.814 49L123.186 37.084V49H121.566V23.728H123.186V35.752L134.814 23.728H136.902L124.59 36.4L136.938 49H134.814Z" fill="#02196C"/>
<path d="M90.2482 60.6391L90.2187 60.6277C89.281 60.2641 88.474 59.5357 87.9048 58.5517C88.4892 57.9633 89.0527 57.3338 89.5909 56.6613C89.8951 56.2812 89.8951 55.6651 89.5909 55.285C89.2868 54.905 88.7936 54.905 88.4895 55.285C85.4349 59.1017 81.5332 61.475 77.3141 62.1318C77.2859 62.1342 77.258 62.1383 77.2306 62.1443C76.4629 62.2597 75.6851 62.3187 74.9 62.3188L74.8987 62.3187L74.8975 62.3188C74.1124 62.3188 73.3345 62.2597 72.5668 62.1443C72.5394 62.1382 72.5116 62.1341 72.4833 62.1318C68.2642 61.475 64.3625 59.1017 61.3079 55.285C61.0038 54.9051 60.5106 54.905 60.2065 55.285C59.9023 55.665 59.9023 56.2812 60.2065 56.6613C60.7447 57.3338 61.3082 57.9634 61.8926 58.5517C61.3235 59.5357 60.5166 60.2642 59.5798 60.6273L59.5492 60.6391C59.1382 60.7977 58.9079 61.3425 59.0349 61.8561C59.1382 62.274 59.4462 62.5423 59.7788 62.5423C59.8549 62.5423 59.9324 62.5282 60.0089 62.4987L60.0404 62.4865C61.2951 62 62.3757 61.0279 63.1409 59.7151C63.4073 59.9445 63.6774 60.1658 63.9512 60.3786C63.5708 61.8698 62.6806 63.0747 61.4998 63.66L61.2587 63.7795C60.8588 63.9776 60.6633 64.5432 60.8218 65.0428C60.943 65.4248 61.236 65.6574 61.546 65.6574C61.6415 65.6574 61.7387 65.6352 61.8329 65.5886L62.0743 65.469C63.5894 64.7179 64.757 63.2234 65.3277 61.3588C65.6269 61.5532 65.9295 61.7382 66.2355 61.9138C66.1463 63.5826 65.3741 65.0722 64.1752 65.8537L64.1288 65.884C63.7474 66.1324 63.5994 66.7201 63.7982 67.1967C63.9371 67.5297 64.2084 67.7202 64.4894 67.7202C64.6107 67.7202 64.7338 67.6847 64.8488 67.6098L64.8954 67.5794C66.4249 66.5823 67.4594 64.7649 67.7306 62.684C68.0609 62.8353 68.3943 62.9764 68.7309 63.1066C68.6863 64.6502 68.2073 66.1173 67.3686 67.2605C67.0779 67.6567 67.0994 68.2722 67.4165 68.6355C67.5661 68.8067 67.7546 68.8912 67.9425 68.8912C68.1533 68.8912 68.3634 68.7849 68.5169 68.5756C69.5262 67.1998 70.1352 65.4628 70.2658 63.6203C70.7134 63.747 71.1656 63.8544 71.6214 63.944C71.5204 65.439 71.1533 66.8928 70.5424 68.1917L70.4376 68.4146C70.2197 68.8781 70.3438 69.4744 70.7147 69.7467C70.8387 69.8376 70.9744 69.8809 71.1086 69.8809C71.3757 69.8809 71.6357 69.7089 71.7808 69.4003L71.8856 69.1775C72.6055 67.6469 73.042 65.9357 73.1689 64.175C73.4846 64.2073 73.8016 64.2305 74.1198 64.2451V70.0269C74.1198 70.5643 74.4685 71 74.8987 71C75.3288 71 75.6775 70.5642 75.6775 70.0269V64.2451C75.9958 64.2305 76.3128 64.2073 76.6284 64.175C76.7554 65.9355 77.1918 67.6469 77.9116 69.1773L78.0165 69.4003C78.1616 69.709 78.4217 69.8809 78.6888 69.8809C78.8228 69.8809 78.9587 69.8376 79.0826 69.7467C79.4535 69.4744 79.5775 68.8781 79.3597 68.4146L79.2548 68.1915C78.6441 66.8928 78.2769 65.4388 78.1759 63.944C78.6317 63.8543 79.0839 63.747 79.5315 63.6203C79.6621 65.4627 80.2711 67.1998 81.2804 68.5756C81.434 68.7849 81.644 68.8912 81.8548 68.8912C82.0428 68.8912 82.2313 68.8066 82.3808 68.6355C82.6979 68.2722 82.7194 67.6567 82.4287 67.2605C81.5901 66.1173 81.111 64.65 81.0665 63.1066C81.403 62.9764 81.7364 62.8354 82.0667 62.684C82.3379 64.765 83.3725 66.5824 84.9021 67.5795L84.9486 67.6098C85.0636 67.6847 85.1867 67.7202 85.3079 67.7202C85.589 67.7202 85.8603 67.5296 85.9991 67.1967C86.198 66.7201 86.05 66.1323 85.6685 65.884L85.6223 65.8538C84.4233 65.0723 83.651 63.5826 83.5618 61.9138C83.8679 61.7382 84.1705 61.5532 84.4696 61.3588C85.0402 63.2234 86.2079 64.7179 87.7231 65.4691L87.9644 65.5887C88.0587 65.6353 88.1558 65.6575 88.2514 65.6575C88.5613 65.6575 88.8543 65.4246 88.9755 65.0429C89.1341 64.5432 88.9385 63.9777 88.5386 63.7796L88.2975 63.66C87.1167 63.0746 86.2264 61.8697 85.8461 60.3785C86.1199 60.1657 86.3899 59.9444 86.6563 59.715C87.4215 61.0279 88.5023 62 89.7579 62.4868L89.7884 62.4986C89.865 62.5282 89.9424 62.5422 90.0185 62.5422C90.3511 62.5422 90.6591 62.2738 90.7623 61.856C90.8895 61.3425 90.6593 60.7977 90.2482 60.6391Z" fill="#FF8552"/>
</g>
<defs>
<linearGradient id="paint0_linear" x1="187.5" y1="0" x2="187.5" y2="667" gradientUnits="userSpaceOnUse">
<stop stop-color="#FF8552"/>
<stop offset="0.392242" stop-color="white"/>
</linearGradient>
<clipPath id="clip0">
<rect width="375" height="667" fill="white"/>
</clipPath>
</defs>
</svg>
