<svg width="375" height="667" viewBox="0 0 375 667" fill="none" xmlns="http://www.w3.org/2000/svg">
<g clip-path="url(#clip0)">
<rect width="375" height="667" fill="url(#paint0_linear)"/>
<path fill-rule="evenodd" clip-rule="evenodd" d="M73.2553 -256.331C117.326 -258.188 160.632 -307.187 199.027 -285.45C236.445 -264.265 233.974 -207.787 234.983 -164.767C235.783 -130.588 208.851 -103.467 204.085 -69.6134C197.628 -23.756 231.486 29.8123 202.504 65.9093C174.222 101.133 118.189 97.6944 73.2553 93.332C31.3549 89.264 -12.6023 75.3087 -38.977 42.465C-63.2743 12.2082 -47.7271 -32.0642 -57.5913 -69.6079C-66.5782 -103.812 -96.041 -131.226 -93.8879 -166.528C-91.4097 -207.159 -80.8842 -255.917 -45.0537 -275.168C-8.98677 -294.546 32.3577 -254.608 73.2553 -256.331Z" fill="#F9F2E8"/>
<path fill-rule="evenodd" clip-rule="evenodd" d="M242.506 -508.924C307.611 -529.772 376.636 -585.345 438.021 -555.26C497.77 -525.977 501.57 -440.619 514.894 -375.428C525.979 -321.19 527.051 -264.839 508.001 -212.861C491.021 -166.532 438.286 -145.187 414.635 -101.882C381.222 -40.7003 405.31 59.4422 342.627 89.9472C283.654 118.647 223.758 44.6981 162.714 20.7164C108.2 -0.699585 46.0941 -3.83838 2.9817 -43.4836C-42.5912 -85.3915 -67.7175 -144.139 -82.0556 -204.368C-97.3972 -268.813 -122.816 -347.161 -81.6707 -399.08C-38.9244 -453.018 48.5467 -429.328 113.729 -451.414C159.175 -466.813 196.809 -494.29 242.506 -508.924Z" fill="#FFB297"/>
</g>
<defs>
<linearGradient id="paint0_linear" x1="187.5" y1="0" x2="187.5" y2="667" gradientUnits="userSpaceOnUse">
<stop stop-color="#FF8552"/>
<stop offset="0.229167" stop-color="white"/>
</linearGradient>
<clipPath id="clip0">
<rect width="375" height="667" fill="white"/>
</clipPath>
</defs>
</svg>
