<svg width="375" height="667" viewBox="0 0 375 667" fill="none" xmlns="http://www.w3.org/2000/svg">
<g clip-path="url(#clip0)">
<rect width="375" height="667" fill="url(#paint0_linear)"/>
<path fill-rule="evenodd" clip-rule="evenodd" d="M45.2553 -170.331C89.3263 -172.188 132.632 -221.187 171.027 -199.45C208.445 -178.265 205.974 -121.787 206.983 -78.7668C207.783 -44.5883 180.851 -17.4667 176.085 16.3866C169.628 62.244 203.486 115.812 174.504 151.909C146.222 187.133 90.1891 183.694 45.2553 179.332C3.35495 175.264 -40.6023 161.309 -66.977 128.465C-91.2743 98.2082 -75.7271 53.9358 -85.5913 16.3921C-94.5782 -17.8125 -124.041 -45.2263 -121.888 -80.5284C-119.41 -121.159 -108.884 -169.917 -73.0537 -189.168C-36.9868 -208.546 4.35769 -168.608 45.2553 -170.331Z" fill="#FF8552" fill-opacity="0.6"/>
<path fill-rule="evenodd" clip-rule="evenodd" d="M214.506 -422.924C279.611 -443.772 348.636 -499.345 410.021 -469.26C469.77 -439.977 473.57 -354.619 486.894 -289.428C497.979 -235.19 499.051 -178.839 480.001 -126.861C463.021 -80.5322 410.286 -59.1873 386.635 -15.8824C353.222 45.2997 377.31 145.442 314.627 175.947C255.654 204.647 195.758 130.698 134.714 106.716C80.1996 85.3004 18.0941 82.1616 -25.0183 42.5164C-70.5912 0.608521 -95.7175 -58.1386 -110.056 -118.368C-125.397 -182.813 -150.816 -261.161 -109.671 -313.08C-66.9244 -367.018 20.5467 -343.328 85.7294 -365.414C131.175 -380.813 168.809 -408.29 214.506 -422.924Z" fill="#FAF5EE"/>
<path d="M53.344 489.224H57.024V491H51.104V479.832H53.344V489.224ZM63.6318 491.112C62.5864 491.112 61.6264 490.867 60.7518 490.376C59.8771 489.885 59.1838 489.208 58.6718 488.344C58.1598 487.469 57.9038 486.483 57.9038 485.384C57.9038 484.296 58.1598 483.32 58.6718 482.456C59.1838 481.581 59.8771 480.899 60.7518 480.408C61.6264 479.917 62.5864 479.672 63.6318 479.672C64.6878 479.672 65.6478 479.917 66.5118 480.408C67.3864 480.899 68.0744 481.581 68.5758 482.456C69.0878 483.32 69.3438 484.296 69.3438 485.384C69.3438 486.483 69.0878 487.469 68.5758 488.344C68.0744 489.208 67.3864 489.885 66.5118 490.376C65.6371 490.867 64.6771 491.112 63.6318 491.112ZM63.6318 489.112C64.3038 489.112 64.8958 488.963 65.4078 488.664C65.9198 488.355 66.3198 487.917 66.6078 487.352C66.8958 486.787 67.0398 486.131 67.0398 485.384C67.0398 484.637 66.8958 483.987 66.6078 483.432C66.3198 482.867 65.9198 482.435 65.4078 482.136C64.8958 481.837 64.3038 481.688 63.6318 481.688C62.9598 481.688 62.3624 481.837 61.8398 482.136C61.3278 482.435 60.9278 482.867 60.6398 483.432C60.3518 483.987 60.2078 484.637 60.2078 485.384C60.2078 486.131 60.3518 486.787 60.6398 487.352C60.9278 487.917 61.3278 488.355 61.8398 488.664C62.3624 488.963 62.9598 489.112 63.6318 489.112ZM78.7863 483.192C78.5303 482.723 78.1783 482.365 77.7303 482.12C77.2823 481.875 76.7596 481.752 76.1623 481.752C75.5009 481.752 74.9143 481.901 74.4023 482.2C73.8903 482.499 73.4903 482.925 73.2023 483.48C72.9143 484.035 72.7703 484.675 72.7703 485.4C72.7703 486.147 72.9143 486.797 73.2023 487.352C73.5009 487.907 73.9116 488.333 74.4343 488.632C74.9569 488.931 75.5649 489.08 76.2583 489.08C77.1116 489.08 77.8103 488.856 78.3542 488.408C78.8983 487.949 79.2556 487.315 79.4263 486.504H75.5863V484.792H81.6343V486.744C81.4849 487.523 81.1649 488.243 80.6743 488.904C80.1836 489.565 79.5489 490.099 78.7703 490.504C78.0023 490.899 77.1383 491.096 76.1783 491.096C75.1009 491.096 74.1249 490.856 73.2503 490.376C72.3863 489.885 71.7036 489.208 71.2023 488.344C70.7116 487.48 70.4663 486.499 70.4663 485.4C70.4663 484.301 70.7116 483.32 71.2023 482.456C71.7036 481.581 72.3863 480.904 73.2503 480.424C74.1249 479.933 75.0956 479.688 76.1623 479.688C77.4209 479.688 78.5143 479.997 79.4423 480.616C80.3703 481.224 81.0103 482.083 81.3623 483.192H78.7863ZM89.344 479.832V491H87.104V479.832H89.344ZM101.109 491H98.8691L93.7971 483.336V491H91.5571V479.816H93.7971L98.8691 487.496V479.816H101.109V491Z" fill="#02196C"/>
<path d="M54.96 614.112C54.1813 614.112 53.4773 613.979 52.848 613.712C52.2293 613.445 51.7387 613.061 51.376 612.56C51.0133 612.059 50.8267 611.467 50.816 610.784H53.216C53.248 611.243 53.408 611.605 53.696 611.872C53.9947 612.139 54.4 612.272 54.912 612.272C55.4347 612.272 55.8453 612.149 56.144 611.904C56.4427 611.648 56.592 611.317 56.592 610.912C56.592 610.581 56.4907 610.309 56.288 610.096C56.0853 609.883 55.8293 609.717 55.52 609.6C55.2213 609.472 54.8053 609.333 54.272 609.184C53.5467 608.971 52.9547 608.763 52.496 608.56C52.048 608.347 51.6587 608.032 51.328 607.616C51.008 607.189 50.848 606.624 50.848 605.92C50.848 605.259 51.0133 604.683 51.344 604.192C51.6747 603.701 52.1387 603.328 52.736 603.072C53.3333 602.805 54.016 602.672 54.784 602.672C55.936 602.672 56.8693 602.955 57.584 603.52C58.3093 604.075 58.7093 604.853 58.784 605.856H56.32C56.2987 605.472 56.1333 605.157 55.824 604.912C55.5253 604.656 55.1253 604.528 54.624 604.528C54.1867 604.528 53.8347 604.64 53.568 604.864C53.312 605.088 53.184 605.413 53.184 605.84C53.184 606.139 53.28 606.389 53.472 606.592C53.6747 606.784 53.92 606.944 54.208 607.072C54.5067 607.189 54.9227 607.328 55.456 607.488C56.1813 607.701 56.7733 607.915 57.232 608.128C57.6907 608.341 58.0853 608.661 58.416 609.088C58.7467 609.515 58.912 610.075 58.912 610.768C58.912 611.365 58.7573 611.92 58.448 612.432C58.1387 612.944 57.6853 613.355 57.088 613.664C56.4907 613.963 55.7813 614.112 54.96 614.112ZM63.094 602.832V614H60.854V602.832H63.094ZM73.0831 606.192C72.8271 605.723 72.4751 605.365 72.0271 605.12C71.5791 604.875 71.0565 604.752 70.4591 604.752C69.7978 604.752 69.2111 604.901 68.6991 605.2C68.1871 605.499 67.7871 605.925 67.4991 606.48C67.2111 607.035 67.0671 607.675 67.0671 608.4C67.0671 609.147 67.2111 609.797 67.4991 610.352C67.7978 610.907 68.2085 611.333 68.7311 611.632C69.2538 611.931 69.8618 612.08 70.5551 612.08C71.4085 612.08 72.1071 611.856 72.6511 611.408C73.1951 610.949 73.5525 610.315 73.7231 609.504H69.8831V607.792H75.9311V609.744C75.7818 610.523 75.4618 611.243 74.9711 611.904C74.4805 612.565 73.8458 613.099 73.0671 613.504C72.2991 613.899 71.4351 614.096 70.4751 614.096C69.3978 614.096 68.4218 613.856 67.5471 613.376C66.6831 612.885 66.0005 612.208 65.4991 611.344C65.0085 610.48 64.7631 609.499 64.7631 608.4C64.7631 607.301 65.0085 606.32 65.4991 605.456C66.0005 604.581 66.6831 603.904 67.5471 603.424C68.4218 602.933 69.3925 602.688 70.4591 602.688C71.7178 602.688 72.8111 602.997 73.7391 603.616C74.6671 604.224 75.3071 605.083 75.6591 606.192H73.0831ZM87.1404 614H84.9004L79.8284 606.336V614H77.5884V602.816H79.8284L84.9004 610.496V602.816H87.1404V614ZM95.3745 602.832V609.744C95.3745 610.501 95.5718 611.083 95.9665 611.488C96.3612 611.883 96.9158 612.08 97.6305 612.08C98.3558 612.08 98.9158 611.883 99.3105 611.488C99.7052 611.083 99.9025 610.501 99.9025 609.744V602.832H102.159V609.728C102.159 610.677 101.951 611.483 101.535 612.144C101.129 612.795 100.58 613.285 99.8865 613.616C99.2038 613.947 98.4412 614.112 97.5985 614.112C96.7665 614.112 96.0092 613.947 95.3265 613.616C94.6545 613.285 94.1212 612.795 93.7265 612.144C93.3318 611.483 93.1345 610.677 93.1345 609.728V602.832H95.3745ZM112.467 606.288C112.467 606.885 112.323 607.445 112.035 607.968C111.757 608.491 111.315 608.912 110.707 609.232C110.109 609.552 109.352 609.712 108.435 609.712H106.563V614H104.323V602.832H108.435C109.299 602.832 110.035 602.981 110.643 603.28C111.251 603.579 111.704 603.989 112.003 604.512C112.312 605.035 112.467 605.627 112.467 606.288ZM108.339 607.904C108.957 607.904 109.416 607.765 109.715 607.488C110.013 607.2 110.163 606.8 110.163 606.288C110.163 605.2 109.555 604.656 108.339 604.656H106.563V607.904H108.339Z" fill="#02196C"/>
<path d="M176 602.832V604.64H171.344V607.504H174.912V609.28H171.344V614H169.104V602.832H176ZM182.772 614.112C181.727 614.112 180.767 613.867 179.892 613.376C179.018 612.885 178.324 612.208 177.812 611.344C177.3 610.469 177.044 609.483 177.044 608.384C177.044 607.296 177.3 606.32 177.812 605.456C178.324 604.581 179.018 603.899 179.892 603.408C180.767 602.917 181.727 602.672 182.772 602.672C183.828 602.672 184.788 602.917 185.652 603.408C186.527 603.899 187.215 604.581 187.716 605.456C188.228 606.32 188.484 607.296 188.484 608.384C188.484 609.483 188.228 610.469 187.716 611.344C187.215 612.208 186.527 612.885 185.652 613.376C184.778 613.867 183.818 614.112 182.772 614.112ZM182.772 612.112C183.444 612.112 184.036 611.963 184.548 611.664C185.06 611.355 185.46 610.917 185.748 610.352C186.036 609.787 186.18 609.131 186.18 608.384C186.18 607.637 186.036 606.987 185.748 606.432C185.46 605.867 185.06 605.435 184.548 605.136C184.036 604.837 183.444 604.688 182.772 604.688C182.1 604.688 181.503 604.837 180.98 605.136C180.468 605.435 180.068 605.867 179.78 606.432C179.492 606.987 179.348 607.637 179.348 608.384C179.348 609.131 179.492 609.787 179.78 610.352C180.068 610.917 180.468 611.355 180.98 611.664C181.503 611.963 182.1 612.112 182.772 612.112ZM195.911 614L193.447 609.648H192.391V614H190.151V602.832H194.343C195.207 602.832 195.943 602.987 196.551 603.296C197.159 603.595 197.612 604.005 197.911 604.528C198.22 605.04 198.375 605.616 198.375 606.256C198.375 606.992 198.162 607.659 197.735 608.256C197.308 608.843 196.674 609.248 195.831 609.472L198.503 614H195.911ZM192.391 607.968H194.263C194.871 607.968 195.324 607.824 195.623 607.536C195.922 607.237 196.071 606.827 196.071 606.304C196.071 605.792 195.922 605.397 195.623 605.12C195.324 604.832 194.871 604.688 194.263 604.688H192.391V607.968ZM208.177 606.192C207.921 605.723 207.569 605.365 207.121 605.12C206.673 604.875 206.15 604.752 205.553 604.752C204.892 604.752 204.305 604.901 203.793 605.2C203.281 605.499 202.881 605.925 202.593 606.48C202.305 607.035 202.161 607.675 202.161 608.4C202.161 609.147 202.305 609.797 202.593 610.352C202.892 610.907 203.302 611.333 203.825 611.632C204.348 611.931 204.956 612.08 205.649 612.08C206.502 612.08 207.201 611.856 207.745 611.408C208.289 610.949 208.646 610.315 208.817 609.504H204.977V607.792H211.025V609.744C210.876 610.523 210.556 611.243 210.065 611.904C209.574 612.565 208.94 613.099 208.161 613.504C207.393 613.899 206.529 614.096 205.569 614.096C204.492 614.096 203.516 613.856 202.641 613.376C201.777 612.885 201.094 612.208 200.593 611.344C200.102 610.48 199.857 609.499 199.857 608.4C199.857 607.301 200.102 606.32 200.593 605.456C201.094 604.581 201.777 603.904 202.641 603.424C203.516 602.933 204.486 602.688 205.553 602.688C206.812 602.688 207.905 602.997 208.833 603.616C209.761 604.224 210.401 605.083 210.753 606.192H208.177ZM217.866 614.112C216.821 614.112 215.861 613.867 214.986 613.376C214.111 612.885 213.418 612.208 212.906 611.344C212.394 610.469 212.138 609.483 212.138 608.384C212.138 607.296 212.394 606.32 212.906 605.456C213.418 604.581 214.111 603.899 214.986 603.408C215.861 602.917 216.821 602.672 217.866 602.672C218.922 602.672 219.882 602.917 220.746 603.408C221.621 603.899 222.309 604.581 222.81 605.456C223.322 606.32 223.578 607.296 223.578 608.384C223.578 609.483 223.322 610.469 222.81 611.344C222.309 612.208 221.621 612.885 220.746 613.376C219.871 613.867 218.911 614.112 217.866 614.112ZM217.866 612.112C218.538 612.112 219.13 611.963 219.642 611.664C220.154 611.355 220.554 610.917 220.842 610.352C221.13 609.787 221.274 609.131 221.274 608.384C221.274 607.637 221.13 606.987 220.842 606.432C220.554 605.867 220.154 605.435 219.642 605.136C219.13 604.837 218.538 604.688 217.866 604.688C217.194 604.688 216.597 604.837 216.074 605.136C215.562 605.435 215.162 605.867 214.874 606.432C214.586 606.987 214.442 607.637 214.442 608.384C214.442 609.131 214.586 609.787 214.874 610.352C215.162 610.917 215.562 611.355 216.074 611.664C216.597 611.963 217.194 612.112 217.866 612.112ZM232.845 602.832V604.64H229.869V614H227.629V604.64H224.653V602.832H232.845Z" fill="#02196C"/>
<rect x="50" y="621" width="92" height="4" fill="#FF8552" fill-opacity="0.6"/>
<rect x="168" y="621" width="92" height="4" fill="#FF8552" fill-opacity="0.6"/>
<circle cx="302" cy="485" r="24" fill="#FF8552"/>
<path d="M311.68 483.706L304.458 476.326C304.251 476.116 303.977 476 303.684 476C303.39 476 303.116 476.116 302.91 476.326L302.254 476.996C302.048 477.207 301.934 477.488 301.934 477.787C301.934 478.087 302.048 478.377 302.254 478.587L306.467 482.902H293.08C292.477 482.902 292 483.385 292 484.002V484.949C292 485.566 292.477 486.097 293.08 486.097H306.515L302.254 490.436C302.048 490.647 301.934 490.92 301.934 491.22C301.934 491.519 302.048 491.796 302.254 492.007L302.91 492.675C303.116 492.885 303.39 493 303.684 493C303.977 493 304.252 492.884 304.458 492.673L311.68 485.293C311.887 485.082 312.001 484.8 312 484.5C312.001 484.199 311.887 483.917 311.68 483.706Z" fill="#FAF5EE"/>
<path d="M52.646 288.558V291.414H56.006V292.716H52.646V295.698H56.426V297H51.05V287.256H56.426V288.558H52.646ZM68.6398 287.27V297H67.0438V290.336L64.0758 297H62.9698L59.9878 290.336V297H58.3918V287.27H60.1138L63.5298 294.9L66.9318 287.27H68.6398ZM76.6035 295.012H72.5295L71.8295 297H70.1635L73.6495 287.256H75.4975L78.9835 297H77.3035L76.6035 295.012ZM76.1555 293.71L74.5735 289.188L72.9775 293.71H76.1555ZM82.0952 287.27V297H80.4992V287.27H82.0952ZM85.7866 295.712H89.0766V297H84.1906V287.27H85.7866V295.712Z" fill="#898989" fill-opacity="0.6"/>
<line x1="50" y1="318.5" x2="326" y2="318.5" stroke="#C4C4C4" stroke-opacity="0.6"/>
<path d="M57.854 373.168C57.854 373.663 57.7373 374.129 57.504 374.568C57.2707 375.007 56.8973 375.366 56.384 375.646C55.8707 375.917 55.2127 376.052 54.41 376.052H52.646V380H51.05V370.27H54.41C55.1567 370.27 55.7867 370.401 56.3 370.662C56.8227 370.914 57.21 371.259 57.462 371.698C57.7233 372.137 57.854 372.627 57.854 373.168ZM54.41 374.75C55.0167 374.75 55.4693 374.615 55.768 374.344C56.0667 374.064 56.216 373.672 56.216 373.168C56.216 372.104 55.614 371.572 54.41 371.572H52.646V374.75H54.41ZM65.2422 378.012H61.1682L60.4682 380H58.8022L62.2882 370.256H64.1362L67.6222 380H65.9422L65.2422 378.012ZM64.7942 376.71L63.2122 372.188L61.6162 376.71H64.7942ZM72.3439 380.098C71.6906 380.098 71.1026 379.986 70.5799 379.762C70.0572 379.529 69.6466 379.202 69.3479 378.782C69.0492 378.362 68.8999 377.872 68.8999 377.312H70.6079C70.6452 377.732 70.8086 378.077 71.0979 378.348C71.3966 378.619 71.8119 378.754 72.3439 378.754C72.8946 378.754 73.3239 378.623 73.6319 378.362C73.9399 378.091 74.0939 377.746 74.0939 377.326C74.0939 376.999 73.9959 376.733 73.7999 376.528C73.6132 376.323 73.3752 376.164 73.0859 376.052C72.8059 375.94 72.4139 375.819 71.9099 375.688C71.2752 375.52 70.7572 375.352 70.3559 375.184C69.9639 375.007 69.6279 374.736 69.3479 374.372C69.0679 374.008 68.9279 373.523 68.9279 372.916C68.9279 372.356 69.0679 371.866 69.3479 371.446C69.6279 371.026 70.0199 370.704 70.5239 370.48C71.0279 370.256 71.6112 370.144 72.2739 370.144C73.2166 370.144 73.9866 370.382 74.5839 370.858C75.1906 371.325 75.5266 371.969 75.5919 372.79H73.8279C73.7999 372.435 73.6319 372.132 73.3239 371.88C73.0159 371.628 72.6099 371.502 72.1059 371.502C71.6486 371.502 71.2752 371.619 70.9859 371.852C70.6966 372.085 70.5519 372.421 70.5519 372.86C70.5519 373.159 70.6406 373.406 70.8179 373.602C71.0046 373.789 71.2379 373.938 71.5179 374.05C71.7979 374.162 72.1806 374.283 72.6659 374.414C73.3099 374.591 73.8326 374.769 74.2339 374.946C74.6446 375.123 74.9899 375.399 75.2699 375.772C75.5592 376.136 75.7039 376.626 75.7039 377.242C75.7039 377.737 75.5686 378.203 75.2979 378.642C75.0366 379.081 74.6492 379.435 74.1359 379.706C73.6319 379.967 73.0346 380.098 72.3439 380.098ZM80.7931 380.098C80.1398 380.098 79.5518 379.986 79.0291 379.762C78.5064 379.529 78.0958 379.202 77.7971 378.782C77.4984 378.362 77.3491 377.872 77.3491 377.312H79.0571C79.0944 377.732 79.2578 378.077 79.5471 378.348C79.8458 378.619 80.2611 378.754 80.7931 378.754C81.3438 378.754 81.7731 378.623 82.0811 378.362C82.3891 378.091 82.5431 377.746 82.5431 377.326C82.5431 376.999 82.4451 376.733 82.2491 376.528C82.0624 376.323 81.8244 376.164 81.5351 376.052C81.2551 375.94 80.8631 375.819 80.3591 375.688C79.7244 375.52 79.2064 375.352 78.8051 375.184C78.4131 375.007 78.0771 374.736 77.7971 374.372C77.5171 374.008 77.3771 373.523 77.3771 372.916C77.3771 372.356 77.5171 371.866 77.7971 371.446C78.0771 371.026 78.4691 370.704 78.9731 370.48C79.4771 370.256 80.0604 370.144 80.7231 370.144C81.6658 370.144 82.4358 370.382 83.0331 370.858C83.6398 371.325 83.9758 371.969 84.0411 372.79H82.2771C82.2491 372.435 82.0811 372.132 81.7731 371.88C81.4651 371.628 81.0591 371.502 80.5551 371.502C80.0978 371.502 79.7244 371.619 79.4351 371.852C79.1458 372.085 79.0011 372.421 79.0011 372.86C79.0011 373.159 79.0898 373.406 79.2671 373.602C79.4538 373.789 79.6871 373.938 79.9671 374.05C80.2471 374.162 80.6298 374.283 81.1151 374.414C81.7591 374.591 82.2818 374.769 82.6831 374.946C83.0938 375.123 83.4391 375.399 83.7191 375.772C84.0084 376.136 84.1531 376.626 84.1531 377.242C84.1531 377.737 84.0178 378.203 83.7471 378.642C83.4858 379.081 83.0984 379.435 82.5851 379.706C82.0811 379.967 81.4838 380.098 80.7931 380.098ZM98.7063 370.27L95.8223 380H94.0163L91.9723 372.636L89.8023 380L88.0103 380.014L85.2523 370.27H86.9463L88.9623 378.194L91.1463 370.27H92.9383L94.9683 378.152L96.9983 370.27H98.7063ZM104.461 380.098C103.555 380.098 102.72 379.888 101.955 379.468C101.199 379.039 100.597 378.446 100.149 377.69C99.71 376.925 99.4907 376.066 99.4907 375.114C99.4907 374.162 99.71 373.308 100.149 372.552C100.597 371.796 101.199 371.208 101.955 370.788C102.72 370.359 103.555 370.144 104.461 370.144C105.375 370.144 106.211 370.359 106.967 370.788C107.732 371.208 108.334 371.796 108.773 372.552C109.211 373.308 109.431 374.162 109.431 375.114C109.431 376.066 109.211 376.925 108.773 377.69C108.334 378.446 107.732 379.039 106.967 379.468C106.211 379.888 105.375 380.098 104.461 380.098ZM104.461 378.712C105.105 378.712 105.679 378.567 106.183 378.278C106.687 377.979 107.079 377.559 107.359 377.018C107.648 376.467 107.793 375.833 107.793 375.114C107.793 374.395 107.648 373.765 107.359 373.224C107.079 372.683 106.687 372.267 106.183 371.978C105.679 371.689 105.105 371.544 104.461 371.544C103.817 371.544 103.243 371.689 102.739 371.978C102.235 372.267 101.838 372.683 101.549 373.224C101.269 373.765 101.129 374.395 101.129 375.114C101.129 375.833 101.269 376.467 101.549 377.018C101.838 377.559 102.235 377.979 102.739 378.278C103.243 378.567 103.817 378.712 104.461 378.712ZM116.055 380L113.815 376.108H112.597V380H111.001V370.27H114.361C115.108 370.27 115.738 370.401 116.251 370.662C116.774 370.923 117.161 371.273 117.413 371.712C117.675 372.151 117.805 372.641 117.805 373.182C117.805 373.817 117.619 374.395 117.245 374.918C116.881 375.431 116.317 375.781 115.551 375.968L117.959 380H116.055ZM112.597 374.834H114.361C114.959 374.834 115.407 374.685 115.705 374.386C116.013 374.087 116.167 373.686 116.167 373.182C116.167 372.678 116.018 372.286 115.719 372.006C115.421 371.717 114.968 371.572 114.361 371.572H112.597V374.834ZM123.025 370.27C124.061 370.27 124.966 370.471 125.741 370.872C126.525 371.264 127.127 371.833 127.547 372.58C127.976 373.317 128.191 374.181 128.191 375.17C128.191 376.159 127.976 377.018 127.547 377.746C127.127 378.474 126.525 379.034 125.741 379.426C124.966 379.809 124.061 380 123.025 380H119.847V370.27H123.025ZM123.025 378.698C124.164 378.698 125.036 378.39 125.643 377.774C126.25 377.158 126.553 376.29 126.553 375.17C126.553 374.041 126.25 373.159 125.643 372.524C125.036 371.889 124.164 371.572 123.025 371.572H121.443V378.698H123.025Z" fill="#898989" fill-opacity="0.6"/>
<line x1="49" y1="401.5" x2="325" y2="401.5" stroke="#C4C4C4" stroke-opacity="0.6"/>
<g filter="url(#filter0_d)">
<path d="M0 120H275C330.228 120 375 164.772 375 220V621C375 629.284 368.284 636 360 636H15C6.71574 636 0 629.284 0 621V120Z" fill="url(#paint1_linear)"/>
</g>
<path d="M0 63C0.335697 81.6724 15.0057 119.214 71 120H0V63Z" fill="#F9F2E8"/>
</g>
<defs>
<filter id="filter0_d" x="-18" y="104" width="419" height="560" filterUnits="userSpaceOnUse" color-interpolation-filters="sRGB">
<feFlood flood-opacity="0" result="BackgroundImageFix"/>
<feColorMatrix in="SourceAlpha" type="matrix" values="0 0 0 0 0 0 0 0 0 0 0 0 0 0 0 0 0 0 127 0"/>
<feOffset dx="4" dy="6"/>
<feGaussianBlur stdDeviation="11"/>
<feColorMatrix type="matrix" values="0 0 0 0 0.6 0 0 0 0 0.6 0 0 0 0 0.6 0 0 0 0.21 0"/>
<feBlend mode="normal" in2="BackgroundImageFix" result="effect1_dropShadow"/>
<feBlend mode="normal" in="SourceGraphic" in2="effect1_dropShadow" result="shape"/>
</filter>
<linearGradient id="paint0_linear" x1="187.5" y1="0" x2="187.5" y2="667" gradientUnits="userSpaceOnUse">
<stop stop-color="#FF8552"/>
<stop offset="0.392242" stop-color="white"/>
</linearGradient>
<linearGradient id="paint1_linear" x1="187.5" y1="120" x2="187.5" y2="636" gradientUnits="userSpaceOnUse">
<stop stop-color="#F9F2E8"/>
<stop offset="0.149676" stop-color="white"/>
</linearGradient>
<clipPath id="clip0">
<rect width="375" height="667" fill="white"/>
</clipPath>
</defs>
</svg>
