<svg width="32" height="16" viewBox="0 0 32 16" fill="none" xmlns="http://www.w3.org/2000/svg">
<path d="M31.2482 5.63906L31.2187 5.62767C30.281 5.26407 29.474 4.53571 28.9048 3.55169C29.4892 2.96327 30.0527 2.33379 30.5909 1.66129C30.8951 1.28125 30.8951 0.665101 30.5909 0.28496C30.2868 -0.0949867 29.7936 -0.0949867 29.4895 0.28496C26.4349 4.10165 22.5332 6.47496 18.3141 7.13179C18.2859 7.13422 18.258 7.13831 18.2306 7.14434C17.4629 7.25967 16.6851 7.31875 15.9 7.31884L15.8987 7.31874L15.8975 7.31884C15.1124 7.31884 14.3345 7.25967 13.5668 7.14434C13.5394 7.13821 13.5116 7.13412 13.4833 7.13179C9.26422 6.47496 5.3625 4.10165 2.30792 0.28496C2.00376 -0.0948894 1.51063 -0.0949867 1.20647 0.28496C0.902301 0.665004 0.902301 1.28115 1.20647 1.66129C1.74469 2.33379 2.30816 2.96337 2.89257 3.55169C2.3235 4.53571 1.51663 5.26417 0.579754 5.62728L0.549221 5.63906C0.13819 5.79769 -0.092056 6.3425 0.0349064 6.85607C0.13819 7.27398 0.446249 7.54229 0.778766 7.54229C0.854943 7.54229 0.932367 7.52818 1.00886 7.49869L1.0404 7.48653C2.29507 7.00001 3.37573 6.02786 4.14093 4.71508C4.40732 4.94446 4.67737 5.16578 4.95116 5.37862C4.57081 6.8698 3.6806 8.07474 2.49985 8.66004L2.2587 8.77946C1.8588 8.97761 1.6633 9.54324 1.8218 10.0428C1.943 10.4248 2.23603 10.6574 2.54596 10.6574C2.64153 10.6574 2.73866 10.6352 2.83291 10.5886L3.07429 10.469C4.58935 9.71794 5.75702 8.22336 6.32772 6.35876C6.6269 6.55321 6.92951 6.73822 7.23554 6.91379C7.14628 8.58257 6.37407 10.0722 5.17525 10.8537L5.12882 10.884C4.74739 11.1324 4.5994 11.7201 4.79818 12.1967C4.93706 12.5297 5.20843 12.7202 5.48938 12.7202C5.61066 12.7202 5.7338 12.6847 5.84877 12.6098L5.89543 12.5794C7.4249 11.5823 8.45944 9.76494 8.73058 7.68399C9.06092 7.83533 9.39429 7.97645 9.73086 8.10657C9.68631 9.6502 9.20728 11.1173 8.36862 12.2605C8.07793 12.6567 8.09935 13.2722 8.41653 13.6355C8.56608 13.8067 8.75457 13.8912 8.94253 13.8912C9.1533 13.8912 9.36337 13.7849 9.51689 13.5756C10.5262 12.1998 11.1352 10.4628 11.2658 8.62033C11.7134 8.74705 12.1656 8.85439 12.6214 8.94403C12.5204 10.439 12.1533 11.8928 11.5424 13.1917L11.4376 13.4146C11.2197 13.8781 11.3438 14.4744 11.7147 14.7467C11.8387 14.8376 11.9744 14.8809 12.1086 14.8809C12.3757 14.8809 12.6357 14.7089 12.7808 14.4003L12.8856 14.1775C13.6055 12.6469 14.042 10.9357 14.1689 9.17497C14.4846 9.20729 14.8016 9.23055 15.1198 9.24514V15.0269C15.1198 15.5643 15.4685 16 15.8987 16C16.3288 16 16.6775 15.5642 16.6775 15.0269V9.24514C16.9958 9.23055 17.3128 9.20729 17.6284 9.17497C17.7554 10.9355 18.1918 12.6469 18.9116 14.1773L19.0165 14.4003C19.1616 14.709 19.4217 14.8809 19.6888 14.8809C19.8228 14.8809 19.9587 14.8376 20.0826 14.7467C20.4535 14.4744 20.5775 13.8781 20.3597 13.4146L20.2548 13.1915C19.6441 11.8928 19.2769 10.4388 19.1759 8.94403C19.6317 8.8543 20.0839 8.74705 20.5315 8.62033C20.6621 10.4627 21.2711 12.1998 22.2804 13.5756C22.434 13.7849 22.644 13.8912 22.8548 13.8912C23.0428 13.8912 23.2313 13.8066 23.3808 13.6355C23.6979 13.2722 23.7194 12.6567 23.4287 12.2605C22.5901 11.1173 22.111 9.65001 22.0665 8.10657C22.403 7.97645 22.7364 7.83543 23.0667 7.68399C23.3379 9.76504 24.3725 11.5824 25.9021 12.5795L25.9486 12.6098C26.0636 12.6847 26.1867 12.7202 26.3079 12.7202C26.589 12.7202 26.8603 12.5296 26.9991 12.1967C27.198 11.7201 27.05 11.1323 26.6685 10.884L26.6223 10.8538C25.4233 10.0723 24.651 8.58257 24.5618 6.91379C24.8679 6.73822 25.1705 6.55321 25.4696 6.35876C26.0402 8.22336 27.2079 9.71794 28.7231 10.4691L28.9644 10.5887C29.0587 10.6353 29.1558 10.6575 29.2514 10.6575C29.5613 10.6575 29.8543 10.4246 29.9755 10.0429C30.1341 9.54324 29.9385 8.9777 29.5386 8.77955L29.2975 8.66004C28.1167 8.07465 27.2264 6.8697 26.8461 5.37852C27.1199 5.16568 27.3899 4.94437 27.6563 4.71498C28.4215 6.02786 29.5023 7.00001 30.7579 7.48682L30.7884 7.4986C30.865 7.52818 30.9424 7.5422 31.0185 7.5422C31.3511 7.5422 31.6591 7.27378 31.7623 6.85598C31.8895 6.3425 31.6593 5.79769 31.2482 5.63906Z" fill="#FF8552"/>
</svg>
